<?xml version="1.0" encoding="utf-8" standalone="no"?>
<!DOCTYPE svg PUBLIC "-//W3C//DTD SVG 1.1//EN"
  "http://www.w3.org/Graphics/SVG/1.1/DTD/svg11.dtd">
<svg xmlns:xlink="http://www.w3.org/1999/xlink" width="720pt" height="432pt" viewBox="0 0 720 432" xmlns="http://www.w3.org/2000/svg" version="1.1">
 <metadata>
  <rdf:RDF xmlns:dc="http://purl.org/dc/elements/1.1/" xmlns:cc="http://creativecommons.org/ns#" xmlns:rdf="http://www.w3.org/1999/02/22-rdf-syntax-ns#">
   <cc:Work>
    <dc:type rdf:resource="http://purl.org/dc/dcmitype/StillImage"/>
    <dc:date>2025-11-27T13:40:07.409358</dc:date>
    <dc:format>image/svg+xml</dc:format>
    <dc:creator>
     <cc:Agent>
      <dc:title>Matplotlib v3.10.3, https://matplotlib.org/</dc:title>
     </cc:Agent>
    </dc:creator>
   </cc:Work>
  </rdf:RDF>
 </metadata>
 <defs>
  <style type="text/css">*{stroke-linejoin: round; stroke-linecap: butt}</style>
 </defs>
 <g id="figure_1">
  <g id="patch_1">
   <path d="M 0 432 
L 720 432 
L 720 0 
L 0 0 
z
" style="fill: #ffffff"/>
  </g>
  <g id="axes_1">
   <g id="patch_2">
    <path d="M 90 384.48 
L 648 384.48 
L 648 51.84 
L 90 51.84 
z
" style="fill: #ffffff"/>
   </g>
   <g id="matplotlib.axis_1">
    <g id="xtick_1">
     <g id="line2d_1">
      <defs>
       <path id="m811bbdd326" d="M 0 0 
L 0 3.5 
" style="stroke: #262626; stroke-width: 0.8"/>
      </defs>
      <g>
       <use xlink:href="#m811bbdd326" x="132.922986" y="384.48" style="fill: #262626; stroke: #262626; stroke-width: 0.8"/>
      </g>
     </g>
     <g id="text_1">
      <!-- −5 -->
      <g style="fill: #262626" transform="translate(127.222205 398.637812) scale(0.1 -0.1)">
       <defs>
        <path id="ArialMT-2212" d="M 3381 1997 
L 356 1997 
L 356 2522 
L 3381 2522 
L 3381 1997 
z
" transform="scale(0.015625)"/>
        <path id="ArialMT-35" d="M 266 1200 
L 856 1250 
Q 922 819 1161 601 
Q 1400 384 1738 384 
Q 2144 384 2425 690 
Q 2706 997 2706 1503 
Q 2706 1984 2436 2262 
Q 2166 2541 1728 2541 
Q 1456 2541 1237 2417 
Q 1019 2294 894 2097 
L 366 2166 
L 809 4519 
L 3088 4519 
L 3088 3981 
L 1259 3981 
L 1013 2750 
Q 1425 3038 1878 3038 
Q 2478 3038 2890 2622 
Q 3303 2206 3303 1553 
Q 3303 931 2941 478 
Q 2500 -78 1738 -78 
Q 1113 -78 717 272 
Q 322 622 266 1200 
z
" transform="scale(0.015625)"/>
       </defs>
       <use xlink:href="#ArialMT-2212"/>
       <use xlink:href="#ArialMT-35" transform="translate(58.398438 0)"/>
      </g>
     </g>
    </g>
    <g id="xtick_2">
     <g id="line2d_2">
      <g>
       <use xlink:href="#m811bbdd326" x="211.615324" y="384.48" style="fill: #262626; stroke: #262626; stroke-width: 0.8"/>
      </g>
     </g>
     <g id="text_2">
      <!-- 0 -->
      <g style="fill: #262626" transform="translate(208.834855 398.637812) scale(0.1 -0.1)">
       <defs>
        <path id="ArialMT-30" d="M 266 2259 
Q 266 3072 433 3567 
Q 600 4063 929 4331 
Q 1259 4600 1759 4600 
Q 2128 4600 2406 4451 
Q 2684 4303 2865 4023 
Q 3047 3744 3150 3342 
Q 3253 2941 3253 2259 
Q 3253 1453 3087 958 
Q 2922 463 2592 192 
Q 2263 -78 1759 -78 
Q 1097 -78 719 397 
Q 266 969 266 2259 
z
M 844 2259 
Q 844 1131 1108 757 
Q 1372 384 1759 384 
Q 2147 384 2411 759 
Q 2675 1134 2675 2259 
Q 2675 3391 2411 3762 
Q 2147 4134 1753 4134 
Q 1366 4134 1134 3806 
Q 844 3388 844 2259 
z
" transform="scale(0.015625)"/>
       </defs>
       <use xlink:href="#ArialMT-30"/>
      </g>
     </g>
    </g>
    <g id="xtick_3">
     <g id="line2d_3">
      <g>
       <use xlink:href="#m811bbdd326" x="290.307662" y="384.48" style="fill: #262626; stroke: #262626; stroke-width: 0.8"/>
      </g>
     </g>
     <g id="text_3">
      <!-- 5 -->
      <g style="fill: #262626" transform="translate(287.527193 398.637812) scale(0.1 -0.1)">
       <use xlink:href="#ArialMT-35"/>
      </g>
     </g>
    </g>
    <g id="xtick_4">
     <g id="line2d_4">
      <g>
       <use xlink:href="#m811bbdd326" x="369" y="384.48" style="fill: #262626; stroke: #262626; stroke-width: 0.8"/>
      </g>
     </g>
     <g id="text_4">
      <!-- 10 -->
      <g style="fill: #262626" transform="translate(363.439063 398.637812) scale(0.1 -0.1)">
       <defs>
        <path id="ArialMT-31" d="M 2384 0 
L 1822 0 
L 1822 3584 
Q 1619 3391 1289 3197 
Q 959 3003 697 2906 
L 697 3450 
Q 1169 3672 1522 3987 
Q 1875 4303 2022 4600 
L 2384 4600 
L 2384 0 
z
" transform="scale(0.015625)"/>
       </defs>
       <use xlink:href="#ArialMT-31"/>
       <use xlink:href="#ArialMT-30" transform="translate(55.615234 0)"/>
      </g>
     </g>
    </g>
    <g id="xtick_5">
     <g id="line2d_5">
      <g>
       <use xlink:href="#m811bbdd326" x="447.692338" y="384.48" style="fill: #262626; stroke: #262626; stroke-width: 0.8"/>
      </g>
     </g>
     <g id="text_5">
      <!-- 15 -->
      <g style="fill: #262626" transform="translate(442.1314 398.637812) scale(0.1 -0.1)">
       <use xlink:href="#ArialMT-31"/>
       <use xlink:href="#ArialMT-35" transform="translate(55.615234 0)"/>
      </g>
     </g>
    </g>
    <g id="xtick_6">
     <g id="line2d_6">
      <g>
       <use xlink:href="#m811bbdd326" x="526.384676" y="384.48" style="fill: #262626; stroke: #262626; stroke-width: 0.8"/>
      </g>
     </g>
     <g id="text_6">
      <!-- 20 -->
      <g style="fill: #262626" transform="translate(520.823738 398.637812) scale(0.1 -0.1)">
       <defs>
        <path id="ArialMT-32" d="M 3222 541 
L 3222 0 
L 194 0 
Q 188 203 259 391 
Q 375 700 629 1000 
Q 884 1300 1366 1694 
Q 2113 2306 2375 2664 
Q 2638 3022 2638 3341 
Q 2638 3675 2398 3904 
Q 2159 4134 1775 4134 
Q 1369 4134 1125 3890 
Q 881 3647 878 3216 
L 300 3275 
Q 359 3922 746 4261 
Q 1134 4600 1788 4600 
Q 2447 4600 2831 4234 
Q 3216 3869 3216 3328 
Q 3216 3053 3103 2787 
Q 2991 2522 2730 2228 
Q 2469 1934 1863 1422 
Q 1356 997 1212 845 
Q 1069 694 975 541 
L 3222 541 
z
" transform="scale(0.015625)"/>
       </defs>
       <use xlink:href="#ArialMT-32"/>
       <use xlink:href="#ArialMT-30" transform="translate(55.615234 0)"/>
      </g>
     </g>
    </g>
    <g id="xtick_7">
     <g id="line2d_7">
      <g>
       <use xlink:href="#m811bbdd326" x="605.077014" y="384.48" style="fill: #262626; stroke: #262626; stroke-width: 0.8"/>
      </g>
     </g>
     <g id="text_7">
      <!-- 25 -->
      <g style="fill: #262626" transform="translate(599.516076 398.637812) scale(0.1 -0.1)">
       <use xlink:href="#ArialMT-32"/>
       <use xlink:href="#ArialMT-35" transform="translate(55.615234 0)"/>
      </g>
     </g>
    </g>
    <g id="text_8">
     <!-- Difference in years -->
     <g style="fill: #262626" transform="translate(310.767656 414.816875) scale(0.14 -0.14)">
      <defs>
       <path id="ArialMT-44" d="M 494 0 
L 494 4581 
L 2072 4581 
Q 2606 4581 2888 4516 
Q 3281 4425 3559 4188 
Q 3922 3881 4101 3404 
Q 4281 2928 4281 2316 
Q 4281 1794 4159 1391 
Q 4038 988 3847 723 
Q 3656 459 3429 307 
Q 3203 156 2883 78 
Q 2563 0 2147 0 
L 494 0 
z
M 1100 541 
L 2078 541 
Q 2531 541 2789 625 
Q 3047 709 3200 863 
Q 3416 1078 3536 1442 
Q 3656 1806 3656 2325 
Q 3656 3044 3420 3430 
Q 3184 3816 2847 3947 
Q 2603 4041 2063 4041 
L 1100 4041 
L 1100 541 
z
" transform="scale(0.015625)"/>
       <path id="ArialMT-69" d="M 425 3934 
L 425 4581 
L 988 4581 
L 988 3934 
L 425 3934 
z
M 425 0 
L 425 3319 
L 988 3319 
L 988 0 
L 425 0 
z
" transform="scale(0.015625)"/>
       <path id="ArialMT-66" d="M 556 0 
L 556 2881 
L 59 2881 
L 59 3319 
L 556 3319 
L 556 3672 
Q 556 4006 616 4169 
Q 697 4388 901 4523 
Q 1106 4659 1475 4659 
Q 1713 4659 2000 4603 
L 1916 4113 
Q 1741 4144 1584 4144 
Q 1328 4144 1222 4034 
Q 1116 3925 1116 3625 
L 1116 3319 
L 1763 3319 
L 1763 2881 
L 1116 2881 
L 1116 0 
L 556 0 
z
" transform="scale(0.015625)"/>
       <path id="ArialMT-65" d="M 2694 1069 
L 3275 997 
Q 3138 488 2766 206 
Q 2394 -75 1816 -75 
Q 1088 -75 661 373 
Q 234 822 234 1631 
Q 234 2469 665 2931 
Q 1097 3394 1784 3394 
Q 2450 3394 2872 2941 
Q 3294 2488 3294 1666 
Q 3294 1616 3291 1516 
L 816 1516 
Q 847 969 1125 678 
Q 1403 388 1819 388 
Q 2128 388 2347 550 
Q 2566 713 2694 1069 
z
M 847 1978 
L 2700 1978 
Q 2663 2397 2488 2606 
Q 2219 2931 1791 2931 
Q 1403 2931 1139 2672 
Q 875 2413 847 1978 
z
" transform="scale(0.015625)"/>
       <path id="ArialMT-72" d="M 416 0 
L 416 3319 
L 922 3319 
L 922 2816 
Q 1116 3169 1280 3281 
Q 1444 3394 1641 3394 
Q 1925 3394 2219 3213 
L 2025 2691 
Q 1819 2813 1613 2813 
Q 1428 2813 1281 2702 
Q 1134 2591 1072 2394 
Q 978 2094 978 1738 
L 978 0 
L 416 0 
z
" transform="scale(0.015625)"/>
       <path id="ArialMT-6e" d="M 422 0 
L 422 3319 
L 928 3319 
L 928 2847 
Q 1294 3394 1984 3394 
Q 2284 3394 2536 3286 
Q 2788 3178 2913 3003 
Q 3038 2828 3088 2588 
Q 3119 2431 3119 2041 
L 3119 0 
L 2556 0 
L 2556 2019 
Q 2556 2363 2490 2533 
Q 2425 2703 2258 2804 
Q 2091 2906 1866 2906 
Q 1506 2906 1245 2678 
Q 984 2450 984 1813 
L 984 0 
L 422 0 
z
" transform="scale(0.015625)"/>
       <path id="ArialMT-63" d="M 2588 1216 
L 3141 1144 
Q 3050 572 2676 248 
Q 2303 -75 1759 -75 
Q 1078 -75 664 370 
Q 250 816 250 1647 
Q 250 2184 428 2587 
Q 606 2991 970 3192 
Q 1334 3394 1763 3394 
Q 2303 3394 2647 3120 
Q 2991 2847 3088 2344 
L 2541 2259 
Q 2463 2594 2264 2762 
Q 2066 2931 1784 2931 
Q 1359 2931 1093 2626 
Q 828 2322 828 1663 
Q 828 994 1084 691 
Q 1341 388 1753 388 
Q 2084 388 2306 591 
Q 2528 794 2588 1216 
z
" transform="scale(0.015625)"/>
       <path id="ArialMT-20" transform="scale(0.015625)"/>
       <path id="ArialMT-79" d="M 397 -1278 
L 334 -750 
Q 519 -800 656 -800 
Q 844 -800 956 -737 
Q 1069 -675 1141 -563 
Q 1194 -478 1313 -144 
Q 1328 -97 1363 -6 
L 103 3319 
L 709 3319 
L 1400 1397 
Q 1534 1031 1641 628 
Q 1738 1016 1872 1384 
L 2581 3319 
L 3144 3319 
L 1881 -56 
Q 1678 -603 1566 -809 
Q 1416 -1088 1222 -1217 
Q 1028 -1347 759 -1347 
Q 597 -1347 397 -1278 
z
" transform="scale(0.015625)"/>
       <path id="ArialMT-61" d="M 2588 409 
Q 2275 144 1986 34 
Q 1697 -75 1366 -75 
Q 819 -75 525 192 
Q 231 459 231 875 
Q 231 1119 342 1320 
Q 453 1522 633 1644 
Q 813 1766 1038 1828 
Q 1203 1872 1538 1913 
Q 2219 1994 2541 2106 
Q 2544 2222 2544 2253 
Q 2544 2597 2384 2738 
Q 2169 2928 1744 2928 
Q 1347 2928 1158 2789 
Q 969 2650 878 2297 
L 328 2372 
Q 403 2725 575 2942 
Q 747 3159 1072 3276 
Q 1397 3394 1825 3394 
Q 2250 3394 2515 3294 
Q 2781 3194 2906 3042 
Q 3031 2891 3081 2659 
Q 3109 2516 3109 2141 
L 3109 1391 
Q 3109 606 3145 398 
Q 3181 191 3288 0 
L 2700 0 
Q 2613 175 2588 409 
z
M 2541 1666 
Q 2234 1541 1622 1453 
Q 1275 1403 1131 1340 
Q 988 1278 909 1158 
Q 831 1038 831 891 
Q 831 666 1001 516 
Q 1172 366 1500 366 
Q 1825 366 2078 508 
Q 2331 650 2450 897 
Q 2541 1088 2541 1459 
L 2541 1666 
z
" transform="scale(0.015625)"/>
       <path id="ArialMT-73" d="M 197 991 
L 753 1078 
Q 800 744 1014 566 
Q 1228 388 1613 388 
Q 2000 388 2187 545 
Q 2375 703 2375 916 
Q 2375 1106 2209 1216 
Q 2094 1291 1634 1406 
Q 1016 1563 777 1677 
Q 538 1791 414 1992 
Q 291 2194 291 2438 
Q 291 2659 392 2848 
Q 494 3038 669 3163 
Q 800 3259 1026 3326 
Q 1253 3394 1513 3394 
Q 1903 3394 2198 3281 
Q 2494 3169 2634 2976 
Q 2775 2784 2828 2463 
L 2278 2388 
Q 2241 2644 2061 2787 
Q 1881 2931 1553 2931 
Q 1166 2931 1000 2803 
Q 834 2675 834 2503 
Q 834 2394 903 2306 
Q 972 2216 1119 2156 
Q 1203 2125 1616 2013 
Q 2213 1853 2448 1751 
Q 2684 1650 2818 1456 
Q 2953 1263 2953 975 
Q 2953 694 2789 445 
Q 2625 197 2315 61 
Q 2006 -75 1616 -75 
Q 969 -75 630 194 
Q 291 463 197 991 
z
" transform="scale(0.015625)"/>
      </defs>
      <use xlink:href="#ArialMT-44"/>
      <use xlink:href="#ArialMT-69" transform="translate(72.216797 0)"/>
      <use xlink:href="#ArialMT-66" transform="translate(94.433594 0)"/>
      <use xlink:href="#ArialMT-66" transform="translate(120.466797 0)"/>
      <use xlink:href="#ArialMT-65" transform="translate(148.25 0)"/>
      <use xlink:href="#ArialMT-72" transform="translate(203.865234 0)"/>
      <use xlink:href="#ArialMT-65" transform="translate(237.166016 0)"/>
      <use xlink:href="#ArialMT-6e" transform="translate(292.78125 0)"/>
      <use xlink:href="#ArialMT-63" transform="translate(348.396484 0)"/>
      <use xlink:href="#ArialMT-65" transform="translate(398.396484 0)"/>
      <use xlink:href="#ArialMT-20" transform="translate(454.011719 0)"/>
      <use xlink:href="#ArialMT-69" transform="translate(481.794922 0)"/>
      <use xlink:href="#ArialMT-6e" transform="translate(504.011719 0)"/>
      <use xlink:href="#ArialMT-20" transform="translate(559.626953 0)"/>
      <use xlink:href="#ArialMT-79" transform="translate(587.410156 0)"/>
      <use xlink:href="#ArialMT-65" transform="translate(637.410156 0)"/>
      <use xlink:href="#ArialMT-61" transform="translate(693.025391 0)"/>
      <use xlink:href="#ArialMT-72" transform="translate(748.640625 0)"/>
      <use xlink:href="#ArialMT-73" transform="translate(781.941406 0)"/>
     </g>
    </g>
   </g>
   <g id="matplotlib.axis_2">
    <g id="ytick_1">
     <g id="line2d_8">
      <defs>
       <path id="m2713d47964" d="M 0 0 
L -3.5 0 
" style="stroke: #262626; stroke-width: 0.8"/>
      </defs>
      <g>
       <use xlink:href="#m2713d47964" x="90" y="384.48" style="fill: #262626; stroke: #262626; stroke-width: 0.8"/>
      </g>
     </g>
     <g id="text_9">
      <!-- 0.000 -->
      <g style="fill: #262626" transform="translate(57.978125 388.058906) scale(0.1 -0.1)">
       <defs>
        <path id="ArialMT-2e" d="M 581 0 
L 581 641 
L 1222 641 
L 1222 0 
L 581 0 
z
" transform="scale(0.015625)"/>
       </defs>
       <use xlink:href="#ArialMT-30"/>
       <use xlink:href="#ArialMT-2e" transform="translate(55.615234 0)"/>
       <use xlink:href="#ArialMT-30" transform="translate(83.398438 0)"/>
       <use xlink:href="#ArialMT-30" transform="translate(139.013672 0)"/>
       <use xlink:href="#ArialMT-30" transform="translate(194.628906 0)"/>
      </g>
     </g>
    </g>
    <g id="ytick_2">
     <g id="line2d_9">
      <g>
       <use xlink:href="#m2713d47964" x="90" y="345.494992" style="fill: #262626; stroke: #262626; stroke-width: 0.8"/>
      </g>
     </g>
     <g id="text_10">
      <!-- 0.025 -->
      <g style="fill: #262626" transform="translate(57.978125 349.073898) scale(0.1 -0.1)">
       <use xlink:href="#ArialMT-30"/>
       <use xlink:href="#ArialMT-2e" transform="translate(55.615234 0)"/>
       <use xlink:href="#ArialMT-30" transform="translate(83.398438 0)"/>
       <use xlink:href="#ArialMT-32" transform="translate(139.013672 0)"/>
       <use xlink:href="#ArialMT-35" transform="translate(194.628906 0)"/>
      </g>
     </g>
    </g>
    <g id="ytick_3">
     <g id="line2d_10">
      <g>
       <use xlink:href="#m2713d47964" x="90" y="306.509984" style="fill: #262626; stroke: #262626; stroke-width: 0.8"/>
      </g>
     </g>
     <g id="text_11">
      <!-- 0.050 -->
      <g style="fill: #262626" transform="translate(57.978125 310.08889) scale(0.1 -0.1)">
       <use xlink:href="#ArialMT-30"/>
       <use xlink:href="#ArialMT-2e" transform="translate(55.615234 0)"/>
       <use xlink:href="#ArialMT-30" transform="translate(83.398438 0)"/>
       <use xlink:href="#ArialMT-35" transform="translate(139.013672 0)"/>
       <use xlink:href="#ArialMT-30" transform="translate(194.628906 0)"/>
      </g>
     </g>
    </g>
    <g id="ytick_4">
     <g id="line2d_11">
      <g>
       <use xlink:href="#m2713d47964" x="90" y="267.524975" style="fill: #262626; stroke: #262626; stroke-width: 0.8"/>
      </g>
     </g>
     <g id="text_12">
      <!-- 0.075 -->
      <g style="fill: #262626" transform="translate(57.978125 271.103882) scale(0.1 -0.1)">
       <defs>
        <path id="ArialMT-37" d="M 303 3981 
L 303 4522 
L 3269 4522 
L 3269 4084 
Q 2831 3619 2401 2847 
Q 1972 2075 1738 1259 
Q 1569 684 1522 0 
L 944 0 
Q 953 541 1156 1306 
Q 1359 2072 1739 2783 
Q 2119 3494 2547 3981 
L 303 3981 
z
" transform="scale(0.015625)"/>
       </defs>
       <use xlink:href="#ArialMT-30"/>
       <use xlink:href="#ArialMT-2e" transform="translate(55.615234 0)"/>
       <use xlink:href="#ArialMT-30" transform="translate(83.398438 0)"/>
       <use xlink:href="#ArialMT-37" transform="translate(139.013672 0)"/>
       <use xlink:href="#ArialMT-35" transform="translate(194.628906 0)"/>
      </g>
     </g>
    </g>
    <g id="ytick_5">
     <g id="line2d_12">
      <g>
       <use xlink:href="#m2713d47964" x="90" y="228.539967" style="fill: #262626; stroke: #262626; stroke-width: 0.8"/>
      </g>
     </g>
     <g id="text_13">
      <!-- 0.100 -->
      <g style="fill: #262626" transform="translate(57.978125 232.118873) scale(0.1 -0.1)">
       <use xlink:href="#ArialMT-30"/>
       <use xlink:href="#ArialMT-2e" transform="translate(55.615234 0)"/>
       <use xlink:href="#ArialMT-31" transform="translate(83.398438 0)"/>
       <use xlink:href="#ArialMT-30" transform="translate(139.013672 0)"/>
       <use xlink:href="#ArialMT-30" transform="translate(194.628906 0)"/>
      </g>
     </g>
    </g>
    <g id="ytick_6">
     <g id="line2d_13">
      <g>
       <use xlink:href="#m2713d47964" x="90" y="189.554959" style="fill: #262626; stroke: #262626; stroke-width: 0.8"/>
      </g>
     </g>
     <g id="text_14">
      <!-- 0.125 -->
      <g style="fill: #262626" transform="translate(57.978125 193.133865) scale(0.1 -0.1)">
       <use xlink:href="#ArialMT-30"/>
       <use xlink:href="#ArialMT-2e" transform="translate(55.615234 0)"/>
       <use xlink:href="#ArialMT-31" transform="translate(83.398438 0)"/>
       <use xlink:href="#ArialMT-32" transform="translate(139.013672 0)"/>
       <use xlink:href="#ArialMT-35" transform="translate(194.628906 0)"/>
      </g>
     </g>
    </g>
    <g id="ytick_7">
     <g id="line2d_14">
      <g>
       <use xlink:href="#m2713d47964" x="90" y="150.569951" style="fill: #262626; stroke: #262626; stroke-width: 0.8"/>
      </g>
     </g>
     <g id="text_15">
      <!-- 0.150 -->
      <g style="fill: #262626" transform="translate(57.978125 154.148857) scale(0.1 -0.1)">
       <use xlink:href="#ArialMT-30"/>
       <use xlink:href="#ArialMT-2e" transform="translate(55.615234 0)"/>
       <use xlink:href="#ArialMT-31" transform="translate(83.398438 0)"/>
       <use xlink:href="#ArialMT-35" transform="translate(139.013672 0)"/>
       <use xlink:href="#ArialMT-30" transform="translate(194.628906 0)"/>
      </g>
     </g>
    </g>
    <g id="ytick_8">
     <g id="line2d_15">
      <g>
       <use xlink:href="#m2713d47964" x="90" y="111.584942" style="fill: #262626; stroke: #262626; stroke-width: 0.8"/>
      </g>
     </g>
     <g id="text_16">
      <!-- 0.175 -->
      <g style="fill: #262626" transform="translate(57.978125 115.163849) scale(0.1 -0.1)">
       <use xlink:href="#ArialMT-30"/>
       <use xlink:href="#ArialMT-2e" transform="translate(55.615234 0)"/>
       <use xlink:href="#ArialMT-31" transform="translate(83.398438 0)"/>
       <use xlink:href="#ArialMT-37" transform="translate(139.013672 0)"/>
       <use xlink:href="#ArialMT-35" transform="translate(194.628906 0)"/>
      </g>
     </g>
    </g>
    <g id="ytick_9">
     <g id="line2d_16">
      <g>
       <use xlink:href="#m2713d47964" x="90" y="72.599934" style="fill: #262626; stroke: #262626; stroke-width: 0.8"/>
      </g>
     </g>
     <g id="text_17">
      <!-- 0.200 -->
      <g style="fill: #262626" transform="translate(57.978125 76.17884) scale(0.1 -0.1)">
       <use xlink:href="#ArialMT-30"/>
       <use xlink:href="#ArialMT-2e" transform="translate(55.615234 0)"/>
       <use xlink:href="#ArialMT-32" transform="translate(83.398438 0)"/>
       <use xlink:href="#ArialMT-30" transform="translate(139.013672 0)"/>
       <use xlink:href="#ArialMT-30" transform="translate(194.628906 0)"/>
      </g>
     </g>
    </g>
    <g id="text_18">
     <!-- Target-disease evidence with probes (%) -->
     <g style="fill: #262626" transform="translate(51.031562 344.599687) rotate(-90) scale(0.14 -0.14)">
      <defs>
       <path id="ArialMT-54" d="M 1659 0 
L 1659 4041 
L 150 4041 
L 150 4581 
L 3781 4581 
L 3781 4041 
L 2266 4041 
L 2266 0 
L 1659 0 
z
" transform="scale(0.015625)"/>
       <path id="ArialMT-67" d="M 319 -275 
L 866 -356 
Q 900 -609 1056 -725 
Q 1266 -881 1628 -881 
Q 2019 -881 2231 -725 
Q 2444 -569 2519 -288 
Q 2563 -116 2559 434 
Q 2191 0 1641 0 
Q 956 0 581 494 
Q 206 988 206 1678 
Q 206 2153 378 2554 
Q 550 2956 876 3175 
Q 1203 3394 1644 3394 
Q 2231 3394 2613 2919 
L 2613 3319 
L 3131 3319 
L 3131 450 
Q 3131 -325 2973 -648 
Q 2816 -972 2473 -1159 
Q 2131 -1347 1631 -1347 
Q 1038 -1347 672 -1080 
Q 306 -813 319 -275 
z
M 784 1719 
Q 784 1066 1043 766 
Q 1303 466 1694 466 
Q 2081 466 2343 764 
Q 2606 1063 2606 1700 
Q 2606 2309 2336 2618 
Q 2066 2928 1684 2928 
Q 1309 2928 1046 2623 
Q 784 2319 784 1719 
z
" transform="scale(0.015625)"/>
       <path id="ArialMT-74" d="M 1650 503 
L 1731 6 
Q 1494 -44 1306 -44 
Q 1000 -44 831 53 
Q 663 150 594 308 
Q 525 466 525 972 
L 525 2881 
L 113 2881 
L 113 3319 
L 525 3319 
L 525 4141 
L 1084 4478 
L 1084 3319 
L 1650 3319 
L 1650 2881 
L 1084 2881 
L 1084 941 
Q 1084 700 1114 631 
Q 1144 563 1211 522 
Q 1278 481 1403 481 
Q 1497 481 1650 503 
z
" transform="scale(0.015625)"/>
       <path id="ArialMT-2d" d="M 203 1375 
L 203 1941 
L 1931 1941 
L 1931 1375 
L 203 1375 
z
" transform="scale(0.015625)"/>
       <path id="ArialMT-64" d="M 2575 0 
L 2575 419 
Q 2259 -75 1647 -75 
Q 1250 -75 917 144 
Q 584 363 401 755 
Q 219 1147 219 1656 
Q 219 2153 384 2558 
Q 550 2963 881 3178 
Q 1213 3394 1622 3394 
Q 1922 3394 2156 3267 
Q 2391 3141 2538 2938 
L 2538 4581 
L 3097 4581 
L 3097 0 
L 2575 0 
z
M 797 1656 
Q 797 1019 1065 703 
Q 1334 388 1700 388 
Q 2069 388 2326 689 
Q 2584 991 2584 1609 
Q 2584 2291 2321 2609 
Q 2059 2928 1675 2928 
Q 1300 2928 1048 2622 
Q 797 2316 797 1656 
z
" transform="scale(0.015625)"/>
       <path id="ArialMT-76" d="M 1344 0 
L 81 3319 
L 675 3319 
L 1388 1331 
Q 1503 1009 1600 663 
Q 1675 925 1809 1294 
L 2547 3319 
L 3125 3319 
L 1869 0 
L 1344 0 
z
" transform="scale(0.015625)"/>
       <path id="ArialMT-77" d="M 1034 0 
L 19 3319 
L 600 3319 
L 1128 1403 
L 1325 691 
Q 1338 744 1497 1375 
L 2025 3319 
L 2603 3319 
L 3100 1394 
L 3266 759 
L 3456 1400 
L 4025 3319 
L 4572 3319 
L 3534 0 
L 2950 0 
L 2422 1988 
L 2294 2553 
L 1622 0 
L 1034 0 
z
" transform="scale(0.015625)"/>
       <path id="ArialMT-68" d="M 422 0 
L 422 4581 
L 984 4581 
L 984 2938 
Q 1378 3394 1978 3394 
Q 2347 3394 2619 3248 
Q 2891 3103 3008 2847 
Q 3125 2591 3125 2103 
L 3125 0 
L 2563 0 
L 2563 2103 
Q 2563 2525 2380 2717 
Q 2197 2909 1863 2909 
Q 1613 2909 1392 2779 
Q 1172 2650 1078 2428 
Q 984 2206 984 1816 
L 984 0 
L 422 0 
z
" transform="scale(0.015625)"/>
       <path id="ArialMT-70" d="M 422 -1272 
L 422 3319 
L 934 3319 
L 934 2888 
Q 1116 3141 1344 3267 
Q 1572 3394 1897 3394 
Q 2322 3394 2647 3175 
Q 2972 2956 3137 2557 
Q 3303 2159 3303 1684 
Q 3303 1175 3120 767 
Q 2938 359 2589 142 
Q 2241 -75 1856 -75 
Q 1575 -75 1351 44 
Q 1128 163 984 344 
L 984 -1272 
L 422 -1272 
z
M 931 1641 
Q 931 1000 1190 694 
Q 1450 388 1819 388 
Q 2194 388 2461 705 
Q 2728 1022 2728 1688 
Q 2728 2322 2467 2637 
Q 2206 2953 1844 2953 
Q 1484 2953 1207 2617 
Q 931 2281 931 1641 
z
" transform="scale(0.015625)"/>
       <path id="ArialMT-6f" d="M 213 1659 
Q 213 2581 725 3025 
Q 1153 3394 1769 3394 
Q 2453 3394 2887 2945 
Q 3322 2497 3322 1706 
Q 3322 1066 3130 698 
Q 2938 331 2570 128 
Q 2203 -75 1769 -75 
Q 1072 -75 642 372 
Q 213 819 213 1659 
z
M 791 1659 
Q 791 1022 1069 705 
Q 1347 388 1769 388 
Q 2188 388 2466 706 
Q 2744 1025 2744 1678 
Q 2744 2294 2464 2611 
Q 2184 2928 1769 2928 
Q 1347 2928 1069 2612 
Q 791 2297 791 1659 
z
" transform="scale(0.015625)"/>
       <path id="ArialMT-62" d="M 941 0 
L 419 0 
L 419 4581 
L 981 4581 
L 981 2947 
Q 1338 3394 1891 3394 
Q 2197 3394 2470 3270 
Q 2744 3147 2920 2923 
Q 3097 2700 3197 2384 
Q 3297 2069 3297 1709 
Q 3297 856 2875 390 
Q 2453 -75 1863 -75 
Q 1275 -75 941 416 
L 941 0 
z
M 934 1684 
Q 934 1088 1097 822 
Q 1363 388 1816 388 
Q 2184 388 2453 708 
Q 2722 1028 2722 1663 
Q 2722 2313 2464 2622 
Q 2206 2931 1841 2931 
Q 1472 2931 1203 2611 
Q 934 2291 934 1684 
z
" transform="scale(0.015625)"/>
       <path id="ArialMT-28" d="M 1497 -1347 
Q 1031 -759 709 28 
Q 388 816 388 1659 
Q 388 2403 628 3084 
Q 909 3875 1497 4659 
L 1900 4659 
Q 1522 4009 1400 3731 
Q 1209 3300 1100 2831 
Q 966 2247 966 1656 
Q 966 153 1900 -1347 
L 1497 -1347 
z
" transform="scale(0.015625)"/>
       <path id="ArialMT-25" d="M 372 3481 
Q 372 3972 619 4315 
Q 866 4659 1334 4659 
Q 1766 4659 2048 4351 
Q 2331 4044 2331 3447 
Q 2331 2866 2045 2552 
Q 1759 2238 1341 2238 
Q 925 2238 648 2547 
Q 372 2856 372 3481 
z
M 1350 4272 
Q 1141 4272 1002 4090 
Q 863 3909 863 3425 
Q 863 2984 1003 2804 
Q 1144 2625 1350 2625 
Q 1563 2625 1702 2806 
Q 1841 2988 1841 3469 
Q 1841 3913 1700 4092 
Q 1559 4272 1350 4272 
z
M 1353 -169 
L 3859 4659 
L 4316 4659 
L 1819 -169 
L 1353 -169 
z
M 3334 1075 
Q 3334 1569 3581 1911 
Q 3828 2253 4300 2253 
Q 4731 2253 5014 1945 
Q 5297 1638 5297 1041 
Q 5297 459 5011 145 
Q 4725 -169 4303 -169 
Q 3888 -169 3611 142 
Q 3334 453 3334 1075 
z
M 4316 1866 
Q 4103 1866 3964 1684 
Q 3825 1503 3825 1019 
Q 3825 581 3965 400 
Q 4106 219 4313 219 
Q 4528 219 4667 400 
Q 4806 581 4806 1063 
Q 4806 1506 4665 1686 
Q 4525 1866 4316 1866 
z
" transform="scale(0.015625)"/>
       <path id="ArialMT-29" d="M 791 -1347 
L 388 -1347 
Q 1322 153 1322 1656 
Q 1322 2244 1188 2822 
Q 1081 3291 891 3722 
Q 769 4003 388 4659 
L 791 4659 
Q 1378 3875 1659 3084 
Q 1900 2403 1900 1659 
Q 1900 816 1576 28 
Q 1253 -759 791 -1347 
z
" transform="scale(0.015625)"/>
      </defs>
      <use xlink:href="#ArialMT-54"/>
      <use xlink:href="#ArialMT-61" transform="translate(49.958984 0)"/>
      <use xlink:href="#ArialMT-72" transform="translate(105.574219 0)"/>
      <use xlink:href="#ArialMT-67" transform="translate(138.875 0)"/>
      <use xlink:href="#ArialMT-65" transform="translate(194.490234 0)"/>
      <use xlink:href="#ArialMT-74" transform="translate(250.105469 0)"/>
      <use xlink:href="#ArialMT-2d" transform="translate(277.888672 0)"/>
      <use xlink:href="#ArialMT-64" transform="translate(311.189453 0)"/>
      <use xlink:href="#ArialMT-69" transform="translate(366.804688 0)"/>
      <use xlink:href="#ArialMT-73" transform="translate(389.021484 0)"/>
      <use xlink:href="#ArialMT-65" transform="translate(439.021484 0)"/>
      <use xlink:href="#ArialMT-61" transform="translate(494.636719 0)"/>
      <use xlink:href="#ArialMT-73" transform="translate(550.251953 0)"/>
      <use xlink:href="#ArialMT-65" transform="translate(600.251953 0)"/>
      <use xlink:href="#ArialMT-20" transform="translate(655.867188 0)"/>
      <use xlink:href="#ArialMT-65" transform="translate(683.650391 0)"/>
      <use xlink:href="#ArialMT-76" transform="translate(739.265625 0)"/>
      <use xlink:href="#ArialMT-69" transform="translate(789.265625 0)"/>
      <use xlink:href="#ArialMT-64" transform="translate(811.482422 0)"/>
      <use xlink:href="#ArialMT-65" transform="translate(867.097656 0)"/>
      <use xlink:href="#ArialMT-6e" transform="translate(922.712891 0)"/>
      <use xlink:href="#ArialMT-63" transform="translate(978.328125 0)"/>
      <use xlink:href="#ArialMT-65" transform="translate(1028.328125 0)"/>
      <use xlink:href="#ArialMT-20" transform="translate(1083.943359 0)"/>
      <use xlink:href="#ArialMT-77" transform="translate(1111.726562 0)"/>
      <use xlink:href="#ArialMT-69" transform="translate(1183.943359 0)"/>
      <use xlink:href="#ArialMT-74" transform="translate(1206.160156 0)"/>
      <use xlink:href="#ArialMT-68" transform="translate(1233.943359 0)"/>
      <use xlink:href="#ArialMT-20" transform="translate(1289.558594 0)"/>
      <use xlink:href="#ArialMT-70" transform="translate(1317.341797 0)"/>
      <use xlink:href="#ArialMT-72" transform="translate(1372.957031 0)"/>
      <use xlink:href="#ArialMT-6f" transform="translate(1406.257812 0)"/>
      <use xlink:href="#ArialMT-62" transform="translate(1461.873047 0)"/>
      <use xlink:href="#ArialMT-65" transform="translate(1517.488281 0)"/>
      <use xlink:href="#ArialMT-73" transform="translate(1573.103516 0)"/>
      <use xlink:href="#ArialMT-20" transform="translate(1623.103516 0)"/>
      <use xlink:href="#ArialMT-28" transform="translate(1650.886719 0)"/>
      <use xlink:href="#ArialMT-25" transform="translate(1684.1875 0)"/>
      <use xlink:href="#ArialMT-29" transform="translate(1773.103516 0)"/>
     </g>
    </g>
   </g>
   <g id="FillBetweenPolyCollection_1">
    <defs>
     <path id="m6af6220eee" d="M 115.363636 -47.894326 
L 115.363636 -47.52 
L 117.912746 -47.52 
L 120.461855 -47.52 
L 123.010964 -47.52 
L 125.560073 -47.52 
L 128.109182 -47.52 
L 130.658291 -47.52 
L 133.207401 -47.52 
L 135.75651 -47.52 
L 138.305619 -47.52 
L 140.854728 -47.52 
L 143.403837 -47.52 
L 145.952947 -47.52 
L 148.502056 -47.52 
L 151.051165 -47.52 
L 153.600274 -47.52 
L 156.149383 -47.52 
L 158.698492 -47.52 
L 161.247602 -47.52 
L 163.796711 -47.52 
L 166.34582 -47.52 
L 168.894929 -47.52 
L 171.444038 -47.52 
L 173.993148 -47.52 
L 176.542257 -47.52 
L 179.091366 -47.52 
L 181.640475 -47.52 
L 184.189584 -47.52 
L 186.738693 -47.52 
L 189.287803 -47.52 
L 191.836912 -47.52 
L 194.386021 -47.52 
L 196.93513 -47.52 
L 199.484239 -47.52 
L 202.033349 -47.52 
L 204.582458 -47.52 
L 207.131567 -47.52 
L 209.680676 -47.52 
L 212.229785 -47.52 
L 214.778894 -47.52 
L 217.328004 -47.52 
L 219.877113 -47.52 
L 222.426222 -47.52 
L 224.975331 -47.52 
L 227.52444 -47.52 
L 230.07355 -47.52 
L 232.622659 -47.52 
L 235.171768 -47.52 
L 237.720877 -47.52 
L 240.269986 -47.52 
L 242.819095 -47.52 
L 245.368205 -47.52 
L 247.917314 -47.52 
L 250.466423 -47.52 
L 253.015532 -47.52 
L 255.564641 -47.52 
L 258.113751 -47.52 
L 260.66286 -47.52 
L 263.211969 -47.52 
L 265.761078 -47.52 
L 268.310187 -47.52 
L 270.859296 -47.52 
L 273.408406 -47.52 
L 275.957515 -47.52 
L 278.506624 -47.52 
L 281.055733 -47.52 
L 283.604842 -47.52 
L 286.153952 -47.52 
L 288.703061 -47.52 
L 291.25217 -47.52 
L 293.801279 -47.52 
L 296.350388 -47.52 
L 298.899497 -47.52 
L 301.448607 -47.52 
L 303.997716 -47.52 
L 306.546825 -47.52 
L 309.095934 -47.52 
L 311.645043 -47.52 
L 314.194153 -47.52 
L 316.743262 -47.52 
L 319.292371 -47.52 
L 321.84148 -47.52 
L 324.390589 -47.52 
L 326.939698 -47.52 
L 329.488808 -47.52 
L 332.037917 -47.52 
L 334.587026 -47.52 
L 337.136135 -47.52 
L 339.685244 -47.52 
L 342.234354 -47.52 
L 344.783463 -47.52 
L 347.332572 -47.52 
L 349.881681 -47.52 
L 352.43079 -47.52 
L 354.979899 -47.52 
L 357.529009 -47.52 
L 360.078118 -47.52 
L 362.627227 -47.52 
L 365.176336 -47.52 
L 367.725445 -47.52 
L 370.274555 -47.52 
L 372.823664 -47.52 
L 375.372773 -47.52 
L 377.921882 -47.52 
L 380.470991 -47.52 
L 383.020101 -47.52 
L 385.56921 -47.52 
L 388.118319 -47.52 
L 390.667428 -47.52 
L 393.216537 -47.52 
L 395.765646 -47.52 
L 398.314756 -47.52 
L 400.863865 -47.52 
L 403.412974 -47.52 
L 405.962083 -47.52 
L 408.511192 -47.52 
L 411.060302 -47.52 
L 413.609411 -47.52 
L 416.15852 -47.52 
L 418.707629 -47.52 
L 421.256738 -47.52 
L 423.805847 -47.52 
L 426.354957 -47.52 
L 428.904066 -47.52 
L 431.453175 -47.52 
L 434.002284 -47.52 
L 436.551393 -47.52 
L 439.100503 -47.52 
L 441.649612 -47.52 
L 444.198721 -47.52 
L 446.74783 -47.52 
L 449.296939 -47.52 
L 451.846048 -47.52 
L 454.395158 -47.52 
L 456.944267 -47.52 
L 459.493376 -47.52 
L 462.042485 -47.52 
L 464.591594 -47.52 
L 467.140704 -47.52 
L 469.689813 -47.52 
L 472.238922 -47.52 
L 474.788031 -47.52 
L 477.33714 -47.52 
L 479.886249 -47.52 
L 482.435359 -47.52 
L 484.984468 -47.52 
L 487.533577 -47.52 
L 490.082686 -47.52 
L 492.631795 -47.52 
L 495.180905 -47.52 
L 497.730014 -47.52 
L 500.279123 -47.52 
L 502.828232 -47.52 
L 505.377341 -47.52 
L 507.92645 -47.52 
L 510.47556 -47.52 
L 513.024669 -47.52 
L 515.573778 -47.52 
L 518.122887 -47.52 
L 520.671996 -47.52 
L 523.221106 -47.52 
L 525.770215 -47.52 
L 528.319324 -47.52 
L 530.868433 -47.52 
L 533.417542 -47.52 
L 535.966651 -47.52 
L 538.515761 -47.52 
L 541.06487 -47.52 
L 543.613979 -47.52 
L 546.163088 -47.52 
L 548.712197 -47.52 
L 551.261307 -47.52 
L 553.810416 -47.52 
L 556.359525 -47.52 
L 558.908634 -47.52 
L 561.457743 -47.52 
L 564.006852 -47.52 
L 566.555962 -47.52 
L 569.105071 -47.52 
L 571.65418 -47.52 
L 574.203289 -47.52 
L 576.752398 -47.52 
L 579.301508 -47.52 
L 581.850617 -47.52 
L 584.399726 -47.52 
L 586.948835 -47.52 
L 589.497944 -47.52 
L 592.047053 -47.52 
L 594.596163 -47.52 
L 597.145272 -47.52 
L 599.694381 -47.52 
L 602.24349 -47.52 
L 604.792599 -47.52 
L 607.341709 -47.52 
L 609.890818 -47.52 
L 612.439927 -47.52 
L 614.989036 -47.52 
L 617.538145 -47.52 
L 620.087254 -47.52 
L 622.636364 -47.52 
L 622.636364 -47.658748 
L 622.636364 -47.658748 
L 620.087254 -47.689896 
L 617.538145 -47.727069 
L 614.989036 -47.771201 
L 612.439927 -47.82332 
L 609.890818 -47.88455 
L 607.341709 -47.956102 
L 604.792599 -48.039271 
L 602.24349 -48.135425 
L 599.694381 -48.245991 
L 597.145272 -48.372437 
L 594.596163 -48.516251 
L 592.047053 -48.678912 
L 589.497944 -48.861861 
L 586.948835 -49.066465 
L 584.399726 -49.293977 
L 581.850617 -49.545497 
L 579.301508 -49.821925 
L 576.752398 -50.123915 
L 574.203289 -50.45183 
L 571.65418 -50.805696 
L 569.105071 -51.185162 
L 566.555962 -51.589458 
L 564.006852 -52.017366 
L 561.457743 -52.467193 
L 558.908634 -52.936758 
L 556.359525 -53.423384 
L 553.810416 -53.923911 
L 551.261307 -54.434707 
L 548.712197 -54.951711 
L 546.163088 -55.470473 
L 543.613979 -55.986221 
L 541.06487 -56.493933 
L 538.515761 -56.988422 
L 535.966651 -57.464438 
L 533.417542 -57.916767 
L 530.868433 -58.340351 
L 528.319324 -58.730397 
L 525.770215 -59.082497 
L 523.221106 -59.392743 
L 520.671996 -59.657833 
L 518.122887 -59.875175 
L 515.573778 -60.042976 
L 513.024669 -60.160317 
L 510.47556 -60.227214 
L 507.92645 -60.244665 
L 505.377341 -60.214667 
L 502.828232 -60.140229 
L 500.279123 -60.025354 
L 497.730014 -59.875006 
L 495.180905 -59.695061 
L 492.631795 -59.492235 
L 490.082686 -59.274005 
L 487.533577 -59.048511 
L 484.984468 -58.824451 
L 482.435359 -58.610963 
L 479.886249 -58.417506 
L 477.33714 -58.253735 
L 474.788031 -58.129378 
L 472.238922 -58.054108 
L 469.689813 -58.037422 
L 467.140704 -58.088528 
L 464.591594 -58.216229 
L 462.042485 -58.428826 
L 459.493376 -58.73402 
L 456.944267 -59.13883 
L 454.395158 -59.649515 
L 451.846048 -60.271516 
L 449.296939 -61.009401 
L 446.74783 -61.866822 
L 444.198721 -62.84649 
L 441.649612 -63.950156 
L 439.100503 -65.178606 
L 436.551393 -66.53167 
L 434.002284 -68.008233 
L 431.453175 -69.606273 
L 428.904066 -71.322895 
L 426.354957 -73.154385 
L 423.805847 -75.096264 
L 421.256738 -77.143361 
L 418.707629 -79.289882 
L 416.15852 -81.529492 
L 413.609411 -83.855397 
L 411.060302 -86.26043 
L 408.511192 -88.737138 
L 405.962083 -91.277865 
L 403.412974 -93.874835 
L 400.863865 -96.52023 
L 398.314756 -99.206264 
L 395.765646 -101.925248 
L 393.216537 -104.669648 
L 390.667428 -107.43214 
L 388.118319 -110.20565 
L 385.56921 -112.983388 
L 383.020101 -115.75888 
L 380.470991 -118.525985 
L 377.921882 -121.278908 
L 375.372773 -124.012211 
L 372.823664 -126.720813 
L 370.274555 -129.399991 
L 367.725445 -132.045372 
L 365.176336 -134.652931 
L 362.627227 -137.218974 
L 360.078118 -139.740136 
L 357.529009 -142.213359 
L 354.979899 -144.635884 
L 352.43079 -147.005231 
L 349.881681 -149.319183 
L 347.332572 -151.575765 
L 344.783463 -153.773219 
L 342.234354 -155.909981 
L 339.685244 -157.984649 
L 337.136135 -159.995948 
L 334.587026 -161.942698 
L 332.037917 -163.823764 
L 329.488808 -165.638015 
L 326.939698 -167.384275 
L 324.390589 -169.061263 
L 321.84148 -170.667542 
L 319.292371 -172.201457 
L 316.743262 -173.661078 
L 314.194153 -175.044133 
L 311.645043 -176.347957 
L 309.095934 -177.569432 
L 306.546825 -178.704937 
L 303.997716 -179.750305 
L 301.448607 -180.700786 
L 298.899497 -181.551029 
L 296.350388 -182.295064 
L 293.801279 -182.926316 
L 291.25217 -183.437623 
L 288.703061 -183.821283 
L 286.153952 -184.069113 
L 283.604842 -184.172544 
L 281.055733 -184.122721 
L 278.506624 -183.910639 
L 275.957515 -183.527294 
L 273.408406 -182.963858 
L 270.859296 -182.211864 
L 268.310187 -181.263411 
L 265.761078 -180.111377 
L 263.211969 -178.749633 
L 260.66286 -177.173259 
L 258.113751 -175.378755 
L 255.564641 -173.36423 
L 253.015532 -171.12958 
L 250.466423 -168.676638 
L 247.917314 -166.009288 
L 245.368205 -163.133546 
L 242.819095 -160.057603 
L 240.269986 -156.791818 
L 237.720877 -153.348671 
L 235.171768 -149.742664 
L 232.622659 -145.990187 
L 230.07355 -142.10933 
L 227.52444 -138.11966 
L 224.975331 -134.041971 
L 222.426222 -129.897994 
L 219.877113 -125.710092 
L 217.328004 -121.500944 
L 214.778894 -117.293216 
L 212.229785 -113.10924 
L 209.680676 -108.970698 
L 207.131567 -104.89833 
L 204.582458 -100.911657 
L 202.033349 -97.028742 
L 199.484239 -93.265983 
L 196.93513 -89.637943 
L 194.386021 -86.157222 
L 191.836912 -82.834372 
L 189.287803 -79.677855 
L 186.738693 -76.694039 
L 184.189584 -73.887237 
L 181.640475 -71.259775 
L 179.091366 -68.812102 
L 176.542257 -66.542916 
L 173.993148 -64.449319 
L 171.444038 -62.52699 
L 168.894929 -60.770361 
L 166.34582 -59.172812 
L 163.796711 -57.726855 
L 161.247602 -56.424327 
L 158.698492 -55.25657 
L 156.149383 -54.214599 
L 153.600274 -53.289263 
L 151.051165 -52.471391 
L 148.502056 -51.751915 
L 145.952947 -51.12198 
L 143.403837 -50.573041 
L 140.854728 -50.096937 
L 138.305619 -49.685944 
L 135.75651 -49.332828 
L 133.207401 -49.030862 
L 130.658291 -48.773851 
L 128.109182 -48.556128 
L 125.560073 -48.372553 
L 123.010964 -48.218497 
L 120.461855 -48.089819 
L 117.912746 -47.982843 
L 115.363636 -47.894326 
z
" style="stroke: #1f77b4"/>
    </defs>
    <g clip-path="url(#p7c8bb1de5c)">
     <use xlink:href="#m6af6220eee" x="0" y="432" style="fill: #1f77b4; fill-opacity: 0.25; stroke: #1f77b4"/>
    </g>
   </g>
   <g id="FillBetweenPolyCollection_2">
    <defs>
     <path id="mb58ce30a87" d="M 152.354066 -48.661177 
L 152.354066 -47.52 
L 154.135973 -47.52 
L 155.917881 -47.52 
L 157.699788 -47.52 
L 159.481695 -47.52 
L 161.263602 -47.52 
L 163.045509 -47.52 
L 164.827417 -47.52 
L 166.609324 -47.52 
L 168.391231 -47.52 
L 170.173138 -47.52 
L 171.955045 -47.52 
L 173.736952 -47.52 
L 175.51886 -47.52 
L 177.300767 -47.52 
L 179.082674 -47.52 
L 180.864581 -47.52 
L 182.646488 -47.52 
L 184.428396 -47.52 
L 186.210303 -47.52 
L 187.99221 -47.52 
L 189.774117 -47.52 
L 191.556024 -47.52 
L 193.337932 -47.52 
L 195.119839 -47.52 
L 196.901746 -47.52 
L 198.683653 -47.52 
L 200.46556 -47.52 
L 202.247467 -47.52 
L 204.029375 -47.52 
L 205.811282 -47.52 
L 207.593189 -47.52 
L 209.375096 -47.52 
L 211.157003 -47.52 
L 212.938911 -47.52 
L 214.720818 -47.52 
L 216.502725 -47.52 
L 218.284632 -47.52 
L 220.066539 -47.52 
L 221.848446 -47.52 
L 223.630354 -47.52 
L 225.412261 -47.52 
L 227.194168 -47.52 
L 228.976075 -47.52 
L 230.757982 -47.52 
L 232.53989 -47.52 
L 234.321797 -47.52 
L 236.103704 -47.52 
L 237.885611 -47.52 
L 239.667518 -47.52 
L 241.449425 -47.52 
L 243.231333 -47.52 
L 245.01324 -47.52 
L 246.795147 -47.52 
L 248.577054 -47.52 
L 250.358961 -47.52 
L 252.140869 -47.52 
L 253.922776 -47.52 
L 255.704683 -47.52 
L 257.48659 -47.52 
L 259.268497 -47.52 
L 261.050404 -47.52 
L 262.832312 -47.52 
L 264.614219 -47.52 
L 266.396126 -47.52 
L 268.178033 -47.52 
L 269.95994 -47.52 
L 271.741848 -47.52 
L 273.523755 -47.52 
L 275.305662 -47.52 
L 277.087569 -47.52 
L 278.869476 -47.52 
L 280.651383 -47.52 
L 282.433291 -47.52 
L 284.215198 -47.52 
L 285.997105 -47.52 
L 287.779012 -47.52 
L 289.560919 -47.52 
L 291.342827 -47.52 
L 293.124734 -47.52 
L 294.906641 -47.52 
L 296.688548 -47.52 
L 298.470455 -47.52 
L 300.252363 -47.52 
L 302.03427 -47.52 
L 303.816177 -47.52 
L 305.598084 -47.52 
L 307.379991 -47.52 
L 309.161898 -47.52 
L 310.943806 -47.52 
L 312.725713 -47.52 
L 314.50762 -47.52 
L 316.289527 -47.52 
L 318.071434 -47.52 
L 319.853342 -47.52 
L 321.635249 -47.52 
L 323.417156 -47.52 
L 325.199063 -47.52 
L 326.98097 -47.52 
L 328.762877 -47.52 
L 330.544785 -47.52 
L 332.326692 -47.52 
L 334.108599 -47.52 
L 335.890506 -47.52 
L 337.672413 -47.52 
L 339.454321 -47.52 
L 341.236228 -47.52 
L 343.018135 -47.52 
L 344.800042 -47.52 
L 346.581949 -47.52 
L 348.363856 -47.52 
L 350.145764 -47.52 
L 351.927671 -47.52 
L 353.709578 -47.52 
L 355.491485 -47.52 
L 357.273392 -47.52 
L 359.0553 -47.52 
L 360.837207 -47.52 
L 362.619114 -47.52 
L 364.401021 -47.52 
L 366.182928 -47.52 
L 367.964835 -47.52 
L 369.746743 -47.52 
L 371.52865 -47.52 
L 373.310557 -47.52 
L 375.092464 -47.52 
L 376.874371 -47.52 
L 378.656279 -47.52 
L 380.438186 -47.52 
L 382.220093 -47.52 
L 384.002 -47.52 
L 385.783907 -47.52 
L 387.565815 -47.52 
L 389.347722 -47.52 
L 391.129629 -47.52 
L 392.911536 -47.52 
L 394.693443 -47.52 
L 396.47535 -47.52 
L 398.257258 -47.52 
L 400.039165 -47.52 
L 401.821072 -47.52 
L 403.602979 -47.52 
L 405.384886 -47.52 
L 407.166794 -47.52 
L 408.948701 -47.52 
L 410.730608 -47.52 
L 412.512515 -47.52 
L 414.294422 -47.52 
L 416.076329 -47.52 
L 417.858237 -47.52 
L 419.640144 -47.52 
L 421.422051 -47.52 
L 423.203958 -47.52 
L 424.985865 -47.52 
L 426.767773 -47.52 
L 428.54968 -47.52 
L 430.331587 -47.52 
L 432.113494 -47.52 
L 433.895401 -47.52 
L 435.677308 -47.52 
L 437.459216 -47.52 
L 439.241123 -47.52 
L 441.02303 -47.52 
L 442.804937 -47.52 
L 444.586844 -47.52 
L 446.368752 -47.52 
L 448.150659 -47.52 
L 449.932566 -47.52 
L 451.714473 -47.52 
L 453.49638 -47.52 
L 455.278287 -47.52 
L 457.060195 -47.52 
L 458.842102 -47.52 
L 460.624009 -47.52 
L 462.405916 -47.52 
L 464.187823 -47.52 
L 465.969731 -47.52 
L 467.751638 -47.52 
L 469.533545 -47.52 
L 471.315452 -47.52 
L 473.097359 -47.52 
L 474.879267 -47.52 
L 476.661174 -47.52 
L 478.443081 -47.52 
L 480.224988 -47.52 
L 482.006895 -47.52 
L 483.788802 -47.52 
L 485.57071 -47.52 
L 487.352617 -47.52 
L 489.134524 -47.52 
L 490.916431 -47.52 
L 492.698338 -47.52 
L 494.480246 -47.52 
L 496.262153 -47.52 
L 498.04406 -47.52 
L 499.825967 -47.52 
L 501.607874 -47.52 
L 503.389781 -47.52 
L 505.171689 -47.52 
L 506.953596 -47.52 
L 506.953596 -47.651921 
L 506.953596 -47.651921 
L 505.171689 -47.682973 
L 503.389781 -47.720316 
L 501.607874 -47.764971 
L 499.825967 -47.818068 
L 498.04406 -47.880842 
L 496.262153 -47.954634 
L 494.480246 -48.040876 
L 492.698338 -48.141086 
L 490.916431 -48.256848 
L 489.134524 -48.389789 
L 487.352617 -48.54156 
L 485.57071 -48.713794 
L 483.788802 -48.90808 
L 482.006895 -49.125915 
L 480.224988 -49.368666 
L 478.443081 -49.637518 
L 476.661174 -49.933427 
L 474.879267 -50.257074 
L 473.097359 -50.608816 
L 471.315452 -50.988641 
L 469.533545 -51.396135 
L 467.751638 -51.830446 
L 465.969731 -52.29027 
L 464.187823 -52.773837 
L 462.405916 -53.278918 
L 460.624009 -53.802845 
L 458.842102 -54.342545 
L 457.060195 -54.894588 
L 455.278287 -55.455262 
L 453.49638 -56.020645 
L 451.714473 -56.586706 
L 449.932566 -57.149413 
L 448.150659 -57.704842 
L 446.368752 -58.2493 
L 444.586844 -58.779448 
L 442.804937 -59.292413 
L 441.02303 -59.785902 
L 439.241123 -60.258294 
L 437.459216 -60.708727 
L 435.677308 -61.137152 
L 433.895401 -61.544371 
L 432.113494 -61.932048 
L 430.331587 -62.302687 
L 428.54968 -62.659586 
L 426.767773 -63.006763 
L 424.985865 -63.348847 
L 423.203958 -63.690959 
L 421.422051 -64.038553 
L 419.640144 -64.397263 
L 417.858237 -64.772717 
L 416.076329 -65.170365 
L 414.294422 -65.595292 
L 412.512515 -66.052051 
L 410.730608 -66.5445 
L 408.948701 -67.075664 
L 407.166794 -67.647617 
L 405.384886 -68.261396 
L 403.602979 -68.916943 
L 401.821072 -69.613085 
L 400.039165 -70.347546 
L 398.257258 -71.116993 
L 396.47535 -71.917121 
L 394.693443 -72.742764 
L 392.911536 -73.588035 
L 391.129629 -74.446495 
L 389.347722 -75.311329 
L 387.565815 -76.175552 
L 385.783907 -77.032206 
L 384.002 -77.874569 
L 382.220093 -78.69636 
L 380.438186 -79.491925 
L 378.656279 -80.256421 
L 376.874371 -80.985973 
L 375.092464 -81.677811 
L 373.310557 -82.330378 
L 371.52865 -82.943418 
L 369.746743 -83.518028 
L 367.964835 -84.056688 
L 366.182928 -84.563258 
L 364.401021 -85.042951 
L 362.619114 -85.502288 
L 360.837207 -85.949023 
L 359.0553 -86.392059 
L 357.273392 -86.841349 
L 355.491485 -87.307782 
L 353.709578 -87.803073 
L 351.927671 -88.339641 
L 350.145764 -88.930488 
L 348.363856 -89.589086 
L 346.581949 -90.32926 
L 344.800042 -91.165074 
L 343.018135 -92.110721 
L 341.236228 -93.180416 
L 339.454321 -94.388282 
L 337.672413 -95.748232 
L 335.890506 -97.27385 
L 334.108599 -98.978249 
L 332.326692 -100.873928 
L 330.544785 -102.972602 
L 328.762877 -105.285024 
L 326.98097 -107.820778 
L 325.199063 -110.588066 
L 323.417156 -113.593476 
L 321.635249 -116.841743 
L 319.853342 -120.335505 
L 318.071434 -124.075068 
L 316.289527 -128.058186 
L 314.50762 -132.279862 
L 312.725713 -136.73219 
L 310.943806 -141.404245 
L 309.161898 -146.282022 
L 307.379991 -151.348449 
L 305.598084 -156.583472 
L 303.816177 -161.964212 
L 302.03427 -167.465204 
L 300.252363 -173.058716 
L 298.470455 -178.715132 
L 296.688548 -184.403405 
L 294.906641 -190.091554 
L 293.124734 -195.747204 
L 291.342827 -201.338129 
L 289.560919 -206.832814 
L 287.779012 -212.200973 
L 285.997105 -217.414037 
L 284.215198 -222.445578 
L 282.433291 -227.27165 
L 280.651383 -231.87104 
L 278.869476 -236.225409 
L 277.087569 -240.319331 
L 275.305662 -244.14021 
L 273.523755 -247.678097 
L 271.741848 -250.925408 
L 269.95994 -253.876549 
L 268.178033 -256.527486 
L 266.396126 -258.875261 
L 264.614219 -260.917495 
L 262.832312 -262.651893 
L 261.050404 -264.075784 
L 259.268497 -265.185716 
L 257.48659 -265.977138 
L 255.704683 -266.444175 
L 253.922776 -266.579526 
L 252.140869 -266.374481 
L 250.358961 -265.819075 
L 248.577054 -264.902363 
L 246.795147 -263.612818 
L 245.01324 -261.93883 
L 243.231333 -259.869295 
L 241.449425 -257.394257 
L 239.667518 -254.505593 
L 237.885611 -251.197691 
L 236.103704 -247.468109 
L 234.321797 -243.318175 
L 232.53989 -238.753498 
L 230.757982 -233.784378 
L 228.976075 -228.426077 
L 227.194168 -222.698957 
L 225.412261 -216.628454 
L 223.630354 -210.244901 
L 221.848446 -203.583201 
L 220.066539 -196.682352 
L 218.284632 -189.584849 
L 216.502725 -182.335974 
L 214.720818 -174.98301 
L 212.938911 -167.574386 
L 211.157003 -160.158807 
L 209.375096 -152.784372 
L 207.593189 -145.497725 
L 205.811282 -138.34326 
L 204.029375 -131.362396 
L 202.247467 -124.59295 
L 200.46556 -118.068621 
L 198.683653 -111.818591 
L 196.901746 -105.867246 
L 195.119839 -100.234037 
L 193.337932 -94.933445 
L 191.556024 -89.975072 
L 189.774117 -85.363837 
L 187.99221 -81.100251 
L 186.210303 -77.180782 
L 184.428396 -73.598267 
L 182.646488 -70.342369 
L 180.864581 -67.400064 
L 179.082674 -64.75613 
L 177.300767 -62.39364 
L 175.51886 -60.294428 
L 173.736952 -58.439533 
L 171.955045 -56.809606 
L 170.173138 -55.385276 
L 168.391231 -54.147461 
L 166.609324 -53.077643 
L 164.827417 -52.15808 
L 163.045509 -51.371983 
L 161.263602 -50.703639 
L 159.481695 -50.138493 
L 157.699788 -49.663198 
L 155.917881 -49.265631 
L 154.135973 -48.934873 
L 152.354066 -48.661177 
z
" style="stroke: #ff7f0e"/>
    </defs>
    <g clip-path="url(#p7c8bb1de5c)">
     <use xlink:href="#mb58ce30a87" x="0" y="432" style="fill: #ff7f0e; fill-opacity: 0.25; stroke: #ff7f0e"/>
    </g>
   </g>
   <g id="FillBetweenPolyCollection_3">
    <defs>
     <path id="m603312ae28" d="M 180.44892 -49.665147 
L 180.44892 -47.52 
L 181.711203 -47.52 
L 182.973487 -47.52 
L 184.23577 -47.52 
L 185.498054 -47.52 
L 186.760337 -47.52 
L 188.022621 -47.52 
L 189.284905 -47.52 
L 190.547188 -47.52 
L 191.809472 -47.52 
L 193.071755 -47.52 
L 194.334039 -47.52 
L 195.596322 -47.52 
L 196.858606 -47.52 
L 198.120889 -47.52 
L 199.383173 -47.52 
L 200.645456 -47.52 
L 201.90774 -47.52 
L 203.170023 -47.52 
L 204.432307 -47.52 
L 205.69459 -47.52 
L 206.956874 -47.52 
L 208.219157 -47.52 
L 209.481441 -47.52 
L 210.743724 -47.52 
L 212.006008 -47.52 
L 213.268291 -47.52 
L 214.530575 -47.52 
L 215.792858 -47.52 
L 217.055142 -47.52 
L 218.317425 -47.52 
L 219.579709 -47.52 
L 220.841992 -47.52 
L 222.104276 -47.52 
L 223.366559 -47.52 
L 224.628843 -47.52 
L 225.891126 -47.52 
L 227.15341 -47.52 
L 228.415693 -47.52 
L 229.677977 -47.52 
L 230.940261 -47.52 
L 232.202544 -47.52 
L 233.464828 -47.52 
L 234.727111 -47.52 
L 235.989395 -47.52 
L 237.251678 -47.52 
L 238.513962 -47.52 
L 239.776245 -47.52 
L 241.038529 -47.52 
L 242.300812 -47.52 
L 243.563096 -47.52 
L 244.825379 -47.52 
L 246.087663 -47.52 
L 247.349946 -47.52 
L 248.61223 -47.52 
L 249.874513 -47.52 
L 251.136797 -47.52 
L 252.39908 -47.52 
L 253.661364 -47.52 
L 254.923647 -47.52 
L 256.185931 -47.52 
L 257.448214 -47.52 
L 258.710498 -47.52 
L 259.972781 -47.52 
L 261.235065 -47.52 
L 262.497348 -47.52 
L 263.759632 -47.52 
L 265.021915 -47.52 
L 266.284199 -47.52 
L 267.546482 -47.52 
L 268.808766 -47.52 
L 270.071049 -47.52 
L 271.333333 -47.52 
L 272.595617 -47.52 
L 273.8579 -47.52 
L 275.120184 -47.52 
L 276.382467 -47.52 
L 277.644751 -47.52 
L 278.907034 -47.52 
L 280.169318 -47.52 
L 281.431601 -47.52 
L 282.693885 -47.52 
L 283.956168 -47.52 
L 285.218452 -47.52 
L 286.480735 -47.52 
L 287.743019 -47.52 
L 289.005302 -47.52 
L 290.267586 -47.52 
L 291.529869 -47.52 
L 292.792153 -47.52 
L 294.054436 -47.52 
L 295.31672 -47.52 
L 296.579003 -47.52 
L 297.841287 -47.52 
L 299.10357 -47.52 
L 300.365854 -47.52 
L 301.628137 -47.52 
L 302.890421 -47.52 
L 304.152704 -47.52 
L 305.414988 -47.52 
L 306.677271 -47.52 
L 307.939555 -47.52 
L 309.201838 -47.52 
L 310.464122 -47.52 
L 311.726405 -47.52 
L 312.988689 -47.52 
L 314.250973 -47.52 
L 315.513256 -47.52 
L 316.77554 -47.52 
L 318.037823 -47.52 
L 319.300107 -47.52 
L 320.56239 -47.52 
L 321.824674 -47.52 
L 323.086957 -47.52 
L 324.349241 -47.52 
L 325.611524 -47.52 
L 326.873808 -47.52 
L 328.136091 -47.52 
L 329.398375 -47.52 
L 330.660658 -47.52 
L 331.922942 -47.52 
L 333.185225 -47.52 
L 334.447509 -47.52 
L 335.709792 -47.52 
L 336.972076 -47.52 
L 338.234359 -47.52 
L 339.496643 -47.52 
L 340.758926 -47.52 
L 342.02121 -47.52 
L 343.283493 -47.52 
L 344.545777 -47.52 
L 345.80806 -47.52 
L 347.070344 -47.52 
L 348.332627 -47.52 
L 349.594911 -47.52 
L 350.857194 -47.52 
L 352.119478 -47.52 
L 353.381762 -47.52 
L 354.644045 -47.52 
L 355.906329 -47.52 
L 357.168612 -47.52 
L 358.430896 -47.52 
L 359.693179 -47.52 
L 360.955463 -47.52 
L 362.217746 -47.52 
L 363.48003 -47.52 
L 364.742313 -47.52 
L 366.004597 -47.52 
L 367.26688 -47.52 
L 368.529164 -47.52 
L 369.791447 -47.52 
L 371.053731 -47.52 
L 372.316014 -47.52 
L 373.578298 -47.52 
L 374.840581 -47.52 
L 376.102865 -47.52 
L 377.365148 -47.52 
L 378.627432 -47.52 
L 379.889715 -47.52 
L 381.151999 -47.52 
L 382.414282 -47.52 
L 383.676566 -47.52 
L 384.938849 -47.52 
L 386.201133 -47.52 
L 387.463416 -47.52 
L 388.7257 -47.52 
L 389.987983 -47.52 
L 391.250267 -47.52 
L 392.51255 -47.52 
L 393.774834 -47.52 
L 395.037118 -47.52 
L 396.299401 -47.52 
L 397.561685 -47.52 
L 398.823968 -47.52 
L 400.086252 -47.52 
L 401.348535 -47.52 
L 402.610819 -47.52 
L 403.873102 -47.52 
L 405.135386 -47.52 
L 406.397669 -47.52 
L 407.659953 -47.52 
L 408.922236 -47.52 
L 410.18452 -47.52 
L 411.446803 -47.52 
L 412.709087 -47.52 
L 413.97137 -47.52 
L 415.233654 -47.52 
L 416.495937 -47.52 
L 417.758221 -47.52 
L 419.020504 -47.52 
L 420.282788 -47.52 
L 421.545071 -47.52 
L 422.807355 -47.52 
L 424.069638 -47.52 
L 425.331922 -47.52 
L 426.594205 -47.52 
L 427.856489 -47.52 
L 429.118772 -47.52 
L 430.381056 -47.52 
L 431.643339 -47.52 
L 431.643339 -47.645273 
L 431.643339 -47.645273 
L 430.381056 -47.679663 
L 429.118772 -47.722231 
L 427.856489 -47.774566 
L 426.594205 -47.838472 
L 425.331922 -47.915981 
L 424.069638 -48.00935 
L 422.807355 -48.121067 
L 421.545071 -48.253833 
L 420.282788 -48.410549 
L 419.020504 -48.59429 
L 417.758221 -48.808267 
L 416.495937 -49.055779 
L 415.233654 -49.340163 
L 413.97137 -49.664723 
L 412.709087 -50.032658 
L 411.446803 -50.446983 
L 410.18452 -50.910441 
L 408.922236 -51.425415 
L 407.659953 -51.993839 
L 406.397669 -52.617112 
L 405.135386 -53.296015 
L 403.873102 -54.03064 
L 402.610819 -54.820334 
L 401.348535 -55.663645 
L 400.086252 -56.5583 
L 398.823968 -57.501188 
L 397.561685 -58.488373 
L 396.299401 -59.515122 
L 395.037118 -60.575948 
L 393.774834 -61.664685 
L 392.51255 -62.774567 
L 391.250267 -63.898333 
L 389.987983 -65.028334 
L 388.7257 -66.156666 
L 387.463416 -67.275294 
L 386.201133 -68.376193 
L 384.938849 -69.451485 
L 383.676566 -70.493578 
L 382.414282 -71.495299 
L 381.151999 -72.450025 
L 379.889715 -73.3518 
L 378.627432 -74.195448 
L 377.365148 -74.976673 
L 376.102865 -75.692146 
L 374.840581 -76.339575 
L 373.578298 -76.917765 
L 372.316014 -77.426658 
L 371.053731 -77.867358 
L 369.791447 -78.24214 
L 368.529164 -78.554437 
L 367.26688 -78.808814 
L 366.004597 -79.010925 
L 364.742313 -79.16745 
L 363.48003 -79.286019 
L 362.217746 -79.375124 
L 360.955463 -79.44401 
L 359.693179 -79.502566 
L 358.430896 -79.561196 
L 357.168612 -79.630691 
L 355.906329 -79.72209 
L 354.644045 -79.846543 
L 353.381762 -80.015167 
L 352.119478 -80.23891 
L 350.857194 -80.528415 
L 349.594911 -80.893886 
L 348.332627 -81.344971 
L 347.070344 -81.890643 
L 345.80806 -82.539102 
L 344.545777 -83.297683 
L 343.283493 -84.172783 
L 342.02121 -85.169799 
L 340.758926 -86.293088 
L 339.496643 -87.545939 
L 338.234359 -88.930568 
L 336.972076 -90.44812 
L 335.709792 -92.098695 
L 334.447509 -93.881384 
L 333.185225 -95.794315 
L 331.922942 -97.834706 
L 330.660658 -99.998923 
L 329.398375 -102.282534 
L 328.136091 -104.680367 
L 326.873808 -107.186547 
L 325.611524 -109.794534 
L 324.349241 -112.497133 
L 323.086957 -115.286503 
L 321.824674 -118.154134 
L 320.56239 -121.090822 
L 319.300107 -124.086624 
L 318.037823 -127.130809 
L 316.77554 -130.211806 
L 315.513256 -133.317165 
L 314.250973 -136.433525 
L 312.988689 -139.546621 
L 311.726405 -142.641315 
L 310.464122 -145.701684 
L 309.201838 -148.711156 
L 307.939555 -151.652713 
L 306.677271 -154.509161 
L 305.414988 -157.263461 
L 304.152704 -159.899137 
L 302.890421 -162.40073 
L 301.628137 -164.754315 
L 300.365854 -166.948043 
L 299.10357 -168.972699 
L 297.841287 -170.822259 
L 296.579003 -172.494415 
L 295.31672 -173.99105 
L 294.054436 -175.318625 
L 292.792153 -176.488479 
L 291.529869 -177.51699 
L 290.267586 -178.425608 
L 289.005302 -179.240734 
L 287.743019 -179.993442 
L 286.480735 -180.719047 
L 285.218452 -181.456523 
L 283.956168 -182.247792 
L 282.693885 -183.136895 
L 281.431601 -184.16908 
L 280.169318 -185.389825 
L 278.907034 -186.843833 
L 277.644751 -188.574031 
L 276.382467 -190.620601 
L 275.120184 -193.020066 
L 273.8579 -195.804465 
L 272.595617 -199.000623 
L 271.333333 -202.62954 
L 270.071049 -206.705897 
L 268.808766 -211.23769 
L 267.546482 -216.225976 
L 266.284199 -221.664729 
L 265.021915 -227.540798 
L 263.759632 -233.833945 
L 262.497348 -240.516946 
L 261.235065 -247.555758 
L 259.972781 -254.909713 
L 258.710498 -262.531756 
L 257.448214 -270.368701 
L 256.185931 -278.361517 
L 254.923647 -286.445639 
L 253.661364 -294.551319 
L 252.39908 -302.604028 
L 251.136797 -310.524915 
L 249.874513 -318.231359 
L 248.61223 -325.637615 
L 247.349946 -332.655584 
L 246.087663 -339.195711 
L 244.825379 -345.168039 
L 243.563096 -350.483401 
L 242.300812 -355.054766 
L 241.038529 -358.798715 
L 239.776245 -361.637034 
L 238.513962 -363.498383 
L 237.251678 -364.32 
L 235.989395 -364.049397 
L 234.727111 -362.645978 
L 233.464828 -360.082517 
L 232.202544 -356.346441 
L 230.940261 -351.44084 
L 229.677977 -345.385147 
L 228.415693 -338.215444 
L 227.15341 -329.984347 
L 225.891126 -320.760458 
L 224.628843 -310.627358 
L 223.366559 -299.68218 
L 222.104276 -288.033774 
L 220.841992 -275.800521 
L 219.579709 -263.107873 
L 218.317425 -250.085685 
L 217.055142 -236.865445 
L 215.792858 -223.577476 
L 214.530575 -210.348243 
L 213.268291 -197.297811 
L 212.006008 -184.537583 
L 210.743724 -172.16835 
L 209.481441 -160.278731 
L 208.219157 -148.944035 
L 206.956874 -138.225547 
L 205.69459 -128.170264 
L 204.432307 -118.81103 
L 203.170023 -110.167058 
L 201.90774 -102.244781 
L 200.645456 -95.038974 
L 199.383173 -88.534087 
L 198.120889 -82.70572 
L 196.858606 -77.522174 
L 195.596322 -72.946019 
L 194.334039 -68.935626 
L 193.071755 -65.446615 
L 191.809472 -62.433171 
L 190.547188 -59.849226 
L 189.284905 -57.649462 
L 188.022621 -55.790142 
L 186.760337 -54.229769 
L 185.498054 -52.929569 
L 184.23577 -51.853825 
L 182.973487 -50.970064 
L 181.711203 -50.24913 
L 180.44892 -49.665147 
z
" style="stroke: #2ca02c"/>
    </defs>
    <g clip-path="url(#p7c8bb1de5c)">
     <use xlink:href="#m603312ae28" x="0" y="432" style="fill: #2ca02c; fill-opacity: 0.25; stroke: #2ca02c"/>
    </g>
   </g>
   <g id="FillBetweenPolyCollection_4">
    <defs>
     <path id="m143d31d4f3" d="M 155.804979 -48.705412 
L 155.804979 -47.52 
L 157.077677 -47.52 
L 158.350375 -47.52 
L 159.623073 -47.52 
L 160.89577 -47.52 
L 162.168468 -47.52 
L 163.441166 -47.52 
L 164.713864 -47.52 
L 165.986562 -47.52 
L 167.25926 -47.52 
L 168.531958 -47.52 
L 169.804656 -47.52 
L 171.077354 -47.52 
L 172.350052 -47.52 
L 173.62275 -47.52 
L 174.895448 -47.52 
L 176.168146 -47.52 
L 177.440844 -47.52 
L 178.713542 -47.52 
L 179.98624 -47.52 
L 181.258938 -47.52 
L 182.531636 -47.52 
L 183.804334 -47.52 
L 185.077032 -47.52 
L 186.34973 -47.52 
L 187.622428 -47.52 
L 188.895126 -47.52 
L 190.167824 -47.52 
L 191.440522 -47.52 
L 192.71322 -47.52 
L 193.985918 -47.52 
L 195.258616 -47.52 
L 196.531314 -47.52 
L 197.804012 -47.52 
L 199.07671 -47.52 
L 200.349408 -47.52 
L 201.622106 -47.52 
L 202.894804 -47.52 
L 204.167502 -47.52 
L 205.4402 -47.52 
L 206.712898 -47.52 
L 207.985596 -47.52 
L 209.258294 -47.52 
L 210.530992 -47.52 
L 211.80369 -47.52 
L 213.076388 -47.52 
L 214.349086 -47.52 
L 215.621784 -47.52 
L 216.894482 -47.52 
L 218.16718 -47.52 
L 219.439878 -47.52 
L 220.712576 -47.52 
L 221.985274 -47.52 
L 223.257972 -47.52 
L 224.53067 -47.52 
L 225.803368 -47.52 
L 227.076066 -47.52 
L 228.348764 -47.52 
L 229.621462 -47.52 
L 230.89416 -47.52 
L 232.166858 -47.52 
L 233.439556 -47.52 
L 234.712254 -47.52 
L 235.984952 -47.52 
L 237.25765 -47.52 
L 238.530348 -47.52 
L 239.803046 -47.52 
L 241.075744 -47.52 
L 242.348442 -47.52 
L 243.62114 -47.52 
L 244.893838 -47.52 
L 246.166536 -47.52 
L 247.439234 -47.52 
L 248.711932 -47.52 
L 249.98463 -47.52 
L 251.257328 -47.52 
L 252.530026 -47.52 
L 253.802724 -47.52 
L 255.075422 -47.52 
L 256.34812 -47.52 
L 257.620818 -47.52 
L 258.893516 -47.52 
L 260.166214 -47.52 
L 261.438912 -47.52 
L 262.711609 -47.52 
L 263.984307 -47.52 
L 265.257005 -47.52 
L 266.529703 -47.52 
L 267.802401 -47.52 
L 269.075099 -47.52 
L 270.347797 -47.52 
L 271.620495 -47.52 
L 272.893193 -47.52 
L 274.165891 -47.52 
L 275.438589 -47.52 
L 276.711287 -47.52 
L 277.983985 -47.52 
L 279.256683 -47.52 
L 280.529381 -47.52 
L 281.802079 -47.52 
L 283.074777 -47.52 
L 284.347475 -47.52 
L 285.620173 -47.52 
L 286.892871 -47.52 
L 288.165569 -47.52 
L 289.438267 -47.52 
L 290.710965 -47.52 
L 291.983663 -47.52 
L 293.256361 -47.52 
L 294.529059 -47.52 
L 295.801757 -47.52 
L 297.074455 -47.52 
L 298.347153 -47.52 
L 299.619851 -47.52 
L 300.892549 -47.52 
L 302.165247 -47.52 
L 303.437945 -47.52 
L 304.710643 -47.52 
L 305.983341 -47.52 
L 307.256039 -47.52 
L 308.528737 -47.52 
L 309.801435 -47.52 
L 311.074133 -47.52 
L 312.346831 -47.52 
L 313.619529 -47.52 
L 314.892227 -47.52 
L 316.164925 -47.52 
L 317.437623 -47.52 
L 318.710321 -47.52 
L 319.983019 -47.52 
L 321.255717 -47.52 
L 322.528415 -47.52 
L 323.801113 -47.52 
L 325.073811 -47.52 
L 326.346509 -47.52 
L 327.619207 -47.52 
L 328.891905 -47.52 
L 330.164603 -47.52 
L 331.437301 -47.52 
L 332.709999 -47.52 
L 333.982697 -47.52 
L 335.255395 -47.52 
L 336.528093 -47.52 
L 337.800791 -47.52 
L 339.073489 -47.52 
L 340.346187 -47.52 
L 341.618885 -47.52 
L 342.891583 -47.52 
L 344.164281 -47.52 
L 345.436979 -47.52 
L 346.709677 -47.52 
L 347.982375 -47.52 
L 349.255073 -47.52 
L 350.527771 -47.52 
L 351.800469 -47.52 
L 353.073167 -47.52 
L 354.345865 -47.52 
L 355.618563 -47.52 
L 356.891261 -47.52 
L 358.163959 -47.52 
L 359.436657 -47.52 
L 360.709355 -47.52 
L 361.982053 -47.52 
L 363.254751 -47.52 
L 364.527449 -47.52 
L 365.800146 -47.52 
L 367.072844 -47.52 
L 368.345542 -47.52 
L 369.61824 -47.52 
L 370.890938 -47.52 
L 372.163636 -47.52 
L 373.436334 -47.52 
L 374.709032 -47.52 
L 375.98173 -47.52 
L 377.254428 -47.52 
L 378.527126 -47.52 
L 379.799824 -47.52 
L 381.072522 -47.52 
L 382.34522 -47.52 
L 383.617918 -47.52 
L 384.890616 -47.52 
L 386.163314 -47.52 
L 387.436012 -47.52 
L 388.70871 -47.52 
L 389.981408 -47.52 
L 391.254106 -47.52 
L 392.526804 -47.52 
L 393.799502 -47.52 
L 395.0722 -47.52 
L 396.344898 -47.52 
L 397.617596 -47.52 
L 398.890294 -47.52 
L 400.162992 -47.52 
L 401.43569 -47.52 
L 402.708388 -47.52 
L 403.981086 -47.52 
L 405.253784 -47.52 
L 406.526482 -47.52 
L 407.79918 -47.52 
L 409.071878 -47.52 
L 409.071878 -47.915363 
L 409.071878 -47.915363 
L 407.79918 -47.984661 
L 406.526482 -48.06466 
L 405.253784 -48.156753 
L 403.981086 -48.262469 
L 402.708388 -48.383483 
L 401.43569 -48.521625 
L 400.162992 -48.678881 
L 398.890294 -48.857406 
L 397.617596 -49.059524 
L 396.344898 -49.287734 
L 395.0722 -49.544715 
L 393.799502 -49.833325 
L 392.526804 -50.156607 
L 391.254106 -50.517786 
L 389.981408 -50.920268 
L 388.70871 -51.367641 
L 387.436012 -51.863669 
L 386.163314 -52.412289 
L 384.890616 -53.017604 
L 383.617918 -53.683881 
L 382.34522 -54.415536 
L 381.072522 -55.217134 
L 379.799824 -56.093375 
L 378.527126 -57.049083 
L 377.254428 -58.0892 
L 375.98173 -59.218769 
L 374.709032 -60.442924 
L 373.436334 -61.766876 
L 372.163636 -63.195898 
L 370.890938 -64.735307 
L 369.61824 -66.390447 
L 368.345542 -68.16667 
L 367.072844 -70.06931 
L 365.800146 -72.103657 
L 364.527449 -74.274932 
L 363.254751 -76.588243 
L 361.982053 -79.048558 
L 360.709355 -81.66065 
L 359.436657 -84.429052 
L 358.163959 -87.357999 
L 356.891261 -90.45136 
L 355.618563 -93.712573 
L 354.345865 -97.144559 
L 353.073167 -100.749643 
L 351.800469 -104.529453 
L 350.527771 -108.484826 
L 349.255073 -112.615704 
L 347.982375 -116.92102 
L 346.709677 -121.398589 
L 345.436979 -126.044998 
L 344.164281 -130.855494 
L 342.891583 -135.823873 
L 341.618885 -140.942387 
L 340.346187 -146.20165 
L 339.073489 -151.590562 
L 337.800791 -157.096245 
L 336.528093 -162.704004 
L 335.255395 -168.397308 
L 333.982697 -174.157792 
L 332.709999 -179.965292 
L 331.437301 -185.79791 
L 330.164603 -191.632105 
L 328.891905 -197.442827 
L 327.619207 -203.203673 
L 326.346509 -208.887085 
L 325.073811 -214.464579 
L 323.801113 -219.906999 
L 322.528415 -225.184808 
L 321.255717 -230.268395 
L 319.983019 -235.128413 
L 318.710321 -239.736121 
L 317.437623 -244.063747 
L 316.164925 -248.084852 
L 314.892227 -251.774692 
L 313.619529 -255.110573 
L 312.346831 -258.072188 
L 311.074133 -260.641943 
L 309.801435 -262.805242 
L 308.528737 -264.550747 
L 307.256039 -265.8706 
L 305.983341 -266.760593 
L 304.710643 -267.220296 
L 303.437945 -267.253137 
L 302.165247 -266.866417 
L 300.892549 -266.071281 
L 299.619851 -264.882631 
L 298.347153 -263.318981 
L 297.074455 -261.402262 
L 295.801757 -259.157585 
L 294.529059 -256.612944 
L 293.256361 -253.79889 
L 291.983663 -250.748167 
L 290.710965 -247.495315 
L 289.438267 -244.076257 
L 288.165569 -240.527859 
L 286.892871 -236.887496 
L 285.620173 -233.1926 
L 284.347475 -229.480223 
L 283.074777 -225.786608 
L 281.802079 -222.146777 
L 280.529381 -218.59414 
L 279.256683 -215.160133 
L 277.983985 -211.873889 
L 276.711287 -208.761947 
L 275.438589 -205.847988 
L 274.165891 -203.152628 
L 272.893193 -200.693242 
L 271.620495 -198.483833 
L 270.347797 -196.534946 
L 269.075099 -194.853624 
L 267.802401 -193.443402 
L 266.529703 -192.304345 
L 265.257005 -191.433121 
L 263.984307 -190.823112 
L 262.711609 -190.464554 
L 261.438912 -190.34471 
L 260.166214 -190.44807 
L 258.893516 -190.756574 
L 257.620818 -191.249857 
L 256.34812 -191.905514 
L 255.075422 -192.699374 
L 253.802724 -193.605795 
L 252.530026 -194.59796 
L 251.257328 -195.648184 
L 249.98463 -196.728226 
L 248.711932 -197.809593 
L 247.439234 -198.863854 
L 246.166536 -199.86294 
L 244.893838 -200.779439 
L 243.62114 -201.586884 
L 242.348442 -202.26002 
L 241.075744 -202.775069 
L 239.803046 -203.10996 
L 238.530348 -203.244556 
L 237.25765 -203.160843 
L 235.984952 -202.843106 
L 234.712254 -202.278071 
L 233.439556 -201.455022 
L 232.166858 -200.365889 
L 230.89416 -199.005298 
L 229.621462 -197.370605 
L 228.348764 -195.461876 
L 227.076066 -193.281859 
L 225.803368 -190.835904 
L 224.53067 -188.131871 
L 223.257972 -185.179992 
L 221.985274 -181.992722 
L 220.712576 -178.584554 
L 219.439878 -174.97182 
L 218.16718 -171.17247 
L 216.894482 -167.205836 
L 215.621784 -163.092384 
L 214.349086 -158.853462 
L 213.076388 -154.51104 
L 211.80369 -150.08745 
L 210.530992 -145.605135 
L 209.258294 -141.086397 
L 207.985596 -136.553165 
L 206.712898 -132.02677 
L 205.4402 -127.527742 
L 204.167502 -123.075621 
L 202.894804 -118.688794 
L 201.622106 -114.384355 
L 200.349408 -110.177982 
L 199.07671 -106.083849 
L 197.804012 -102.114557 
L 196.531314 -98.281086 
L 195.258616 -94.592781 
L 193.985918 -91.057347 
L 192.71322 -87.680881 
L 191.440522 -84.467907 
L 190.167824 -81.421443 
L 188.895126 -78.543073 
L 187.622428 -75.833036 
L 186.34973 -73.290329 
L 185.077032 -70.912811 
L 183.804334 -68.697317 
L 182.531636 -66.639779 
L 181.258938 -64.735341 
L 179.98624 -62.978478 
L 178.713542 -61.363118 
L 177.440844 -59.882744 
L 176.168146 -58.530512 
L 174.895448 -57.299347 
L 173.62275 -56.182033 
L 172.350052 -55.171309 
L 171.077354 -54.259935 
L 169.804656 -53.440769 
L 168.531958 -52.706821 
L 167.25926 -52.051309 
L 165.986562 -51.467698 
L 164.713864 -50.949735 
L 163.441166 -50.491476 
L 162.168468 -50.087305 
L 160.89577 -49.731951 
L 159.623073 -49.420486 
L 158.350375 -49.148336 
L 157.077677 -48.911274 
L 155.804979 -48.705412 
z
" style="stroke: #d62728"/>
    </defs>
    <g clip-path="url(#p7c8bb1de5c)">
     <use xlink:href="#m143d31d4f3" x="0" y="432" style="fill: #d62728; fill-opacity: 0.25; stroke: #d62728"/>
    </g>
   </g>
   <g id="FillBetweenPolyCollection_5">
    <defs>
     <path id="m17410c9356" d="M 148.454974 -48.899908 
L 148.454974 -47.52 
L 149.564278 -47.52 
L 150.673582 -47.52 
L 151.782886 -47.52 
L 152.89219 -47.52 
L 154.001494 -47.52 
L 155.110798 -47.52 
L 156.220102 -47.52 
L 157.329406 -47.52 
L 158.43871 -47.52 
L 159.548014 -47.52 
L 160.657318 -47.52 
L 161.766622 -47.52 
L 162.875927 -47.52 
L 163.985231 -47.52 
L 165.094535 -47.52 
L 166.203839 -47.52 
L 167.313143 -47.52 
L 168.422447 -47.52 
L 169.531751 -47.52 
L 170.641055 -47.52 
L 171.750359 -47.52 
L 172.859663 -47.52 
L 173.968967 -47.52 
L 175.078271 -47.52 
L 176.187575 -47.52 
L 177.296879 -47.52 
L 178.406183 -47.52 
L 179.515487 -47.52 
L 180.624791 -47.52 
L 181.734095 -47.52 
L 182.843399 -47.52 
L 183.952704 -47.52 
L 185.062008 -47.52 
L 186.171312 -47.52 
L 187.280616 -47.52 
L 188.38992 -47.52 
L 189.499224 -47.52 
L 190.608528 -47.52 
L 191.717832 -47.52 
L 192.827136 -47.52 
L 193.93644 -47.52 
L 195.045744 -47.52 
L 196.155048 -47.52 
L 197.264352 -47.52 
L 198.373656 -47.52 
L 199.48296 -47.52 
L 200.592264 -47.52 
L 201.701568 -47.52 
L 202.810872 -47.52 
L 203.920176 -47.52 
L 205.02948 -47.52 
L 206.138785 -47.52 
L 207.248089 -47.52 
L 208.357393 -47.52 
L 209.466697 -47.52 
L 210.576001 -47.52 
L 211.685305 -47.52 
L 212.794609 -47.52 
L 213.903913 -47.52 
L 215.013217 -47.52 
L 216.122521 -47.52 
L 217.231825 -47.52 
L 218.341129 -47.52 
L 219.450433 -47.52 
L 220.559737 -47.52 
L 221.669041 -47.52 
L 222.778345 -47.52 
L 223.887649 -47.52 
L 224.996953 -47.52 
L 226.106257 -47.52 
L 227.215561 -47.52 
L 228.324866 -47.52 
L 229.43417 -47.52 
L 230.543474 -47.52 
L 231.652778 -47.52 
L 232.762082 -47.52 
L 233.871386 -47.52 
L 234.98069 -47.52 
L 236.089994 -47.52 
L 237.199298 -47.52 
L 238.308602 -47.52 
L 239.417906 -47.52 
L 240.52721 -47.52 
L 241.636514 -47.52 
L 242.745818 -47.52 
L 243.855122 -47.52 
L 244.964426 -47.52 
L 246.07373 -47.52 
L 247.183034 -47.52 
L 248.292338 -47.52 
L 249.401643 -47.52 
L 250.510947 -47.52 
L 251.620251 -47.52 
L 252.729555 -47.52 
L 253.838859 -47.52 
L 254.948163 -47.52 
L 256.057467 -47.52 
L 257.166771 -47.52 
L 258.276075 -47.52 
L 259.385379 -47.52 
L 260.494683 -47.52 
L 261.603987 -47.52 
L 262.713291 -47.52 
L 263.822595 -47.52 
L 264.931899 -47.52 
L 266.041203 -47.52 
L 267.150507 -47.52 
L 268.259811 -47.52 
L 269.369115 -47.52 
L 270.478419 -47.52 
L 271.587724 -47.52 
L 272.697028 -47.52 
L 273.806332 -47.52 
L 274.915636 -47.52 
L 276.02494 -47.52 
L 277.134244 -47.52 
L 278.243548 -47.52 
L 279.352852 -47.52 
L 280.462156 -47.52 
L 281.57146 -47.52 
L 282.680764 -47.52 
L 283.790068 -47.52 
L 284.899372 -47.52 
L 286.008676 -47.52 
L 287.11798 -47.52 
L 288.227284 -47.52 
L 289.336588 -47.52 
L 290.445892 -47.52 
L 291.555196 -47.52 
L 292.6645 -47.52 
L 293.773805 -47.52 
L 294.883109 -47.52 
L 295.992413 -47.52 
L 297.101717 -47.52 
L 298.211021 -47.52 
L 299.320325 -47.52 
L 300.429629 -47.52 
L 301.538933 -47.52 
L 302.648237 -47.52 
L 303.757541 -47.52 
L 304.866845 -47.52 
L 305.976149 -47.52 
L 307.085453 -47.52 
L 308.194757 -47.52 
L 309.304061 -47.52 
L 310.413365 -47.52 
L 311.522669 -47.52 
L 312.631973 -47.52 
L 313.741277 -47.52 
L 314.850581 -47.52 
L 315.959886 -47.52 
L 317.06919 -47.52 
L 318.178494 -47.52 
L 319.287798 -47.52 
L 320.397102 -47.52 
L 321.506406 -47.52 
L 322.61571 -47.52 
L 323.725014 -47.52 
L 324.834318 -47.52 
L 325.943622 -47.52 
L 327.052926 -47.52 
L 328.16223 -47.52 
L 329.271534 -47.52 
L 330.380838 -47.52 
L 331.490142 -47.52 
L 332.599446 -47.52 
L 333.70875 -47.52 
L 334.818054 -47.52 
L 335.927358 -47.52 
L 337.036663 -47.52 
L 338.145967 -47.52 
L 339.255271 -47.52 
L 340.364575 -47.52 
L 341.473879 -47.52 
L 342.583183 -47.52 
L 343.692487 -47.52 
L 344.801791 -47.52 
L 345.911095 -47.52 
L 347.020399 -47.52 
L 348.129703 -47.52 
L 349.239007 -47.52 
L 350.348311 -47.52 
L 351.457615 -47.52 
L 352.566919 -47.52 
L 353.676223 -47.52 
L 354.785527 -47.52 
L 355.894831 -47.52 
L 357.004135 -47.52 
L 358.113439 -47.52 
L 359.222744 -47.52 
L 360.332048 -47.52 
L 361.441352 -47.52 
L 362.550656 -47.52 
L 363.65996 -47.52 
L 364.769264 -47.52 
L 365.878568 -47.52 
L 366.987872 -47.52 
L 368.097176 -47.52 
L 369.20648 -47.52 
L 369.20648 -49.090067 
L 369.20648 -49.090067 
L 368.097176 -49.305829 
L 366.987872 -49.547774 
L 365.878568 -49.818567 
L 364.769264 -50.121081 
L 363.65996 -50.458395 
L 362.550656 -50.833802 
L 361.441352 -51.250814 
L 360.332048 -51.713166 
L 359.222744 -52.224815 
L 358.113439 -52.789941 
L 357.004135 -53.412944 
L 355.894831 -54.09844 
L 354.785527 -54.851252 
L 353.676223 -55.676405 
L 352.566919 -56.57911 
L 351.457615 -57.564748 
L 350.348311 -58.638854 
L 349.239007 -59.807097 
L 348.129703 -61.075248 
L 347.020399 -62.44916 
L 345.911095 -63.934731 
L 344.801791 -65.537867 
L 343.692487 -67.264449 
L 342.583183 -69.120285 
L 341.473879 -71.111066 
L 340.364575 -73.242317 
L 339.255271 -75.519347 
L 338.145967 -77.947191 
L 337.036663 -80.530554 
L 335.927358 -83.273755 
L 334.818054 -86.180664 
L 333.70875 -89.254641 
L 332.599446 -92.498476 
L 331.490142 -95.914325 
L 330.380838 -99.503654 
L 329.271534 -103.267172 
L 328.16223 -107.204783 
L 327.052926 -111.315528 
L 325.943622 -115.597534 
L 324.834318 -120.047971 
L 323.725014 -124.663011 
L 322.61571 -129.437793 
L 321.506406 -134.366399 
L 320.397102 -139.441832 
L 319.287798 -144.656004 
L 318.178494 -149.999736 
L 317.06919 -155.462763 
L 315.959886 -161.033753 
L 314.850581 -166.700331 
L 313.741277 -172.449116 
L 312.631973 -178.265773 
L 311.522669 -184.135069 
L 310.413365 -190.040938 
L 309.304061 -195.966569 
L 308.194757 -201.894487 
L 307.085453 -207.806654 
L 305.976149 -213.684578 
L 304.866845 -219.509426 
L 303.757541 -225.262149 
L 302.648237 -230.923606 
L 301.538933 -236.474702 
L 300.429629 -241.896522 
L 299.320325 -247.170471 
L 298.211021 -252.278416 
L 297.101717 -257.202821 
L 295.992413 -261.926894 
L 294.883109 -266.43471 
L 293.773805 -270.71135 
L 292.6645 -274.743017 
L 291.555196 -278.517156 
L 290.445892 -282.022554 
L 289.336588 -285.249438 
L 288.227284 -288.189556 
L 287.11798 -290.836246 
L 286.008676 -293.18449 
L 284.899372 -295.230955 
L 283.790068 -296.974018 
L 282.680764 -298.413771 
L 281.57146 -299.552013 
L 280.462156 -300.392228 
L 279.352852 -300.939538 
L 278.243548 -301.20065 
L 277.134244 -301.183779 
L 276.02494 -300.898559 
L 274.915636 -300.355943 
L 273.806332 -299.568084 
L 272.697028 -298.54821 
L 271.587724 -297.310486 
L 270.478419 -295.869863 
L 269.369115 -294.241933 
L 268.259811 -292.442761 
L 267.150507 -290.488728 
L 266.041203 -288.396368 
L 264.931899 -286.182201 
L 263.822595 -283.862574 
L 262.713291 -281.453505 
L 261.603987 -278.970533 
L 260.494683 -276.428572 
L 259.385379 -273.841784 
L 258.276075 -271.223452 
L 257.166771 -268.585873 
L 256.057467 -265.940261 
L 254.948163 -263.296672 
L 253.838859 -260.663928 
L 252.729555 -258.04958 
L 251.620251 -255.459866 
L 250.510947 -252.899702 
L 249.401643 -250.37268 
L 248.292338 -247.881085 
L 247.183034 -245.425932 
L 246.07373 -243.007011 
L 244.964426 -240.62295 
L 243.855122 -238.271297 
L 242.745818 -235.9486 
L 241.636514 -233.650512 
L 240.52721 -231.371899 
L 239.417906 -229.106951 
L 238.308602 -226.849308 
L 237.199298 -224.592181 
L 236.089994 -222.328485 
L 234.98069 -220.050962 
L 233.871386 -217.752312 
L 232.762082 -215.425313 
L 231.652778 -213.062947 
L 230.543474 -210.658505 
L 229.43417 -208.205701 
L 228.324866 -205.698766 
L 227.215561 -203.132539 
L 226.106257 -200.50254 
L 224.996953 -197.80504 
L 223.887649 -195.037116 
L 222.778345 -192.196689 
L 221.669041 -189.28256 
L 220.559737 -186.29442 
L 219.450433 -183.232861 
L 218.341129 -180.099366 
L 217.231825 -176.896291 
L 216.122521 -173.626837 
L 215.013217 -170.295009 
L 213.903913 -166.905567 
L 212.794609 -163.46397 
L 211.685305 -159.976314 
L 210.576001 -156.449258 
L 209.466697 -152.889951 
L 208.357393 -149.305956 
L 207.248089 -145.705162 
L 206.138785 -142.095707 
L 205.02948 -138.485895 
L 203.920176 -134.884108 
L 202.810872 -131.298733 
L 201.701568 -127.738082 
L 200.592264 -124.210313 
L 199.48296 -120.723369 
L 198.373656 -117.284907 
L 197.264352 -113.902243 
L 196.155048 -110.582296 
L 195.045744 -107.331545 
L 193.93644 -104.155987 
L 192.827136 -101.061106 
L 191.717832 -98.051844 
L 190.608528 -95.132586 
L 189.499224 -92.307145 
L 188.38992 -89.578755 
L 187.280616 -86.950072 
L 186.171312 -84.423183 
L 185.062008 -81.999608 
L 183.952704 -79.680328 
L 182.843399 -77.465794 
L 181.734095 -75.355958 
L 180.624791 -73.350297 
L 179.515487 -71.447847 
L 178.406183 -69.64723 
L 177.296879 -67.946692 
L 176.187575 -66.344137 
L 175.078271 -64.837162 
L 173.968967 -63.423098 
L 172.859663 -62.099038 
L 171.750359 -60.86188 
L 170.641055 -59.708357 
L 169.531751 -58.635074 
L 168.422447 -57.638537 
L 167.313143 -56.715184 
L 166.203839 -55.861415 
L 165.094535 -55.073617 
L 163.985231 -54.348187 
L 162.875927 -53.681558 
L 161.766622 -53.070215 
L 160.657318 -52.510714 
L 159.548014 -51.999697 
L 158.43871 -51.533908 
L 157.329406 -51.110198 
L 156.220102 -50.725541 
L 155.110798 -50.377037 
L 154.001494 -50.061919 
L 152.89219 -49.777555 
L 151.782886 -49.521455 
L 150.673582 -49.291266 
L 149.564278 -49.084775 
L 148.454974 -48.899908 
z
" style="stroke: #9467bd"/>
    </defs>
    <g clip-path="url(#p7c8bb1de5c)">
     <use xlink:href="#m17410c9356" x="0" y="432" style="fill: #9467bd; fill-opacity: 0.25; stroke: #9467bd"/>
    </g>
   </g>
   <g id="patch_3">
    <path d="M 90 384.48 
L 90 51.84 
" style="fill: none; stroke: #262626; stroke-width: 0.8; stroke-linejoin: miter; stroke-linecap: square"/>
   </g>
   <g id="patch_4">
    <path d="M 648 384.48 
L 648 51.84 
" style="fill: none; stroke: #262626; stroke-width: 0.8; stroke-linejoin: miter; stroke-linecap: square"/>
   </g>
   <g id="patch_5">
    <path d="M 90 384.48 
L 648 384.48 
" style="fill: none; stroke: #262626; stroke-width: 0.8; stroke-linejoin: miter; stroke-linecap: square"/>
   </g>
   <g id="patch_6">
    <path d="M 90 51.84 
L 648 51.84 
" style="fill: none; stroke: #262626; stroke-width: 0.8; stroke-linejoin: miter; stroke-linecap: square"/>
   </g>
   <g id="legend_1">
    <g id="patch_7">
     <path d="M 521.16875 131.04 
L 641 131.04 
Q 643 131.04 643 129.04 
L 643 58.84 
Q 643 56.84 641 56.84 
L 521.16875 56.84 
Q 519.16875 56.84 519.16875 58.84 
L 519.16875 129.04 
Q 519.16875 131.04 521.16875 131.04 
z
" style="fill: #ffffff; opacity: 0.8; stroke: #cccccc; stroke-linejoin: miter"/>
    </g>
    <g id="patch_8">
     <path d="M 523.16875 67.997812 
L 543.16875 67.997812 
L 543.16875 60.997812 
L 523.16875 60.997812 
z
" style="fill: #1f77b4; fill-opacity: 0.25; stroke: #1f77b4; stroke-linejoin: miter"/>
    </g>
    <g id="text_19">
     <!-- genetic_association -->
     <g style="fill: #262626" transform="translate(551.16875 67.997812) scale(0.1 -0.1)">
      <defs>
       <path id="ArialMT-5f" d="M -97 -1272 
L -97 -866 
L 3631 -866 
L 3631 -1272 
L -97 -1272 
z
" transform="scale(0.015625)"/>
      </defs>
      <use xlink:href="#ArialMT-67"/>
      <use xlink:href="#ArialMT-65" transform="translate(55.615234 0)"/>
      <use xlink:href="#ArialMT-6e" transform="translate(111.230469 0)"/>
      <use xlink:href="#ArialMT-65" transform="translate(166.845703 0)"/>
      <use xlink:href="#ArialMT-74" transform="translate(222.460938 0)"/>
      <use xlink:href="#ArialMT-69" transform="translate(250.244141 0)"/>
      <use xlink:href="#ArialMT-63" transform="translate(272.460938 0)"/>
      <use xlink:href="#ArialMT-5f" transform="translate(322.460938 0)"/>
      <use xlink:href="#ArialMT-61" transform="translate(378.076172 0)"/>
      <use xlink:href="#ArialMT-73" transform="translate(433.691406 0)"/>
      <use xlink:href="#ArialMT-73" transform="translate(483.691406 0)"/>
      <use xlink:href="#ArialMT-6f" transform="translate(533.691406 0)"/>
      <use xlink:href="#ArialMT-63" transform="translate(589.306641 0)"/>
      <use xlink:href="#ArialMT-69" transform="translate(639.306641 0)"/>
      <use xlink:href="#ArialMT-61" transform="translate(661.523438 0)"/>
      <use xlink:href="#ArialMT-74" transform="translate(717.138672 0)"/>
      <use xlink:href="#ArialMT-69" transform="translate(744.921875 0)"/>
      <use xlink:href="#ArialMT-6f" transform="translate(767.138672 0)"/>
      <use xlink:href="#ArialMT-6e" transform="translate(822.753906 0)"/>
     </g>
    </g>
    <g id="patch_9">
     <path d="M 523.16875 82.260312 
L 543.16875 82.260312 
L 543.16875 75.260312 
L 523.16875 75.260312 
z
" style="fill: #ff7f0e; fill-opacity: 0.25; stroke: #ff7f0e; stroke-linejoin: miter"/>
    </g>
    <g id="text_20">
     <!-- somatic_mutation -->
     <g style="fill: #262626" transform="translate(551.16875 82.260312) scale(0.1 -0.1)">
      <defs>
       <path id="ArialMT-6d" d="M 422 0 
L 422 3319 
L 925 3319 
L 925 2853 
Q 1081 3097 1340 3245 
Q 1600 3394 1931 3394 
Q 2300 3394 2536 3241 
Q 2772 3088 2869 2813 
Q 3263 3394 3894 3394 
Q 4388 3394 4653 3120 
Q 4919 2847 4919 2278 
L 4919 0 
L 4359 0 
L 4359 2091 
Q 4359 2428 4304 2576 
Q 4250 2725 4106 2815 
Q 3963 2906 3769 2906 
Q 3419 2906 3187 2673 
Q 2956 2441 2956 1928 
L 2956 0 
L 2394 0 
L 2394 2156 
Q 2394 2531 2256 2718 
Q 2119 2906 1806 2906 
Q 1569 2906 1367 2781 
Q 1166 2656 1075 2415 
Q 984 2175 984 1722 
L 984 0 
L 422 0 
z
" transform="scale(0.015625)"/>
       <path id="ArialMT-75" d="M 2597 0 
L 2597 488 
Q 2209 -75 1544 -75 
Q 1250 -75 995 37 
Q 741 150 617 320 
Q 494 491 444 738 
Q 409 903 409 1263 
L 409 3319 
L 972 3319 
L 972 1478 
Q 972 1038 1006 884 
Q 1059 663 1231 536 
Q 1403 409 1656 409 
Q 1909 409 2131 539 
Q 2353 669 2445 892 
Q 2538 1116 2538 1541 
L 2538 3319 
L 3100 3319 
L 3100 0 
L 2597 0 
z
" transform="scale(0.015625)"/>
      </defs>
      <use xlink:href="#ArialMT-73"/>
      <use xlink:href="#ArialMT-6f" transform="translate(50 0)"/>
      <use xlink:href="#ArialMT-6d" transform="translate(105.615234 0)"/>
      <use xlink:href="#ArialMT-61" transform="translate(188.916016 0)"/>
      <use xlink:href="#ArialMT-74" transform="translate(244.53125 0)"/>
      <use xlink:href="#ArialMT-69" transform="translate(272.314453 0)"/>
      <use xlink:href="#ArialMT-63" transform="translate(294.53125 0)"/>
      <use xlink:href="#ArialMT-5f" transform="translate(344.53125 0)"/>
      <use xlink:href="#ArialMT-6d" transform="translate(400.146484 0)"/>
      <use xlink:href="#ArialMT-75" transform="translate(483.447266 0)"/>
      <use xlink:href="#ArialMT-74" transform="translate(539.0625 0)"/>
      <use xlink:href="#ArialMT-61" transform="translate(566.845703 0)"/>
      <use xlink:href="#ArialMT-74" transform="translate(622.460938 0)"/>
      <use xlink:href="#ArialMT-69" transform="translate(650.244141 0)"/>
      <use xlink:href="#ArialMT-6f" transform="translate(672.460938 0)"/>
      <use xlink:href="#ArialMT-6e" transform="translate(728.076172 0)"/>
     </g>
    </g>
    <g id="patch_10">
     <path d="M 523.16875 96.405625 
L 543.16875 96.405625 
L 543.16875 89.405625 
L 523.16875 89.405625 
z
" style="fill: #2ca02c; fill-opacity: 0.25; stroke: #2ca02c; stroke-linejoin: miter"/>
    </g>
    <g id="text_21">
     <!-- known_drug -->
     <g style="fill: #262626" transform="translate(551.16875 96.405625) scale(0.1 -0.1)">
      <defs>
       <path id="ArialMT-6b" d="M 425 0 
L 425 4581 
L 988 4581 
L 988 1969 
L 2319 3319 
L 3047 3319 
L 1778 2088 
L 3175 0 
L 2481 0 
L 1384 1697 
L 988 1316 
L 988 0 
L 425 0 
z
" transform="scale(0.015625)"/>
      </defs>
      <use xlink:href="#ArialMT-6b"/>
      <use xlink:href="#ArialMT-6e" transform="translate(50 0)"/>
      <use xlink:href="#ArialMT-6f" transform="translate(105.615234 0)"/>
      <use xlink:href="#ArialMT-77" transform="translate(161.230469 0)"/>
      <use xlink:href="#ArialMT-6e" transform="translate(233.447266 0)"/>
      <use xlink:href="#ArialMT-5f" transform="translate(289.0625 0)"/>
      <use xlink:href="#ArialMT-64" transform="translate(344.677734 0)"/>
      <use xlink:href="#ArialMT-72" transform="translate(400.292969 0)"/>
      <use xlink:href="#ArialMT-75" transform="translate(433.59375 0)"/>
      <use xlink:href="#ArialMT-67" transform="translate(489.208984 0)"/>
     </g>
    </g>
    <g id="patch_11">
     <path d="M 523.16875 110.79 
L 543.16875 110.79 
L 543.16875 103.79 
L 523.16875 103.79 
z
" style="fill: #d62728; fill-opacity: 0.25; stroke: #d62728; stroke-linejoin: miter"/>
    </g>
    <g id="text_22">
     <!-- affected_pathway -->
     <g style="fill: #262626" transform="translate(551.16875 110.79) scale(0.1 -0.1)">
      <use xlink:href="#ArialMT-61"/>
      <use xlink:href="#ArialMT-66" transform="translate(55.615234 0)"/>
      <use xlink:href="#ArialMT-66" transform="translate(81.648438 0)"/>
      <use xlink:href="#ArialMT-65" transform="translate(109.431641 0)"/>
      <use xlink:href="#ArialMT-63" transform="translate(165.046875 0)"/>
      <use xlink:href="#ArialMT-74" transform="translate(215.046875 0)"/>
      <use xlink:href="#ArialMT-65" transform="translate(242.830078 0)"/>
      <use xlink:href="#ArialMT-64" transform="translate(298.445312 0)"/>
      <use xlink:href="#ArialMT-5f" transform="translate(354.060547 0)"/>
      <use xlink:href="#ArialMT-70" transform="translate(409.675781 0)"/>
      <use xlink:href="#ArialMT-61" transform="translate(465.291016 0)"/>
      <use xlink:href="#ArialMT-74" transform="translate(520.90625 0)"/>
      <use xlink:href="#ArialMT-68" transform="translate(548.689453 0)"/>
      <use xlink:href="#ArialMT-77" transform="translate(604.304688 0)"/>
      <use xlink:href="#ArialMT-61" transform="translate(676.521484 0)"/>
      <use xlink:href="#ArialMT-79" transform="translate(732.136719 0)"/>
     </g>
    </g>
    <g id="patch_12">
     <path d="M 523.16875 125.0525 
L 543.16875 125.0525 
L 543.16875 118.0525 
L 523.16875 118.0525 
z
" style="fill: #9467bd; fill-opacity: 0.25; stroke: #9467bd; stroke-linejoin: miter"/>
    </g>
    <g id="text_23">
     <!-- rna_expression -->
     <g style="fill: #262626" transform="translate(551.16875 125.0525) scale(0.1 -0.1)">
      <defs>
       <path id="ArialMT-78" d="M 47 0 
L 1259 1725 
L 138 3319 
L 841 3319 
L 1350 2541 
Q 1494 2319 1581 2169 
Q 1719 2375 1834 2534 
L 2394 3319 
L 3066 3319 
L 1919 1756 
L 3153 0 
L 2463 0 
L 1781 1031 
L 1600 1309 
L 728 0 
L 47 0 
z
" transform="scale(0.015625)"/>
      </defs>
      <use xlink:href="#ArialMT-72"/>
      <use xlink:href="#ArialMT-6e" transform="translate(33.300781 0)"/>
      <use xlink:href="#ArialMT-61" transform="translate(88.916016 0)"/>
      <use xlink:href="#ArialMT-5f" transform="translate(144.53125 0)"/>
      <use xlink:href="#ArialMT-65" transform="translate(200.146484 0)"/>
      <use xlink:href="#ArialMT-78" transform="translate(255.761719 0)"/>
      <use xlink:href="#ArialMT-70" transform="translate(305.761719 0)"/>
      <use xlink:href="#ArialMT-72" transform="translate(361.376953 0)"/>
      <use xlink:href="#ArialMT-65" transform="translate(394.677734 0)"/>
      <use xlink:href="#ArialMT-73" transform="translate(450.292969 0)"/>
      <use xlink:href="#ArialMT-73" transform="translate(500.292969 0)"/>
      <use xlink:href="#ArialMT-69" transform="translate(550.292969 0)"/>
      <use xlink:href="#ArialMT-6f" transform="translate(572.509766 0)"/>
      <use xlink:href="#ArialMT-6e" transform="translate(628.125 0)"/>
     </g>
    </g>
   </g>
  </g>
 </g>
 <defs>
  <clipPath id="p7c8bb1de5c">
   <rect x="90" y="51.84" width="558" height="332.64"/>
  </clipPath>
 </defs>
</svg>
