<?xml version="1.0" encoding="utf-8" standalone="no"?>
<!DOCTYPE svg PUBLIC "-//W3C//DTD SVG 1.1//EN"
  "http://www.w3.org/Graphics/SVG/1.1/DTD/svg11.dtd">
<svg xmlns:xlink="http://www.w3.org/1999/xlink" width="720pt" height="432pt" viewBox="0 0 720 432" xmlns="http://www.w3.org/2000/svg" version="1.1">
 <metadata>
  <rdf:RDF xmlns:dc="http://purl.org/dc/elements/1.1/" xmlns:cc="http://creativecommons.org/ns#" xmlns:rdf="http://www.w3.org/1999/02/22-rdf-syntax-ns#">
   <cc:Work>
    <dc:type rdf:resource="http://purl.org/dc/dcmitype/StillImage"/>
    <dc:date>2025-08-26T14:30:10.285335</dc:date>
    <dc:format>image/svg+xml</dc:format>
    <dc:creator>
     <cc:Agent>
      <dc:title>Matplotlib v3.10.3, https://matplotlib.org/</dc:title>
     </cc:Agent>
    </dc:creator>
   </cc:Work>
  </rdf:RDF>
 </metadata>
 <defs>
  <style type="text/css">*{stroke-linejoin: round; stroke-linecap: butt}</style>
 </defs>
 <g id="figure_1">
  <g id="patch_1">
   <path d="M 0 432 
L 720 432 
L 720 0 
L 0 0 
z
" style="fill: #ffffff"/>
  </g>
  <g id="axes_1">
   <g id="patch_2">
    <path d="M 90 384.48 
L 648 384.48 
L 648 51.84 
L 90 51.84 
z
" style="fill: #ffffff"/>
   </g>
   <g id="matplotlib.axis_1">
    <g id="xtick_1">
     <g id="line2d_1">
      <defs>
       <path id="mf4ff592b53" d="M 0 0 
L 0 3.5 
" style="stroke: #262626; stroke-width: 0.8"/>
      </defs>
      <g>
       <use xlink:href="#mf4ff592b53" x="173.212675" y="384.48" style="fill: #262626; stroke: #262626; stroke-width: 0.8"/>
      </g>
     </g>
     <g id="text_1">
      <!-- 0 -->
      <g style="fill: #262626" transform="translate(170.432206 398.637812) scale(0.1 -0.1)">
       <defs>
        <path id="ArialMT-30" d="M 266 2259 
Q 266 3072 433 3567 
Q 600 4063 929 4331 
Q 1259 4600 1759 4600 
Q 2128 4600 2406 4451 
Q 2684 4303 2865 4023 
Q 3047 3744 3150 3342 
Q 3253 2941 3253 2259 
Q 3253 1453 3087 958 
Q 2922 463 2592 192 
Q 2263 -78 1759 -78 
Q 1097 -78 719 397 
Q 266 969 266 2259 
z
M 844 2259 
Q 844 1131 1108 757 
Q 1372 384 1759 384 
Q 2147 384 2411 759 
Q 2675 1134 2675 2259 
Q 2675 3391 2411 3762 
Q 2147 4134 1753 4134 
Q 1366 4134 1134 3806 
Q 844 3388 844 2259 
z
" transform="scale(0.015625)"/>
       </defs>
       <use xlink:href="#ArialMT-30"/>
      </g>
     </g>
    </g>
    <g id="xtick_2">
     <g id="line2d_2">
      <g>
       <use xlink:href="#mf4ff592b53" x="273.54511" y="384.48" style="fill: #262626; stroke: #262626; stroke-width: 0.8"/>
      </g>
     </g>
     <g id="text_2">
      <!-- 5 -->
      <g style="fill: #262626" transform="translate(270.764641 398.637812) scale(0.1 -0.1)">
       <defs>
        <path id="ArialMT-35" d="M 266 1200 
L 856 1250 
Q 922 819 1161 601 
Q 1400 384 1738 384 
Q 2144 384 2425 690 
Q 2706 997 2706 1503 
Q 2706 1984 2436 2262 
Q 2166 2541 1728 2541 
Q 1456 2541 1237 2417 
Q 1019 2294 894 2097 
L 366 2166 
L 809 4519 
L 3088 4519 
L 3088 3981 
L 1259 3981 
L 1013 2750 
Q 1425 3038 1878 3038 
Q 2478 3038 2890 2622 
Q 3303 2206 3303 1553 
Q 3303 931 2941 478 
Q 2500 -78 1738 -78 
Q 1113 -78 717 272 
Q 322 622 266 1200 
z
" transform="scale(0.015625)"/>
       </defs>
       <use xlink:href="#ArialMT-35"/>
      </g>
     </g>
    </g>
    <g id="xtick_3">
     <g id="line2d_3">
      <g>
       <use xlink:href="#mf4ff592b53" x="373.877545" y="384.48" style="fill: #262626; stroke: #262626; stroke-width: 0.8"/>
      </g>
     </g>
     <g id="text_3">
      <!-- 10 -->
      <g style="fill: #262626" transform="translate(368.316608 398.637812) scale(0.1 -0.1)">
       <defs>
        <path id="ArialMT-31" d="M 2384 0 
L 1822 0 
L 1822 3584 
Q 1619 3391 1289 3197 
Q 959 3003 697 2906 
L 697 3450 
Q 1169 3672 1522 3987 
Q 1875 4303 2022 4600 
L 2384 4600 
L 2384 0 
z
" transform="scale(0.015625)"/>
       </defs>
       <use xlink:href="#ArialMT-31"/>
       <use xlink:href="#ArialMT-30" transform="translate(55.615234 0)"/>
      </g>
     </g>
    </g>
    <g id="xtick_4">
     <g id="line2d_4">
      <g>
       <use xlink:href="#mf4ff592b53" x="474.209981" y="384.48" style="fill: #262626; stroke: #262626; stroke-width: 0.8"/>
      </g>
     </g>
     <g id="text_4">
      <!-- 15 -->
      <g style="fill: #262626" transform="translate(468.649043 398.637812) scale(0.1 -0.1)">
       <use xlink:href="#ArialMT-31"/>
       <use xlink:href="#ArialMT-35" transform="translate(55.615234 0)"/>
      </g>
     </g>
    </g>
    <g id="xtick_5">
     <g id="line2d_5">
      <g>
       <use xlink:href="#mf4ff592b53" x="574.542416" y="384.48" style="fill: #262626; stroke: #262626; stroke-width: 0.8"/>
      </g>
     </g>
     <g id="text_5">
      <!-- 20 -->
      <g style="fill: #262626" transform="translate(568.981478 398.637812) scale(0.1 -0.1)">
       <defs>
        <path id="ArialMT-32" d="M 3222 541 
L 3222 0 
L 194 0 
Q 188 203 259 391 
Q 375 700 629 1000 
Q 884 1300 1366 1694 
Q 2113 2306 2375 2664 
Q 2638 3022 2638 3341 
Q 2638 3675 2398 3904 
Q 2159 4134 1775 4134 
Q 1369 4134 1125 3890 
Q 881 3647 878 3216 
L 300 3275 
Q 359 3922 746 4261 
Q 1134 4600 1788 4600 
Q 2447 4600 2831 4234 
Q 3216 3869 3216 3328 
Q 3216 3053 3103 2787 
Q 2991 2522 2730 2228 
Q 2469 1934 1863 1422 
Q 1356 997 1212 845 
Q 1069 694 975 541 
L 3222 541 
z
" transform="scale(0.015625)"/>
       </defs>
       <use xlink:href="#ArialMT-32"/>
       <use xlink:href="#ArialMT-30" transform="translate(55.615234 0)"/>
      </g>
     </g>
    </g>
    <g id="text_6">
     <!-- Difference in years -->
     <g style="fill: #262626" transform="translate(310.767656 414.816875) scale(0.14 -0.14)">
      <defs>
       <path id="ArialMT-44" d="M 494 0 
L 494 4581 
L 2072 4581 
Q 2606 4581 2888 4516 
Q 3281 4425 3559 4188 
Q 3922 3881 4101 3404 
Q 4281 2928 4281 2316 
Q 4281 1794 4159 1391 
Q 4038 988 3847 723 
Q 3656 459 3429 307 
Q 3203 156 2883 78 
Q 2563 0 2147 0 
L 494 0 
z
M 1100 541 
L 2078 541 
Q 2531 541 2789 625 
Q 3047 709 3200 863 
Q 3416 1078 3536 1442 
Q 3656 1806 3656 2325 
Q 3656 3044 3420 3430 
Q 3184 3816 2847 3947 
Q 2603 4041 2063 4041 
L 1100 4041 
L 1100 541 
z
" transform="scale(0.015625)"/>
       <path id="ArialMT-69" d="M 425 3934 
L 425 4581 
L 988 4581 
L 988 3934 
L 425 3934 
z
M 425 0 
L 425 3319 
L 988 3319 
L 988 0 
L 425 0 
z
" transform="scale(0.015625)"/>
       <path id="ArialMT-66" d="M 556 0 
L 556 2881 
L 59 2881 
L 59 3319 
L 556 3319 
L 556 3672 
Q 556 4006 616 4169 
Q 697 4388 901 4523 
Q 1106 4659 1475 4659 
Q 1713 4659 2000 4603 
L 1916 4113 
Q 1741 4144 1584 4144 
Q 1328 4144 1222 4034 
Q 1116 3925 1116 3625 
L 1116 3319 
L 1763 3319 
L 1763 2881 
L 1116 2881 
L 1116 0 
L 556 0 
z
" transform="scale(0.015625)"/>
       <path id="ArialMT-65" d="M 2694 1069 
L 3275 997 
Q 3138 488 2766 206 
Q 2394 -75 1816 -75 
Q 1088 -75 661 373 
Q 234 822 234 1631 
Q 234 2469 665 2931 
Q 1097 3394 1784 3394 
Q 2450 3394 2872 2941 
Q 3294 2488 3294 1666 
Q 3294 1616 3291 1516 
L 816 1516 
Q 847 969 1125 678 
Q 1403 388 1819 388 
Q 2128 388 2347 550 
Q 2566 713 2694 1069 
z
M 847 1978 
L 2700 1978 
Q 2663 2397 2488 2606 
Q 2219 2931 1791 2931 
Q 1403 2931 1139 2672 
Q 875 2413 847 1978 
z
" transform="scale(0.015625)"/>
       <path id="ArialMT-72" d="M 416 0 
L 416 3319 
L 922 3319 
L 922 2816 
Q 1116 3169 1280 3281 
Q 1444 3394 1641 3394 
Q 1925 3394 2219 3213 
L 2025 2691 
Q 1819 2813 1613 2813 
Q 1428 2813 1281 2702 
Q 1134 2591 1072 2394 
Q 978 2094 978 1738 
L 978 0 
L 416 0 
z
" transform="scale(0.015625)"/>
       <path id="ArialMT-6e" d="M 422 0 
L 422 3319 
L 928 3319 
L 928 2847 
Q 1294 3394 1984 3394 
Q 2284 3394 2536 3286 
Q 2788 3178 2913 3003 
Q 3038 2828 3088 2588 
Q 3119 2431 3119 2041 
L 3119 0 
L 2556 0 
L 2556 2019 
Q 2556 2363 2490 2533 
Q 2425 2703 2258 2804 
Q 2091 2906 1866 2906 
Q 1506 2906 1245 2678 
Q 984 2450 984 1813 
L 984 0 
L 422 0 
z
" transform="scale(0.015625)"/>
       <path id="ArialMT-63" d="M 2588 1216 
L 3141 1144 
Q 3050 572 2676 248 
Q 2303 -75 1759 -75 
Q 1078 -75 664 370 
Q 250 816 250 1647 
Q 250 2184 428 2587 
Q 606 2991 970 3192 
Q 1334 3394 1763 3394 
Q 2303 3394 2647 3120 
Q 2991 2847 3088 2344 
L 2541 2259 
Q 2463 2594 2264 2762 
Q 2066 2931 1784 2931 
Q 1359 2931 1093 2626 
Q 828 2322 828 1663 
Q 828 994 1084 691 
Q 1341 388 1753 388 
Q 2084 388 2306 591 
Q 2528 794 2588 1216 
z
" transform="scale(0.015625)"/>
       <path id="ArialMT-20" transform="scale(0.015625)"/>
       <path id="ArialMT-79" d="M 397 -1278 
L 334 -750 
Q 519 -800 656 -800 
Q 844 -800 956 -737 
Q 1069 -675 1141 -563 
Q 1194 -478 1313 -144 
Q 1328 -97 1363 -6 
L 103 3319 
L 709 3319 
L 1400 1397 
Q 1534 1031 1641 628 
Q 1738 1016 1872 1384 
L 2581 3319 
L 3144 3319 
L 1881 -56 
Q 1678 -603 1566 -809 
Q 1416 -1088 1222 -1217 
Q 1028 -1347 759 -1347 
Q 597 -1347 397 -1278 
z
" transform="scale(0.015625)"/>
       <path id="ArialMT-61" d="M 2588 409 
Q 2275 144 1986 34 
Q 1697 -75 1366 -75 
Q 819 -75 525 192 
Q 231 459 231 875 
Q 231 1119 342 1320 
Q 453 1522 633 1644 
Q 813 1766 1038 1828 
Q 1203 1872 1538 1913 
Q 2219 1994 2541 2106 
Q 2544 2222 2544 2253 
Q 2544 2597 2384 2738 
Q 2169 2928 1744 2928 
Q 1347 2928 1158 2789 
Q 969 2650 878 2297 
L 328 2372 
Q 403 2725 575 2942 
Q 747 3159 1072 3276 
Q 1397 3394 1825 3394 
Q 2250 3394 2515 3294 
Q 2781 3194 2906 3042 
Q 3031 2891 3081 2659 
Q 3109 2516 3109 2141 
L 3109 1391 
Q 3109 606 3145 398 
Q 3181 191 3288 0 
L 2700 0 
Q 2613 175 2588 409 
z
M 2541 1666 
Q 2234 1541 1622 1453 
Q 1275 1403 1131 1340 
Q 988 1278 909 1158 
Q 831 1038 831 891 
Q 831 666 1001 516 
Q 1172 366 1500 366 
Q 1825 366 2078 508 
Q 2331 650 2450 897 
Q 2541 1088 2541 1459 
L 2541 1666 
z
" transform="scale(0.015625)"/>
       <path id="ArialMT-73" d="M 197 991 
L 753 1078 
Q 800 744 1014 566 
Q 1228 388 1613 388 
Q 2000 388 2187 545 
Q 2375 703 2375 916 
Q 2375 1106 2209 1216 
Q 2094 1291 1634 1406 
Q 1016 1563 777 1677 
Q 538 1791 414 1992 
Q 291 2194 291 2438 
Q 291 2659 392 2848 
Q 494 3038 669 3163 
Q 800 3259 1026 3326 
Q 1253 3394 1513 3394 
Q 1903 3394 2198 3281 
Q 2494 3169 2634 2976 
Q 2775 2784 2828 2463 
L 2278 2388 
Q 2241 2644 2061 2787 
Q 1881 2931 1553 2931 
Q 1166 2931 1000 2803 
Q 834 2675 834 2503 
Q 834 2394 903 2306 
Q 972 2216 1119 2156 
Q 1203 2125 1616 2013 
Q 2213 1853 2448 1751 
Q 2684 1650 2818 1456 
Q 2953 1263 2953 975 
Q 2953 694 2789 445 
Q 2625 197 2315 61 
Q 2006 -75 1616 -75 
Q 969 -75 630 194 
Q 291 463 197 991 
z
" transform="scale(0.015625)"/>
      </defs>
      <use xlink:href="#ArialMT-44"/>
      <use xlink:href="#ArialMT-69" transform="translate(72.216797 0)"/>
      <use xlink:href="#ArialMT-66" transform="translate(94.433594 0)"/>
      <use xlink:href="#ArialMT-66" transform="translate(120.466797 0)"/>
      <use xlink:href="#ArialMT-65" transform="translate(148.25 0)"/>
      <use xlink:href="#ArialMT-72" transform="translate(203.865234 0)"/>
      <use xlink:href="#ArialMT-65" transform="translate(237.166016 0)"/>
      <use xlink:href="#ArialMT-6e" transform="translate(292.78125 0)"/>
      <use xlink:href="#ArialMT-63" transform="translate(348.396484 0)"/>
      <use xlink:href="#ArialMT-65" transform="translate(398.396484 0)"/>
      <use xlink:href="#ArialMT-20" transform="translate(454.011719 0)"/>
      <use xlink:href="#ArialMT-69" transform="translate(481.794922 0)"/>
      <use xlink:href="#ArialMT-6e" transform="translate(504.011719 0)"/>
      <use xlink:href="#ArialMT-20" transform="translate(559.626953 0)"/>
      <use xlink:href="#ArialMT-79" transform="translate(587.410156 0)"/>
      <use xlink:href="#ArialMT-65" transform="translate(637.410156 0)"/>
      <use xlink:href="#ArialMT-61" transform="translate(693.025391 0)"/>
      <use xlink:href="#ArialMT-72" transform="translate(748.640625 0)"/>
      <use xlink:href="#ArialMT-73" transform="translate(781.941406 0)"/>
     </g>
    </g>
   </g>
   <g id="matplotlib.axis_2">
    <g id="ytick_1">
     <g id="line2d_6">
      <defs>
       <path id="m82ffffec53" d="M 0 0 
L -3.5 0 
" style="stroke: #262626; stroke-width: 0.8"/>
      </defs>
      <g>
       <use xlink:href="#m82ffffec53" x="90" y="384.48" style="fill: #262626; stroke: #262626; stroke-width: 0.8"/>
      </g>
     </g>
     <g id="text_7">
      <!-- 0.00 -->
      <g style="fill: #262626" transform="translate(63.539062 388.058906) scale(0.1 -0.1)">
       <defs>
        <path id="ArialMT-2e" d="M 581 0 
L 581 641 
L 1222 641 
L 1222 0 
L 581 0 
z
" transform="scale(0.015625)"/>
       </defs>
       <use xlink:href="#ArialMT-30"/>
       <use xlink:href="#ArialMT-2e" transform="translate(55.615234 0)"/>
       <use xlink:href="#ArialMT-30" transform="translate(83.398438 0)"/>
       <use xlink:href="#ArialMT-30" transform="translate(139.013672 0)"/>
      </g>
     </g>
    </g>
    <g id="ytick_2">
     <g id="line2d_7">
      <g>
       <use xlink:href="#m82ffffec53" x="90" y="329.532295" style="fill: #262626; stroke: #262626; stroke-width: 0.8"/>
      </g>
     </g>
     <g id="text_8">
      <!-- 0.05 -->
      <g style="fill: #262626" transform="translate(63.539062 333.111201) scale(0.1 -0.1)">
       <use xlink:href="#ArialMT-30"/>
       <use xlink:href="#ArialMT-2e" transform="translate(55.615234 0)"/>
       <use xlink:href="#ArialMT-30" transform="translate(83.398438 0)"/>
       <use xlink:href="#ArialMT-35" transform="translate(139.013672 0)"/>
      </g>
     </g>
    </g>
    <g id="ytick_3">
     <g id="line2d_8">
      <g>
       <use xlink:href="#m82ffffec53" x="90" y="274.584589" style="fill: #262626; stroke: #262626; stroke-width: 0.8"/>
      </g>
     </g>
     <g id="text_9">
      <!-- 0.10 -->
      <g style="fill: #262626" transform="translate(63.539062 278.163496) scale(0.1 -0.1)">
       <use xlink:href="#ArialMT-30"/>
       <use xlink:href="#ArialMT-2e" transform="translate(55.615234 0)"/>
       <use xlink:href="#ArialMT-31" transform="translate(83.398438 0)"/>
       <use xlink:href="#ArialMT-30" transform="translate(139.013672 0)"/>
      </g>
     </g>
    </g>
    <g id="ytick_4">
     <g id="line2d_9">
      <g>
       <use xlink:href="#m82ffffec53" x="90" y="219.636884" style="fill: #262626; stroke: #262626; stroke-width: 0.8"/>
      </g>
     </g>
     <g id="text_10">
      <!-- 0.15 -->
      <g style="fill: #262626" transform="translate(63.539062 223.21579) scale(0.1 -0.1)">
       <use xlink:href="#ArialMT-30"/>
       <use xlink:href="#ArialMT-2e" transform="translate(55.615234 0)"/>
       <use xlink:href="#ArialMT-31" transform="translate(83.398438 0)"/>
       <use xlink:href="#ArialMT-35" transform="translate(139.013672 0)"/>
      </g>
     </g>
    </g>
    <g id="ytick_5">
     <g id="line2d_10">
      <g>
       <use xlink:href="#m82ffffec53" x="90" y="164.689179" style="fill: #262626; stroke: #262626; stroke-width: 0.8"/>
      </g>
     </g>
     <g id="text_11">
      <!-- 0.20 -->
      <g style="fill: #262626" transform="translate(63.539062 168.268085) scale(0.1 -0.1)">
       <use xlink:href="#ArialMT-30"/>
       <use xlink:href="#ArialMT-2e" transform="translate(55.615234 0)"/>
       <use xlink:href="#ArialMT-32" transform="translate(83.398438 0)"/>
       <use xlink:href="#ArialMT-30" transform="translate(139.013672 0)"/>
      </g>
     </g>
    </g>
    <g id="ytick_6">
     <g id="line2d_11">
      <g>
       <use xlink:href="#m82ffffec53" x="90" y="109.741474" style="fill: #262626; stroke: #262626; stroke-width: 0.8"/>
      </g>
     </g>
     <g id="text_12">
      <!-- 0.25 -->
      <g style="fill: #262626" transform="translate(63.539062 113.32038) scale(0.1 -0.1)">
       <use xlink:href="#ArialMT-30"/>
       <use xlink:href="#ArialMT-2e" transform="translate(55.615234 0)"/>
       <use xlink:href="#ArialMT-32" transform="translate(83.398438 0)"/>
       <use xlink:href="#ArialMT-35" transform="translate(139.013672 0)"/>
      </g>
     </g>
    </g>
    <g id="ytick_7">
     <g id="line2d_12">
      <g>
       <use xlink:href="#m82ffffec53" x="90" y="54.793768" style="fill: #262626; stroke: #262626; stroke-width: 0.8"/>
      </g>
     </g>
     <g id="text_13">
      <!-- 0.30 -->
      <g style="fill: #262626" transform="translate(63.539062 58.372675) scale(0.1 -0.1)">
       <defs>
        <path id="ArialMT-33" d="M 269 1209 
L 831 1284 
Q 928 806 1161 595 
Q 1394 384 1728 384 
Q 2125 384 2398 659 
Q 2672 934 2672 1341 
Q 2672 1728 2419 1979 
Q 2166 2231 1775 2231 
Q 1616 2231 1378 2169 
L 1441 2663 
Q 1497 2656 1531 2656 
Q 1891 2656 2178 2843 
Q 2466 3031 2466 3422 
Q 2466 3731 2256 3934 
Q 2047 4138 1716 4138 
Q 1388 4138 1169 3931 
Q 950 3725 888 3313 
L 325 3413 
Q 428 3978 793 4289 
Q 1159 4600 1703 4600 
Q 2078 4600 2393 4439 
Q 2709 4278 2876 4000 
Q 3044 3722 3044 3409 
Q 3044 3113 2884 2869 
Q 2725 2625 2413 2481 
Q 2819 2388 3044 2092 
Q 3269 1797 3269 1353 
Q 3269 753 2831 336 
Q 2394 -81 1725 -81 
Q 1122 -81 723 278 
Q 325 638 269 1209 
z
" transform="scale(0.015625)"/>
       </defs>
       <use xlink:href="#ArialMT-30"/>
       <use xlink:href="#ArialMT-2e" transform="translate(55.615234 0)"/>
       <use xlink:href="#ArialMT-33" transform="translate(83.398438 0)"/>
       <use xlink:href="#ArialMT-30" transform="translate(139.013672 0)"/>
      </g>
     </g>
    </g>
    <g id="text_14">
     <!-- Target-disease evidence with probes (%) -->
     <g style="fill: #262626" transform="translate(56.5925 344.599687) rotate(-90) scale(0.14 -0.14)">
      <defs>
       <path id="ArialMT-54" d="M 1659 0 
L 1659 4041 
L 150 4041 
L 150 4581 
L 3781 4581 
L 3781 4041 
L 2266 4041 
L 2266 0 
L 1659 0 
z
" transform="scale(0.015625)"/>
       <path id="ArialMT-67" d="M 319 -275 
L 866 -356 
Q 900 -609 1056 -725 
Q 1266 -881 1628 -881 
Q 2019 -881 2231 -725 
Q 2444 -569 2519 -288 
Q 2563 -116 2559 434 
Q 2191 0 1641 0 
Q 956 0 581 494 
Q 206 988 206 1678 
Q 206 2153 378 2554 
Q 550 2956 876 3175 
Q 1203 3394 1644 3394 
Q 2231 3394 2613 2919 
L 2613 3319 
L 3131 3319 
L 3131 450 
Q 3131 -325 2973 -648 
Q 2816 -972 2473 -1159 
Q 2131 -1347 1631 -1347 
Q 1038 -1347 672 -1080 
Q 306 -813 319 -275 
z
M 784 1719 
Q 784 1066 1043 766 
Q 1303 466 1694 466 
Q 2081 466 2343 764 
Q 2606 1063 2606 1700 
Q 2606 2309 2336 2618 
Q 2066 2928 1684 2928 
Q 1309 2928 1046 2623 
Q 784 2319 784 1719 
z
" transform="scale(0.015625)"/>
       <path id="ArialMT-74" d="M 1650 503 
L 1731 6 
Q 1494 -44 1306 -44 
Q 1000 -44 831 53 
Q 663 150 594 308 
Q 525 466 525 972 
L 525 2881 
L 113 2881 
L 113 3319 
L 525 3319 
L 525 4141 
L 1084 4478 
L 1084 3319 
L 1650 3319 
L 1650 2881 
L 1084 2881 
L 1084 941 
Q 1084 700 1114 631 
Q 1144 563 1211 522 
Q 1278 481 1403 481 
Q 1497 481 1650 503 
z
" transform="scale(0.015625)"/>
       <path id="ArialMT-2d" d="M 203 1375 
L 203 1941 
L 1931 1941 
L 1931 1375 
L 203 1375 
z
" transform="scale(0.015625)"/>
       <path id="ArialMT-64" d="M 2575 0 
L 2575 419 
Q 2259 -75 1647 -75 
Q 1250 -75 917 144 
Q 584 363 401 755 
Q 219 1147 219 1656 
Q 219 2153 384 2558 
Q 550 2963 881 3178 
Q 1213 3394 1622 3394 
Q 1922 3394 2156 3267 
Q 2391 3141 2538 2938 
L 2538 4581 
L 3097 4581 
L 3097 0 
L 2575 0 
z
M 797 1656 
Q 797 1019 1065 703 
Q 1334 388 1700 388 
Q 2069 388 2326 689 
Q 2584 991 2584 1609 
Q 2584 2291 2321 2609 
Q 2059 2928 1675 2928 
Q 1300 2928 1048 2622 
Q 797 2316 797 1656 
z
" transform="scale(0.015625)"/>
       <path id="ArialMT-76" d="M 1344 0 
L 81 3319 
L 675 3319 
L 1388 1331 
Q 1503 1009 1600 663 
Q 1675 925 1809 1294 
L 2547 3319 
L 3125 3319 
L 1869 0 
L 1344 0 
z
" transform="scale(0.015625)"/>
       <path id="ArialMT-77" d="M 1034 0 
L 19 3319 
L 600 3319 
L 1128 1403 
L 1325 691 
Q 1338 744 1497 1375 
L 2025 3319 
L 2603 3319 
L 3100 1394 
L 3266 759 
L 3456 1400 
L 4025 3319 
L 4572 3319 
L 3534 0 
L 2950 0 
L 2422 1988 
L 2294 2553 
L 1622 0 
L 1034 0 
z
" transform="scale(0.015625)"/>
       <path id="ArialMT-68" d="M 422 0 
L 422 4581 
L 984 4581 
L 984 2938 
Q 1378 3394 1978 3394 
Q 2347 3394 2619 3248 
Q 2891 3103 3008 2847 
Q 3125 2591 3125 2103 
L 3125 0 
L 2563 0 
L 2563 2103 
Q 2563 2525 2380 2717 
Q 2197 2909 1863 2909 
Q 1613 2909 1392 2779 
Q 1172 2650 1078 2428 
Q 984 2206 984 1816 
L 984 0 
L 422 0 
z
" transform="scale(0.015625)"/>
       <path id="ArialMT-70" d="M 422 -1272 
L 422 3319 
L 934 3319 
L 934 2888 
Q 1116 3141 1344 3267 
Q 1572 3394 1897 3394 
Q 2322 3394 2647 3175 
Q 2972 2956 3137 2557 
Q 3303 2159 3303 1684 
Q 3303 1175 3120 767 
Q 2938 359 2589 142 
Q 2241 -75 1856 -75 
Q 1575 -75 1351 44 
Q 1128 163 984 344 
L 984 -1272 
L 422 -1272 
z
M 931 1641 
Q 931 1000 1190 694 
Q 1450 388 1819 388 
Q 2194 388 2461 705 
Q 2728 1022 2728 1688 
Q 2728 2322 2467 2637 
Q 2206 2953 1844 2953 
Q 1484 2953 1207 2617 
Q 931 2281 931 1641 
z
" transform="scale(0.015625)"/>
       <path id="ArialMT-6f" d="M 213 1659 
Q 213 2581 725 3025 
Q 1153 3394 1769 3394 
Q 2453 3394 2887 2945 
Q 3322 2497 3322 1706 
Q 3322 1066 3130 698 
Q 2938 331 2570 128 
Q 2203 -75 1769 -75 
Q 1072 -75 642 372 
Q 213 819 213 1659 
z
M 791 1659 
Q 791 1022 1069 705 
Q 1347 388 1769 388 
Q 2188 388 2466 706 
Q 2744 1025 2744 1678 
Q 2744 2294 2464 2611 
Q 2184 2928 1769 2928 
Q 1347 2928 1069 2612 
Q 791 2297 791 1659 
z
" transform="scale(0.015625)"/>
       <path id="ArialMT-62" d="M 941 0 
L 419 0 
L 419 4581 
L 981 4581 
L 981 2947 
Q 1338 3394 1891 3394 
Q 2197 3394 2470 3270 
Q 2744 3147 2920 2923 
Q 3097 2700 3197 2384 
Q 3297 2069 3297 1709 
Q 3297 856 2875 390 
Q 2453 -75 1863 -75 
Q 1275 -75 941 416 
L 941 0 
z
M 934 1684 
Q 934 1088 1097 822 
Q 1363 388 1816 388 
Q 2184 388 2453 708 
Q 2722 1028 2722 1663 
Q 2722 2313 2464 2622 
Q 2206 2931 1841 2931 
Q 1472 2931 1203 2611 
Q 934 2291 934 1684 
z
" transform="scale(0.015625)"/>
       <path id="ArialMT-28" d="M 1497 -1347 
Q 1031 -759 709 28 
Q 388 816 388 1659 
Q 388 2403 628 3084 
Q 909 3875 1497 4659 
L 1900 4659 
Q 1522 4009 1400 3731 
Q 1209 3300 1100 2831 
Q 966 2247 966 1656 
Q 966 153 1900 -1347 
L 1497 -1347 
z
" transform="scale(0.015625)"/>
       <path id="ArialMT-25" d="M 372 3481 
Q 372 3972 619 4315 
Q 866 4659 1334 4659 
Q 1766 4659 2048 4351 
Q 2331 4044 2331 3447 
Q 2331 2866 2045 2552 
Q 1759 2238 1341 2238 
Q 925 2238 648 2547 
Q 372 2856 372 3481 
z
M 1350 4272 
Q 1141 4272 1002 4090 
Q 863 3909 863 3425 
Q 863 2984 1003 2804 
Q 1144 2625 1350 2625 
Q 1563 2625 1702 2806 
Q 1841 2988 1841 3469 
Q 1841 3913 1700 4092 
Q 1559 4272 1350 4272 
z
M 1353 -169 
L 3859 4659 
L 4316 4659 
L 1819 -169 
L 1353 -169 
z
M 3334 1075 
Q 3334 1569 3581 1911 
Q 3828 2253 4300 2253 
Q 4731 2253 5014 1945 
Q 5297 1638 5297 1041 
Q 5297 459 5011 145 
Q 4725 -169 4303 -169 
Q 3888 -169 3611 142 
Q 3334 453 3334 1075 
z
M 4316 1866 
Q 4103 1866 3964 1684 
Q 3825 1503 3825 1019 
Q 3825 581 3965 400 
Q 4106 219 4313 219 
Q 4528 219 4667 400 
Q 4806 581 4806 1063 
Q 4806 1506 4665 1686 
Q 4525 1866 4316 1866 
z
" transform="scale(0.015625)"/>
       <path id="ArialMT-29" d="M 791 -1347 
L 388 -1347 
Q 1322 153 1322 1656 
Q 1322 2244 1188 2822 
Q 1081 3291 891 3722 
Q 769 4003 388 4659 
L 791 4659 
Q 1378 3875 1659 3084 
Q 1900 2403 1900 1659 
Q 1900 816 1576 28 
Q 1253 -759 791 -1347 
z
" transform="scale(0.015625)"/>
      </defs>
      <use xlink:href="#ArialMT-54"/>
      <use xlink:href="#ArialMT-61" transform="translate(49.958984 0)"/>
      <use xlink:href="#ArialMT-72" transform="translate(105.574219 0)"/>
      <use xlink:href="#ArialMT-67" transform="translate(138.875 0)"/>
      <use xlink:href="#ArialMT-65" transform="translate(194.490234 0)"/>
      <use xlink:href="#ArialMT-74" transform="translate(250.105469 0)"/>
      <use xlink:href="#ArialMT-2d" transform="translate(277.888672 0)"/>
      <use xlink:href="#ArialMT-64" transform="translate(311.189453 0)"/>
      <use xlink:href="#ArialMT-69" transform="translate(366.804688 0)"/>
      <use xlink:href="#ArialMT-73" transform="translate(389.021484 0)"/>
      <use xlink:href="#ArialMT-65" transform="translate(439.021484 0)"/>
      <use xlink:href="#ArialMT-61" transform="translate(494.636719 0)"/>
      <use xlink:href="#ArialMT-73" transform="translate(550.251953 0)"/>
      <use xlink:href="#ArialMT-65" transform="translate(600.251953 0)"/>
      <use xlink:href="#ArialMT-20" transform="translate(655.867188 0)"/>
      <use xlink:href="#ArialMT-65" transform="translate(683.650391 0)"/>
      <use xlink:href="#ArialMT-76" transform="translate(739.265625 0)"/>
      <use xlink:href="#ArialMT-69" transform="translate(789.265625 0)"/>
      <use xlink:href="#ArialMT-64" transform="translate(811.482422 0)"/>
      <use xlink:href="#ArialMT-65" transform="translate(867.097656 0)"/>
      <use xlink:href="#ArialMT-6e" transform="translate(922.712891 0)"/>
      <use xlink:href="#ArialMT-63" transform="translate(978.328125 0)"/>
      <use xlink:href="#ArialMT-65" transform="translate(1028.328125 0)"/>
      <use xlink:href="#ArialMT-20" transform="translate(1083.943359 0)"/>
      <use xlink:href="#ArialMT-77" transform="translate(1111.726562 0)"/>
      <use xlink:href="#ArialMT-69" transform="translate(1183.943359 0)"/>
      <use xlink:href="#ArialMT-74" transform="translate(1206.160156 0)"/>
      <use xlink:href="#ArialMT-68" transform="translate(1233.943359 0)"/>
      <use xlink:href="#ArialMT-20" transform="translate(1289.558594 0)"/>
      <use xlink:href="#ArialMT-70" transform="translate(1317.341797 0)"/>
      <use xlink:href="#ArialMT-72" transform="translate(1372.957031 0)"/>
      <use xlink:href="#ArialMT-6f" transform="translate(1406.257812 0)"/>
      <use xlink:href="#ArialMT-62" transform="translate(1461.873047 0)"/>
      <use xlink:href="#ArialMT-65" transform="translate(1517.488281 0)"/>
      <use xlink:href="#ArialMT-73" transform="translate(1573.103516 0)"/>
      <use xlink:href="#ArialMT-20" transform="translate(1623.103516 0)"/>
      <use xlink:href="#ArialMT-28" transform="translate(1650.886719 0)"/>
      <use xlink:href="#ArialMT-25" transform="translate(1684.1875 0)"/>
      <use xlink:href="#ArialMT-29" transform="translate(1773.103516 0)"/>
     </g>
    </g>
   </g>
   <g id="FillBetweenPolyCollection_1">
    <defs>
     <path id="md3d0c69f9d" d="M 156.578433 -50.365258 
L 156.578433 -47.52 
L 157.955651 -47.52 
L 159.332869 -47.52 
L 160.710086 -47.52 
L 162.087304 -47.52 
L 163.464522 -47.52 
L 164.84174 -47.52 
L 166.218957 -47.52 
L 167.596175 -47.52 
L 168.973393 -47.52 
L 170.35061 -47.52 
L 171.727828 -47.52 
L 173.105046 -47.52 
L 174.482264 -47.52 
L 175.859481 -47.52 
L 177.236699 -47.52 
L 178.613917 -47.52 
L 179.991135 -47.52 
L 181.368352 -47.52 
L 182.74557 -47.52 
L 184.122788 -47.52 
L 185.500005 -47.52 
L 186.877223 -47.52 
L 188.254441 -47.52 
L 189.631659 -47.52 
L 191.008876 -47.52 
L 192.386094 -47.52 
L 193.763312 -47.52 
L 195.14053 -47.52 
L 196.517747 -47.52 
L 197.894965 -47.52 
L 199.272183 -47.52 
L 200.649401 -47.52 
L 202.026618 -47.52 
L 203.403836 -47.52 
L 204.781054 -47.52 
L 206.158271 -47.52 
L 207.535489 -47.52 
L 208.912707 -47.52 
L 210.289925 -47.52 
L 211.667142 -47.52 
L 213.04436 -47.52 
L 214.421578 -47.52 
L 215.798796 -47.52 
L 217.176013 -47.52 
L 218.553231 -47.52 
L 219.930449 -47.52 
L 221.307666 -47.52 
L 222.684884 -47.52 
L 224.062102 -47.52 
L 225.43932 -47.52 
L 226.816537 -47.52 
L 228.193755 -47.52 
L 229.570973 -47.52 
L 230.948191 -47.52 
L 232.325408 -47.52 
L 233.702626 -47.52 
L 235.079844 -47.52 
L 236.457061 -47.52 
L 237.834279 -47.52 
L 239.211497 -47.52 
L 240.588715 -47.52 
L 241.965932 -47.52 
L 243.34315 -47.52 
L 244.720368 -47.52 
L 246.097586 -47.52 
L 247.474803 -47.52 
L 248.852021 -47.52 
L 250.229239 -47.52 
L 251.606456 -47.52 
L 252.983674 -47.52 
L 254.360892 -47.52 
L 255.73811 -47.52 
L 257.115327 -47.52 
L 258.492545 -47.52 
L 259.869763 -47.52 
L 261.246981 -47.52 
L 262.624198 -47.52 
L 264.001416 -47.52 
L 265.378634 -47.52 
L 266.755851 -47.52 
L 268.133069 -47.52 
L 269.510287 -47.52 
L 270.887505 -47.52 
L 272.264722 -47.52 
L 273.64194 -47.52 
L 275.019158 -47.52 
L 276.396376 -47.52 
L 277.773593 -47.52 
L 279.150811 -47.52 
L 280.528029 -47.52 
L 281.905246 -47.52 
L 283.282464 -47.52 
L 284.659682 -47.52 
L 286.0369 -47.52 
L 287.414117 -47.52 
L 288.791335 -47.52 
L 290.168553 -47.52 
L 291.545771 -47.52 
L 292.922988 -47.52 
L 294.300206 -47.52 
L 295.677424 -47.52 
L 297.054642 -47.52 
L 298.431859 -47.52 
L 299.809077 -47.52 
L 301.186295 -47.52 
L 302.563512 -47.52 
L 303.94073 -47.52 
L 305.317948 -47.52 
L 306.695166 -47.52 
L 308.072383 -47.52 
L 309.449601 -47.52 
L 310.826819 -47.52 
L 312.204037 -47.52 
L 313.581254 -47.52 
L 314.958472 -47.52 
L 316.33569 -47.52 
L 317.712907 -47.52 
L 319.090125 -47.52 
L 320.467343 -47.52 
L 321.844561 -47.52 
L 323.221778 -47.52 
L 324.598996 -47.52 
L 325.976214 -47.52 
L 327.353432 -47.52 
L 328.730649 -47.52 
L 330.107867 -47.52 
L 331.485085 -47.52 
L 332.862302 -47.52 
L 334.23952 -47.52 
L 335.616738 -47.52 
L 336.993956 -47.52 
L 338.371173 -47.52 
L 339.748391 -47.52 
L 341.125609 -47.52 
L 342.502827 -47.52 
L 343.880044 -47.52 
L 345.257262 -47.52 
L 346.63448 -47.52 
L 348.011697 -47.52 
L 349.388915 -47.52 
L 350.766133 -47.52 
L 352.143351 -47.52 
L 353.520568 -47.52 
L 354.897786 -47.52 
L 356.275004 -47.52 
L 357.652222 -47.52 
L 359.029439 -47.52 
L 360.406657 -47.52 
L 361.783875 -47.52 
L 363.161092 -47.52 
L 364.53831 -47.52 
L 365.915528 -47.52 
L 367.292746 -47.52 
L 368.669963 -47.52 
L 370.047181 -47.52 
L 371.424399 -47.52 
L 372.801617 -47.52 
L 374.178834 -47.52 
L 375.556052 -47.52 
L 376.93327 -47.52 
L 378.310488 -47.52 
L 379.687705 -47.52 
L 381.064923 -47.52 
L 382.442141 -47.52 
L 383.819358 -47.52 
L 385.196576 -47.52 
L 386.573794 -47.52 
L 387.951012 -47.52 
L 389.328229 -47.52 
L 390.705447 -47.52 
L 392.082665 -47.52 
L 393.459883 -47.52 
L 394.8371 -47.52 
L 396.214318 -47.52 
L 397.591536 -47.52 
L 398.968753 -47.52 
L 400.345971 -47.52 
L 401.723189 -47.52 
L 403.100407 -47.52 
L 404.477624 -47.52 
L 405.854842 -47.52 
L 407.23206 -47.52 
L 408.609278 -47.52 
L 409.986495 -47.52 
L 411.363713 -47.52 
L 412.740931 -47.52 
L 414.118148 -47.52 
L 415.495366 -47.52 
L 416.872584 -47.52 
L 418.249802 -47.52 
L 419.627019 -47.52 
L 421.004237 -47.52 
L 422.381455 -47.52 
L 423.758673 -47.52 
L 425.13589 -47.52 
L 426.513108 -47.52 
L 427.890326 -47.52 
L 429.267543 -47.52 
L 430.644761 -47.52 
L 430.644761 -47.573718 
L 430.644761 -47.573718 
L 429.267543 -47.594853 
L 427.890326 -47.622998 
L 426.513108 -47.659954 
L 425.13589 -47.707796 
L 423.758673 -47.768852 
L 422.381455 -47.845658 
L 421.004237 -47.940886 
L 419.627019 -48.057235 
L 418.249802 -48.1973 
L 416.872584 -48.363414 
L 415.495366 -48.557459 
L 414.118148 -48.780687 
L 412.740931 -49.033528 
L 411.363713 -49.315434 
L 409.986495 -49.624762 
L 408.609278 -49.958707 
L 407.23206 -50.313322 
L 405.854842 -50.683609 
L 404.477624 -51.063698 
L 403.100407 -51.447111 
L 401.723189 -51.827079 
L 400.345971 -52.196906 
L 398.968753 -52.550339 
L 397.591536 -52.881919 
L 396.214318 -53.187269 
L 394.8371 -53.463303 
L 393.459883 -53.708331 
L 392.082665 -53.922039 
L 390.705447 -54.105376 
L 389.328229 -54.260327 
L 387.951012 -54.389639 
L 386.573794 -54.496495 
L 385.196576 -54.584212 
L 383.819358 -54.655964 
L 382.442141 -54.714585 
L 381.064923 -54.762449 
L 379.687705 -54.801454 
L 378.310488 -54.83307 
L 376.93327 -54.85847 
L 375.556052 -54.878678 
L 374.178834 -54.894738 
L 372.801617 -54.907848 
L 371.424399 -54.919457 
L 370.047181 -54.931302 
L 368.669963 -54.945388 
L 367.292746 -54.963924 
L 365.915528 -54.989227 
L 364.53831 -55.02362 
L 363.161092 -55.069343 
L 361.783875 -55.128504 
L 360.406657 -55.203064 
L 359.029439 -55.29488 
L 357.652222 -55.405766 
L 356.275004 -55.537597 
L 354.897786 -55.6924 
L 353.520568 -55.872443 
L 352.143351 -56.080288 
L 350.766133 -56.318816 
L 349.388915 -56.591218 
L 348.011697 -56.900966 
L 346.63448 -57.251771 
L 345.257262 -57.647542 
L 343.880044 -58.092369 
L 342.502827 -58.590507 
L 341.125609 -59.146377 
L 339.748391 -59.764547 
L 338.371173 -60.449674 
L 336.993956 -61.206391 
L 335.616738 -62.039086 
L 334.23952 -62.951602 
L 332.862302 -63.946835 
L 331.485085 -65.026277 
L 330.107867 -66.189545 
L 328.730649 -67.433977 
L 327.353432 -68.754356 
L 325.976214 -70.142841 
L 324.598996 -71.589147 
L 323.221778 -73.081017 
L 321.844561 -74.604938 
L 320.467343 -76.147074 
L 319.090125 -77.694299 
L 317.712907 -79.235211 
L 316.33569 -80.761004 
L 314.958472 -82.266063 
L 313.581254 -83.748193 
L 312.204037 -85.208449 
L 310.826819 -86.650562 
L 309.449601 -88.080059 
L 308.072383 -89.503186 
L 306.695166 -90.925799 
L 305.317948 -92.352411 
L 303.94073 -93.78551 
L 302.563512 -95.225293 
L 301.186295 -96.66983 
L 299.809077 -98.115636 
L 298.431859 -99.558539 
L 297.054642 -100.994693 
L 295.677424 -102.421537 
L 294.300206 -103.838513 
L 292.922988 -105.247405 
L 291.545771 -106.652195 
L 290.168553 -108.058467 
L 288.791335 -109.472418 
L 287.414117 -110.89966 
L 286.0369 -112.344015 
L 284.659682 -113.806541 
L 283.282464 -115.284974 
L 281.905246 -116.773734 
L 280.528029 -118.264525 
L 279.150811 -119.747477 
L 277.773593 -121.212662 
L 276.396376 -122.651773 
L 275.019158 -124.05967 
L 273.64194 -125.435571 
L 272.264722 -126.783676 
L 270.887505 -128.113111 
L 269.510287 -129.437225 
L 268.133069 -130.772336 
L 266.755851 -132.136159 
L 265.378634 -133.546187 
L 264.001416 -135.018291 
L 262.624198 -136.565792 
L 261.246981 -138.199134 
L 259.869763 -139.926212 
L 258.492545 -141.753233 
L 257.115327 -143.68595 
L 255.73811 -145.730964 
L 254.360892 -147.89684 
L 252.983674 -150.194776 
L 251.606456 -152.638666 
L 250.229239 -155.244532 
L 248.852021 -158.029421 
L 247.474803 -161.009974 
L 246.097586 -164.200977 
L 244.720368 -167.6142 
L 243.34315 -171.257786 
L 241.965932 -175.13636 
L 240.588715 -179.251871 
L 239.211497 -183.605015 
L 237.834279 -188.196951 
L 236.457061 -193.030929 
L 235.079844 -198.113407 
L 233.702626 -203.454331 
L 232.325408 -209.066342 
L 230.948191 -214.962911 
L 229.570973 -221.155596 
L 228.193755 -227.650813 
L 226.816537 -234.446673 
L 225.43932 -241.530449 
L 224.062102 -248.877207 
L 222.684884 -256.449938 
L 221.307666 -264.201266 
L 219.930449 -272.076526 
L 218.553231 -280.017673 
L 217.176013 -287.967292 
L 215.798796 -295.871831 
L 214.421578 -303.68325 
L 213.04436 -311.358435 
L 211.667142 -318.85611 
L 210.289925 -326.131357 
L 208.912707 -333.128372 
L 207.535489 -339.772431 
L 206.158271 -345.962407 
L 204.781054 -351.56522 
L 203.403836 -356.413552 
L 202.026618 -360.307836 
L 200.649401 -363.023016 
L 199.272183 -364.32 
L 197.894965 -363.961071 
L 196.517747 -361.727956 
L 195.14053 -357.440802 
L 193.763312 -350.976126 
L 192.386094 -342.28177 
L 191.008876 -331.387223 
L 189.631659 -318.408087 
L 188.254441 -303.544126 
L 186.877223 -287.070981 
L 185.500005 -269.326314 
L 184.122788 -250.691661 
L 182.74557 -231.571666 
L 181.368352 -212.372543 
L 179.991135 -193.481543 
L 178.613917 -175.249016 
L 177.236699 -157.974249 
L 175.859481 -141.895832 
L 174.482264 -127.186784 
L 173.105046 -113.954255 
L 171.727828 -102.243232 
L 170.35061 -92.043396 
L 168.973393 -83.298184 
L 167.596175 -75.91502 
L 166.218957 -69.77582 
L 164.84174 -64.74697 
L 163.464522 -60.688209 
L 162.087304 -57.460026 
L 160.710086 -54.929408 
L 159.332869 -52.97391 
L 157.955651 -51.4842 
L 156.578433 -50.365258 
z
" style="stroke: #1f77b4"/>
    </defs>
    <g clip-path="url(#p9ac182c68a)">
     <use xlink:href="#md3d0c69f9d" x="0" y="432" style="fill: #1f77b4; fill-opacity: 0.25; stroke: #1f77b4"/>
    </g>
   </g>
   <g id="FillBetweenPolyCollection_2">
    <defs>
     <path id="m2a180bb2bb" d="M 115.363636 -48.463574 
L 115.363636 -47.52 
L 116.550053 -47.52 
L 117.736471 -47.52 
L 118.922888 -47.52 
L 120.109305 -47.52 
L 121.295722 -47.52 
L 122.482139 -47.52 
L 123.668556 -47.52 
L 124.854973 -47.52 
L 126.04139 -47.52 
L 127.227807 -47.52 
L 128.414224 -47.52 
L 129.600641 -47.52 
L 130.787058 -47.52 
L 131.973476 -47.52 
L 133.159893 -47.52 
L 134.34631 -47.52 
L 135.532727 -47.52 
L 136.719144 -47.52 
L 137.905561 -47.52 
L 139.091978 -47.52 
L 140.278395 -47.52 
L 141.464812 -47.52 
L 142.651229 -47.52 
L 143.837646 -47.52 
L 145.024063 -47.52 
L 146.210481 -47.52 
L 147.396898 -47.52 
L 148.583315 -47.52 
L 149.769732 -47.52 
L 150.956149 -47.52 
L 152.142566 -47.52 
L 153.328983 -47.52 
L 154.5154 -47.52 
L 155.701817 -47.52 
L 156.888234 -47.52 
L 158.074651 -47.52 
L 159.261068 -47.52 
L 160.447485 -47.52 
L 161.633903 -47.52 
L 162.82032 -47.52 
L 164.006737 -47.52 
L 165.193154 -47.52 
L 166.379571 -47.52 
L 167.565988 -47.52 
L 168.752405 -47.52 
L 169.938822 -47.52 
L 171.125239 -47.52 
L 172.311656 -47.52 
L 173.498073 -47.52 
L 174.68449 -47.52 
L 175.870908 -47.52 
L 177.057325 -47.52 
L 178.243742 -47.52 
L 179.430159 -47.52 
L 180.616576 -47.52 
L 181.802993 -47.52 
L 182.98941 -47.52 
L 184.175827 -47.52 
L 185.362244 -47.52 
L 186.548661 -47.52 
L 187.735078 -47.52 
L 188.921495 -47.52 
L 190.107913 -47.52 
L 191.29433 -47.52 
L 192.480747 -47.52 
L 193.667164 -47.52 
L 194.853581 -47.52 
L 196.039998 -47.52 
L 197.226415 -47.52 
L 198.412832 -47.52 
L 199.599249 -47.52 
L 200.785666 -47.52 
L 201.972083 -47.52 
L 203.1585 -47.52 
L 204.344918 -47.52 
L 205.531335 -47.52 
L 206.717752 -47.52 
L 207.904169 -47.52 
L 209.090586 -47.52 
L 210.277003 -47.52 
L 211.46342 -47.52 
L 212.649837 -47.52 
L 213.836254 -47.52 
L 215.022671 -47.52 
L 216.209088 -47.52 
L 217.395505 -47.52 
L 218.581923 -47.52 
L 219.76834 -47.52 
L 220.954757 -47.52 
L 222.141174 -47.52 
L 223.327591 -47.52 
L 224.514008 -47.52 
L 225.700425 -47.52 
L 226.886842 -47.52 
L 228.073259 -47.52 
L 229.259676 -47.52 
L 230.446093 -47.52 
L 231.63251 -47.52 
L 232.818928 -47.52 
L 234.005345 -47.52 
L 235.191762 -47.52 
L 236.378179 -47.52 
L 237.564596 -47.52 
L 238.751013 -47.52 
L 239.93743 -47.52 
L 241.123847 -47.52 
L 242.310264 -47.52 
L 243.496681 -47.52 
L 244.683098 -47.52 
L 245.869515 -47.52 
L 247.055933 -47.52 
L 248.24235 -47.52 
L 249.428767 -47.52 
L 250.615184 -47.52 
L 251.801601 -47.52 
L 252.988018 -47.52 
L 254.174435 -47.52 
L 255.360852 -47.52 
L 256.547269 -47.52 
L 257.733686 -47.52 
L 258.920103 -47.52 
L 260.10652 -47.52 
L 261.292937 -47.52 
L 262.479355 -47.52 
L 263.665772 -47.52 
L 264.852189 -47.52 
L 266.038606 -47.52 
L 267.225023 -47.52 
L 268.41144 -47.52 
L 269.597857 -47.52 
L 270.784274 -47.52 
L 271.970691 -47.52 
L 273.157108 -47.52 
L 274.343525 -47.52 
L 275.529942 -47.52 
L 276.71636 -47.52 
L 277.902777 -47.52 
L 279.089194 -47.52 
L 280.275611 -47.52 
L 281.462028 -47.52 
L 282.648445 -47.52 
L 283.834862 -47.52 
L 285.021279 -47.52 
L 286.207696 -47.52 
L 287.394113 -47.52 
L 288.58053 -47.52 
L 289.766947 -47.52 
L 290.953365 -47.52 
L 292.139782 -47.52 
L 293.326199 -47.52 
L 294.512616 -47.52 
L 295.699033 -47.52 
L 296.88545 -47.52 
L 298.071867 -47.52 
L 299.258284 -47.52 
L 300.444701 -47.52 
L 301.631118 -47.52 
L 302.817535 -47.52 
L 304.003952 -47.52 
L 305.19037 -47.52 
L 306.376787 -47.52 
L 307.563204 -47.52 
L 308.749621 -47.52 
L 309.936038 -47.52 
L 311.122455 -47.52 
L 312.308872 -47.52 
L 313.495289 -47.52 
L 314.681706 -47.52 
L 315.868123 -47.52 
L 317.05454 -47.52 
L 318.240957 -47.52 
L 319.427375 -47.52 
L 320.613792 -47.52 
L 321.800209 -47.52 
L 322.986626 -47.52 
L 324.173043 -47.52 
L 325.35946 -47.52 
L 326.545877 -47.52 
L 327.732294 -47.52 
L 328.918711 -47.52 
L 330.105128 -47.52 
L 331.291545 -47.52 
L 332.477962 -47.52 
L 333.66438 -47.52 
L 334.850797 -47.52 
L 336.037214 -47.52 
L 337.223631 -47.52 
L 338.410048 -47.52 
L 339.596465 -47.52 
L 340.782882 -47.52 
L 341.969299 -47.52 
L 343.155716 -47.52 
L 344.342133 -47.52 
L 345.52855 -47.52 
L 346.714967 -47.52 
L 347.901384 -47.52 
L 349.087802 -47.52 
L 350.274219 -47.52 
L 351.460636 -47.52 
L 351.460636 -48.532253 
L 351.460636 -48.532253 
L 350.274219 -48.68278 
L 349.087802 -48.853033 
L 347.901384 -49.045179 
L 346.714967 -49.26156 
L 345.52855 -49.504704 
L 344.342133 -49.777325 
L 343.155716 -50.082331 
L 341.969299 -50.422825 
L 340.782882 -50.802109 
L 339.596465 -51.223678 
L 338.410048 -51.691225 
L 337.223631 -52.208633 
L 336.037214 -52.779968 
L 334.850797 -53.409471 
L 333.66438 -54.101548 
L 332.477962 -54.860755 
L 331.291545 -55.691778 
L 330.105128 -56.599419 
L 328.918711 -57.588569 
L 327.732294 -58.664182 
L 326.545877 -59.831248 
L 325.35946 -61.09476 
L 324.173043 -62.459681 
L 322.986626 -63.930904 
L 321.800209 -65.513214 
L 320.613792 -67.211243 
L 319.427375 -69.029431 
L 318.240957 -70.971976 
L 317.05454 -73.042787 
L 315.868123 -75.245437 
L 314.681706 -77.583115 
L 313.495289 -80.058577 
L 312.308872 -82.674098 
L 311.122455 -85.431426 
L 309.936038 -88.331737 
L 308.749621 -91.375591 
L 307.563204 -94.562896 
L 306.376787 -97.892868 
L 305.19037 -101.364001 
L 304.003952 -104.974038 
L 302.817535 -108.719951 
L 301.631118 -112.597917 
L 300.444701 -116.603316 
L 299.258284 -120.730719 
L 298.071867 -124.973889 
L 296.88545 -129.325794 
L 295.699033 -133.778615 
L 294.512616 -138.323773 
L 293.326199 -142.951952 
L 292.139782 -147.653137 
L 290.953365 -152.416653 
L 289.766947 -157.231213 
L 288.58053 -162.084971 
L 287.394113 -166.965581 
L 286.207696 -171.860258 
L 285.021279 -176.755847 
L 283.834862 -181.638894 
L 282.648445 -186.495723 
L 281.462028 -191.312508 
L 280.275611 -196.075357 
L 279.089194 -200.77039 
L 277.902777 -205.383818 
L 276.71636 -209.902029 
L 275.529942 -214.311662 
L 274.343525 -218.599688 
L 273.157108 -222.753487 
L 271.970691 -226.760922 
L 270.784274 -230.610407 
L 269.597857 -234.290978 
L 268.41144 -237.792354 
L 267.225023 -241.104995 
L 266.038606 -244.220159 
L 264.852189 -247.129946 
L 263.665772 -249.827347 
L 262.479355 -252.306277 
L 261.292937 -254.56161 
L 260.10652 -256.589204 
L 258.920103 -258.385918 
L 257.733686 -259.949632 
L 256.547269 -261.279245 
L 255.360852 -262.374685 
L 254.174435 -263.236896 
L 252.988018 -263.867828 
L 251.801601 -264.270418 
L 250.615184 -264.448564 
L 249.428767 -264.407095 
L 248.24235 -264.151726 
L 247.055933 -263.689022 
L 245.869515 -263.02634 
L 244.683098 -262.171774 
L 243.496681 -261.134094 
L 242.310264 -259.922674 
L 241.123847 -258.547425 
L 239.93743 -257.018708 
L 238.751013 -255.347262 
L 237.564596 -253.544111 
L 236.378179 -251.620479 
L 235.191762 -249.587699 
L 234.005345 -247.457122 
L 232.818928 -245.240024 
L 231.63251 -242.947513 
L 230.446093 -240.590441 
L 229.259676 -238.179315 
L 228.073259 -235.724209 
L 226.886842 -233.234691 
L 225.700425 -230.719742 
L 224.514008 -228.187689 
L 223.327591 -225.646146 
L 222.141174 -223.10196 
L 220.954757 -220.561168 
L 219.76834 -218.02896 
L 218.581923 -215.50966 
L 217.395505 -213.006711 
L 216.209088 -210.52267 
L 215.022671 -208.059225 
L 213.836254 -205.617206 
L 212.649837 -203.196625 
L 211.46342 -200.796711 
L 210.277003 -198.415968 
L 209.090586 -196.05223 
L 207.904169 -193.702737 
L 206.717752 -191.364209 
L 205.531335 -189.032928 
L 204.344918 -186.70483 
L 203.1585 -184.375596 
L 201.972083 -182.040745 
L 200.785666 -179.695732 
L 199.599249 -177.336042 
L 198.412832 -174.957282 
L 197.226415 -172.555273 
L 196.039998 -170.126133 
L 194.853581 -167.666353 
L 193.667164 -165.172877 
L 192.480747 -162.643156 
L 191.29433 -160.07521 
L 190.107913 -157.467666 
L 188.921495 -154.819799 
L 187.735078 -152.131552 
L 186.548661 -149.403549 
L 185.362244 -146.637099 
L 184.175827 -143.834188 
L 182.98941 -140.997458 
L 181.802993 -138.130182 
L 180.616576 -135.236225 
L 179.430159 -132.32 
L 178.243742 -129.386415 
L 177.057325 -126.440815 
L 175.870908 -123.488918 
L 174.68449 -120.536746 
L 173.498073 -117.590557 
L 172.311656 -114.656772 
L 171.125239 -111.741902 
L 169.938822 -108.852477 
L 168.752405 -105.994973 
L 167.565988 -103.175748 
L 166.379571 -100.400977 
L 165.193154 -97.676592 
L 164.006737 -95.008224 
L 162.82032 -92.401163 
L 161.633903 -89.860306 
L 160.447485 -87.390125 
L 159.261068 -84.994637 
L 158.074651 -82.677381 
L 156.888234 -80.441399 
L 155.701817 -78.289231 
L 154.5154 -76.222907 
L 153.328983 -74.243953 
L 152.142566 -72.353396 
L 150.956149 -70.55178 
L 149.769732 -68.839183 
L 148.583315 -67.215239 
L 147.396898 -65.679163 
L 146.210481 -64.229784 
L 145.024063 -62.865569 
L 143.837646 -61.584662 
L 142.651229 -60.384915 
L 141.464812 -59.263924 
L 140.278395 -58.219065 
L 139.091978 -57.247527 
L 137.905561 -56.346345 
L 136.719144 -55.512438 
L 135.532727 -54.742637 
L 134.34631 -54.033714 
L 133.159893 -53.382413 
L 131.973476 -52.785474 
L 130.787058 -52.239658 
L 129.600641 -51.741767 
L 128.414224 -51.288665 
L 127.227807 -50.877293 
L 126.04139 -50.504683 
L 124.854973 -50.167975 
L 123.668556 -49.864417 
L 122.482139 -49.591385 
L 121.295722 -49.346378 
L 120.109305 -49.127029 
L 118.922888 -48.931105 
L 117.736471 -48.756508 
L 116.550053 -48.601275 
L 115.363636 -48.463574 
z
" style="stroke: #ff7f0e"/>
    </defs>
    <g clip-path="url(#p9ac182c68a)">
     <use xlink:href="#m2a180bb2bb" x="0" y="432" style="fill: #ff7f0e; fill-opacity: 0.25; stroke: #ff7f0e"/>
    </g>
   </g>
   <g id="FillBetweenPolyCollection_3">
    <defs>
     <path id="m541906961f" d="M 125.118727 -48.225076 
L 125.118727 -47.52 
L 127.618816 -47.52 
L 130.118904 -47.52 
L 132.618993 -47.52 
L 135.119082 -47.52 
L 137.61917 -47.52 
L 140.119259 -47.52 
L 142.619347 -47.52 
L 145.119436 -47.52 
L 147.619525 -47.52 
L 150.119613 -47.52 
L 152.619702 -47.52 
L 155.119791 -47.52 
L 157.619879 -47.52 
L 160.119968 -47.52 
L 162.620056 -47.52 
L 165.120145 -47.52 
L 167.620234 -47.52 
L 170.120322 -47.52 
L 172.620411 -47.52 
L 175.1205 -47.52 
L 177.620588 -47.52 
L 180.120677 -47.52 
L 182.620766 -47.52 
L 185.120854 -47.52 
L 187.620943 -47.52 
L 190.121031 -47.52 
L 192.62112 -47.52 
L 195.121209 -47.52 
L 197.621297 -47.52 
L 200.121386 -47.52 
L 202.621475 -47.52 
L 205.121563 -47.52 
L 207.621652 -47.52 
L 210.12174 -47.52 
L 212.621829 -47.52 
L 215.121918 -47.52 
L 217.622006 -47.52 
L 220.122095 -47.52 
L 222.622184 -47.52 
L 225.122272 -47.52 
L 227.622361 -47.52 
L 230.122449 -47.52 
L 232.622538 -47.52 
L 235.122627 -47.52 
L 237.622715 -47.52 
L 240.122804 -47.52 
L 242.622893 -47.52 
L 245.122981 -47.52 
L 247.62307 -47.52 
L 250.123158 -47.52 
L 252.623247 -47.52 
L 255.123336 -47.52 
L 257.623424 -47.52 
L 260.123513 -47.52 
L 262.623602 -47.52 
L 265.12369 -47.52 
L 267.623779 -47.52 
L 270.123867 -47.52 
L 272.623956 -47.52 
L 275.124045 -47.52 
L 277.624133 -47.52 
L 280.124222 -47.52 
L 282.624311 -47.52 
L 285.124399 -47.52 
L 287.624488 -47.52 
L 290.124576 -47.52 
L 292.624665 -47.52 
L 295.124754 -47.52 
L 297.624842 -47.52 
L 300.124931 -47.52 
L 302.62502 -47.52 
L 305.125108 -47.52 
L 307.625197 -47.52 
L 310.125285 -47.52 
L 312.625374 -47.52 
L 315.125463 -47.52 
L 317.625551 -47.52 
L 320.12564 -47.52 
L 322.625729 -47.52 
L 325.125817 -47.52 
L 327.625906 -47.52 
L 330.125994 -47.52 
L 332.626083 -47.52 
L 335.126172 -47.52 
L 337.62626 -47.52 
L 340.126349 -47.52 
L 342.626438 -47.52 
L 345.126526 -47.52 
L 347.626615 -47.52 
L 350.126703 -47.52 
L 352.626792 -47.52 
L 355.126881 -47.52 
L 357.626969 -47.52 
L 360.127058 -47.52 
L 362.627147 -47.52 
L 365.127235 -47.52 
L 367.627324 -47.52 
L 370.127412 -47.52 
L 372.627501 -47.52 
L 375.12759 -47.52 
L 377.627678 -47.52 
L 380.127767 -47.52 
L 382.627856 -47.52 
L 385.127944 -47.52 
L 387.628033 -47.52 
L 390.128121 -47.52 
L 392.62821 -47.52 
L 395.128299 -47.52 
L 397.628387 -47.52 
L 400.128476 -47.52 
L 402.628565 -47.52 
L 405.128653 -47.52 
L 407.628742 -47.52 
L 410.12883 -47.52 
L 412.628919 -47.52 
L 415.129008 -47.52 
L 417.629096 -47.52 
L 420.129185 -47.52 
L 422.629274 -47.52 
L 425.129362 -47.52 
L 427.629451 -47.52 
L 430.129539 -47.52 
L 432.629628 -47.52 
L 435.129717 -47.52 
L 437.629805 -47.52 
L 440.129894 -47.52 
L 442.629983 -47.52 
L 445.130071 -47.52 
L 447.63016 -47.52 
L 450.130248 -47.52 
L 452.630337 -47.52 
L 455.130426 -47.52 
L 457.630514 -47.52 
L 460.130603 -47.52 
L 462.630692 -47.52 
L 465.13078 -47.52 
L 467.630869 -47.52 
L 470.130957 -47.52 
L 472.631046 -47.52 
L 475.131135 -47.52 
L 477.631223 -47.52 
L 480.131312 -47.52 
L 482.631401 -47.52 
L 485.131489 -47.52 
L 487.631578 -47.52 
L 490.131666 -47.52 
L 492.631755 -47.52 
L 495.131844 -47.52 
L 497.631932 -47.52 
L 500.132021 -47.52 
L 502.63211 -47.52 
L 505.132198 -47.52 
L 507.632287 -47.52 
L 510.132375 -47.52 
L 512.632464 -47.52 
L 515.132553 -47.52 
L 517.632641 -47.52 
L 520.13273 -47.52 
L 522.632819 -47.52 
L 525.132907 -47.52 
L 527.632996 -47.52 
L 530.133084 -47.52 
L 532.633173 -47.52 
L 535.133262 -47.52 
L 537.63335 -47.52 
L 540.133439 -47.52 
L 542.633528 -47.52 
L 545.133616 -47.52 
L 547.633705 -47.52 
L 550.133793 -47.52 
L 552.633882 -47.52 
L 555.133971 -47.52 
L 557.634059 -47.52 
L 560.134148 -47.52 
L 562.634237 -47.52 
L 565.134325 -47.52 
L 567.634414 -47.52 
L 570.134502 -47.52 
L 572.634591 -47.52 
L 575.13468 -47.52 
L 577.634768 -47.52 
L 580.134857 -47.52 
L 582.634946 -47.52 
L 585.135034 -47.52 
L 587.635123 -47.52 
L 590.135212 -47.52 
L 592.6353 -47.52 
L 595.135389 -47.52 
L 597.635477 -47.52 
L 600.135566 -47.52 
L 602.635655 -47.52 
L 605.135743 -47.52 
L 607.635832 -47.52 
L 610.135921 -47.52 
L 612.636009 -47.52 
L 615.136098 -47.52 
L 617.636186 -47.52 
L 620.136275 -47.52 
L 622.636364 -47.52 
L 622.636364 -47.554972 
L 622.636364 -47.554972 
L 620.136275 -47.568357 
L 617.636186 -47.58606 
L 615.136098 -47.609157 
L 612.636009 -47.638883 
L 610.135921 -47.676611 
L 607.635832 -47.72383 
L 605.135743 -47.782092 
L 602.635655 -47.852952 
L 600.135566 -47.937878 
L 597.635477 -48.038156 
L 595.135389 -48.154763 
L 592.6353 -48.288254 
L 590.135212 -48.438626 
L 587.635123 -48.605212 
L 585.135034 -48.786577 
L 582.634946 -48.980461 
L 580.134857 -49.183757 
L 577.634768 -49.392539 
L 575.13468 -49.602157 
L 572.634591 -49.807375 
L 570.134502 -50.002576 
L 567.634414 -50.182007 
L 565.134325 -50.340052 
L 562.634237 -50.471525 
L 560.134148 -50.571948 
L 557.634059 -50.637807 
L 555.133971 -50.666753 
L 552.633882 -50.657743 
L 550.133793 -50.611104 
L 547.633705 -50.528508 
L 545.133616 -50.412877 
L 542.633528 -50.268212 
L 540.133439 -50.09936 
L 537.63335 -49.911746 
L 535.133262 -49.711087 
L 532.633173 -49.503105 
L 530.133084 -49.293265 
L 527.632996 -49.086548 
L 525.132907 -48.887278 
L 522.632819 -48.699002 
L 520.13273 -48.52443 
L 517.632641 -48.365431 
L 515.132553 -48.223077 
L 512.632464 -48.09772 
L 510.132375 -47.989104 
L 507.632287 -47.896488 
L 505.132198 -47.818779 
L 502.63211 -47.754656 
L 500.132021 -47.702689 
L 497.631932 -47.661446 
L 495.131844 -47.629576 
L 492.631755 -47.605882 
L 490.131666 -47.589383 
L 487.631578 -47.579351 
L 485.131489 -47.575347 
L 482.631401 -47.577249 
L 480.131312 -47.585272 
L 477.631223 -47.599979 
L 475.131135 -47.622302 
L 472.631046 -47.653544 
L 470.130957 -47.69538 
L 467.630869 -47.749854 
L 465.13078 -47.81936 
L 462.630692 -47.906606 
L 460.130603 -48.014567 
L 457.630514 -48.146411 
L 455.130426 -48.305411 
L 452.630337 -48.494824 
L 450.130248 -48.717766 
L 447.63016 -48.977054 
L 445.130071 -49.275053 
L 442.629983 -49.613506 
L 440.129894 -49.993382 
L 437.629805 -50.414735 
L 435.129717 -50.87659 
L 432.629628 -51.376875 
L 430.129539 -51.912395 
L 427.629451 -52.478876 
L 425.129362 -53.071065 
L 422.629274 -53.682913 
L 420.129185 -54.307825 
L 417.629096 -54.938988 
L 415.129008 -55.569761 
L 412.628919 -56.194124 
L 410.12883 -56.807166 
L 407.628742 -57.405592 
L 405.128653 -57.988237 
L 402.628565 -58.55654 
L 400.128476 -59.11497 
L 397.628387 -59.67136 
L 395.128299 -60.237119 
L 392.62821 -60.827309 
L 390.128121 -61.460538 
L 387.628033 -62.158672 
L 385.127944 -62.946349 
L 382.627856 -63.85028 
L 380.127767 -64.898369 
L 377.627678 -66.118656 
L 375.12759 -67.538128 
L 372.627501 -69.181436 
L 370.127412 -71.069583 
L 367.627324 -73.218654 
L 365.127235 -75.638649 
L 362.627147 -78.33251 
L 360.127058 -81.295403 
L 357.626969 -84.514321 
L 355.126881 -87.968067 
L 352.626792 -91.627618 
L 350.126703 -95.456911 
L 347.626615 -99.413992 
L 345.126526 -103.4525 
L 342.626438 -107.523408 
L 340.126349 -111.576918 
L 337.62626 -115.564416 
L 335.126172 -119.440365 
L 332.626083 -123.164018 
L 330.125994 -126.700879 
L 327.625906 -130.023798 
L 325.125817 -133.113674 
L 322.625729 -135.959713 
L 320.12564 -138.559262 
L 317.625551 -140.917228 
L 315.125463 -143.045154 
L 312.625374 -144.960005 
L 310.125285 -146.682765 
L 307.625197 -148.236936 
L 305.125108 -149.647041 
L 302.62502 -150.937214 
L 300.124931 -152.129979 
L 297.624842 -153.245283 
L 295.124754 -154.299828 
L 292.624665 -155.306753 
L 290.124576 -156.275659 
L 287.624488 -157.212975 
L 285.124399 -158.122623 
L 282.624311 -159.006923 
L 280.124222 -159.867665 
L 277.624133 -160.707257 
L 275.124045 -161.529849 
L 272.623956 -162.342334 
L 270.123867 -163.155124 
L 267.623779 -163.982615 
L 265.12369 -164.843278 
L 262.623602 -165.759303 
L 260.123513 -166.755803 
L 257.623424 -167.85955 
L 255.123336 -169.097308 
L 252.623247 -170.493818 
L 250.123158 -172.06954 
L 247.62307 -173.838284 
L 245.122981 -175.804875 
L 242.622893 -177.96302 
L 240.122804 -180.293548 
L 237.622715 -182.763165 
L 235.122627 -185.323891 
L 232.622538 -187.913253 
L 230.122449 -190.455319 
L 227.622361 -192.862571 
L 225.122272 -195.038584 
L 222.622184 -196.881404 
L 220.122095 -198.287482 
L 217.622006 -199.155978 
L 215.121918 -199.393202 
L 212.621829 -198.916971 
L 210.12174 -197.660634 
L 207.621652 -195.576544 
L 205.121563 -192.638775 
L 202.621475 -188.844932 
L 200.121386 -184.216944 
L 197.621297 -178.800772 
L 195.121209 -172.665056 
L 192.62112 -165.89874 
L 190.121031 -158.607819 
L 187.620943 -150.911346 
L 185.120854 -142.93693 
L 182.620766 -134.815959 
L 180.120677 -126.678783 
L 177.620588 -118.650129 
L 175.1205 -110.844962 
L 172.620411 -103.365001 
L 170.120322 -96.29604 
L 167.620234 -89.706159 
L 165.120145 -83.644885 
L 162.620056 -78.143242 
L 160.119968 -73.214642 
L 157.619879 -68.856464 
L 155.119791 -65.052174 
L 152.619702 -61.773802 
L 150.119613 -58.984589 
L 147.619525 -56.641648 
L 145.119436 -54.698478 
L 142.619347 -53.107218 
L 140.119259 -51.820568 
L 137.61917 -50.793318 
L 135.119082 -49.983489 
L 132.618993 -49.353088 
L 130.118904 -48.868523 
L 127.618816 -48.500732 
L 125.118727 -48.225076 
z
" style="stroke: #2ca02c"/>
    </defs>
    <g clip-path="url(#p9ac182c68a)">
     <use xlink:href="#m541906961f" x="0" y="432" style="fill: #2ca02c; fill-opacity: 0.25; stroke: #2ca02c"/>
    </g>
   </g>
   <g id="FillBetweenPolyCollection_4">
    <defs>
     <path id="m8c56b3dd7e" d="M 139.315874 -48.67338 
L 139.315874 -47.52 
L 140.564075 -47.52 
L 141.812276 -47.52 
L 143.060477 -47.52 
L 144.308678 -47.52 
L 145.556879 -47.52 
L 146.805079 -47.52 
L 148.05328 -47.52 
L 149.301481 -47.52 
L 150.549682 -47.52 
L 151.797883 -47.52 
L 153.046084 -47.52 
L 154.294285 -47.52 
L 155.542486 -47.52 
L 156.790687 -47.52 
L 158.038888 -47.52 
L 159.287089 -47.52 
L 160.53529 -47.52 
L 161.783491 -47.52 
L 163.031692 -47.52 
L 164.279892 -47.52 
L 165.528093 -47.52 
L 166.776294 -47.52 
L 168.024495 -47.52 
L 169.272696 -47.52 
L 170.520897 -47.52 
L 171.769098 -47.52 
L 173.017299 -47.52 
L 174.2655 -47.52 
L 175.513701 -47.52 
L 176.761902 -47.52 
L 178.010103 -47.52 
L 179.258304 -47.52 
L 180.506505 -47.52 
L 181.754706 -47.52 
L 183.002906 -47.52 
L 184.251107 -47.52 
L 185.499308 -47.52 
L 186.747509 -47.52 
L 187.99571 -47.52 
L 189.243911 -47.52 
L 190.492112 -47.52 
L 191.740313 -47.52 
L 192.988514 -47.52 
L 194.236715 -47.52 
L 195.484916 -47.52 
L 196.733117 -47.52 
L 197.981318 -47.52 
L 199.229519 -47.52 
L 200.47772 -47.52 
L 201.72592 -47.52 
L 202.974121 -47.52 
L 204.222322 -47.52 
L 205.470523 -47.52 
L 206.718724 -47.52 
L 207.966925 -47.52 
L 209.215126 -47.52 
L 210.463327 -47.52 
L 211.711528 -47.52 
L 212.959729 -47.52 
L 214.20793 -47.52 
L 215.456131 -47.52 
L 216.704332 -47.52 
L 217.952533 -47.52 
L 219.200734 -47.52 
L 220.448934 -47.52 
L 221.697135 -47.52 
L 222.945336 -47.52 
L 224.193537 -47.52 
L 225.441738 -47.52 
L 226.689939 -47.52 
L 227.93814 -47.52 
L 229.186341 -47.52 
L 230.434542 -47.52 
L 231.682743 -47.52 
L 232.930944 -47.52 
L 234.179145 -47.52 
L 235.427346 -47.52 
L 236.675547 -47.52 
L 237.923748 -47.52 
L 239.171948 -47.52 
L 240.420149 -47.52 
L 241.66835 -47.52 
L 242.916551 -47.52 
L 244.164752 -47.52 
L 245.412953 -47.52 
L 246.661154 -47.52 
L 247.909355 -47.52 
L 249.157556 -47.52 
L 250.405757 -47.52 
L 251.653958 -47.52 
L 252.902159 -47.52 
L 254.15036 -47.52 
L 255.398561 -47.52 
L 256.646761 -47.52 
L 257.894962 -47.52 
L 259.143163 -47.52 
L 260.391364 -47.52 
L 261.639565 -47.52 
L 262.887766 -47.52 
L 264.135967 -47.52 
L 265.384168 -47.52 
L 266.632369 -47.52 
L 267.88057 -47.52 
L 269.128771 -47.52 
L 270.376972 -47.52 
L 271.625173 -47.52 
L 272.873374 -47.52 
L 274.121575 -47.52 
L 275.369775 -47.52 
L 276.617976 -47.52 
L 277.866177 -47.52 
L 279.114378 -47.52 
L 280.362579 -47.52 
L 281.61078 -47.52 
L 282.858981 -47.52 
L 284.107182 -47.52 
L 285.355383 -47.52 
L 286.603584 -47.52 
L 287.851785 -47.52 
L 289.099986 -47.52 
L 290.348187 -47.52 
L 291.596388 -47.52 
L 292.844589 -47.52 
L 294.092789 -47.52 
L 295.34099 -47.52 
L 296.589191 -47.52 
L 297.837392 -47.52 
L 299.085593 -47.52 
L 300.333794 -47.52 
L 301.581995 -47.52 
L 302.830196 -47.52 
L 304.078397 -47.52 
L 305.326598 -47.52 
L 306.574799 -47.52 
L 307.823 -47.52 
L 309.071201 -47.52 
L 310.319402 -47.52 
L 311.567603 -47.52 
L 312.815803 -47.52 
L 314.064004 -47.52 
L 315.312205 -47.52 
L 316.560406 -47.52 
L 317.808607 -47.52 
L 319.056808 -47.52 
L 320.305009 -47.52 
L 321.55321 -47.52 
L 322.801411 -47.52 
L 324.049612 -47.52 
L 325.297813 -47.52 
L 326.546014 -47.52 
L 327.794215 -47.52 
L 329.042416 -47.52 
L 330.290617 -47.52 
L 331.538817 -47.52 
L 332.787018 -47.52 
L 334.035219 -47.52 
L 335.28342 -47.52 
L 336.531621 -47.52 
L 337.779822 -47.52 
L 339.028023 -47.52 
L 340.276224 -47.52 
L 341.524425 -47.52 
L 342.772626 -47.52 
L 344.020827 -47.52 
L 345.269028 -47.52 
L 346.517229 -47.52 
L 347.76543 -47.52 
L 349.01363 -47.52 
L 350.261831 -47.52 
L 351.510032 -47.52 
L 352.758233 -47.52 
L 354.006434 -47.52 
L 355.254635 -47.52 
L 356.502836 -47.52 
L 357.751037 -47.52 
L 358.999238 -47.52 
L 360.247439 -47.52 
L 361.49564 -47.52 
L 362.743841 -47.52 
L 363.992042 -47.52 
L 365.240243 -47.52 
L 366.488444 -47.52 
L 367.736644 -47.52 
L 368.984845 -47.52 
L 370.233046 -47.52 
L 371.481247 -47.52 
L 372.729448 -47.52 
L 373.977649 -47.52 
L 375.22585 -47.52 
L 376.474051 -47.52 
L 377.722252 -47.52 
L 378.970453 -47.52 
L 380.218654 -47.52 
L 381.466855 -47.52 
L 382.715056 -47.52 
L 383.963257 -47.52 
L 385.211458 -47.52 
L 386.459658 -47.52 
L 387.707859 -47.52 
L 387.707859 -47.633297 
L 387.707859 -47.633297 
L 386.459658 -47.659204 
L 385.211458 -47.690217 
L 383.963257 -47.727145 
L 382.715056 -47.770883 
L 381.466855 -47.82241 
L 380.218654 -47.882785 
L 378.970453 -47.953148 
L 377.722252 -48.034707 
L 376.474051 -48.128732 
L 375.22585 -48.236539 
L 373.977649 -48.359474 
L 372.729448 -48.498896 
L 371.481247 -48.656151 
L 370.233046 -48.832551 
L 368.984845 -49.029345 
L 367.736644 -49.247695 
L 366.488444 -49.488646 
L 365.240243 -49.753104 
L 363.992042 -50.041812 
L 362.743841 -50.355329 
L 361.49564 -50.694025 
L 360.247439 -51.05807 
L 358.999238 -51.447446 
L 357.751037 -51.86196 
L 356.502836 -52.301273 
L 355.254635 -52.764947 
L 354.006434 -53.252502 
L 352.758233 -53.763488 
L 351.510032 -54.29757 
L 350.261831 -54.854636 
L 349.01363 -55.434903 
L 347.76543 -56.03904 
L 346.517229 -56.668299 
L 345.269028 -57.324642 
L 344.020827 -58.010867 
L 342.772626 -58.730731 
L 341.524425 -59.48905 
L 340.276224 -60.291788 
L 339.028023 -61.146114 
L 337.779822 -62.060429 
L 336.531621 -63.044359 
L 335.28342 -64.108694 
L 334.035219 -65.2653 
L 332.787018 -66.526963 
L 331.538817 -67.907193 
L 330.290617 -69.419982 
L 329.042416 -71.079504 
L 327.794215 -72.899785 
L 326.546014 -74.894327 
L 325.297813 -77.075715 
L 324.049612 -79.455194 
L 322.801411 -82.042253 
L 321.55321 -84.844208 
L 320.305009 -87.86581 
L 319.056808 -91.108885 
L 317.808607 -94.572027 
L 316.560406 -98.250351 
L 315.312205 -102.135315 
L 314.064004 -106.214639 
L 312.815803 -110.472302 
L 311.567603 -114.888642 
L 310.319402 -119.440557 
L 309.071201 -124.101795 
L 307.823 -128.843346 
L 306.574799 -133.633911 
L 305.326598 -138.440443 
L 304.078397 -143.228753 
L 302.830196 -147.964149 
L 301.581995 -152.612108 
L 300.333794 -157.13894 
L 299.085593 -161.512452 
L 297.837392 -165.702563 
L 296.589191 -169.681876 
L 295.34099 -173.426175 
L 294.092789 -176.914844 
L 292.844589 -180.131194 
L 291.596388 -183.062681 
L 290.348187 -185.701031 
L 289.099986 -188.042254 
L 287.851785 -190.08656 
L 286.603584 -191.838175 
L 285.355383 -193.305081 
L 284.107182 -194.498679 
L 282.858981 -195.433388 
L 281.61078 -196.126209 
L 280.362579 -196.596252 
L 279.114378 -196.86426 
L 277.866177 -196.952122 
L 276.617976 -196.882413 
L 275.369775 -196.677958 
L 274.121575 -196.361434 
L 272.873374 -195.955021 
L 271.625173 -195.480101 
L 270.376972 -194.957022 
L 269.128771 -194.404909 
L 267.88057 -193.841542 
L 266.632369 -193.28328 
L 265.384168 -192.745041 
L 264.135967 -192.240322 
L 262.887766 -191.781257 
L 261.639565 -191.378702 
L 260.391364 -191.04235 
L 259.143163 -190.780844 
L 257.894962 -190.60191 
L 256.646761 -190.512476 
L 255.398561 -190.51879 
L 254.15036 -190.626516 
L 252.902159 -190.840813 
L 251.653958 -191.166391 
L 250.405757 -191.607536 
L 249.157556 -192.168109 
L 247.909355 -192.851521 
L 246.661154 -193.660672 
L 245.412953 -194.597875 
L 244.164752 -195.664749 
L 242.916551 -196.862103 
L 241.66835 -198.189801 
L 240.420149 -199.646622 
L 239.171948 -201.230117 
L 237.923748 -202.936473 
L 236.675547 -204.76038 
L 235.427346 -206.694919 
L 234.179145 -208.731464 
L 232.930944 -210.859609 
L 231.682743 -213.067129 
L 230.434542 -215.339957 
L 229.186341 -217.662204 
L 227.93814 -220.016207 
L 226.689939 -222.38261 
L 225.441738 -224.740473 
L 224.193537 -227.067421 
L 222.945336 -229.339806 
L 221.697135 -231.532908 
L 220.448934 -233.62115 
L 219.200734 -235.578336 
L 217.952533 -237.377908 
L 216.704332 -238.993207 
L 215.456131 -240.39776 
L 214.20793 -241.565561 
L 212.959729 -242.471369 
L 211.711528 -243.091005 
L 210.463327 -243.401656 
L 209.215126 -243.382173 
L 207.966925 -243.013373 
L 206.718724 -242.278335 
L 205.470523 -241.162687 
L 204.222322 -239.654881 
L 202.974121 -237.746454 
L 201.72592 -235.432266 
L 200.47772 -232.710707 
L 199.229519 -229.583871 
L 197.981318 -226.057694 
L 196.733117 -222.142033 
L 195.484916 -217.850693 
L 194.236715 -213.2014 
L 192.988514 -208.215694 
L 191.740313 -202.918766 
L 190.492112 -197.339211 
L 189.243911 -191.508724 
L 187.99571 -185.461716 
L 186.747509 -179.234874 
L 185.499308 -172.866672 
L 184.251107 -166.396825 
L 183.002906 -159.865726 
L 181.754706 -153.313849 
L 180.506505 -146.781163 
L 179.258304 -140.306546 
L 178.010103 -133.927227 
L 176.761902 -127.678271 
L 175.513701 -121.592114 
L 174.2655 -115.698162 
L 173.017299 -110.022459 
L 171.769098 -104.587441 
L 170.520897 -99.411769 
L 169.272696 -94.510244 
L 168.024495 -89.893803 
L 166.776294 -85.569601 
L 165.528093 -81.541156 
L 164.279892 -77.808561 
L 163.031692 -74.368749 
L 161.783491 -71.215802 
L 160.53529 -68.34129 
L 159.287089 -65.734634 
L 158.038888 -63.383477 
L 156.790687 -61.274051 
L 155.542486 -59.391541 
L 154.294285 -57.720427 
L 153.046084 -56.244801 
L 151.797883 -54.94866 
L 150.549682 -53.816155 
L 149.301481 -52.831817 
L 148.05328 -51.980741 
L 146.805079 -51.248729 
L 145.556879 -50.622406 
L 144.308678 -50.089303 
L 143.060477 -49.6379 
L 141.812276 -49.257659 
L 140.564075 -48.939019 
L 139.315874 -48.67338 
z
" style="stroke: #d62728"/>
    </defs>
    <g clip-path="url(#p9ac182c68a)">
     <use xlink:href="#m8c56b3dd7e" x="0" y="432" style="fill: #d62728; fill-opacity: 0.25; stroke: #d62728"/>
    </g>
   </g>
   <g id="FillBetweenPolyCollection_5">
    <defs>
     <path id="m6414fdc0f0" d="M 137.92343 -48.968241 
L 137.92343 -47.52 
L 139.790645 -47.52 
L 141.65786 -47.52 
L 143.525076 -47.52 
L 145.392291 -47.52 
L 147.259506 -47.52 
L 149.126721 -47.52 
L 150.993936 -47.52 
L 152.861151 -47.52 
L 154.728366 -47.52 
L 156.595581 -47.52 
L 158.462796 -47.52 
L 160.330011 -47.52 
L 162.197226 -47.52 
L 164.064441 -47.52 
L 165.931656 -47.52 
L 167.798871 -47.52 
L 169.666086 -47.52 
L 171.533301 -47.52 
L 173.400516 -47.52 
L 175.267731 -47.52 
L 177.134946 -47.52 
L 179.002161 -47.52 
L 180.869377 -47.52 
L 182.736592 -47.52 
L 184.603807 -47.52 
L 186.471022 -47.52 
L 188.338237 -47.52 
L 190.205452 -47.52 
L 192.072667 -47.52 
L 193.939882 -47.52 
L 195.807097 -47.52 
L 197.674312 -47.52 
L 199.541527 -47.52 
L 201.408742 -47.52 
L 203.275957 -47.52 
L 205.143172 -47.52 
L 207.010387 -47.52 
L 208.877602 -47.52 
L 210.744817 -47.52 
L 212.612032 -47.52 
L 214.479247 -47.52 
L 216.346462 -47.52 
L 218.213677 -47.52 
L 220.080893 -47.52 
L 221.948108 -47.52 
L 223.815323 -47.52 
L 225.682538 -47.52 
L 227.549753 -47.52 
L 229.416968 -47.52 
L 231.284183 -47.52 
L 233.151398 -47.52 
L 235.018613 -47.52 
L 236.885828 -47.52 
L 238.753043 -47.52 
L 240.620258 -47.52 
L 242.487473 -47.52 
L 244.354688 -47.52 
L 246.221903 -47.52 
L 248.089118 -47.52 
L 249.956333 -47.52 
L 251.823548 -47.52 
L 253.690763 -47.52 
L 255.557978 -47.52 
L 257.425194 -47.52 
L 259.292409 -47.52 
L 261.159624 -47.52 
L 263.026839 -47.52 
L 264.894054 -47.52 
L 266.761269 -47.52 
L 268.628484 -47.52 
L 270.495699 -47.52 
L 272.362914 -47.52 
L 274.230129 -47.52 
L 276.097344 -47.52 
L 277.964559 -47.52 
L 279.831774 -47.52 
L 281.698989 -47.52 
L 283.566204 -47.52 
L 285.433419 -47.52 
L 287.300634 -47.52 
L 289.167849 -47.52 
L 291.035064 -47.52 
L 292.902279 -47.52 
L 294.769494 -47.52 
L 296.63671 -47.52 
L 298.503925 -47.52 
L 300.37114 -47.52 
L 302.238355 -47.52 
L 304.10557 -47.52 
L 305.972785 -47.52 
L 307.84 -47.52 
L 309.707215 -47.52 
L 311.57443 -47.52 
L 313.441645 -47.52 
L 315.30886 -47.52 
L 317.176075 -47.52 
L 319.04329 -47.52 
L 320.910505 -47.52 
L 322.77772 -47.52 
L 324.644935 -47.52 
L 326.51215 -47.52 
L 328.379365 -47.52 
L 330.24658 -47.52 
L 332.113795 -47.52 
L 333.981011 -47.52 
L 335.848226 -47.52 
L 337.715441 -47.52 
L 339.582656 -47.52 
L 341.449871 -47.52 
L 343.317086 -47.52 
L 345.184301 -47.52 
L 347.051516 -47.52 
L 348.918731 -47.52 
L 350.785946 -47.52 
L 352.653161 -47.52 
L 354.520376 -47.52 
L 356.387591 -47.52 
L 358.254806 -47.52 
L 360.122021 -47.52 
L 361.989236 -47.52 
L 363.856451 -47.52 
L 365.723666 -47.52 
L 367.590881 -47.52 
L 369.458096 -47.52 
L 371.325312 -47.52 
L 373.192527 -47.52 
L 375.059742 -47.52 
L 376.926957 -47.52 
L 378.794172 -47.52 
L 380.661387 -47.52 
L 382.528602 -47.52 
L 384.395817 -47.52 
L 386.263032 -47.52 
L 388.130247 -47.52 
L 389.997462 -47.52 
L 391.864677 -47.52 
L 393.731892 -47.52 
L 395.599107 -47.52 
L 397.466322 -47.52 
L 399.333537 -47.52 
L 401.200752 -47.52 
L 403.067967 -47.52 
L 404.935182 -47.52 
L 406.802397 -47.52 
L 408.669612 -47.52 
L 410.536828 -47.52 
L 412.404043 -47.52 
L 414.271258 -47.52 
L 416.138473 -47.52 
L 418.005688 -47.52 
L 419.872903 -47.52 
L 421.740118 -47.52 
L 423.607333 -47.52 
L 425.474548 -47.52 
L 427.341763 -47.52 
L 429.208978 -47.52 
L 431.076193 -47.52 
L 432.943408 -47.52 
L 434.810623 -47.52 
L 436.677838 -47.52 
L 438.545053 -47.52 
L 440.412268 -47.52 
L 442.279483 -47.52 
L 444.146698 -47.52 
L 446.013913 -47.52 
L 447.881129 -47.52 
L 449.748344 -47.52 
L 451.615559 -47.52 
L 453.482774 -47.52 
L 455.349989 -47.52 
L 457.217204 -47.52 
L 459.084419 -47.52 
L 460.951634 -47.52 
L 462.818849 -47.52 
L 464.686064 -47.52 
L 466.553279 -47.52 
L 468.420494 -47.52 
L 470.287709 -47.52 
L 472.154924 -47.52 
L 474.022139 -47.52 
L 475.889354 -47.52 
L 477.756569 -47.52 
L 479.623784 -47.52 
L 481.490999 -47.52 
L 483.358214 -47.52 
L 485.22543 -47.52 
L 487.092645 -47.52 
L 488.95986 -47.52 
L 490.827075 -47.52 
L 492.69429 -47.52 
L 494.561505 -47.52 
L 496.42872 -47.52 
L 498.295935 -47.52 
L 500.16315 -47.52 
L 502.030365 -47.52 
L 503.89758 -47.52 
L 505.764795 -47.52 
L 507.63201 -47.52 
L 509.499225 -47.52 
L 509.499225 -47.557564 
L 509.499225 -47.557564 
L 507.63201 -47.570629 
L 505.764795 -47.587541 
L 503.89758 -47.609185 
L 502.030365 -47.636566 
L 500.16315 -47.6708 
L 498.295935 -47.713102 
L 496.42872 -47.76475 
L 494.561505 -47.827053 
L 492.69429 -47.90129 
L 490.827075 -47.988653 
L 488.95986 -48.090164 
L 487.092645 -48.206597 
L 485.22543 -48.338385 
L 483.358214 -48.485532 
L 481.490999 -48.647535 
L 479.623784 -48.82331 
L 477.756569 -49.011149 
L 475.889354 -49.208693 
L 474.022139 -49.412946 
L 472.154924 -49.620321 
L 470.287709 -49.826724 
L 468.420494 -50.02768 
L 466.553279 -50.218487 
L 464.686064 -50.394406 
L 462.818849 -50.55086 
L 460.951634 -50.683649 
L 459.084419 -50.789159 
L 457.217204 -50.864549 
L 455.349989 -50.907919 
L 453.482774 -50.918428 
L 451.615559 -50.896373 
L 449.748344 -50.843216 
L 447.881129 -50.761548 
L 446.013913 -50.655018 
L 444.146698 -50.528209 
L 442.279483 -50.386473 
L 440.412268 -50.235748 
L 438.545053 -50.082359 
L 436.677838 -49.932805 
L 434.810623 -49.793566 
L 432.943408 -49.670913 
L 431.076193 -49.570744 
L 429.208978 -49.49845 
L 427.341763 -49.458797 
L 425.474548 -49.45585 
L 423.607333 -49.492912 
L 421.740118 -49.572498 
L 419.872903 -49.696319 
L 418.005688 -49.865296 
L 416.138473 -50.079576 
L 414.271258 -50.338573 
L 412.404043 -50.641008 
L 410.536828 -50.984961 
L 408.669612 -51.36793 
L 406.802397 -51.786892 
L 404.935182 -52.23837 
L 403.067967 -52.718501 
L 401.200752 -53.223106 
L 399.333537 -53.747766 
L 397.466322 -54.287892 
L 395.599107 -54.838803 
L 393.731892 -55.395806 
L 391.864677 -55.954272 
L 389.997462 -56.509721 
L 388.130247 -57.057913 
L 386.263032 -57.594936 
L 384.395817 -58.117305 
L 382.528602 -58.622066 
L 380.661387 -59.1069 
L 378.794172 -59.570233 
L 376.926957 -60.01135 
L 375.059742 -60.430497 
L 373.192527 -60.828993 
L 371.325312 -61.209326 
L 369.458096 -61.575233 
L 367.590881 -61.931776 
L 365.723666 -62.285381 
L 363.856451 -62.643857 
L 361.989236 -63.016378 
L 360.122021 -63.413416 
L 358.254806 -63.846626 
L 356.387591 -64.328673 
L 354.520376 -64.872988 
L 352.653161 -65.493461 
L 350.785946 -66.20406 
L 348.918731 -67.018398 
L 347.051516 -67.949231 
L 345.184301 -69.007942 
L 343.317086 -70.204001 
L 341.449871 -71.544447 
L 339.582656 -73.033437 
L 337.715441 -74.671862 
L 335.848226 -76.45711 
L 333.981011 -78.38297 
L 332.113795 -80.439717 
L 330.24658 -82.614389 
L 328.379365 -84.891253 
L 326.51215 -87.252446 
L 324.644935 -89.678763 
L 322.77772 -92.150541 
L 320.910505 -94.648608 
L 319.04329 -97.155206 
L 317.176075 -99.654853 
L 315.30886 -102.13507 
L 313.441645 -104.586925 
L 311.57443 -107.005359 
L 309.707215 -109.389261 
L 307.84 -111.741301 
L 305.972785 -114.067515 
L 304.10557 -116.376688 
L 302.238355 -118.679579 
L 300.37114 -120.988023 
L 298.503925 -123.314006 
L 296.63671 -125.668742 
L 294.769494 -128.061838 
L 292.902279 -130.500583 
L 291.035064 -132.989413 
L 289.167849 -135.529571 
L 287.300634 -138.118976 
L 285.433419 -140.752307 
L 283.566204 -143.421269 
L 281.698989 -146.11504 
L 279.831774 -148.820832 
L 277.964559 -151.524563 
L 276.097344 -154.211568 
L 274.230129 -156.867332 
L 272.362914 -159.478206 
L 270.495699 -162.032072 
L 268.628484 -164.518948 
L 266.761269 -166.931501 
L 264.894054 -169.265476 
L 263.026839 -171.520021 
L 261.159624 -173.697906 
L 259.292409 -175.805636 
L 257.425194 -177.853451 
L 255.557978 -179.855201 
L 253.690763 -181.828108 
L 251.823548 -183.792395 
L 249.956333 -185.770778 
L 248.089118 -187.787839 
L 246.221903 -189.869266 
L 244.354688 -192.040968 
L 242.487473 -194.328101 
L 240.620258 -196.753987 
L 238.753043 -199.338983 
L 236.885828 -202.099297 
L 235.018613 -205.045796 
L 233.151398 -208.18283 
L 231.284183 -211.507101 
L 229.416968 -215.006618 
L 227.549753 -218.659768 
L 225.682538 -222.434558 
L 223.815323 -226.288067 
L 221.948108 -230.166164 
L 220.080893 -234.003555 
L 218.213677 -237.72422 
L 216.346462 -241.242298 
L 214.479247 -244.463476 
L 212.612032 -247.28691 
L 210.744817 -249.607705 
L 208.877602 -251.319926 
L 207.010387 -252.32008 
L 205.143172 -252.510967 
L 203.275957 -251.805755 
L 201.408742 -250.13208 
L 199.541527 -247.435953 
L 197.674312 -243.685222 
L 195.807097 -238.872357 
L 193.939882 -233.01632 
L 192.072667 -226.163344 
L 190.205452 -218.386497 
L 188.338237 -209.783989 
L 186.471022 -200.476259 
L 184.603807 -190.601962 
L 182.736592 -180.313079 
L 180.869377 -169.76941 
L 179.002161 -159.13277 
L 177.134946 -148.561222 
L 175.267731 -138.203679 
L 173.400516 -128.195155 
L 171.533301 -118.652911 
L 169.666086 -109.673658 
L 167.798871 -101.331897 
L 165.931656 -93.679391 
L 164.064441 -86.745716 
L 162.197226 -80.539723 
L 160.330011 -75.051758 
L 158.462796 -70.25641 
L 156.595581 -66.115578 
L 154.728366 -62.581643 
L 152.861151 -59.600571 
L 150.993936 -57.114773 
L 149.126721 -55.065637 
L 147.259506 -53.395631 
L 145.392291 -52.049975 
L 143.525076 -50.977852 
L 141.65786 -50.133211 
L 139.790645 -49.475191 
L 137.92343 -48.968241 
z
" style="stroke: #9467bd"/>
    </defs>
    <g clip-path="url(#p9ac182c68a)">
     <use xlink:href="#m6414fdc0f0" x="0" y="432" style="fill: #9467bd; fill-opacity: 0.25; stroke: #9467bd"/>
    </g>
   </g>
   <g id="patch_3">
    <path d="M 90 384.48 
L 90 51.84 
" style="fill: none; stroke: #262626; stroke-width: 0.8; stroke-linejoin: miter; stroke-linecap: square"/>
   </g>
   <g id="patch_4">
    <path d="M 648 384.48 
L 648 51.84 
" style="fill: none; stroke: #262626; stroke-width: 0.8; stroke-linejoin: miter; stroke-linecap: square"/>
   </g>
   <g id="patch_5">
    <path d="M 90 384.48 
L 648 384.48 
" style="fill: none; stroke: #262626; stroke-width: 0.8; stroke-linejoin: miter; stroke-linecap: square"/>
   </g>
   <g id="patch_6">
    <path d="M 90 51.84 
L 648 51.84 
" style="fill: none; stroke: #262626; stroke-width: 0.8; stroke-linejoin: miter; stroke-linecap: square"/>
   </g>
   <g id="legend_1">
    <g id="patch_7">
     <path d="M 521.16875 131.04 
L 641 131.04 
Q 643 131.04 643 129.04 
L 643 58.84 
Q 643 56.84 641 56.84 
L 521.16875 56.84 
Q 519.16875 56.84 519.16875 58.84 
L 519.16875 129.04 
Q 519.16875 131.04 521.16875 131.04 
z
" style="fill: #ffffff; opacity: 0.8; stroke: #cccccc; stroke-linejoin: miter"/>
    </g>
    <g id="patch_8">
     <path d="M 523.16875 67.997812 
L 543.16875 67.997812 
L 543.16875 60.997812 
L 523.16875 60.997812 
z
" style="fill: #1f77b4; fill-opacity: 0.25; stroke: #1f77b4; stroke-linejoin: miter"/>
    </g>
    <g id="text_15">
     <!-- known_drug -->
     <g style="fill: #262626" transform="translate(551.16875 67.997812) scale(0.1 -0.1)">
      <defs>
       <path id="ArialMT-6b" d="M 425 0 
L 425 4581 
L 988 4581 
L 988 1969 
L 2319 3319 
L 3047 3319 
L 1778 2088 
L 3175 0 
L 2481 0 
L 1384 1697 
L 988 1316 
L 988 0 
L 425 0 
z
" transform="scale(0.015625)"/>
       <path id="ArialMT-5f" d="M -97 -1272 
L -97 -866 
L 3631 -866 
L 3631 -1272 
L -97 -1272 
z
" transform="scale(0.015625)"/>
       <path id="ArialMT-75" d="M 2597 0 
L 2597 488 
Q 2209 -75 1544 -75 
Q 1250 -75 995 37 
Q 741 150 617 320 
Q 494 491 444 738 
Q 409 903 409 1263 
L 409 3319 
L 972 3319 
L 972 1478 
Q 972 1038 1006 884 
Q 1059 663 1231 536 
Q 1403 409 1656 409 
Q 1909 409 2131 539 
Q 2353 669 2445 892 
Q 2538 1116 2538 1541 
L 2538 3319 
L 3100 3319 
L 3100 0 
L 2597 0 
z
" transform="scale(0.015625)"/>
      </defs>
      <use xlink:href="#ArialMT-6b"/>
      <use xlink:href="#ArialMT-6e" transform="translate(50 0)"/>
      <use xlink:href="#ArialMT-6f" transform="translate(105.615234 0)"/>
      <use xlink:href="#ArialMT-77" transform="translate(161.230469 0)"/>
      <use xlink:href="#ArialMT-6e" transform="translate(233.447266 0)"/>
      <use xlink:href="#ArialMT-5f" transform="translate(289.0625 0)"/>
      <use xlink:href="#ArialMT-64" transform="translate(344.677734 0)"/>
      <use xlink:href="#ArialMT-72" transform="translate(400.292969 0)"/>
      <use xlink:href="#ArialMT-75" transform="translate(433.59375 0)"/>
      <use xlink:href="#ArialMT-67" transform="translate(489.208984 0)"/>
     </g>
    </g>
    <g id="patch_9">
     <path d="M 523.16875 82.260312 
L 543.16875 82.260312 
L 543.16875 75.260312 
L 523.16875 75.260312 
z
" style="fill: #ff7f0e; fill-opacity: 0.25; stroke: #ff7f0e; stroke-linejoin: miter"/>
    </g>
    <g id="text_16">
     <!-- rna_expression -->
     <g style="fill: #262626" transform="translate(551.16875 82.260312) scale(0.1 -0.1)">
      <defs>
       <path id="ArialMT-78" d="M 47 0 
L 1259 1725 
L 138 3319 
L 841 3319 
L 1350 2541 
Q 1494 2319 1581 2169 
Q 1719 2375 1834 2534 
L 2394 3319 
L 3066 3319 
L 1919 1756 
L 3153 0 
L 2463 0 
L 1781 1031 
L 1600 1309 
L 728 0 
L 47 0 
z
" transform="scale(0.015625)"/>
      </defs>
      <use xlink:href="#ArialMT-72"/>
      <use xlink:href="#ArialMT-6e" transform="translate(33.300781 0)"/>
      <use xlink:href="#ArialMT-61" transform="translate(88.916016 0)"/>
      <use xlink:href="#ArialMT-5f" transform="translate(144.53125 0)"/>
      <use xlink:href="#ArialMT-65" transform="translate(200.146484 0)"/>
      <use xlink:href="#ArialMT-78" transform="translate(255.761719 0)"/>
      <use xlink:href="#ArialMT-70" transform="translate(305.761719 0)"/>
      <use xlink:href="#ArialMT-72" transform="translate(361.376953 0)"/>
      <use xlink:href="#ArialMT-65" transform="translate(394.677734 0)"/>
      <use xlink:href="#ArialMT-73" transform="translate(450.292969 0)"/>
      <use xlink:href="#ArialMT-73" transform="translate(500.292969 0)"/>
      <use xlink:href="#ArialMT-69" transform="translate(550.292969 0)"/>
      <use xlink:href="#ArialMT-6f" transform="translate(572.509766 0)"/>
      <use xlink:href="#ArialMT-6e" transform="translate(628.125 0)"/>
     </g>
    </g>
    <g id="patch_10">
     <path d="M 523.16875 96.405625 
L 543.16875 96.405625 
L 543.16875 89.405625 
L 523.16875 89.405625 
z
" style="fill: #2ca02c; fill-opacity: 0.25; stroke: #2ca02c; stroke-linejoin: miter"/>
    </g>
    <g id="text_17">
     <!-- genetic_association -->
     <g style="fill: #262626" transform="translate(551.16875 96.405625) scale(0.1 -0.1)">
      <use xlink:href="#ArialMT-67"/>
      <use xlink:href="#ArialMT-65" transform="translate(55.615234 0)"/>
      <use xlink:href="#ArialMT-6e" transform="translate(111.230469 0)"/>
      <use xlink:href="#ArialMT-65" transform="translate(166.845703 0)"/>
      <use xlink:href="#ArialMT-74" transform="translate(222.460938 0)"/>
      <use xlink:href="#ArialMT-69" transform="translate(250.244141 0)"/>
      <use xlink:href="#ArialMT-63" transform="translate(272.460938 0)"/>
      <use xlink:href="#ArialMT-5f" transform="translate(322.460938 0)"/>
      <use xlink:href="#ArialMT-61" transform="translate(378.076172 0)"/>
      <use xlink:href="#ArialMT-73" transform="translate(433.691406 0)"/>
      <use xlink:href="#ArialMT-73" transform="translate(483.691406 0)"/>
      <use xlink:href="#ArialMT-6f" transform="translate(533.691406 0)"/>
      <use xlink:href="#ArialMT-63" transform="translate(589.306641 0)"/>
      <use xlink:href="#ArialMT-69" transform="translate(639.306641 0)"/>
      <use xlink:href="#ArialMT-61" transform="translate(661.523438 0)"/>
      <use xlink:href="#ArialMT-74" transform="translate(717.138672 0)"/>
      <use xlink:href="#ArialMT-69" transform="translate(744.921875 0)"/>
      <use xlink:href="#ArialMT-6f" transform="translate(767.138672 0)"/>
      <use xlink:href="#ArialMT-6e" transform="translate(822.753906 0)"/>
     </g>
    </g>
    <g id="patch_11">
     <path d="M 523.16875 110.79 
L 543.16875 110.79 
L 543.16875 103.79 
L 523.16875 103.79 
z
" style="fill: #d62728; fill-opacity: 0.25; stroke: #d62728; stroke-linejoin: miter"/>
    </g>
    <g id="text_18">
     <!-- affected_pathway -->
     <g style="fill: #262626" transform="translate(551.16875 110.79) scale(0.1 -0.1)">
      <use xlink:href="#ArialMT-61"/>
      <use xlink:href="#ArialMT-66" transform="translate(55.615234 0)"/>
      <use xlink:href="#ArialMT-66" transform="translate(81.648438 0)"/>
      <use xlink:href="#ArialMT-65" transform="translate(109.431641 0)"/>
      <use xlink:href="#ArialMT-63" transform="translate(165.046875 0)"/>
      <use xlink:href="#ArialMT-74" transform="translate(215.046875 0)"/>
      <use xlink:href="#ArialMT-65" transform="translate(242.830078 0)"/>
      <use xlink:href="#ArialMT-64" transform="translate(298.445312 0)"/>
      <use xlink:href="#ArialMT-5f" transform="translate(354.060547 0)"/>
      <use xlink:href="#ArialMT-70" transform="translate(409.675781 0)"/>
      <use xlink:href="#ArialMT-61" transform="translate(465.291016 0)"/>
      <use xlink:href="#ArialMT-74" transform="translate(520.90625 0)"/>
      <use xlink:href="#ArialMT-68" transform="translate(548.689453 0)"/>
      <use xlink:href="#ArialMT-77" transform="translate(604.304688 0)"/>
      <use xlink:href="#ArialMT-61" transform="translate(676.521484 0)"/>
      <use xlink:href="#ArialMT-79" transform="translate(732.136719 0)"/>
     </g>
    </g>
    <g id="patch_12">
     <path d="M 523.16875 125.0525 
L 543.16875 125.0525 
L 543.16875 118.0525 
L 523.16875 118.0525 
z
" style="fill: #9467bd; fill-opacity: 0.25; stroke: #9467bd; stroke-linejoin: miter"/>
    </g>
    <g id="text_19">
     <!-- somatic_mutation -->
     <g style="fill: #262626" transform="translate(551.16875 125.0525) scale(0.1 -0.1)">
      <defs>
       <path id="ArialMT-6d" d="M 422 0 
L 422 3319 
L 925 3319 
L 925 2853 
Q 1081 3097 1340 3245 
Q 1600 3394 1931 3394 
Q 2300 3394 2536 3241 
Q 2772 3088 2869 2813 
Q 3263 3394 3894 3394 
Q 4388 3394 4653 3120 
Q 4919 2847 4919 2278 
L 4919 0 
L 4359 0 
L 4359 2091 
Q 4359 2428 4304 2576 
Q 4250 2725 4106 2815 
Q 3963 2906 3769 2906 
Q 3419 2906 3187 2673 
Q 2956 2441 2956 1928 
L 2956 0 
L 2394 0 
L 2394 2156 
Q 2394 2531 2256 2718 
Q 2119 2906 1806 2906 
Q 1569 2906 1367 2781 
Q 1166 2656 1075 2415 
Q 984 2175 984 1722 
L 984 0 
L 422 0 
z
" transform="scale(0.015625)"/>
      </defs>
      <use xlink:href="#ArialMT-73"/>
      <use xlink:href="#ArialMT-6f" transform="translate(50 0)"/>
      <use xlink:href="#ArialMT-6d" transform="translate(105.615234 0)"/>
      <use xlink:href="#ArialMT-61" transform="translate(188.916016 0)"/>
      <use xlink:href="#ArialMT-74" transform="translate(244.53125 0)"/>
      <use xlink:href="#ArialMT-69" transform="translate(272.314453 0)"/>
      <use xlink:href="#ArialMT-63" transform="translate(294.53125 0)"/>
      <use xlink:href="#ArialMT-5f" transform="translate(344.53125 0)"/>
      <use xlink:href="#ArialMT-6d" transform="translate(400.146484 0)"/>
      <use xlink:href="#ArialMT-75" transform="translate(483.447266 0)"/>
      <use xlink:href="#ArialMT-74" transform="translate(539.0625 0)"/>
      <use xlink:href="#ArialMT-61" transform="translate(566.845703 0)"/>
      <use xlink:href="#ArialMT-74" transform="translate(622.460938 0)"/>
      <use xlink:href="#ArialMT-69" transform="translate(650.244141 0)"/>
      <use xlink:href="#ArialMT-6f" transform="translate(672.460938 0)"/>
      <use xlink:href="#ArialMT-6e" transform="translate(728.076172 0)"/>
     </g>
    </g>
   </g>
  </g>
 </g>
 <defs>
  <clipPath id="p9ac182c68a">
   <rect x="90" y="51.84" width="558" height="332.64"/>
  </clipPath>
 </defs>
</svg>
