<?xml version="1.0" encoding="utf-8" standalone="no"?>
<!DOCTYPE svg PUBLIC "-//W3C//DTD SVG 1.1//EN"
  "http://www.w3.org/Graphics/SVG/1.1/DTD/svg11.dtd">
<svg xmlns:xlink="http://www.w3.org/1999/xlink" width="720pt" height="432pt" viewBox="0 0 720 432" xmlns="http://www.w3.org/2000/svg" version="1.1">
 <metadata>
  <rdf:RDF xmlns:dc="http://purl.org/dc/elements/1.1/" xmlns:cc="http://creativecommons.org/ns#" xmlns:rdf="http://www.w3.org/1999/02/22-rdf-syntax-ns#">
   <cc:Work>
    <dc:type rdf:resource="http://purl.org/dc/dcmitype/StillImage"/>
    <dc:date>2026-06-15T11:53:09.548491</dc:date>
    <dc:format>image/svg+xml</dc:format>
    <dc:creator>
     <cc:Agent>
      <dc:title>Matplotlib v3.11.0, https://matplotlib.org/</dc:title>
     </cc:Agent>
    </dc:creator>
   </cc:Work>
  </rdf:RDF>
 </metadata>
 <defs>
  <style type="text/css">*{stroke-linejoin: round; stroke-linecap: butt}</style>
 </defs>
 <g id="figure_1">
  <g id="patch_1">
   <path d="M 0 432 
L 720 432 
L 720 0 
L 0 0 
z
" style="fill: #ffffff"/>
  </g>
  <g id="axes_1">
   <g id="patch_2">
    <path d="M 90 384.48 
L 648 384.48 
L 648 51.84 
L 90 51.84 
z
" style="fill: #ffffff"/>
   </g>
   <g id="matplotlib.axis_1">
    <g id="xtick_1">
     <g id="line2d_1">
      <defs>
       <path id="medf563ed21" d="M 0 0 
L 0 3.5 
" style="stroke: #262626; stroke-width: 0.8"/>
      </defs>
      <g>
       <use xlink:href="#medf563ed21" x="135.038704" y="384.48" style="fill: #262626; stroke: #262626; stroke-width: 0.8"/>
      </g>
     </g>
     <g id="text_1">
      <!-- −5 -->
      <g style="fill: #262626" transform="translate(129.337923 398.760273) scale(0.1 -0.1)">
       <defs>
        <path id="ArialMT-ed" d="M 3381 1997 
L 356 1997 
L 356 2522 
L 3381 2522 
L 3381 1997 
z
" transform="scale(0.015625)"/>
        <path id="ArialMT-18" d="M 266 1200 
L 856 1250 
Q 922 819 1161 601 
Q 1400 384 1738 384 
Q 2144 384 2425 690 
Q 2706 997 2706 1503 
Q 2706 1984 2436 2262 
Q 2166 2541 1728 2541 
Q 1456 2541 1237 2417 
Q 1019 2294 894 2097 
L 366 2166 
L 809 4519 
L 3088 4519 
L 3088 3981 
L 1259 3981 
L 1013 2750 
Q 1425 3038 1878 3038 
Q 2478 3038 2890 2622 
Q 3303 2206 3303 1553 
Q 3303 931 2941 478 
Q 2500 -78 1738 -78 
Q 1113 -78 717 272 
Q 322 622 266 1200 
z
" transform="scale(0.015625)"/>
       </defs>
       <use xlink:href="#ArialMT-ed"/>
       <use xlink:href="#ArialMT-18" transform="translate(58.40625 0)"/>
      </g>
     </g>
    </g>
    <g id="xtick_2">
     <g id="line2d_2">
      <g>
       <use xlink:href="#medf563ed21" x="213.025803" y="384.48" style="fill: #262626; stroke: #262626; stroke-width: 0.8"/>
      </g>
     </g>
     <g id="text_2">
      <!-- 0 -->
      <g style="fill: #262626" transform="translate(210.245334 398.760273) scale(0.1 -0.1)">
       <defs>
        <path id="ArialMT-13" d="M 266 2259 
Q 266 3072 433 3567 
Q 600 4063 929 4331 
Q 1259 4600 1759 4600 
Q 2128 4600 2406 4451 
Q 2684 4303 2865 4023 
Q 3047 3744 3150 3342 
Q 3253 2941 3253 2259 
Q 3253 1453 3087 958 
Q 2922 463 2592 192 
Q 2263 -78 1759 -78 
Q 1097 -78 719 397 
Q 266 969 266 2259 
z
M 844 2259 
Q 844 1131 1108 757 
Q 1372 384 1759 384 
Q 2147 384 2411 759 
Q 2675 1134 2675 2259 
Q 2675 3391 2411 3762 
Q 2147 4134 1753 4134 
Q 1366 4134 1134 3806 
Q 844 3388 844 2259 
z
" transform="scale(0.015625)"/>
       </defs>
       <use xlink:href="#ArialMT-13"/>
      </g>
     </g>
    </g>
    <g id="xtick_3">
     <g id="line2d_3">
      <g>
       <use xlink:href="#medf563ed21" x="291.012901" y="384.48" style="fill: #262626; stroke: #262626; stroke-width: 0.8"/>
      </g>
     </g>
     <g id="text_3">
      <!-- 5 -->
      <g style="fill: #262626" transform="translate(288.232433 398.760273) scale(0.1 -0.1)">
       <use xlink:href="#ArialMT-18"/>
      </g>
     </g>
    </g>
    <g id="xtick_4">
     <g id="line2d_4">
      <g>
       <use xlink:href="#medf563ed21" x="369" y="384.48" style="fill: #262626; stroke: #262626; stroke-width: 0.8"/>
      </g>
     </g>
     <g id="text_4">
      <!-- 10 -->
      <g style="fill: #262626" transform="translate(363.439062 398.760273) scale(0.1 -0.1)">
       <defs>
        <path id="ArialMT-14" d="M 2384 0 
L 1822 0 
L 1822 3584 
Q 1619 3391 1289 3197 
Q 959 3003 697 2906 
L 697 3450 
Q 1169 3672 1522 3987 
Q 1875 4303 2022 4600 
L 2384 4600 
L 2384 0 
z
" transform="scale(0.015625)"/>
       </defs>
       <use xlink:href="#ArialMT-14"/>
       <use xlink:href="#ArialMT-13" transform="translate(55.609375 0)"/>
      </g>
     </g>
    </g>
    <g id="xtick_5">
     <g id="line2d_5">
      <g>
       <use xlink:href="#medf563ed21" x="446.987099" y="384.48" style="fill: #262626; stroke: #262626; stroke-width: 0.8"/>
      </g>
     </g>
     <g id="text_5">
      <!-- 15 -->
      <g style="fill: #262626" transform="translate(441.426161 398.760273) scale(0.1 -0.1)">
       <use xlink:href="#ArialMT-14"/>
       <use xlink:href="#ArialMT-18" transform="translate(55.609375 0)"/>
      </g>
     </g>
    </g>
    <g id="xtick_6">
     <g id="line2d_6">
      <g>
       <use xlink:href="#medf563ed21" x="524.974197" y="384.48" style="fill: #262626; stroke: #262626; stroke-width: 0.8"/>
      </g>
     </g>
     <g id="text_6">
      <!-- 20 -->
      <g style="fill: #262626" transform="translate(519.41326 398.760273) scale(0.1 -0.1)">
       <defs>
        <path id="ArialMT-15" d="M 3222 541 
L 3222 0 
L 194 0 
Q 188 203 259 391 
Q 375 700 629 1000 
Q 884 1300 1366 1694 
Q 2113 2306 2375 2664 
Q 2638 3022 2638 3341 
Q 2638 3675 2398 3904 
Q 2159 4134 1775 4134 
Q 1369 4134 1125 3890 
Q 881 3647 878 3216 
L 300 3275 
Q 359 3922 746 4261 
Q 1134 4600 1788 4600 
Q 2447 4600 2831 4234 
Q 3216 3869 3216 3328 
Q 3216 3053 3103 2787 
Q 2991 2522 2730 2228 
Q 2469 1934 1863 1422 
Q 1356 997 1212 845 
Q 1069 694 975 541 
L 3222 541 
z
" transform="scale(0.015625)"/>
       </defs>
       <use xlink:href="#ArialMT-15"/>
       <use xlink:href="#ArialMT-13" transform="translate(55.609375 0)"/>
      </g>
     </g>
    </g>
    <g id="xtick_7">
     <g id="line2d_7">
      <g>
       <use xlink:href="#medf563ed21" x="602.961296" y="384.48" style="fill: #262626; stroke: #262626; stroke-width: 0.8"/>
      </g>
     </g>
     <g id="text_7">
      <!-- 25 -->
      <g style="fill: #262626" transform="translate(597.400358 398.760273) scale(0.1 -0.1)">
       <use xlink:href="#ArialMT-15"/>
       <use xlink:href="#ArialMT-18" transform="translate(55.609375 0)"/>
      </g>
     </g>
    </g>
    <g id="text_8">
     <!-- Difference in years -->
     <g style="fill: #262626" transform="translate(310.772031 415.057148) scale(0.14 -0.14)">
      <defs>
       <path id="ArialMT-27" d="M 494 0 
L 494 4581 
L 2072 4581 
Q 2606 4581 2888 4516 
Q 3281 4425 3559 4188 
Q 3922 3881 4101 3404 
Q 4281 2928 4281 2316 
Q 4281 1794 4159 1391 
Q 4038 988 3847 723 
Q 3656 459 3429 307 
Q 3203 156 2883 78 
Q 2563 0 2147 0 
L 494 0 
z
M 1100 541 
L 2078 541 
Q 2531 541 2789 625 
Q 3047 709 3200 863 
Q 3416 1078 3536 1442 
Q 3656 1806 3656 2325 
Q 3656 3044 3420 3430 
Q 3184 3816 2847 3947 
Q 2603 4041 2063 4041 
L 1100 4041 
L 1100 541 
z
" transform="scale(0.015625)"/>
       <path id="ArialMT-4c" d="M 425 3934 
L 425 4581 
L 988 4581 
L 988 3934 
L 425 3934 
z
M 425 0 
L 425 3319 
L 988 3319 
L 988 0 
L 425 0 
z
" transform="scale(0.015625)"/>
       <path id="ArialMT-49" d="M 556 0 
L 556 2881 
L 59 2881 
L 59 3319 
L 556 3319 
L 556 3672 
Q 556 4006 616 4169 
Q 697 4388 901 4523 
Q 1106 4659 1475 4659 
Q 1713 4659 2000 4603 
L 1916 4113 
Q 1741 4144 1584 4144 
Q 1328 4144 1222 4034 
Q 1116 3925 1116 3625 
L 1116 3319 
L 1763 3319 
L 1763 2881 
L 1116 2881 
L 1116 0 
L 556 0 
z
" transform="scale(0.015625)"/>
       <path id="ArialMT-48" d="M 2694 1069 
L 3275 997 
Q 3138 488 2766 206 
Q 2394 -75 1816 -75 
Q 1088 -75 661 373 
Q 234 822 234 1631 
Q 234 2469 665 2931 
Q 1097 3394 1784 3394 
Q 2450 3394 2872 2941 
Q 3294 2488 3294 1666 
Q 3294 1616 3291 1516 
L 816 1516 
Q 847 969 1125 678 
Q 1403 388 1819 388 
Q 2128 388 2347 550 
Q 2566 713 2694 1069 
z
M 847 1978 
L 2700 1978 
Q 2663 2397 2488 2606 
Q 2219 2931 1791 2931 
Q 1403 2931 1139 2672 
Q 875 2413 847 1978 
z
" transform="scale(0.015625)"/>
       <path id="ArialMT-55" d="M 416 0 
L 416 3319 
L 922 3319 
L 922 2816 
Q 1116 3169 1280 3281 
Q 1444 3394 1641 3394 
Q 1925 3394 2219 3213 
L 2025 2691 
Q 1819 2813 1613 2813 
Q 1428 2813 1281 2702 
Q 1134 2591 1072 2394 
Q 978 2094 978 1738 
L 978 0 
L 416 0 
z
" transform="scale(0.015625)"/>
       <path id="ArialMT-51" d="M 422 0 
L 422 3319 
L 928 3319 
L 928 2847 
Q 1294 3394 1984 3394 
Q 2284 3394 2536 3286 
Q 2788 3178 2913 3003 
Q 3038 2828 3088 2588 
Q 3119 2431 3119 2041 
L 3119 0 
L 2556 0 
L 2556 2019 
Q 2556 2363 2490 2533 
Q 2425 2703 2258 2804 
Q 2091 2906 1866 2906 
Q 1506 2906 1245 2678 
Q 984 2450 984 1813 
L 984 0 
L 422 0 
z
" transform="scale(0.015625)"/>
       <path id="ArialMT-46" d="M 2588 1216 
L 3141 1144 
Q 3050 572 2676 248 
Q 2303 -75 1759 -75 
Q 1078 -75 664 370 
Q 250 816 250 1647 
Q 250 2184 428 2587 
Q 606 2991 970 3192 
Q 1334 3394 1763 3394 
Q 2303 3394 2647 3120 
Q 2991 2847 3088 2344 
L 2541 2259 
Q 2463 2594 2264 2762 
Q 2066 2931 1784 2931 
Q 1359 2931 1093 2626 
Q 828 2322 828 1663 
Q 828 994 1084 691 
Q 1341 388 1753 388 
Q 2084 388 2306 591 
Q 2528 794 2588 1216 
z
" transform="scale(0.015625)"/>
       <path id="ArialMT-3" transform="scale(0.015625)"/>
       <path id="ArialMT-5c" d="M 397 -1278 
L 334 -750 
Q 519 -800 656 -800 
Q 844 -800 956 -737 
Q 1069 -675 1141 -563 
Q 1194 -478 1313 -144 
Q 1328 -97 1363 -6 
L 103 3319 
L 709 3319 
L 1400 1397 
Q 1534 1031 1641 628 
Q 1738 1016 1872 1384 
L 2581 3319 
L 3144 3319 
L 1881 -56 
Q 1678 -603 1566 -809 
Q 1416 -1088 1222 -1217 
Q 1028 -1347 759 -1347 
Q 597 -1347 397 -1278 
z
" transform="scale(0.015625)"/>
       <path id="ArialMT-44" d="M 2588 409 
Q 2275 144 1986 34 
Q 1697 -75 1366 -75 
Q 819 -75 525 192 
Q 231 459 231 875 
Q 231 1119 342 1320 
Q 453 1522 633 1644 
Q 813 1766 1038 1828 
Q 1203 1872 1538 1913 
Q 2219 1994 2541 2106 
Q 2544 2222 2544 2253 
Q 2544 2597 2384 2738 
Q 2169 2928 1744 2928 
Q 1347 2928 1158 2789 
Q 969 2650 878 2297 
L 328 2372 
Q 403 2725 575 2942 
Q 747 3159 1072 3276 
Q 1397 3394 1825 3394 
Q 2250 3394 2515 3294 
Q 2781 3194 2906 3042 
Q 3031 2891 3081 2659 
Q 3109 2516 3109 2141 
L 3109 1391 
Q 3109 606 3145 398 
Q 3181 191 3288 0 
L 2700 0 
Q 2613 175 2588 409 
z
M 2541 1666 
Q 2234 1541 1622 1453 
Q 1275 1403 1131 1340 
Q 988 1278 909 1158 
Q 831 1038 831 891 
Q 831 666 1001 516 
Q 1172 366 1500 366 
Q 1825 366 2078 508 
Q 2331 650 2450 897 
Q 2541 1088 2541 1459 
L 2541 1666 
z
" transform="scale(0.015625)"/>
       <path id="ArialMT-56" d="M 197 991 
L 753 1078 
Q 800 744 1014 566 
Q 1228 388 1613 388 
Q 2000 388 2187 545 
Q 2375 703 2375 916 
Q 2375 1106 2209 1216 
Q 2094 1291 1634 1406 
Q 1016 1563 777 1677 
Q 538 1791 414 1992 
Q 291 2194 291 2438 
Q 291 2659 392 2848 
Q 494 3038 669 3163 
Q 800 3259 1026 3326 
Q 1253 3394 1513 3394 
Q 1903 3394 2198 3281 
Q 2494 3169 2634 2976 
Q 2775 2784 2828 2463 
L 2278 2388 
Q 2241 2644 2061 2787 
Q 1881 2931 1553 2931 
Q 1166 2931 1000 2803 
Q 834 2675 834 2503 
Q 834 2394 903 2306 
Q 972 2216 1119 2156 
Q 1203 2125 1616 2013 
Q 2213 1853 2448 1751 
Q 2684 1650 2818 1456 
Q 2953 1263 2953 975 
Q 2953 694 2789 445 
Q 2625 197 2315 61 
Q 2006 -75 1616 -75 
Q 969 -75 630 194 
Q 291 463 197 991 
z
" transform="scale(0.015625)"/>
      </defs>
      <use xlink:href="#ArialMT-27"/>
      <use xlink:href="#ArialMT-4c" transform="translate(72.21875 0)"/>
      <use xlink:href="#ArialMT-49" transform="translate(94.4375 0)"/>
      <use xlink:href="#ArialMT-49" transform="translate(120.40625 0)"/>
      <use xlink:href="#ArialMT-48" transform="translate(148.1875 0)"/>
      <use xlink:href="#ArialMT-55" transform="translate(203.796875 0)"/>
      <use xlink:href="#ArialMT-48" transform="translate(237.09375 0)"/>
      <use xlink:href="#ArialMT-51" transform="translate(292.703125 0)"/>
      <use xlink:href="#ArialMT-46" transform="translate(348.3125 0)"/>
      <use xlink:href="#ArialMT-48" transform="translate(398.3125 0)"/>
      <use xlink:href="#ArialMT-3" transform="translate(453.921875 0)"/>
      <use xlink:href="#ArialMT-4c" transform="translate(481.703125 0)"/>
      <use xlink:href="#ArialMT-51" transform="translate(503.921875 0)"/>
      <use xlink:href="#ArialMT-3" transform="translate(559.53125 0)"/>
      <use xlink:href="#ArialMT-5c" transform="translate(587.3125 0)"/>
      <use xlink:href="#ArialMT-48" transform="translate(637.3125 0)"/>
      <use xlink:href="#ArialMT-44" transform="translate(692.921875 0)"/>
      <use xlink:href="#ArialMT-55" transform="translate(748.53125 0)"/>
      <use xlink:href="#ArialMT-56" transform="translate(781.828125 0)"/>
     </g>
    </g>
   </g>
   <g id="matplotlib.axis_2">
    <g id="ytick_1">
     <g id="line2d_8">
      <defs>
       <path id="m76b07f7140" d="M 0 0 
L -3.5 0 
" style="stroke: #262626; stroke-width: 0.8"/>
      </defs>
      <g>
       <use xlink:href="#m76b07f7140" x="90" y="384.48" style="fill: #262626; stroke: #262626; stroke-width: 0.8"/>
      </g>
     </g>
     <g id="text_9">
      <!-- 0.000 -->
      <g style="fill: #262626" transform="translate(57.978125 388.120137) scale(0.1 -0.1)">
       <defs>
        <path id="ArialMT-11" d="M 581 0 
L 581 641 
L 1222 641 
L 1222 0 
L 581 0 
z
" transform="scale(0.015625)"/>
       </defs>
       <use xlink:href="#ArialMT-13"/>
       <use xlink:href="#ArialMT-11" transform="translate(55.609375 0)"/>
       <use xlink:href="#ArialMT-13" transform="translate(83.390625 0)"/>
       <use xlink:href="#ArialMT-13" transform="translate(139 0)"/>
       <use xlink:href="#ArialMT-13" transform="translate(194.609375 0)"/>
      </g>
     </g>
    </g>
    <g id="ytick_2">
     <g id="line2d_9">
      <g>
       <use xlink:href="#m76b07f7140" x="90" y="345.572378" style="fill: #262626; stroke: #262626; stroke-width: 0.8"/>
      </g>
     </g>
     <g id="text_10">
      <!-- 0.025 -->
      <g style="fill: #262626" transform="translate(57.978125 349.212514) scale(0.1 -0.1)">
       <use xlink:href="#ArialMT-13"/>
       <use xlink:href="#ArialMT-11" transform="translate(55.609375 0)"/>
       <use xlink:href="#ArialMT-13" transform="translate(83.390625 0)"/>
       <use xlink:href="#ArialMT-15" transform="translate(139 0)"/>
       <use xlink:href="#ArialMT-18" transform="translate(194.609375 0)"/>
      </g>
     </g>
    </g>
    <g id="ytick_3">
     <g id="line2d_10">
      <g>
       <use xlink:href="#m76b07f7140" x="90" y="306.664755" style="fill: #262626; stroke: #262626; stroke-width: 0.8"/>
      </g>
     </g>
     <g id="text_11">
      <!-- 0.050 -->
      <g style="fill: #262626" transform="translate(57.978125 310.304892) scale(0.1 -0.1)">
       <use xlink:href="#ArialMT-13"/>
       <use xlink:href="#ArialMT-11" transform="translate(55.609375 0)"/>
       <use xlink:href="#ArialMT-13" transform="translate(83.390625 0)"/>
       <use xlink:href="#ArialMT-18" transform="translate(139 0)"/>
       <use xlink:href="#ArialMT-13" transform="translate(194.609375 0)"/>
      </g>
     </g>
    </g>
    <g id="ytick_4">
     <g id="line2d_11">
      <g>
       <use xlink:href="#m76b07f7140" x="90" y="267.757133" style="fill: #262626; stroke: #262626; stroke-width: 0.8"/>
      </g>
     </g>
     <g id="text_12">
      <!-- 0.075 -->
      <g style="fill: #262626" transform="translate(57.978125 271.39727) scale(0.1 -0.1)">
       <defs>
        <path id="ArialMT-1a" d="M 303 3981 
L 303 4522 
L 3269 4522 
L 3269 4084 
Q 2831 3619 2401 2847 
Q 1972 2075 1738 1259 
Q 1569 684 1522 0 
L 944 0 
Q 953 541 1156 1306 
Q 1359 2072 1739 2783 
Q 2119 3494 2547 3981 
L 303 3981 
z
" transform="scale(0.015625)"/>
       </defs>
       <use xlink:href="#ArialMT-13"/>
       <use xlink:href="#ArialMT-11" transform="translate(55.609375 0)"/>
       <use xlink:href="#ArialMT-13" transform="translate(83.390625 0)"/>
       <use xlink:href="#ArialMT-1a" transform="translate(139 0)"/>
       <use xlink:href="#ArialMT-18" transform="translate(194.609375 0)"/>
      </g>
     </g>
    </g>
    <g id="ytick_5">
     <g id="line2d_12">
      <g>
       <use xlink:href="#m76b07f7140" x="90" y="228.849511" style="fill: #262626; stroke: #262626; stroke-width: 0.8"/>
      </g>
     </g>
     <g id="text_13">
      <!-- 0.100 -->
      <g style="fill: #262626" transform="translate(57.978125 232.489647) scale(0.1 -0.1)">
       <use xlink:href="#ArialMT-13"/>
       <use xlink:href="#ArialMT-11" transform="translate(55.609375 0)"/>
       <use xlink:href="#ArialMT-14" transform="translate(83.390625 0)"/>
       <use xlink:href="#ArialMT-13" transform="translate(139 0)"/>
       <use xlink:href="#ArialMT-13" transform="translate(194.609375 0)"/>
      </g>
     </g>
    </g>
    <g id="ytick_6">
     <g id="line2d_13">
      <g>
       <use xlink:href="#m76b07f7140" x="90" y="189.941888" style="fill: #262626; stroke: #262626; stroke-width: 0.8"/>
      </g>
     </g>
     <g id="text_14">
      <!-- 0.125 -->
      <g style="fill: #262626" transform="translate(57.978125 193.582025) scale(0.1 -0.1)">
       <use xlink:href="#ArialMT-13"/>
       <use xlink:href="#ArialMT-11" transform="translate(55.609375 0)"/>
       <use xlink:href="#ArialMT-14" transform="translate(83.390625 0)"/>
       <use xlink:href="#ArialMT-15" transform="translate(139 0)"/>
       <use xlink:href="#ArialMT-18" transform="translate(194.609375 0)"/>
      </g>
     </g>
    </g>
    <g id="ytick_7">
     <g id="line2d_14">
      <g>
       <use xlink:href="#m76b07f7140" x="90" y="151.034266" style="fill: #262626; stroke: #262626; stroke-width: 0.8"/>
      </g>
     </g>
     <g id="text_15">
      <!-- 0.150 -->
      <g style="fill: #262626" transform="translate(57.978125 154.674403) scale(0.1 -0.1)">
       <use xlink:href="#ArialMT-13"/>
       <use xlink:href="#ArialMT-11" transform="translate(55.609375 0)"/>
       <use xlink:href="#ArialMT-14" transform="translate(83.390625 0)"/>
       <use xlink:href="#ArialMT-18" transform="translate(139 0)"/>
       <use xlink:href="#ArialMT-13" transform="translate(194.609375 0)"/>
      </g>
     </g>
    </g>
    <g id="ytick_8">
     <g id="line2d_15">
      <g>
       <use xlink:href="#m76b07f7140" x="90" y="112.126644" style="fill: #262626; stroke: #262626; stroke-width: 0.8"/>
      </g>
     </g>
     <g id="text_16">
      <!-- 0.175 -->
      <g style="fill: #262626" transform="translate(57.978125 115.76678) scale(0.1 -0.1)">
       <use xlink:href="#ArialMT-13"/>
       <use xlink:href="#ArialMT-11" transform="translate(55.609375 0)"/>
       <use xlink:href="#ArialMT-14" transform="translate(83.390625 0)"/>
       <use xlink:href="#ArialMT-1a" transform="translate(139 0)"/>
       <use xlink:href="#ArialMT-18" transform="translate(194.609375 0)"/>
      </g>
     </g>
    </g>
    <g id="ytick_9">
     <g id="line2d_16">
      <g>
       <use xlink:href="#m76b07f7140" x="90" y="73.219021" style="fill: #262626; stroke: #262626; stroke-width: 0.8"/>
      </g>
     </g>
     <g id="text_17">
      <!-- 0.200 -->
      <g style="fill: #262626" transform="translate(57.978125 76.859158) scale(0.1 -0.1)">
       <use xlink:href="#ArialMT-13"/>
       <use xlink:href="#ArialMT-11" transform="translate(55.609375 0)"/>
       <use xlink:href="#ArialMT-15" transform="translate(83.390625 0)"/>
       <use xlink:href="#ArialMT-13" transform="translate(139 0)"/>
       <use xlink:href="#ArialMT-13" transform="translate(194.609375 0)"/>
      </g>
     </g>
    </g>
    <g id="text_18">
     <!-- Target-disease evidence with probes (%) -->
     <g style="fill: #262626" transform="translate(51.031562 344.602969) rotate(-90) scale(0.14 -0.14)">
      <defs>
       <path id="ArialMT-37" d="M 1659 0 
L 1659 4041 
L 150 4041 
L 150 4581 
L 3781 4581 
L 3781 4041 
L 2266 4041 
L 2266 0 
L 1659 0 
z
" transform="scale(0.015625)"/>
       <path id="ArialMT-4a" d="M 319 -275 
L 866 -356 
Q 900 -609 1056 -725 
Q 1266 -881 1628 -881 
Q 2019 -881 2231 -725 
Q 2444 -569 2519 -288 
Q 2563 -116 2559 434 
Q 2191 0 1641 0 
Q 956 0 581 494 
Q 206 988 206 1678 
Q 206 2153 378 2554 
Q 550 2956 876 3175 
Q 1203 3394 1644 3394 
Q 2231 3394 2613 2919 
L 2613 3319 
L 3131 3319 
L 3131 450 
Q 3131 -325 2973 -648 
Q 2816 -972 2473 -1159 
Q 2131 -1347 1631 -1347 
Q 1038 -1347 672 -1080 
Q 306 -813 319 -275 
z
M 784 1719 
Q 784 1066 1043 766 
Q 1303 466 1694 466 
Q 2081 466 2343 764 
Q 2606 1063 2606 1700 
Q 2606 2309 2336 2618 
Q 2066 2928 1684 2928 
Q 1309 2928 1046 2623 
Q 784 2319 784 1719 
z
" transform="scale(0.015625)"/>
       <path id="ArialMT-57" d="M 1650 503 
L 1731 6 
Q 1494 -44 1306 -44 
Q 1000 -44 831 53 
Q 663 150 594 308 
Q 525 466 525 972 
L 525 2881 
L 113 2881 
L 113 3319 
L 525 3319 
L 525 4141 
L 1084 4478 
L 1084 3319 
L 1650 3319 
L 1650 2881 
L 1084 2881 
L 1084 941 
Q 1084 700 1114 631 
Q 1144 563 1211 522 
Q 1278 481 1403 481 
Q 1497 481 1650 503 
z
" transform="scale(0.015625)"/>
       <path id="ArialMT-10" d="M 203 1375 
L 203 1941 
L 1931 1941 
L 1931 1375 
L 203 1375 
z
" transform="scale(0.015625)"/>
       <path id="ArialMT-47" d="M 2575 0 
L 2575 419 
Q 2259 -75 1647 -75 
Q 1250 -75 917 144 
Q 584 363 401 755 
Q 219 1147 219 1656 
Q 219 2153 384 2558 
Q 550 2963 881 3178 
Q 1213 3394 1622 3394 
Q 1922 3394 2156 3267 
Q 2391 3141 2538 2938 
L 2538 4581 
L 3097 4581 
L 3097 0 
L 2575 0 
z
M 797 1656 
Q 797 1019 1065 703 
Q 1334 388 1700 388 
Q 2069 388 2326 689 
Q 2584 991 2584 1609 
Q 2584 2291 2321 2609 
Q 2059 2928 1675 2928 
Q 1300 2928 1048 2622 
Q 797 2316 797 1656 
z
" transform="scale(0.015625)"/>
       <path id="ArialMT-59" d="M 1344 0 
L 81 3319 
L 675 3319 
L 1388 1331 
Q 1503 1009 1600 663 
Q 1675 925 1809 1294 
L 2547 3319 
L 3125 3319 
L 1869 0 
L 1344 0 
z
" transform="scale(0.015625)"/>
       <path id="ArialMT-5a" d="M 1034 0 
L 19 3319 
L 600 3319 
L 1128 1403 
L 1325 691 
Q 1338 744 1497 1375 
L 2025 3319 
L 2603 3319 
L 3100 1394 
L 3266 759 
L 3456 1400 
L 4025 3319 
L 4572 3319 
L 3534 0 
L 2950 0 
L 2422 1988 
L 2294 2553 
L 1622 0 
L 1034 0 
z
" transform="scale(0.015625)"/>
       <path id="ArialMT-4b" d="M 422 0 
L 422 4581 
L 984 4581 
L 984 2938 
Q 1378 3394 1978 3394 
Q 2347 3394 2619 3248 
Q 2891 3103 3008 2847 
Q 3125 2591 3125 2103 
L 3125 0 
L 2563 0 
L 2563 2103 
Q 2563 2525 2380 2717 
Q 2197 2909 1863 2909 
Q 1613 2909 1392 2779 
Q 1172 2650 1078 2428 
Q 984 2206 984 1816 
L 984 0 
L 422 0 
z
" transform="scale(0.015625)"/>
       <path id="ArialMT-53" d="M 422 -1272 
L 422 3319 
L 934 3319 
L 934 2888 
Q 1116 3141 1344 3267 
Q 1572 3394 1897 3394 
Q 2322 3394 2647 3175 
Q 2972 2956 3137 2557 
Q 3303 2159 3303 1684 
Q 3303 1175 3120 767 
Q 2938 359 2589 142 
Q 2241 -75 1856 -75 
Q 1575 -75 1351 44 
Q 1128 163 984 344 
L 984 -1272 
L 422 -1272 
z
M 931 1641 
Q 931 1000 1190 694 
Q 1450 388 1819 388 
Q 2194 388 2461 705 
Q 2728 1022 2728 1688 
Q 2728 2322 2467 2637 
Q 2206 2953 1844 2953 
Q 1484 2953 1207 2617 
Q 931 2281 931 1641 
z
" transform="scale(0.015625)"/>
       <path id="ArialMT-52" d="M 213 1659 
Q 213 2581 725 3025 
Q 1153 3394 1769 3394 
Q 2453 3394 2887 2945 
Q 3322 2497 3322 1706 
Q 3322 1066 3130 698 
Q 2938 331 2570 128 
Q 2203 -75 1769 -75 
Q 1072 -75 642 372 
Q 213 819 213 1659 
z
M 791 1659 
Q 791 1022 1069 705 
Q 1347 388 1769 388 
Q 2188 388 2466 706 
Q 2744 1025 2744 1678 
Q 2744 2294 2464 2611 
Q 2184 2928 1769 2928 
Q 1347 2928 1069 2612 
Q 791 2297 791 1659 
z
" transform="scale(0.015625)"/>
       <path id="ArialMT-45" d="M 941 0 
L 419 0 
L 419 4581 
L 981 4581 
L 981 2947 
Q 1338 3394 1891 3394 
Q 2197 3394 2470 3270 
Q 2744 3147 2920 2923 
Q 3097 2700 3197 2384 
Q 3297 2069 3297 1709 
Q 3297 856 2875 390 
Q 2453 -75 1863 -75 
Q 1275 -75 941 416 
L 941 0 
z
M 934 1684 
Q 934 1088 1097 822 
Q 1363 388 1816 388 
Q 2184 388 2453 708 
Q 2722 1028 2722 1663 
Q 2722 2313 2464 2622 
Q 2206 2931 1841 2931 
Q 1472 2931 1203 2611 
Q 934 2291 934 1684 
z
" transform="scale(0.015625)"/>
       <path id="ArialMT-b" d="M 1497 -1347 
Q 1031 -759 709 28 
Q 388 816 388 1659 
Q 388 2403 628 3084 
Q 909 3875 1497 4659 
L 1900 4659 
Q 1522 4009 1400 3731 
Q 1209 3300 1100 2831 
Q 966 2247 966 1656 
Q 966 153 1900 -1347 
L 1497 -1347 
z
" transform="scale(0.015625)"/>
       <path id="ArialMT-8" d="M 372 3481 
Q 372 3972 619 4315 
Q 866 4659 1334 4659 
Q 1766 4659 2048 4351 
Q 2331 4044 2331 3447 
Q 2331 2866 2045 2552 
Q 1759 2238 1341 2238 
Q 925 2238 648 2547 
Q 372 2856 372 3481 
z
M 1350 4272 
Q 1141 4272 1002 4090 
Q 863 3909 863 3425 
Q 863 2984 1003 2804 
Q 1144 2625 1350 2625 
Q 1563 2625 1702 2806 
Q 1841 2988 1841 3469 
Q 1841 3913 1700 4092 
Q 1559 4272 1350 4272 
z
M 1353 -169 
L 3859 4659 
L 4316 4659 
L 1819 -169 
L 1353 -169 
z
M 3334 1075 
Q 3334 1569 3581 1911 
Q 3828 2253 4300 2253 
Q 4731 2253 5014 1945 
Q 5297 1638 5297 1041 
Q 5297 459 5011 145 
Q 4725 -169 4303 -169 
Q 3888 -169 3611 142 
Q 3334 453 3334 1075 
z
M 4316 1866 
Q 4103 1866 3964 1684 
Q 3825 1503 3825 1019 
Q 3825 581 3965 400 
Q 4106 219 4313 219 
Q 4528 219 4667 400 
Q 4806 581 4806 1063 
Q 4806 1506 4665 1686 
Q 4525 1866 4316 1866 
z
" transform="scale(0.015625)"/>
       <path id="ArialMT-c" d="M 791 -1347 
L 388 -1347 
Q 1322 153 1322 1656 
Q 1322 2244 1188 2822 
Q 1081 3291 891 3722 
Q 769 4003 388 4659 
L 791 4659 
Q 1378 3875 1659 3084 
Q 1900 2403 1900 1659 
Q 1900 816 1576 28 
Q 1253 -759 791 -1347 
z
" transform="scale(0.015625)"/>
      </defs>
      <use xlink:href="#ArialMT-37"/>
      <use xlink:href="#ArialMT-44" transform="translate(50 0)"/>
      <use xlink:href="#ArialMT-55" transform="translate(105.609375 0)"/>
      <use xlink:href="#ArialMT-4a" transform="translate(138.90625 0)"/>
      <use xlink:href="#ArialMT-48" transform="translate(194.515625 0)"/>
      <use xlink:href="#ArialMT-57" transform="translate(250.125 0)"/>
      <use xlink:href="#ArialMT-10" transform="translate(277.90625 0)"/>
      <use xlink:href="#ArialMT-47" transform="translate(311.203125 0)"/>
      <use xlink:href="#ArialMT-4c" transform="translate(366.8125 0)"/>
      <use xlink:href="#ArialMT-56" transform="translate(389.03125 0)"/>
      <use xlink:href="#ArialMT-48" transform="translate(439.03125 0)"/>
      <use xlink:href="#ArialMT-44" transform="translate(494.640625 0)"/>
      <use xlink:href="#ArialMT-56" transform="translate(550.25 0)"/>
      <use xlink:href="#ArialMT-48" transform="translate(600.25 0)"/>
      <use xlink:href="#ArialMT-3" transform="translate(655.859375 0)"/>
      <use xlink:href="#ArialMT-48" transform="translate(683.640625 0)"/>
      <use xlink:href="#ArialMT-59" transform="translate(739.25 0)"/>
      <use xlink:href="#ArialMT-4c" transform="translate(789.25 0)"/>
      <use xlink:href="#ArialMT-47" transform="translate(811.46875 0)"/>
      <use xlink:href="#ArialMT-48" transform="translate(867.078125 0)"/>
      <use xlink:href="#ArialMT-51" transform="translate(922.6875 0)"/>
      <use xlink:href="#ArialMT-46" transform="translate(978.296875 0)"/>
      <use xlink:href="#ArialMT-48" transform="translate(1028.296875 0)"/>
      <use xlink:href="#ArialMT-3" transform="translate(1083.90625 0)"/>
      <use xlink:href="#ArialMT-5a" transform="translate(1111.6875 0)"/>
      <use xlink:href="#ArialMT-4c" transform="translate(1183.90625 0)"/>
      <use xlink:href="#ArialMT-57" transform="translate(1206.125 0)"/>
      <use xlink:href="#ArialMT-4b" transform="translate(1233.90625 0)"/>
      <use xlink:href="#ArialMT-3" transform="translate(1289.515625 0)"/>
      <use xlink:href="#ArialMT-53" transform="translate(1317.296875 0)"/>
      <use xlink:href="#ArialMT-55" transform="translate(1372.90625 0)"/>
      <use xlink:href="#ArialMT-52" transform="translate(1406.203125 0)"/>
      <use xlink:href="#ArialMT-45" transform="translate(1461.8125 0)"/>
      <use xlink:href="#ArialMT-48" transform="translate(1517.421875 0)"/>
      <use xlink:href="#ArialMT-56" transform="translate(1573.03125 0)"/>
      <use xlink:href="#ArialMT-3" transform="translate(1623.03125 0)"/>
      <use xlink:href="#ArialMT-b" transform="translate(1650.8125 0)"/>
      <use xlink:href="#ArialMT-8" transform="translate(1684.109375 0)"/>
      <use xlink:href="#ArialMT-c" transform="translate(1773.03125 0)"/>
     </g>
    </g>
   </g>
   <g id="FillBetweenPolyCollection_1">
    <defs>
     <path id="m08e821bd97" d="M 115.363636 -47.899918 
L 115.363636 -47.52 
L 117.912746 -47.52 
L 120.461855 -47.52 
L 123.010964 -47.52 
L 125.560073 -47.52 
L 128.109182 -47.52 
L 130.658291 -47.52 
L 133.207401 -47.52 
L 135.75651 -47.52 
L 138.305619 -47.52 
L 140.854728 -47.52 
L 143.403837 -47.52 
L 145.952947 -47.52 
L 148.502056 -47.52 
L 151.051165 -47.52 
L 153.600274 -47.52 
L 156.149383 -47.52 
L 158.698492 -47.52 
L 161.247602 -47.52 
L 163.796711 -47.52 
L 166.34582 -47.52 
L 168.894929 -47.52 
L 171.444038 -47.52 
L 173.993148 -47.52 
L 176.542257 -47.52 
L 179.091366 -47.52 
L 181.640475 -47.52 
L 184.189584 -47.52 
L 186.738693 -47.52 
L 189.287803 -47.52 
L 191.836912 -47.52 
L 194.386021 -47.52 
L 196.93513 -47.52 
L 199.484239 -47.52 
L 202.033349 -47.52 
L 204.582458 -47.52 
L 207.131567 -47.52 
L 209.680676 -47.52 
L 212.229785 -47.52 
L 214.778894 -47.52 
L 217.328004 -47.52 
L 219.877113 -47.52 
L 222.426222 -47.52 
L 224.975331 -47.52 
L 227.52444 -47.52 
L 230.07355 -47.52 
L 232.622659 -47.52 
L 235.171768 -47.52 
L 237.720877 -47.52 
L 240.269986 -47.52 
L 242.819095 -47.52 
L 245.368205 -47.52 
L 247.917314 -47.52 
L 250.466423 -47.52 
L 253.015532 -47.52 
L 255.564641 -47.52 
L 258.113751 -47.52 
L 260.66286 -47.52 
L 263.211969 -47.52 
L 265.761078 -47.52 
L 268.310187 -47.52 
L 270.859296 -47.52 
L 273.408406 -47.52 
L 275.957515 -47.52 
L 278.506624 -47.52 
L 281.055733 -47.52 
L 283.604842 -47.52 
L 286.153952 -47.52 
L 288.703061 -47.52 
L 291.25217 -47.52 
L 293.801279 -47.52 
L 296.350388 -47.52 
L 298.899497 -47.52 
L 301.448607 -47.52 
L 303.997716 -47.52 
L 306.546825 -47.52 
L 309.095934 -47.52 
L 311.645043 -47.52 
L 314.194153 -47.52 
L 316.743262 -47.52 
L 319.292371 -47.52 
L 321.84148 -47.52 
L 324.390589 -47.52 
L 326.939698 -47.52 
L 329.488808 -47.52 
L 332.037917 -47.52 
L 334.587026 -47.52 
L 337.136135 -47.52 
L 339.685244 -47.52 
L 342.234354 -47.52 
L 344.783463 -47.52 
L 347.332572 -47.52 
L 349.881681 -47.52 
L 352.43079 -47.52 
L 354.979899 -47.52 
L 357.529009 -47.52 
L 360.078118 -47.52 
L 362.627227 -47.52 
L 365.176336 -47.52 
L 367.725445 -47.52 
L 370.274555 -47.52 
L 372.823664 -47.52 
L 375.372773 -47.52 
L 377.921882 -47.52 
L 380.470991 -47.52 
L 383.020101 -47.52 
L 385.56921 -47.52 
L 388.118319 -47.52 
L 390.667428 -47.52 
L 393.216537 -47.52 
L 395.765646 -47.52 
L 398.314756 -47.52 
L 400.863865 -47.52 
L 403.412974 -47.52 
L 405.962083 -47.52 
L 408.511192 -47.52 
L 411.060302 -47.52 
L 413.609411 -47.52 
L 416.15852 -47.52 
L 418.707629 -47.52 
L 421.256738 -47.52 
L 423.805847 -47.52 
L 426.354957 -47.52 
L 428.904066 -47.52 
L 431.453175 -47.52 
L 434.002284 -47.52 
L 436.551393 -47.52 
L 439.100503 -47.52 
L 441.649612 -47.52 
L 444.198721 -47.52 
L 446.74783 -47.52 
L 449.296939 -47.52 
L 451.846048 -47.52 
L 454.395158 -47.52 
L 456.944267 -47.52 
L 459.493376 -47.52 
L 462.042485 -47.52 
L 464.591594 -47.52 
L 467.140704 -47.52 
L 469.689813 -47.52 
L 472.238922 -47.52 
L 474.788031 -47.52 
L 477.33714 -47.52 
L 479.886249 -47.52 
L 482.435359 -47.52 
L 484.984468 -47.52 
L 487.533577 -47.52 
L 490.082686 -47.52 
L 492.631795 -47.52 
L 495.180905 -47.52 
L 497.730014 -47.52 
L 500.279123 -47.52 
L 502.828232 -47.52 
L 505.377341 -47.52 
L 507.92645 -47.52 
L 510.47556 -47.52 
L 513.024669 -47.52 
L 515.573778 -47.52 
L 518.122887 -47.52 
L 520.671996 -47.52 
L 523.221106 -47.52 
L 525.770215 -47.52 
L 528.319324 -47.52 
L 530.868433 -47.52 
L 533.417542 -47.52 
L 535.966651 -47.52 
L 538.515761 -47.52 
L 541.06487 -47.52 
L 543.613979 -47.52 
L 546.163088 -47.52 
L 548.712197 -47.52 
L 551.261307 -47.52 
L 553.810416 -47.52 
L 556.359525 -47.52 
L 558.908634 -47.52 
L 561.457743 -47.52 
L 564.006852 -47.52 
L 566.555962 -47.52 
L 569.105071 -47.52 
L 571.65418 -47.52 
L 574.203289 -47.52 
L 576.752398 -47.52 
L 579.301508 -47.52 
L 581.850617 -47.52 
L 584.399726 -47.52 
L 586.948835 -47.52 
L 589.497944 -47.52 
L 592.047053 -47.52 
L 594.596163 -47.52 
L 597.145272 -47.52 
L 599.694381 -47.52 
L 602.24349 -47.52 
L 604.792599 -47.52 
L 607.341709 -47.52 
L 609.890818 -47.52 
L 612.439927 -47.52 
L 614.989036 -47.52 
L 617.538145 -47.52 
L 620.087254 -47.52 
L 622.636364 -47.52 
L 622.636364 -47.662479 
L 622.636364 -47.662479 
L 620.087254 -47.694073 
L 617.538145 -47.731706 
L 614.989036 -47.776304 
L 612.439927 -47.828885 
L 609.890818 -47.89056 
L 607.341709 -47.962528 
L 604.792599 -48.046069 
L 602.24349 -48.142537 
L 599.694381 -48.253345 
L 597.145272 -48.379947 
L 594.596163 -48.523819 
L 592.047053 -48.686432 
L 589.497944 -48.869224 
L 586.948835 -49.073566 
L 584.399726 -49.300721 
L 581.850617 -49.55181 
L 579.301508 -49.827765 
L 576.752398 -50.129285 
L 574.203289 -50.456793 
L 571.65418 -50.810389 
L 569.105071 -51.189813 
L 566.555962 -51.594401 
L 564.006852 -52.023059 
L 561.457743 -52.474231 
L 558.908634 -52.945888 
L 556.359525 -53.435516 
L 553.810416 -53.940121 
L 551.261307 -54.456247 
L 548.712197 -54.980005 
L 546.163088 -55.507112 
L 543.613979 -56.032952 
L 541.06487 -56.552641 
L 538.515761 -57.061111 
L 535.966651 -57.553198 
L 533.417542 -58.023748 
L 530.868433 -58.467719 
L 528.319324 -58.880298 
L 525.770215 -59.257013 
L 523.221106 -59.593849 
L 520.671996 -59.887354 
L 518.122887 -60.134742 
L 515.573778 -60.333993 
L 513.024669 -60.483923 
L 510.47556 -60.584262 
L 507.92645 -60.635696 
L 505.377341 -60.639908 
L 502.828232 -60.599583 
L 500.279123 -60.518414 
L 497.730014 -60.40107 
L 495.180905 -60.253157 
L 492.631795 -60.081162 
L 490.082686 -59.892371 
L 487.533577 -59.694785 
L 484.984468 -59.497017 
L 482.435359 -59.30818 
L 479.886249 -59.137766 
L 477.33714 -58.995528 
L 474.788031 -58.891345 
L 472.238922 -58.835101 
L 469.689813 -58.836555 
L 467.140704 -58.905222 
L 464.591594 -59.050255 
L 462.042485 -59.280333 
L 459.493376 -59.603562 
L 456.944267 -60.027381 
L 454.395158 -60.558482 
L 451.846048 -61.202736 
L 449.296939 -61.965137 
L 446.74783 -62.849751 
L 444.198721 -63.859685 
L 441.649612 -64.997061 
L 439.100503 -66.263011 
L 436.551393 -67.657674 
L 434.002284 -69.180214 
L 431.453175 -70.828845 
L 428.904066 -72.600869 
L 426.354957 -74.492723 
L 423.805847 -76.50004 
L 421.256738 -78.617706 
L 418.707629 -80.839941 
L 416.15852 -83.16037 
L 413.609411 -85.57211 
L 411.060302 -88.06785 
L 408.511192 -90.639937 
L 405.962083 -93.28046 
L 403.412974 -95.981331 
L 400.863865 -98.734363 
L 398.314756 -101.53134 
L 395.765646 -104.364084 
L 393.216537 -107.224512 
L 390.667428 -110.104689 
L 388.118319 -112.996868 
L 385.56921 -115.893524 
L 383.020101 -118.787386 
L 380.470991 -121.671446 
L 377.921882 -124.538981 
L 375.372773 -127.383555 
L 372.823664 -130.199019 
L 370.274555 -132.97951 
L 367.725445 -135.719445 
L 365.176336 -138.413511 
L 362.627227 -141.056657 
L 360.078118 -143.644084 
L 357.529009 -146.171231 
L 354.979899 -148.633771 
L 352.43079 -151.027597 
L 349.881681 -153.348818 
L 347.332572 -155.593749 
L 344.783463 -157.758909 
L 342.234354 -159.841014 
L 339.685244 -161.836971 
L 337.136135 -163.743878 
L 334.587026 -165.559019 
L 332.037917 -167.279854 
L 329.488808 -168.904019 
L 326.939698 -170.429312 
L 324.390589 -171.853685 
L 321.84148 -173.175228 
L 319.292371 -174.392151 
L 316.743262 -175.502763 
L 314.194153 -176.505446 
L 311.645043 -177.398625 
L 309.095934 -178.180734 
L 306.546825 -178.850179 
L 303.997716 -179.4053 
L 301.448607 -179.844329 
L 298.899497 -180.165351 
L 296.350388 -180.366268 
L 293.801279 -180.444763 
L 291.25217 -180.398276 
L 288.703061 -180.223986 
L 286.153952 -179.918802 
L 283.604842 -179.479378 
L 281.055733 -178.90213 
L 278.506624 -178.183282 
L 275.957515 -177.318927 
L 273.408406 -176.305104 
L 270.859296 -175.137901 
L 268.310187 -173.81357 
L 265.761078 -172.328662 
L 263.211969 -170.680171 
L 260.66286 -168.865698 
L 258.113751 -166.883604 
L 255.564641 -164.73318 
L 253.015532 -162.414801 
L 250.466423 -159.930073 
L 247.917314 -157.281964 
L 245.368205 -154.474912 
L 242.819095 -151.514908 
L 240.269986 -148.409543 
L 237.720877 -145.168029 
L 235.171768 -141.80117 
L 232.622659 -138.321309 
L 230.07355 -134.742225 
L 227.52444 -131.078999 
L 224.975331 -127.347846 
L 222.426222 -123.565912 
L 219.877113 -119.75105 
L 217.328004 -115.921574 
L 214.778894 -112.095998 
L 212.229785 -108.292773 
L 209.680676 -104.530015 
L 207.131567 -100.825253 
L 204.582458 -97.195179 
L 202.033349 -93.655425 
L 199.484239 -90.220363 
L 196.93513 -86.902929 
L 194.386021 -83.714493 
L 191.836912 -80.664748 
L 189.287803 -77.76165 
L 186.738693 -75.011382 
L 184.189584 -72.41836 
L 181.640475 -69.985271 
L 179.091366 -67.713143 
L 176.542257 -65.601435 
L 173.993148 -63.648157 
L 171.444038 -61.850007 
L 168.894929 -60.202517 
L 166.34582 -58.700215 
L 163.796711 -57.336788 
L 161.247602 -56.105246 
L 158.698492 -54.998079 
L 156.149383 -54.007419 
L 153.600274 -53.125178 
L 151.051165 -52.343185 
L 148.502056 -51.653305 
L 145.952947 -51.047541 
L 143.403837 -50.518132 
L 140.854728 -50.057618 
L 138.305619 -49.658907 
L 135.75651 -49.315319 
L 133.207401 -49.020615 
L 130.658291 -48.769019 
L 128.109182 -48.555226 
L 125.560073 -48.374403 
L 123.010964 -48.222177 
L 120.461855 -48.094622 
L 117.912746 -47.988236 
L 115.363636 -47.899918 
z
" style="stroke: #1f77b4"/>
    </defs>
    <g clip-path="url(#p4b766f01eb)">
     <use xlink:href="#m08e821bd97" x="0" y="432" style="fill: #1f77b4; fill-opacity: 0.25; stroke: #1f77b4"/>
    </g>
   </g>
   <g id="FillBetweenPolyCollection_2">
    <defs>
     <path id="mde2f877c5a" d="M 154.295643 -48.658912 
L 154.295643 -47.52 
L 156.061581 -47.52 
L 157.827519 -47.52 
L 159.593457 -47.52 
L 161.359394 -47.52 
L 163.125332 -47.52 
L 164.89127 -47.52 
L 166.657208 -47.52 
L 168.423146 -47.52 
L 170.189083 -47.52 
L 171.955021 -47.52 
L 173.720959 -47.52 
L 175.486897 -47.52 
L 177.252834 -47.52 
L 179.018772 -47.52 
L 180.78471 -47.52 
L 182.550648 -47.52 
L 184.316585 -47.52 
L 186.082523 -47.52 
L 187.848461 -47.52 
L 189.614399 -47.52 
L 191.380336 -47.52 
L 193.146274 -47.52 
L 194.912212 -47.52 
L 196.67815 -47.52 
L 198.444087 -47.52 
L 200.210025 -47.52 
L 201.975963 -47.52 
L 203.741901 -47.52 
L 205.507839 -47.52 
L 207.273776 -47.52 
L 209.039714 -47.52 
L 210.805652 -47.52 
L 212.57159 -47.52 
L 214.337527 -47.52 
L 216.103465 -47.52 
L 217.869403 -47.52 
L 219.635341 -47.52 
L 221.401278 -47.52 
L 223.167216 -47.52 
L 224.933154 -47.52 
L 226.699092 -47.52 
L 228.465029 -47.52 
L 230.230967 -47.52 
L 231.996905 -47.52 
L 233.762843 -47.52 
L 235.52878 -47.52 
L 237.294718 -47.52 
L 239.060656 -47.52 
L 240.826594 -47.52 
L 242.592532 -47.52 
L 244.358469 -47.52 
L 246.124407 -47.52 
L 247.890345 -47.52 
L 249.656283 -47.52 
L 251.42222 -47.52 
L 253.188158 -47.52 
L 254.954096 -47.52 
L 256.720034 -47.52 
L 258.485971 -47.52 
L 260.251909 -47.52 
L 262.017847 -47.52 
L 263.783785 -47.52 
L 265.549722 -47.52 
L 267.31566 -47.52 
L 269.081598 -47.52 
L 270.847536 -47.52 
L 272.613473 -47.52 
L 274.379411 -47.52 
L 276.145349 -47.52 
L 277.911287 -47.52 
L 279.677225 -47.52 
L 281.443162 -47.52 
L 283.2091 -47.52 
L 284.975038 -47.52 
L 286.740976 -47.52 
L 288.506913 -47.52 
L 290.272851 -47.52 
L 292.038789 -47.52 
L 293.804727 -47.52 
L 295.570664 -47.52 
L 297.336602 -47.52 
L 299.10254 -47.52 
L 300.868478 -47.52 
L 302.634415 -47.52 
L 304.400353 -47.52 
L 306.166291 -47.52 
L 307.932229 -47.52 
L 309.698166 -47.52 
L 311.464104 -47.52 
L 313.230042 -47.52 
L 314.99598 -47.52 
L 316.761918 -47.52 
L 318.527855 -47.52 
L 320.293793 -47.52 
L 322.059731 -47.52 
L 323.825669 -47.52 
L 325.591606 -47.52 
L 327.357544 -47.52 
L 329.123482 -47.52 
L 330.88942 -47.52 
L 332.655357 -47.52 
L 334.421295 -47.52 
L 336.187233 -47.52 
L 337.953171 -47.52 
L 339.719108 -47.52 
L 341.485046 -47.52 
L 343.250984 -47.52 
L 345.016922 -47.52 
L 346.782859 -47.52 
L 348.548797 -47.52 
L 350.314735 -47.52 
L 352.080673 -47.52 
L 353.846611 -47.52 
L 355.612548 -47.52 
L 357.378486 -47.52 
L 359.144424 -47.52 
L 360.910362 -47.52 
L 362.676299 -47.52 
L 364.442237 -47.52 
L 366.208175 -47.52 
L 367.974113 -47.52 
L 369.74005 -47.52 
L 371.505988 -47.52 
L 373.271926 -47.52 
L 375.037864 -47.52 
L 376.803801 -47.52 
L 378.569739 -47.52 
L 380.335677 -47.52 
L 382.101615 -47.52 
L 383.867552 -47.52 
L 385.63349 -47.52 
L 387.399428 -47.52 
L 389.165366 -47.52 
L 390.931304 -47.52 
L 392.697241 -47.52 
L 394.463179 -47.52 
L 396.229117 -47.52 
L 397.995055 -47.52 
L 399.760992 -47.52 
L 401.52693 -47.52 
L 403.292868 -47.52 
L 405.058806 -47.52 
L 406.824743 -47.52 
L 408.590681 -47.52 
L 410.356619 -47.52 
L 412.122557 -47.52 
L 413.888494 -47.52 
L 415.654432 -47.52 
L 417.42037 -47.52 
L 419.186308 -47.52 
L 420.952245 -47.52 
L 422.718183 -47.52 
L 424.484121 -47.52 
L 426.250059 -47.52 
L 428.015997 -47.52 
L 429.781934 -47.52 
L 431.547872 -47.52 
L 433.31381 -47.52 
L 435.079748 -47.52 
L 436.845685 -47.52 
L 438.611623 -47.52 
L 440.377561 -47.52 
L 442.143499 -47.52 
L 443.909436 -47.52 
L 445.675374 -47.52 
L 447.441312 -47.52 
L 449.20725 -47.52 
L 450.973187 -47.52 
L 452.739125 -47.52 
L 454.505063 -47.52 
L 456.271001 -47.52 
L 458.036938 -47.52 
L 459.802876 -47.52 
L 461.568814 -47.52 
L 463.334752 -47.52 
L 465.10069 -47.52 
L 466.866627 -47.52 
L 468.632565 -47.52 
L 470.398503 -47.52 
L 472.164441 -47.52 
L 473.930378 -47.52 
L 475.696316 -47.52 
L 477.462254 -47.52 
L 479.228192 -47.52 
L 480.994129 -47.52 
L 482.760067 -47.52 
L 484.526005 -47.52 
L 486.291943 -47.52 
L 488.05788 -47.52 
L 489.823818 -47.52 
L 491.589756 -47.52 
L 493.355694 -47.52 
L 495.121631 -47.52 
L 496.887569 -47.52 
L 498.653507 -47.52 
L 500.419445 -47.52 
L 502.185383 -47.52 
L 503.95132 -47.52 
L 505.717258 -47.52 
L 505.717258 -47.651659 
L 505.717258 -47.651659 
L 503.95132 -47.682649 
L 502.185383 -47.719918 
L 500.419445 -47.764484 
L 498.653507 -47.817476 
L 496.887569 -47.880126 
L 495.121631 -47.953771 
L 493.355694 -48.039842 
L 491.589756 -48.139853 
L 489.823818 -48.255385 
L 488.05788 -48.388063 
L 486.291943 -48.539532 
L 484.526005 -48.711424 
L 482.760067 -48.905324 
L 480.994129 -49.122727 
L 479.228192 -49.364996 
L 477.462254 -49.633314 
L 475.696316 -49.928636 
L 473.930378 -50.251641 
L 472.164441 -50.602685 
L 470.398503 -50.981756 
L 468.632565 -51.388441 
L 466.866627 -51.82189 
L 465.10069 -52.280801 
L 463.334752 -52.763408 
L 461.568814 -53.267486 
L 459.802876 -53.790374 
L 458.036938 -54.329002 
L 456.271001 -54.87995 
L 454.505063 -55.43951 
L 452.739125 -56.003771 
L 450.973187 -56.568709 
L 449.20725 -57.130298 
L 447.441312 -57.684625 
L 445.675374 -58.228002 
L 443.909436 -58.757098 
L 442.143499 -59.269045 
L 440.377561 -59.761553 
L 438.611623 -60.233008 
L 436.845685 -60.682547 
L 435.079748 -61.110122 
L 433.31381 -61.516533 
L 431.547872 -61.90344 
L 429.781934 -62.273343 
L 428.015997 -62.629534 
L 426.250059 -62.976021 
L 424.484121 -63.317427 
L 422.718183 -63.658859 
L 420.952245 -64.005764 
L 419.186308 -64.363761 
L 417.42037 -64.73847 
L 415.654432 -65.135329 
L 413.888494 -65.559413 
L 412.122557 -66.015265 
L 410.356619 -66.506736 
L 408.590681 -67.036846 
L 406.824743 -67.607663 
L 405.058806 -68.220224 
L 403.292868 -68.874469 
L 401.52693 -69.56923 
L 399.760992 -70.302233 
L 397.995055 -71.070152 
L 396.229117 -71.868692 
L 394.463179 -72.692696 
L 392.697241 -73.53629 
L 390.931304 -74.393045 
L 389.165366 -75.256163 
L 387.399428 -76.11867 
L 385.63349 -76.973624 
L 383.867552 -77.814315 
L 382.101615 -78.634474 
L 380.335677 -79.42846 
L 378.569739 -80.191439 
L 376.803801 -80.919543 
L 375.037864 -81.610007 
L 373.271926 -82.261278 
L 371.505988 -82.873101 
L 369.74005 -83.446571 
L 367.974113 -83.984162 
L 366.208175 -84.489727 
L 364.442237 -84.968468 
L 362.676299 -85.426893 
L 360.910362 -85.872741 
L 359.144424 -86.314898 
L 357.378486 -86.763295 
L 355.612548 -87.228803 
L 353.846611 -87.723111 
L 352.080673 -88.258613 
L 350.314735 -88.848287 
L 348.548797 -89.505579 
L 346.782859 -90.244283 
L 345.016922 -91.078438 
L 343.250984 -92.022208 
L 341.485046 -93.08978 
L 339.719108 -94.295248 
L 337.953171 -95.652498 
L 336.187233 -97.175088 
L 334.421295 -98.876103 
L 332.655357 -100.768019 
L 330.88942 -102.862528 
L 329.123482 -105.170359 
L 327.357544 -107.70108 
L 325.591606 -110.462875 
L 323.825669 -113.462319 
L 322.059731 -116.704138 
L 320.293793 -120.190965 
L 318.527855 -123.923105 
L 316.761918 -127.898316 
L 314.99598 -132.111612 
L 313.230042 -136.555103 
L 311.464104 -141.217883 
L 309.698166 -146.085978 
L 307.932229 -151.142348 
L 306.166291 -156.366979 
L 304.400353 -161.737038 
L 302.634415 -167.227111 
L 300.868478 -172.809519 
L 299.10254 -178.454707 
L 297.336602 -184.131689 
L 295.570664 -189.808547 
L 293.804727 -195.45297 
L 292.038789 -201.032798 
L 290.272851 -206.516575 
L 288.506913 -211.874078 
L 286.740976 -217.076794 
L 284.975038 -222.098347 
L 283.2091 -226.91484 
L 281.443162 -231.5051 
L 279.677225 -235.850826 
L 277.911287 -239.936621 
L 276.145349 -243.749915 
L 274.379411 -247.28078 
L 272.613473 -250.521644 
L 270.847536 -253.466928 
L 269.081598 -256.112602 
L 267.31566 -258.455717 
L 265.549722 -260.493897 
L 263.783785 -262.224853 
L 262.017847 -263.645917 
L 260.251909 -264.753646 
L 258.485971 -265.543497 
L 256.720034 -266.009607 
L 254.954096 -266.144689 
L 253.188158 -265.940051 
L 251.42222 -265.385747 
L 249.656283 -264.470855 
L 247.890345 -263.18387 
L 246.124407 -261.513205 
L 244.358469 -259.447778 
L 242.592532 -256.977653 
L 240.826594 -254.094723 
L 239.060656 -250.793387 
L 237.294718 -247.071209 
L 235.52878 -242.929512 
L 233.762843 -238.373896 
L 231.996905 -233.41464 
L 230.230967 -228.066976 
L 228.465029 -222.351224 
L 226.699092 -216.292771 
L 224.933154 -209.921889 
L 223.167216 -203.273413 
L 221.401278 -196.386262 
L 219.635341 -189.302847 
L 217.869403 -182.068362 
L 216.103465 -174.729994 
L 214.337527 -167.336076 
L 212.57159 -159.935217 
L 210.805652 -152.575421 
L 209.039714 -145.303238 
L 207.273776 -138.162975 
L 205.507839 -131.195967 
L 203.741901 -124.439959 
L 201.975963 -117.928581 
L 200.210025 -111.690957 
L 198.444087 -105.751426 
L 196.67815 -100.129399 
L 194.912212 -94.839328 
L 193.146274 -89.890798 
L 191.380336 -85.288716 
L 189.614399 -81.033594 
L 187.848461 -77.121905 
L 186.082523 -73.546501 
L 184.316585 -70.297066 
L 182.550648 -67.360602 
L 180.78471 -64.721916 
L 179.018772 -62.364116 
L 177.252834 -60.26907 
L 175.486897 -58.417857 
L 173.720959 -56.791166 
L 171.955021 -55.369663 
L 170.189083 -54.134306 
L 168.423146 -53.066611 
L 166.657208 -52.148874 
L 164.89127 -51.364337 
L 163.125332 -50.697319 
L 161.359394 -50.133295 
L 159.593457 -49.658944 
L 157.827519 -49.262166 
L 156.061581 -48.932064 
L 154.295643 -48.658912 
z
" style="stroke: #ff7f0e"/>
    </defs>
    <g clip-path="url(#p4b766f01eb)">
     <use xlink:href="#mde2f877c5a" x="0" y="432" style="fill: #ff7f0e; fill-opacity: 0.25; stroke: #ff7f0e"/>
    </g>
   </g>
   <g id="FillBetweenPolyCollection_3">
    <defs>
     <path id="mfd06dbb5bd" d="M 182.688304 -49.647639 
L 182.688304 -47.52 
L 183.933751 -47.52 
L 185.179199 -47.52 
L 186.424646 -47.52 
L 187.670094 -47.52 
L 188.915541 -47.52 
L 190.160988 -47.52 
L 191.406436 -47.52 
L 192.651883 -47.52 
L 193.897331 -47.52 
L 195.142778 -47.52 
L 196.388225 -47.52 
L 197.633673 -47.52 
L 198.87912 -47.52 
L 200.124568 -47.52 
L 201.370015 -47.52 
L 202.615462 -47.52 
L 203.86091 -47.52 
L 205.106357 -47.52 
L 206.351805 -47.52 
L 207.597252 -47.52 
L 208.8427 -47.52 
L 210.088147 -47.52 
L 211.333594 -47.52 
L 212.579042 -47.52 
L 213.824489 -47.52 
L 215.069937 -47.52 
L 216.315384 -47.52 
L 217.560831 -47.52 
L 218.806279 -47.52 
L 220.051726 -47.52 
L 221.297174 -47.52 
L 222.542621 -47.52 
L 223.788068 -47.52 
L 225.033516 -47.52 
L 226.278963 -47.52 
L 227.524411 -47.52 
L 228.769858 -47.52 
L 230.015305 -47.52 
L 231.260753 -47.52 
L 232.5062 -47.52 
L 233.751648 -47.52 
L 234.997095 -47.52 
L 236.242543 -47.52 
L 237.48799 -47.52 
L 238.733437 -47.52 
L 239.978885 -47.52 
L 241.224332 -47.52 
L 242.46978 -47.52 
L 243.715227 -47.52 
L 244.960674 -47.52 
L 246.206122 -47.52 
L 247.451569 -47.52 
L 248.697017 -47.52 
L 249.942464 -47.52 
L 251.187911 -47.52 
L 252.433359 -47.52 
L 253.678806 -47.52 
L 254.924254 -47.52 
L 256.169701 -47.52 
L 257.415149 -47.52 
L 258.660596 -47.52 
L 259.906043 -47.52 
L 261.151491 -47.52 
L 262.396938 -47.52 
L 263.642386 -47.52 
L 264.887833 -47.52 
L 266.13328 -47.52 
L 267.378728 -47.52 
L 268.624175 -47.52 
L 269.869623 -47.52 
L 271.11507 -47.52 
L 272.360517 -47.52 
L 273.605965 -47.52 
L 274.851412 -47.52 
L 276.09686 -47.52 
L 277.342307 -47.52 
L 278.587754 -47.52 
L 279.833202 -47.52 
L 281.078649 -47.52 
L 282.324097 -47.52 
L 283.569544 -47.52 
L 284.814992 -47.52 
L 286.060439 -47.52 
L 287.305886 -47.52 
L 288.551334 -47.52 
L 289.796781 -47.52 
L 291.042229 -47.52 
L 292.287676 -47.52 
L 293.533123 -47.52 
L 294.778571 -47.52 
L 296.024018 -47.52 
L 297.269466 -47.52 
L 298.514913 -47.52 
L 299.76036 -47.52 
L 301.005808 -47.52 
L 302.251255 -47.52 
L 303.496703 -47.52 
L 304.74215 -47.52 
L 305.987597 -47.52 
L 307.233045 -47.52 
L 308.478492 -47.52 
L 309.72394 -47.52 
L 310.969387 -47.52 
L 312.214835 -47.52 
L 313.460282 -47.52 
L 314.705729 -47.52 
L 315.951177 -47.52 
L 317.196624 -47.52 
L 318.442072 -47.52 
L 319.687519 -47.52 
L 320.932966 -47.52 
L 322.178414 -47.52 
L 323.423861 -47.52 
L 324.669309 -47.52 
L 325.914756 -47.52 
L 327.160203 -47.52 
L 328.405651 -47.52 
L 329.651098 -47.52 
L 330.896546 -47.52 
L 332.141993 -47.52 
L 333.38744 -47.52 
L 334.632888 -47.52 
L 335.878335 -47.52 
L 337.123783 -47.52 
L 338.36923 -47.52 
L 339.614678 -47.52 
L 340.860125 -47.52 
L 342.105572 -47.52 
L 343.35102 -47.52 
L 344.596467 -47.52 
L 345.841915 -47.52 
L 347.087362 -47.52 
L 348.332809 -47.52 
L 349.578257 -47.52 
L 350.823704 -47.52 
L 352.069152 -47.52 
L 353.314599 -47.52 
L 354.560046 -47.52 
L 355.805494 -47.52 
L 357.050941 -47.52 
L 358.296389 -47.52 
L 359.541836 -47.52 
L 360.787284 -47.52 
L 362.032731 -47.52 
L 363.278178 -47.52 
L 364.523626 -47.52 
L 365.769073 -47.52 
L 367.014521 -47.52 
L 368.259968 -47.52 
L 369.505415 -47.52 
L 370.750863 -47.52 
L 371.99631 -47.52 
L 373.241758 -47.52 
L 374.487205 -47.52 
L 375.732652 -47.52 
L 376.9781 -47.52 
L 378.223547 -47.52 
L 379.468995 -47.52 
L 380.714442 -47.52 
L 381.959889 -47.52 
L 383.205337 -47.52 
L 384.450784 -47.52 
L 385.696232 -47.52 
L 386.941679 -47.52 
L 388.187127 -47.52 
L 389.432574 -47.52 
L 390.678021 -47.52 
L 391.923469 -47.52 
L 393.168916 -47.52 
L 394.414364 -47.52 
L 395.659811 -47.52 
L 396.905258 -47.52 
L 398.150706 -47.52 
L 399.396153 -47.52 
L 400.641601 -47.52 
L 401.887048 -47.52 
L 403.132495 -47.52 
L 404.377943 -47.52 
L 405.62339 -47.52 
L 406.868838 -47.52 
L 408.114285 -47.52 
L 409.359732 -47.52 
L 410.60518 -47.52 
L 411.850627 -47.52 
L 413.096075 -47.52 
L 414.341522 -47.52 
L 415.58697 -47.52 
L 416.832417 -47.52 
L 418.077864 -47.52 
L 419.323312 -47.52 
L 420.568759 -47.52 
L 421.814207 -47.52 
L 423.059654 -47.52 
L 424.305101 -47.52 
L 425.550549 -47.52 
L 426.795996 -47.52 
L 428.041444 -47.52 
L 429.286891 -47.52 
L 430.532338 -47.52 
L 430.532338 -47.644124 
L 430.532338 -47.644124 
L 429.286891 -47.678462 
L 428.041444 -47.721026 
L 426.795996 -47.773421 
L 425.550549 -47.837475 
L 424.305101 -47.915244 
L 423.059654 -48.009014 
L 421.814207 -48.121302 
L 420.568759 -48.254841 
L 419.323312 -48.412563 
L 418.077864 -48.597574 
L 416.832417 -48.813108 
L 415.58697 -49.062488 
L 414.341522 -49.34906 
L 413.096075 -49.67613 
L 411.850627 -50.046887 
L 410.60518 -50.464316 
L 409.359732 -50.931115 
L 408.114285 -51.449603 
L 406.868838 -52.021625 
L 405.62339 -52.648473 
L 404.377943 -53.330799 
L 403.132495 -54.06855 
L 401.887048 -54.860903 
L 400.641601 -55.70623 
L 399.396153 -56.602067 
L 398.150706 -57.545111 
L 396.905258 -58.531232 
L 395.659811 -59.55551 
L 394.414364 -60.612286 
L 393.168916 -61.695237 
L 391.923469 -62.797465 
L 390.678021 -63.911606 
L 389.432574 -65.029939 
L 388.187127 -66.144523 
L 386.941679 -67.247322 
L 385.696232 -68.330348 
L 384.450784 -69.385793 
L 383.205337 -70.406172 
L 381.959889 -71.384449 
L 380.714442 -72.314164 
L 379.468995 -73.18955 
L 378.223547 -74.005638 
L 376.9781 -74.758355 
L 375.732652 -75.4446 
L 374.487205 -76.062319 
L 373.241758 -76.610553 
L 371.99631 -77.089476 
L 370.750863 -77.500415 
L 369.505415 -77.845856 
L 368.259968 -78.129428 
L 367.014521 -78.355873 
L 365.769073 -78.530999 
L 364.523626 -78.661616 
L 363.278178 -78.75546 
L 362.032731 -78.821094 
L 360.787284 -78.867813 
L 359.541836 -78.905517 
L 358.296389 -78.944599 
L 357.050941 -78.995801 
L 355.805494 -79.070091 
L 354.560046 -79.178516 
L 353.314599 -79.332067 
L 352.069152 -79.541542 
L 350.823704 -79.817412 
L 349.578257 -80.169696 
L 348.332809 -80.607838 
L 347.087362 -81.140598 
L 345.841915 -81.775952 
L 344.596467 -82.521008 
L 343.35102 -83.38193 
L 342.105572 -84.363885 
L 340.860125 -85.471001 
L 339.614678 -86.706346 
L 338.36923 -88.071921 
L 337.123783 -89.568674 
L 335.878335 -91.196523 
L 334.632888 -92.954402 
L 333.38744 -94.840307 
L 332.141993 -96.851361 
L 330.896546 -98.98387 
L 329.651098 -101.233392 
L 328.405651 -103.594791 
L 327.160203 -106.062286 
L 325.914756 -108.629489 
L 324.669309 -111.289421 
L 323.423861 -114.034519 
L 322.178414 -116.856618 
L 320.932966 -119.746923 
L 319.687519 -122.695957 
L 318.442072 -125.693512 
L 317.196624 -128.728592 
L 315.951177 -131.789359 
L 314.705729 -134.863105 
L 313.460282 -137.936239 
L 312.214835 -140.99432 
L 310.969387 -144.022132 
L 309.72394 -147.003819 
L 308.478492 -149.923085 
L 307.233045 -152.763459 
L 305.987597 -155.50864 
L 304.74215 -158.1429 
L 303.496703 -160.651556 
L 302.251255 -163.021492 
L 301.005808 -165.241716 
L 299.76036 -167.30393 
L 298.514913 -169.203099 
L 297.269466 -170.937984 
L 296.024018 -172.511607 
L 294.778571 -173.93165 
L 293.533123 -175.210715 
L 292.287676 -176.366475 
L 291.042229 -177.421654 
L 289.796781 -178.403853 
L 288.551334 -179.345204 
L 287.305886 -180.281859 
L 286.060439 -181.253319 
L 284.814992 -182.301629 
L 283.569544 -183.470456 
L 282.324097 -184.804086 
L 281.078649 -186.346369 
L 279.833202 -188.139651 
L 278.587754 -190.223734 
L 277.342307 -192.634897 
L 276.09686 -195.404997 
L 274.851412 -198.560706 
L 273.605965 -202.122869 
L 272.360517 -206.106028 
L 271.11507 -210.518084 
L 269.869623 -215.360129 
L 268.624175 -220.626402 
L 267.378728 -226.304383 
L 266.13328 -232.374979 
L 264.887833 -238.812796 
L 263.642386 -245.586461 
L 262.396938 -252.658968 
L 261.151491 -259.988037 
L 259.906043 -267.526457 
L 258.660596 -275.222403 
L 257.415149 -283.01973 
L 256.169701 -290.858232 
L 254.924254 -298.673885 
L 253.678806 -306.399089 
L 252.433359 -313.962916 
L 251.187911 -321.291419 
L 249.942464 -328.307994 
L 248.697017 -334.933854 
L 247.451569 -341.088624 
L 246.206122 -346.691089 
L 244.960674 -351.660108 
L 243.715227 -355.915703 
L 242.46978 -359.380324 
L 241.224332 -361.980268 
L 239.978885 -363.647239 
L 238.733437 -364.32 
L 237.48799 -363.946066 
L 236.242543 -362.483392 
L 234.997095 -359.901969 
L 233.751648 -356.18527 
L 232.5062 -351.331465 
L 231.260753 -345.354341 
L 230.015305 -338.283861 
L 228.769858 -330.166308 
L 227.524411 -321.063988 
L 226.278963 -311.054469 
L 225.033516 -300.229356 
L 223.788068 -288.692635 
L 222.542621 -276.558628 
L 221.297174 -263.949611 
L 220.051726 -250.993199 
L 218.806279 -237.819571 
L 217.560831 -224.558635 
L 216.315384 -211.337252 
L 215.069937 -198.276597 
L 213.824489 -185.48976 
L 212.579042 -173.079668 
L 211.333594 -161.137376 
L 210.088147 -149.74079 
L 208.8427 -138.953827 
L 207.597252 -128.826031 
L 206.351805 -119.392615 
L 205.106357 -110.674912 
L 203.86091 -102.681168 
L 202.615462 -95.40764 
L 201.370015 -88.839915 
L 200.124568 -82.954389 
L 198.87912 -77.719849 
L 197.633673 -73.099066 
L 196.388225 -69.050372 
L 195.142778 -65.529145 
L 193.897331 -62.489181 
L 192.651883 -59.883912 
L 191.406436 -57.667451 
L 190.160988 -55.795462 
L 188.915541 -54.225843 
L 187.670094 -52.919242 
L 186.424646 -51.839398 
L 185.179199 -50.953351 
L 183.933751 -50.231512 
L 182.688304 -49.647639 
z
" style="stroke: #2ca02c"/>
    </defs>
    <g clip-path="url(#p4b766f01eb)">
     <use xlink:href="#mfd06dbb5bd" x="0" y="432" style="fill: #2ca02c; fill-opacity: 0.25; stroke: #2ca02c"/>
    </g>
   </g>
   <g id="FillBetweenPolyCollection_4">
    <defs>
     <path id="m241a83d29d" d="M 153.900158 -48.747277 
L 153.900158 -47.52 
L 155.199797 -47.52 
L 156.499435 -47.52 
L 157.799074 -47.52 
L 159.098712 -47.52 
L 160.398351 -47.52 
L 161.697989 -47.52 
L 162.997628 -47.52 
L 164.297266 -47.52 
L 165.596905 -47.52 
L 166.896544 -47.52 
L 168.196182 -47.52 
L 169.495821 -47.52 
L 170.795459 -47.52 
L 172.095098 -47.52 
L 173.394736 -47.52 
L 174.694375 -47.52 
L 175.994013 -47.52 
L 177.293652 -47.52 
L 178.59329 -47.52 
L 179.892929 -47.52 
L 181.192567 -47.52 
L 182.492206 -47.52 
L 183.791844 -47.52 
L 185.091483 -47.52 
L 186.391121 -47.52 
L 187.69076 -47.52 
L 188.990398 -47.52 
L 190.290037 -47.52 
L 191.589676 -47.52 
L 192.889314 -47.52 
L 194.188953 -47.52 
L 195.488591 -47.52 
L 196.78823 -47.52 
L 198.087868 -47.52 
L 199.387507 -47.52 
L 200.687145 -47.52 
L 201.986784 -47.52 
L 203.286422 -47.52 
L 204.586061 -47.52 
L 205.885699 -47.52 
L 207.185338 -47.52 
L 208.484976 -47.52 
L 209.784615 -47.52 
L 211.084253 -47.52 
L 212.383892 -47.52 
L 213.68353 -47.52 
L 214.983169 -47.52 
L 216.282808 -47.52 
L 217.582446 -47.52 
L 218.882085 -47.52 
L 220.181723 -47.52 
L 221.481362 -47.52 
L 222.781 -47.52 
L 224.080639 -47.52 
L 225.380277 -47.52 
L 226.679916 -47.52 
L 227.979554 -47.52 
L 229.279193 -47.52 
L 230.578831 -47.52 
L 231.87847 -47.52 
L 233.178108 -47.52 
L 234.477747 -47.52 
L 235.777385 -47.52 
L 237.077024 -47.52 
L 238.376662 -47.52 
L 239.676301 -47.52 
L 240.97594 -47.52 
L 242.275578 -47.52 
L 243.575217 -47.52 
L 244.874855 -47.52 
L 246.174494 -47.52 
L 247.474132 -47.52 
L 248.773771 -47.52 
L 250.073409 -47.52 
L 251.373048 -47.52 
L 252.672686 -47.52 
L 253.972325 -47.52 
L 255.271963 -47.52 
L 256.571602 -47.52 
L 257.87124 -47.52 
L 259.170879 -47.52 
L 260.470517 -47.52 
L 261.770156 -47.52 
L 263.069794 -47.52 
L 264.369433 -47.52 
L 265.669072 -47.52 
L 266.96871 -47.52 
L 268.268349 -47.52 
L 269.567987 -47.52 
L 270.867626 -47.52 
L 272.167264 -47.52 
L 273.466903 -47.52 
L 274.766541 -47.52 
L 276.06618 -47.52 
L 277.365818 -47.52 
L 278.665457 -47.52 
L 279.965095 -47.52 
L 281.264734 -47.52 
L 282.564372 -47.52 
L 283.864011 -47.52 
L 285.163649 -47.52 
L 286.463288 -47.52 
L 287.762926 -47.52 
L 289.062565 -47.52 
L 290.362204 -47.52 
L 291.661842 -47.52 
L 292.961481 -47.52 
L 294.261119 -47.52 
L 295.560758 -47.52 
L 296.860396 -47.52 
L 298.160035 -47.52 
L 299.459673 -47.52 
L 300.759312 -47.52 
L 302.05895 -47.52 
L 303.358589 -47.52 
L 304.658227 -47.52 
L 305.957866 -47.52 
L 307.257504 -47.52 
L 308.557143 -47.52 
L 309.856781 -47.52 
L 311.15642 -47.52 
L 312.456058 -47.52 
L 313.755697 -47.52 
L 315.055336 -47.52 
L 316.354974 -47.52 
L 317.654613 -47.52 
L 318.954251 -47.52 
L 320.25389 -47.52 
L 321.553528 -47.52 
L 322.853167 -47.52 
L 324.152805 -47.52 
L 325.452444 -47.52 
L 326.752082 -47.52 
L 328.051721 -47.52 
L 329.351359 -47.52 
L 330.650998 -47.52 
L 331.950636 -47.52 
L 333.250275 -47.52 
L 334.549913 -47.52 
L 335.849552 -47.52 
L 337.14919 -47.52 
L 338.448829 -47.52 
L 339.748468 -47.52 
L 341.048106 -47.52 
L 342.347745 -47.52 
L 343.647383 -47.52 
L 344.947022 -47.52 
L 346.24666 -47.52 
L 347.546299 -47.52 
L 348.845937 -47.52 
L 350.145576 -47.52 
L 351.445214 -47.52 
L 352.744853 -47.52 
L 354.044491 -47.52 
L 355.34413 -47.52 
L 356.643768 -47.52 
L 357.943407 -47.52 
L 359.243045 -47.52 
L 360.542684 -47.52 
L 361.842322 -47.52 
L 363.141961 -47.52 
L 364.4416 -47.52 
L 365.741238 -47.52 
L 367.040877 -47.52 
L 368.340515 -47.52 
L 369.640154 -47.52 
L 370.939792 -47.52 
L 372.239431 -47.52 
L 373.539069 -47.52 
L 374.838708 -47.52 
L 376.138346 -47.52 
L 377.437985 -47.52 
L 378.737623 -47.52 
L 380.037262 -47.52 
L 381.3369 -47.52 
L 382.636539 -47.52 
L 383.936177 -47.52 
L 385.235816 -47.52 
L 386.535454 -47.52 
L 387.835093 -47.52 
L 389.134732 -47.52 
L 390.43437 -47.52 
L 391.734009 -47.52 
L 393.033647 -47.52 
L 394.333286 -47.52 
L 395.632924 -47.52 
L 396.932563 -47.52 
L 398.232201 -47.52 
L 399.53184 -47.52 
L 400.831478 -47.52 
L 402.131117 -47.52 
L 403.430755 -47.52 
L 404.730394 -47.52 
L 406.030032 -47.52 
L 407.329671 -47.52 
L 408.629309 -47.52 
L 409.928948 -47.52 
L 411.228586 -47.52 
L 412.528225 -47.52 
L 412.528225 -47.933813 
L 412.528225 -47.933813 
L 411.228586 -48.004955 
L 409.928948 -48.086908 
L 408.629309 -48.181066 
L 407.329671 -48.288959 
L 406.030032 -48.412267 
L 404.730394 -48.552824 
L 403.430755 -48.712627 
L 402.131117 -48.893844 
L 400.831478 -49.098821 
L 399.53184 -49.330084 
L 398.232201 -49.590349 
L 396.932563 -49.882526 
L 395.632924 -50.209719 
L 394.333286 -50.575231 
L 393.033647 -50.982568 
L 391.734009 -51.435432 
L 390.43437 -51.937728 
L 389.134732 -52.493558 
L 387.835093 -53.107217 
L 386.535454 -53.78319 
L 385.235816 -54.526146 
L 383.936177 -55.340928 
L 382.636539 -56.232548 
L 381.3369 -57.206174 
L 380.037262 -58.267117 
L 378.737623 -59.420819 
L 377.437985 -60.672839 
L 376.138346 -62.02883 
L 374.838708 -63.494525 
L 373.539069 -65.075712 
L 372.239431 -66.778208 
L 370.939792 -68.607832 
L 369.640154 -70.570373 
L 368.340515 -72.671557 
L 367.040877 -74.917003 
L 365.741238 -77.312183 
L 364.4416 -79.862368 
L 363.141961 -82.572579 
L 361.842322 -85.447523 
L 360.542684 -88.491528 
L 359.243045 -91.70847 
L 357.943407 -95.101696 
L 356.643768 -98.673937 
L 355.34413 -102.427224 
L 354.044491 -106.362786 
L 352.744853 -110.480956 
L 351.445214 -114.781067 
L 350.145576 -119.261347 
L 348.845937 -123.918815 
L 347.546299 -128.749178 
L 346.24666 -133.746729 
L 344.947022 -138.904252 
L 343.647383 -144.212936 
L 342.347745 -149.662299 
L 341.048106 -155.240123 
L 339.748468 -160.932406 
L 338.448829 -166.723335 
L 337.14919 -172.595274 
L 335.849552 -178.528784 
L 334.549913 -184.502659 
L 333.250275 -190.494 
L 331.950636 -196.478305 
L 330.650998 -202.429606 
L 329.351359 -208.320617 
L 328.051721 -214.122931 
L 326.752082 -219.807231 
L 325.452444 -225.343539 
L 324.152805 -230.701489 
L 322.853167 -235.850621 
L 321.553528 -240.760694 
L 320.25389 -245.402022 
L 318.954251 -249.745814 
L 317.654613 -253.764523 
L 316.354974 -257.4322 
L 315.055336 -260.724835 
L 313.755697 -263.620696 
L 312.456058 -266.100647 
L 311.15642 -268.148447 
L 309.856781 -269.751019 
L 308.557143 -270.898687 
L 307.257504 -271.585378 
L 305.957866 -271.808777 
L 304.658227 -271.570441 
L 303.358589 -270.875866 
L 302.05895 -269.734499 
L 300.759312 -268.1597 
L 299.459673 -266.168657 
L 298.160035 -263.782244 
L 296.860396 -261.024835 
L 295.560758 -257.924064 
L 294.261119 -254.510547 
L 292.961481 -250.817563 
L 291.661842 -246.880694 
L 290.362204 -242.737444 
L 289.062565 -238.42682 
L 287.762926 -233.988907 
L 286.463288 -229.46442 
L 285.163649 -224.894255 
L 283.864011 -220.319031 
L 282.564372 -215.778651 
L 281.264734 -211.311858 
L 279.965095 -206.95582 
L 278.665457 -202.745734 
L 277.365818 -198.714449 
L 276.06618 -194.892134 
L 274.766541 -191.305969 
L 273.466903 -187.979879 
L 272.167264 -184.934314 
L 270.867626 -182.186059 
L 269.567987 -179.748105 
L 268.268349 -177.62955 
L 266.96871 -175.835557 
L 265.669072 -174.367354 
L 264.369433 -173.222276 
L 263.069794 -172.393856 
L 261.770156 -171.871952 
L 260.470517 -171.642924 
L 259.170879 -171.689835 
L 257.87124 -171.992699 
L 256.571602 -172.528751 
L 255.271963 -173.272752 
L 253.972325 -174.197316 
L 252.672686 -175.273252 
L 251.373048 -176.469932 
L 250.073409 -177.755658 
L 248.773771 -179.098051 
L 247.474132 -180.464428 
L 246.174494 -181.822189 
L 244.874855 -183.139187 
L 243.575217 -184.384098 
L 242.275578 -185.526766 
L 240.97594 -186.538533 
L 239.676301 -187.39255 
L 238.376662 -188.064052 
L 237.077024 -188.530608 
L 235.777385 -188.772341 
L 234.477747 -188.77211 
L 233.178108 -188.515647 
L 231.87847 -187.991674 
L 230.578831 -187.19196 
L 229.279193 -186.111352 
L 227.979554 -184.747764 
L 226.679916 -183.102124 
L 225.380277 -181.178286 
L 224.080639 -178.982909 
L 222.781 -176.525303 
L 221.481362 -173.817244 
L 220.181723 -170.872761 
L 218.882085 -167.70791 
L 217.582446 -164.340517 
L 216.282808 -160.789919 
L 214.983169 -157.076685 
L 213.68353 -153.22234 
L 212.383892 -149.249081 
L 211.084253 -145.179504 
L 209.784615 -141.036326 
L 208.484976 -136.842133 
L 207.185338 -132.619128 
L 205.885699 -128.388907 
L 204.586061 -124.172248 
L 203.286422 -119.988922 
L 201.986784 -115.857532 
L 200.687145 -111.795375 
L 199.387507 -107.818325 
L 198.087868 -103.940746 
L 196.78823 -100.17543 
L 195.488591 -96.533558 
L 194.188953 -93.024687 
L 192.889314 -89.656755 
L 191.589676 -86.436109 
L 190.290037 -83.367554 
L 188.990398 -80.454413 
L 187.69076 -77.698608 
L 186.391121 -75.100745 
L 185.091483 -72.660216 
L 183.791844 -70.375305 
L 182.492206 -68.243297 
L 181.192567 -66.260595 
L 179.892929 -64.422832 
L 178.59329 -62.724991 
L 177.293652 -61.161509 
L 175.994013 -59.72639 
L 174.694375 -58.413306 
L 173.394736 -57.215694 
L 172.095098 -56.126846 
L 170.795459 -55.139985 
L 169.495821 -54.248348 
L 168.196182 -53.445244 
L 166.896544 -52.724112 
L 165.596905 -52.078573 
L 164.297266 -51.502469 
L 162.997628 -50.989895 
L 161.697989 -50.535227 
L 160.398351 -50.133142 
L 159.098712 -49.778626 
L 157.799074 -49.466989 
L 156.499435 -49.193864 
L 155.199797 -48.955203 
L 153.900158 -48.747277 
z
" style="stroke: #d62728"/>
    </defs>
    <g clip-path="url(#p4b766f01eb)">
     <use xlink:href="#m241a83d29d" x="0" y="432" style="fill: #d62728; fill-opacity: 0.25; stroke: #d62728"/>
    </g>
   </g>
   <g id="FillBetweenPolyCollection_5">
    <defs>
     <path id="mc82aebd5d7" d="M 150.431495 -48.897169 
L 150.431495 -47.52 
L 151.530857 -47.52 
L 152.63022 -47.52 
L 153.729582 -47.52 
L 154.828945 -47.52 
L 155.928307 -47.52 
L 157.02767 -47.52 
L 158.127032 -47.52 
L 159.226395 -47.52 
L 160.325757 -47.52 
L 161.42512 -47.52 
L 162.524482 -47.52 
L 163.623844 -47.52 
L 164.723207 -47.52 
L 165.822569 -47.52 
L 166.921932 -47.52 
L 168.021294 -47.52 
L 169.120657 -47.52 
L 170.220019 -47.52 
L 171.319382 -47.52 
L 172.418744 -47.52 
L 173.518107 -47.52 
L 174.617469 -47.52 
L 175.716832 -47.52 
L 176.816194 -47.52 
L 177.915557 -47.52 
L 179.014919 -47.52 
L 180.114282 -47.52 
L 181.213644 -47.52 
L 182.313007 -47.52 
L 183.412369 -47.52 
L 184.511732 -47.52 
L 185.611094 -47.52 
L 186.710457 -47.52 
L 187.809819 -47.52 
L 188.909182 -47.52 
L 190.008544 -47.52 
L 191.107907 -47.52 
L 192.207269 -47.52 
L 193.306632 -47.52 
L 194.405994 -47.52 
L 195.505357 -47.52 
L 196.604719 -47.52 
L 197.704082 -47.52 
L 198.803444 -47.52 
L 199.902807 -47.52 
L 201.002169 -47.52 
L 202.101532 -47.52 
L 203.200894 -47.52 
L 204.300256 -47.52 
L 205.399619 -47.52 
L 206.498981 -47.52 
L 207.598344 -47.52 
L 208.697706 -47.52 
L 209.797069 -47.52 
L 210.896431 -47.52 
L 211.995794 -47.52 
L 213.095156 -47.52 
L 214.194519 -47.52 
L 215.293881 -47.52 
L 216.393244 -47.52 
L 217.492606 -47.52 
L 218.591969 -47.52 
L 219.691331 -47.52 
L 220.790694 -47.52 
L 221.890056 -47.52 
L 222.989419 -47.52 
L 224.088781 -47.52 
L 225.188144 -47.52 
L 226.287506 -47.52 
L 227.386869 -47.52 
L 228.486231 -47.52 
L 229.585594 -47.52 
L 230.684956 -47.52 
L 231.784319 -47.52 
L 232.883681 -47.52 
L 233.983044 -47.52 
L 235.082406 -47.52 
L 236.181769 -47.52 
L 237.281131 -47.52 
L 238.380494 -47.52 
L 239.479856 -47.52 
L 240.579219 -47.52 
L 241.678581 -47.52 
L 242.777944 -47.52 
L 243.877306 -47.52 
L 244.976669 -47.52 
L 246.076031 -47.52 
L 247.175393 -47.52 
L 248.274756 -47.52 
L 249.374118 -47.52 
L 250.473481 -47.52 
L 251.572843 -47.52 
L 252.672206 -47.52 
L 253.771568 -47.52 
L 254.870931 -47.52 
L 255.970293 -47.52 
L 257.069656 -47.52 
L 258.169018 -47.52 
L 259.268381 -47.52 
L 260.367743 -47.52 
L 261.467106 -47.52 
L 262.566468 -47.52 
L 263.665831 -47.52 
L 264.765193 -47.52 
L 265.864556 -47.52 
L 266.963918 -47.52 
L 268.063281 -47.52 
L 269.162643 -47.52 
L 270.262006 -47.52 
L 271.361368 -47.52 
L 272.460731 -47.52 
L 273.560093 -47.52 
L 274.659456 -47.52 
L 275.758818 -47.52 
L 276.858181 -47.52 
L 277.957543 -47.52 
L 279.056906 -47.52 
L 280.156268 -47.52 
L 281.255631 -47.52 
L 282.354993 -47.52 
L 283.454356 -47.52 
L 284.553718 -47.52 
L 285.653081 -47.52 
L 286.752443 -47.52 
L 287.851805 -47.52 
L 288.951168 -47.52 
L 290.05053 -47.52 
L 291.149893 -47.52 
L 292.249255 -47.52 
L 293.348618 -47.52 
L 294.44798 -47.52 
L 295.547343 -47.52 
L 296.646705 -47.52 
L 297.746068 -47.52 
L 298.84543 -47.52 
L 299.944793 -47.52 
L 301.044155 -47.52 
L 302.143518 -47.52 
L 303.24288 -47.52 
L 304.342243 -47.52 
L 305.441605 -47.52 
L 306.540968 -47.52 
L 307.64033 -47.52 
L 308.739693 -47.52 
L 309.839055 -47.52 
L 310.938418 -47.52 
L 312.03778 -47.52 
L 313.137143 -47.52 
L 314.236505 -47.52 
L 315.335868 -47.52 
L 316.43523 -47.52 
L 317.534593 -47.52 
L 318.633955 -47.52 
L 319.733318 -47.52 
L 320.83268 -47.52 
L 321.932043 -47.52 
L 323.031405 -47.52 
L 324.130768 -47.52 
L 325.23013 -47.52 
L 326.329493 -47.52 
L 327.428855 -47.52 
L 328.528218 -47.52 
L 329.62758 -47.52 
L 330.726942 -47.52 
L 331.826305 -47.52 
L 332.925667 -47.52 
L 334.02503 -47.52 
L 335.124392 -47.52 
L 336.223755 -47.52 
L 337.323117 -47.52 
L 338.42248 -47.52 
L 339.521842 -47.52 
L 340.621205 -47.52 
L 341.720567 -47.52 
L 342.81993 -47.52 
L 343.919292 -47.52 
L 345.018655 -47.52 
L 346.118017 -47.52 
L 347.21738 -47.52 
L 348.316742 -47.52 
L 349.416105 -47.52 
L 350.515467 -47.52 
L 351.61483 -47.52 
L 352.714192 -47.52 
L 353.813555 -47.52 
L 354.912917 -47.52 
L 356.01228 -47.52 
L 357.111642 -47.52 
L 358.211005 -47.52 
L 359.310367 -47.52 
L 360.40973 -47.52 
L 361.509092 -47.52 
L 362.608455 -47.52 
L 363.707817 -47.52 
L 364.80718 -47.52 
L 365.906542 -47.52 
L 367.005905 -47.52 
L 368.105267 -47.52 
L 369.20463 -47.52 
L 369.20463 -49.08695 
L 369.20463 -49.08695 
L 368.105267 -49.302285 
L 367.005905 -49.543748 
L 365.906542 -49.814005 
L 364.80718 -50.115918 
L 363.707817 -50.452562 
L 362.608455 -50.827224 
L 361.509092 -51.243408 
L 360.40973 -51.704843 
L 359.310367 -52.215476 
L 358.211005 -52.779481 
L 357.111642 -53.401247 
L 356.01228 -54.085381 
L 354.912917 -54.8367 
L 353.813555 -55.660215 
L 352.714192 -56.561127 
L 351.61483 -57.544809 
L 350.515467 -58.616783 
L 349.416105 -59.782706 
L 348.316742 -61.048341 
L 347.21738 -62.419526 
L 346.118017 -63.902147 
L 345.018655 -65.502101 
L 343.919292 -67.225256 
L 342.81993 -69.077408 
L 341.720567 -71.064237 
L 340.621205 -73.191258 
L 339.521842 -75.463768 
L 338.42248 -77.886792 
L 337.323117 -80.465027 
L 336.223755 -83.202783 
L 335.124392 -86.103921 
L 334.02503 -89.171797 
L 332.925667 -92.409193 
L 331.826305 -95.818262 
L 330.726942 -99.400465 
L 329.62758 -103.156513 
L 328.528218 -107.086308 
L 327.428855 -111.188893 
L 326.329493 -115.462399 
L 325.23013 -119.904002 
L 324.130768 -124.50988 
L 323.031405 -129.275185 
L 321.932043 -134.194008 
L 320.83268 -139.259366 
L 319.733318 -144.463187 
L 318.633955 -149.796312 
L 317.534593 -155.248495 
L 316.43523 -160.808426 
L 315.335868 -166.463755 
L 314.236505 -172.201129 
L 313.137143 -178.006241 
L 312.03778 -183.863885 
L 310.938418 -189.758032 
L 309.839055 -195.6719 
L 308.739693 -201.588051 
L 307.64033 -207.488482 
L 306.540968 -213.354738 
L 305.441605 -219.168024 
L 304.342243 -224.909328 
L 303.24288 -230.559547 
L 302.143518 -236.099624 
L 301.044155 -241.510682 
L 299.944793 -246.774162 
L 298.84543 -251.871967 
L 297.746068 -256.786597 
L 296.646705 -261.501292 
L 295.547343 -266.00016 
L 294.44798 -270.268311 
L 293.348618 -274.291975 
L 292.249255 -278.058623 
L 291.149893 -281.557062 
L 290.05053 -284.777541 
L 288.951168 -287.711823 
L 287.851805 -290.353259 
L 286.752443 -292.696842 
L 285.653081 -294.739245 
L 284.553718 -296.478848 
L 283.454356 -297.915742 
L 282.354993 -299.051725 
L 281.255631 -299.890272 
L 280.156268 -300.436496 
L 279.056906 -300.69709 
L 277.957543 -300.680252 
L 276.858181 -300.395598 
L 275.758818 -299.854059 
L 274.659456 -299.067764 
L 273.560093 -298.049915 
L 272.460731 -296.814647 
L 271.361368 -295.376884 
L 270.262006 -293.752185 
L 269.162643 -291.956585 
L 268.063281 -290.006431 
L 266.963918 -287.918224 
L 265.864556 -285.708452 
L 264.765193 -283.39343 
L 263.665831 -280.989143 
L 262.566468 -278.511099 
L 261.467106 -275.974185 
L 260.367743 -273.392532 
L 259.268381 -270.779397 
L 258.169018 -268.147053 
L 257.069656 -265.506693 
L 255.970293 -262.868351 
L 254.870931 -260.240834 
L 253.771568 -257.631675 
L 252.672206 -255.047102 
L 251.572843 -252.49202 
L 250.473481 -249.970014 
L 249.374118 -247.483365 
L 248.274756 -245.033086 
L 247.175393 -242.618965 
L 246.076031 -240.239637 
L 244.976669 -237.892652 
L 243.877306 -235.574566 
L 242.777944 -233.28104 
L 241.678581 -231.00695 
L 240.579219 -228.746498 
L 239.479856 -226.493336 
L 238.380494 -224.24069 
L 237.281131 -221.981487 
L 236.181769 -219.708485 
L 235.082406 -217.414398 
L 233.983044 -215.092018 
L 232.883681 -212.734341 
L 231.784319 -210.334672 
L 230.684956 -207.886737 
L 229.585594 -205.384779 
L 228.486231 -202.823645 
L 227.386869 -200.198867 
L 226.287506 -197.506722 
L 225.188144 -194.744292 
L 224.088781 -191.909504 
L 222.989419 -189.001159 
L 221.890056 -186.01895 
L 220.790694 -182.963469 
L 219.691331 -179.836194 
L 218.591969 -176.639477 
L 217.492606 -173.376513 
L 216.393244 -170.051298 
L 215.293881 -166.668584 
L 214.194519 -163.233819 
L 213.095156 -159.753086 
L 211.995794 -156.233031 
L 210.896431 -152.68079 
L 209.797069 -149.103909 
L 208.697706 -145.510263 
L 207.598344 -141.907973 
L 206.498981 -138.305326 
L 205.399619 -134.710689 
L 204.300256 -131.132431 
L 203.200894 -127.578847 
L 202.101532 -124.058082 
L 201.002169 -120.578059 
L 199.902807 -117.146423 
L 198.803444 -113.770473 
L 197.704082 -110.457117 
L 196.604719 -107.212818 
L 195.505357 -104.043564 
L 194.405994 -100.954826 
L 193.306632 -97.951538 
L 192.207269 -95.038075 
L 191.107907 -92.218242 
L 190.008544 -89.495267 
L 188.909182 -86.871803 
L 187.809819 -84.349929 
L 186.710457 -81.931166 
L 185.611094 -79.616489 
L 184.511732 -77.406351 
L 183.412369 -75.300703 
L 182.313007 -73.299024 
L 181.213644 -71.40035 
L 180.114282 -69.603307 
L 179.014919 -67.906144 
L 177.915557 -66.30677 
L 176.816194 -64.802788 
L 175.716832 -63.39153 
L 174.617469 -62.070098 
L 173.518107 -60.835396 
L 172.418744 -59.684163 
L 171.319382 -58.613011 
L 170.220019 -57.618451 
L 169.120657 -56.696931 
L 168.021294 -55.844857 
L 166.921932 -55.058623 
L 165.822569 -54.334633 
L 164.723207 -53.669327 
L 163.623844 -53.059198 
L 162.524482 -52.500807 
L 161.42512 -51.990805 
L 160.325757 -51.52594 
L 159.226395 -51.103071 
L 158.127032 -50.719178 
L 157.02767 -50.371366 
L 155.928307 -50.056873 
L 154.828945 -49.773074 
L 153.729582 -49.517482 
L 152.63022 -49.28775 
L 151.530857 -49.081669 
L 150.431495 -48.897169 
z
" style="stroke: #9467bd"/>
    </defs>
    <g clip-path="url(#p4b766f01eb)">
     <use xlink:href="#mc82aebd5d7" x="0" y="432" style="fill: #9467bd; fill-opacity: 0.25; stroke: #9467bd"/>
    </g>
   </g>
   <g id="patch_3">
    <path d="M 90 384.48 
L 90 51.84 
" style="fill: none; stroke: #262626; stroke-width: 0.8; stroke-linejoin: miter; stroke-linecap: square"/>
   </g>
   <g id="patch_4">
    <path d="M 648 384.48 
L 648 51.84 
" style="fill: none; stroke: #262626; stroke-width: 0.8; stroke-linejoin: miter; stroke-linecap: square"/>
   </g>
   <g id="patch_5">
    <path d="M 90 384.48 
L 648 384.48 
" style="fill: none; stroke: #262626; stroke-width: 0.8; stroke-linejoin: miter; stroke-linecap: square"/>
   </g>
   <g id="patch_6">
    <path d="M 90 51.84 
L 648 51.84 
" style="fill: none; stroke: #262626; stroke-width: 0.8; stroke-linejoin: miter; stroke-linecap: square"/>
   </g>
   <g id="legend_1">
    <g id="patch_7">
     <path d="M 521.16875 131.764414 
L 641 131.764414 
Q 643 131.764414 643 129.764414 
L 643 58.84 
Q 643 56.84 641 56.84 
L 521.16875 56.84 
Q 519.16875 56.84 519.16875 58.84 
L 519.16875 129.764414 
Q 519.16875 131.764414 521.16875 131.764414 
z
" style="fill: #ffffff; opacity: 0.8; stroke: #cccccc; stroke-linejoin: miter"/>
    </g>
    <g id="patch_8">
     <path d="M 523.16875 68.120273 
L 543.16875 68.120273 
L 543.16875 61.120273 
L 523.16875 61.120273 
z
" style="fill: #1f77b4; fill-opacity: 0.25; stroke: #1f77b4; stroke-linejoin: miter"/>
    </g>
    <g id="text_19">
     <!-- genetic_association -->
     <g style="fill: #262626" transform="translate(551.16875 68.120273) scale(0.1 -0.1)">
      <defs>
       <path id="ArialMT-42" d="M -97 -1272 
L -97 -866 
L 3631 -866 
L 3631 -1272 
L -97 -1272 
z
" transform="scale(0.015625)"/>
      </defs>
      <use xlink:href="#ArialMT-4a"/>
      <use xlink:href="#ArialMT-48" transform="translate(55.609375 0)"/>
      <use xlink:href="#ArialMT-51" transform="translate(111.21875 0)"/>
      <use xlink:href="#ArialMT-48" transform="translate(166.828125 0)"/>
      <use xlink:href="#ArialMT-57" transform="translate(222.4375 0)"/>
      <use xlink:href="#ArialMT-4c" transform="translate(250.21875 0)"/>
      <use xlink:href="#ArialMT-46" transform="translate(272.4375 0)"/>
      <use xlink:href="#ArialMT-42" transform="translate(322.4375 0)"/>
      <use xlink:href="#ArialMT-44" transform="translate(378.046875 0)"/>
      <use xlink:href="#ArialMT-56" transform="translate(433.65625 0)"/>
      <use xlink:href="#ArialMT-56" transform="translate(483.65625 0)"/>
      <use xlink:href="#ArialMT-52" transform="translate(533.65625 0)"/>
      <use xlink:href="#ArialMT-46" transform="translate(589.265625 0)"/>
      <use xlink:href="#ArialMT-4c" transform="translate(639.265625 0)"/>
      <use xlink:href="#ArialMT-44" transform="translate(661.484375 0)"/>
      <use xlink:href="#ArialMT-57" transform="translate(717.09375 0)"/>
      <use xlink:href="#ArialMT-4c" transform="translate(744.875 0)"/>
      <use xlink:href="#ArialMT-52" transform="translate(767.09375 0)"/>
      <use xlink:href="#ArialMT-51" transform="translate(822.703125 0)"/>
     </g>
    </g>
    <g id="patch_9">
     <path d="M 523.16875 82.505234 
L 543.16875 82.505234 
L 543.16875 75.505234 
L 523.16875 75.505234 
z
" style="fill: #ff7f0e; fill-opacity: 0.25; stroke: #ff7f0e; stroke-linejoin: miter"/>
    </g>
    <g id="text_20">
     <!-- somatic_mutation -->
     <g style="fill: #262626" transform="translate(551.16875 82.505234) scale(0.1 -0.1)">
      <defs>
       <path id="ArialMT-50" d="M 422 0 
L 422 3319 
L 925 3319 
L 925 2853 
Q 1081 3097 1340 3245 
Q 1600 3394 1931 3394 
Q 2300 3394 2536 3241 
Q 2772 3088 2869 2813 
Q 3263 3394 3894 3394 
Q 4388 3394 4653 3120 
Q 4919 2847 4919 2278 
L 4919 0 
L 4359 0 
L 4359 2091 
Q 4359 2428 4304 2576 
Q 4250 2725 4106 2815 
Q 3963 2906 3769 2906 
Q 3419 2906 3187 2673 
Q 2956 2441 2956 1928 
L 2956 0 
L 2394 0 
L 2394 2156 
Q 2394 2531 2256 2718 
Q 2119 2906 1806 2906 
Q 1569 2906 1367 2781 
Q 1166 2656 1075 2415 
Q 984 2175 984 1722 
L 984 0 
L 422 0 
z
" transform="scale(0.015625)"/>
       <path id="ArialMT-58" d="M 2597 0 
L 2597 488 
Q 2209 -75 1544 -75 
Q 1250 -75 995 37 
Q 741 150 617 320 
Q 494 491 444 738 
Q 409 903 409 1263 
L 409 3319 
L 972 3319 
L 972 1478 
Q 972 1038 1006 884 
Q 1059 663 1231 536 
Q 1403 409 1656 409 
Q 1909 409 2131 539 
Q 2353 669 2445 892 
Q 2538 1116 2538 1541 
L 2538 3319 
L 3100 3319 
L 3100 0 
L 2597 0 
z
" transform="scale(0.015625)"/>
      </defs>
      <use xlink:href="#ArialMT-56"/>
      <use xlink:href="#ArialMT-52" transform="translate(50 0)"/>
      <use xlink:href="#ArialMT-50" transform="translate(105.609375 0)"/>
      <use xlink:href="#ArialMT-44" transform="translate(188.90625 0)"/>
      <use xlink:href="#ArialMT-57" transform="translate(244.515625 0)"/>
      <use xlink:href="#ArialMT-4c" transform="translate(272.296875 0)"/>
      <use xlink:href="#ArialMT-46" transform="translate(294.515625 0)"/>
      <use xlink:href="#ArialMT-42" transform="translate(344.515625 0)"/>
      <use xlink:href="#ArialMT-50" transform="translate(400.125 0)"/>
      <use xlink:href="#ArialMT-58" transform="translate(483.421875 0)"/>
      <use xlink:href="#ArialMT-57" transform="translate(539.03125 0)"/>
      <use xlink:href="#ArialMT-44" transform="translate(566.8125 0)"/>
      <use xlink:href="#ArialMT-57" transform="translate(622.421875 0)"/>
      <use xlink:href="#ArialMT-4c" transform="translate(650.203125 0)"/>
      <use xlink:href="#ArialMT-52" transform="translate(672.421875 0)"/>
      <use xlink:href="#ArialMT-51" transform="translate(728.03125 0)"/>
     </g>
    </g>
    <g id="patch_10">
     <path d="M 523.16875 96.89 
L 543.16875 96.89 
L 543.16875 89.89 
L 523.16875 89.89 
z
" style="fill: #2ca02c; fill-opacity: 0.25; stroke: #2ca02c; stroke-linejoin: miter"/>
    </g>
    <g id="text_21">
     <!-- known_drug -->
     <g style="fill: #262626" transform="translate(551.16875 96.89) scale(0.1 -0.1)">
      <defs>
       <path id="ArialMT-4e" d="M 425 0 
L 425 4581 
L 988 4581 
L 988 1969 
L 2319 3319 
L 3047 3319 
L 1778 2088 
L 3175 0 
L 2481 0 
L 1384 1697 
L 988 1316 
L 988 0 
L 425 0 
z
" transform="scale(0.015625)"/>
      </defs>
      <use xlink:href="#ArialMT-4e"/>
      <use xlink:href="#ArialMT-51" transform="translate(50 0)"/>
      <use xlink:href="#ArialMT-52" transform="translate(105.609375 0)"/>
      <use xlink:href="#ArialMT-5a" transform="translate(161.21875 0)"/>
      <use xlink:href="#ArialMT-51" transform="translate(233.4375 0)"/>
      <use xlink:href="#ArialMT-42" transform="translate(289.046875 0)"/>
      <use xlink:href="#ArialMT-47" transform="translate(344.65625 0)"/>
      <use xlink:href="#ArialMT-55" transform="translate(400.265625 0)"/>
      <use xlink:href="#ArialMT-58" transform="translate(433.5625 0)"/>
      <use xlink:href="#ArialMT-4a" transform="translate(489.171875 0)"/>
     </g>
    </g>
    <g id="patch_11">
     <path d="M 523.16875 111.274961 
L 543.16875 111.274961 
L 543.16875 104.274961 
L 523.16875 104.274961 
z
" style="fill: #d62728; fill-opacity: 0.25; stroke: #d62728; stroke-linejoin: miter"/>
    </g>
    <g id="text_22">
     <!-- affected_pathway -->
     <g style="fill: #262626" transform="translate(551.16875 111.274961) scale(0.1 -0.1)">
      <use xlink:href="#ArialMT-44"/>
      <use xlink:href="#ArialMT-49" transform="translate(55.609375 0)"/>
      <use xlink:href="#ArialMT-49" transform="translate(81.578125 0)"/>
      <use xlink:href="#ArialMT-48" transform="translate(109.359375 0)"/>
      <use xlink:href="#ArialMT-46" transform="translate(164.96875 0)"/>
      <use xlink:href="#ArialMT-57" transform="translate(214.96875 0)"/>
      <use xlink:href="#ArialMT-48" transform="translate(242.75 0)"/>
      <use xlink:href="#ArialMT-47" transform="translate(298.359375 0)"/>
      <use xlink:href="#ArialMT-42" transform="translate(353.96875 0)"/>
      <use xlink:href="#ArialMT-53" transform="translate(409.578125 0)"/>
      <use xlink:href="#ArialMT-44" transform="translate(465.1875 0)"/>
      <use xlink:href="#ArialMT-57" transform="translate(520.796875 0)"/>
      <use xlink:href="#ArialMT-4b" transform="translate(548.578125 0)"/>
      <use xlink:href="#ArialMT-5a" transform="translate(604.1875 0)"/>
      <use xlink:href="#ArialMT-44" transform="translate(676.40625 0)"/>
      <use xlink:href="#ArialMT-5c" transform="translate(732.015625 0)"/>
     </g>
    </g>
    <g id="patch_12">
     <path d="M 523.16875 125.659922 
L 543.16875 125.659922 
L 543.16875 118.659922 
L 523.16875 118.659922 
z
" style="fill: #9467bd; fill-opacity: 0.25; stroke: #9467bd; stroke-linejoin: miter"/>
    </g>
    <g id="text_23">
     <!-- rna_expression -->
     <g style="fill: #262626" transform="translate(551.16875 125.659922) scale(0.1 -0.1)">
      <defs>
       <path id="ArialMT-5b" d="M 47 0 
L 1259 1725 
L 138 3319 
L 841 3319 
L 1350 2541 
Q 1494 2319 1581 2169 
Q 1719 2375 1834 2534 
L 2394 3319 
L 3066 3319 
L 1919 1756 
L 3153 0 
L 2463 0 
L 1781 1031 
L 1600 1309 
L 728 0 
L 47 0 
z
" transform="scale(0.015625)"/>
      </defs>
      <use xlink:href="#ArialMT-55"/>
      <use xlink:href="#ArialMT-51" transform="translate(33.296875 0)"/>
      <use xlink:href="#ArialMT-44" transform="translate(88.90625 0)"/>
      <use xlink:href="#ArialMT-42" transform="translate(144.515625 0)"/>
      <use xlink:href="#ArialMT-48" transform="translate(200.125 0)"/>
      <use xlink:href="#ArialMT-5b" transform="translate(255.734375 0)"/>
      <use xlink:href="#ArialMT-53" transform="translate(305.734375 0)"/>
      <use xlink:href="#ArialMT-55" transform="translate(361.34375 0)"/>
      <use xlink:href="#ArialMT-48" transform="translate(394.640625 0)"/>
      <use xlink:href="#ArialMT-56" transform="translate(450.25 0)"/>
      <use xlink:href="#ArialMT-56" transform="translate(500.25 0)"/>
      <use xlink:href="#ArialMT-4c" transform="translate(550.25 0)"/>
      <use xlink:href="#ArialMT-52" transform="translate(572.46875 0)"/>
      <use xlink:href="#ArialMT-51" transform="translate(628.078125 0)"/>
     </g>
    </g>
   </g>
  </g>
 </g>
 <defs>
  <clipPath id="p4b766f01eb">
   <rect x="90" y="51.84" width="558" height="332.64"/>
  </clipPath>
 </defs>
</svg>
