<?xml version="1.0" encoding="utf-8" standalone="no"?>
<!DOCTYPE svg PUBLIC "-//W3C//DTD SVG 1.1//EN"
  "http://www.w3.org/Graphics/SVG/1.1/DTD/svg11.dtd">
<svg xmlns:xlink="http://www.w3.org/1999/xlink" width="576pt" height="432pt" viewBox="0 0 576 432" xmlns="http://www.w3.org/2000/svg" version="1.1">
 <metadata>
  <rdf:RDF xmlns:dc="http://purl.org/dc/elements/1.1/" xmlns:cc="http://creativecommons.org/ns#" xmlns:rdf="http://www.w3.org/1999/02/22-rdf-syntax-ns#">
   <cc:Work>
    <dc:type rdf:resource="http://purl.org/dc/dcmitype/StillImage"/>
    <dc:date>2025-08-29T09:57:42.927343</dc:date>
    <dc:format>image/svg+xml</dc:format>
    <dc:creator>
     <cc:Agent>
      <dc:title>Matplotlib v3.10.3, https://matplotlib.org/</dc:title>
     </cc:Agent>
    </dc:creator>
   </cc:Work>
  </rdf:RDF>
 </metadata>
 <defs>
  <style type="text/css">*{stroke-linejoin: round; stroke-linecap: butt}</style>
 </defs>
 <g id="figure_1">
  <g id="patch_1">
   <path d="M 0 432 
L 576 432 
L 576 0 
L 0 0 
z
" style="fill: #ffffff"/>
  </g>
  <g id="axes_1">
   <g id="patch_2">
    <path d="M 51.5 387.16 
L 565.2 387.16 
L 565.2 10.8 
L 51.5 10.8 
z
" style="fill: #ffffff"/>
   </g>
   <g id="matplotlib.axis_1">
    <g id="xtick_1">
     <g id="line2d_1">
      <defs>
       <path id="m40a806e2d1" d="M 0 0 
L 0 3.5 
" style="stroke: #262626; stroke-width: 0.8"/>
      </defs>
      <g>
       <use xlink:href="#m40a806e2d1" x="102.87" y="387.16" style="fill: #262626; stroke: #262626; stroke-width: 0.8"/>
      </g>
     </g>
     <g id="text_1">
      <!-- 1 -->
      <g style="fill: #262626" transform="translate(100.089531 401.317813) scale(0.1 -0.1)">
       <defs>
        <path id="ArialMT-31" d="M 2384 0 
L 1822 0 
L 1822 3584 
Q 1619 3391 1289 3197 
Q 959 3003 697 2906 
L 697 3450 
Q 1169 3672 1522 3987 
Q 1875 4303 2022 4600 
L 2384 4600 
L 2384 0 
z
" transform="scale(0.015625)"/>
       </defs>
       <use xlink:href="#ArialMT-31"/>
      </g>
     </g>
    </g>
    <g id="xtick_2">
     <g id="line2d_2">
      <g>
       <use xlink:href="#m40a806e2d1" x="205.61" y="387.16" style="fill: #262626; stroke: #262626; stroke-width: 0.8"/>
      </g>
     </g>
     <g id="text_2">
      <!-- 2 -->
      <g style="fill: #262626" transform="translate(202.829531 401.317813) scale(0.1 -0.1)">
       <defs>
        <path id="ArialMT-32" d="M 3222 541 
L 3222 0 
L 194 0 
Q 188 203 259 391 
Q 375 700 629 1000 
Q 884 1300 1366 1694 
Q 2113 2306 2375 2664 
Q 2638 3022 2638 3341 
Q 2638 3675 2398 3904 
Q 2159 4134 1775 4134 
Q 1369 4134 1125 3890 
Q 881 3647 878 3216 
L 300 3275 
Q 359 3922 746 4261 
Q 1134 4600 1788 4600 
Q 2447 4600 2831 4234 
Q 3216 3869 3216 3328 
Q 3216 3053 3103 2787 
Q 2991 2522 2730 2228 
Q 2469 1934 1863 1422 
Q 1356 997 1212 845 
Q 1069 694 975 541 
L 3222 541 
z
" transform="scale(0.015625)"/>
       </defs>
       <use xlink:href="#ArialMT-32"/>
      </g>
     </g>
    </g>
    <g id="xtick_3">
     <g id="line2d_3">
      <g>
       <use xlink:href="#m40a806e2d1" x="308.35" y="387.16" style="fill: #262626; stroke: #262626; stroke-width: 0.8"/>
      </g>
     </g>
     <g id="text_3">
      <!-- 3 -->
      <g style="fill: #262626" transform="translate(305.569531 401.317813) scale(0.1 -0.1)">
       <defs>
        <path id="ArialMT-33" d="M 269 1209 
L 831 1284 
Q 928 806 1161 595 
Q 1394 384 1728 384 
Q 2125 384 2398 659 
Q 2672 934 2672 1341 
Q 2672 1728 2419 1979 
Q 2166 2231 1775 2231 
Q 1616 2231 1378 2169 
L 1441 2663 
Q 1497 2656 1531 2656 
Q 1891 2656 2178 2843 
Q 2466 3031 2466 3422 
Q 2466 3731 2256 3934 
Q 2047 4138 1716 4138 
Q 1388 4138 1169 3931 
Q 950 3725 888 3313 
L 325 3413 
Q 428 3978 793 4289 
Q 1159 4600 1703 4600 
Q 2078 4600 2393 4439 
Q 2709 4278 2876 4000 
Q 3044 3722 3044 3409 
Q 3044 3113 2884 2869 
Q 2725 2625 2413 2481 
Q 2819 2388 3044 2092 
Q 3269 1797 3269 1353 
Q 3269 753 2831 336 
Q 2394 -81 1725 -81 
Q 1122 -81 723 278 
Q 325 638 269 1209 
z
" transform="scale(0.015625)"/>
       </defs>
       <use xlink:href="#ArialMT-33"/>
      </g>
     </g>
    </g>
    <g id="xtick_4">
     <g id="line2d_4">
      <g>
       <use xlink:href="#m40a806e2d1" x="411.09" y="387.16" style="fill: #262626; stroke: #262626; stroke-width: 0.8"/>
      </g>
     </g>
     <g id="text_4">
      <!-- 4 -->
      <g style="fill: #262626" transform="translate(408.309531 401.317813) scale(0.1 -0.1)">
       <defs>
        <path id="ArialMT-34" d="M 2069 0 
L 2069 1097 
L 81 1097 
L 81 1613 
L 2172 4581 
L 2631 4581 
L 2631 1613 
L 3250 1613 
L 3250 1097 
L 2631 1097 
L 2631 0 
L 2069 0 
z
M 2069 1613 
L 2069 3678 
L 634 1613 
L 2069 1613 
z
" transform="scale(0.015625)"/>
       </defs>
       <use xlink:href="#ArialMT-34"/>
      </g>
     </g>
    </g>
    <g id="xtick_5">
     <g id="line2d_5">
      <g>
       <use xlink:href="#m40a806e2d1" x="513.83" y="387.16" style="fill: #262626; stroke: #262626; stroke-width: 0.8"/>
      </g>
     </g>
     <g id="text_5">
      <!-- 5 -->
      <g style="fill: #262626" transform="translate(511.049531 401.317813) scale(0.1 -0.1)">
       <defs>
        <path id="ArialMT-35" d="M 266 1200 
L 856 1250 
Q 922 819 1161 601 
Q 1400 384 1738 384 
Q 2144 384 2425 690 
Q 2706 997 2706 1503 
Q 2706 1984 2436 2262 
Q 2166 2541 1728 2541 
Q 1456 2541 1237 2417 
Q 1019 2294 894 2097 
L 366 2166 
L 809 4519 
L 3088 4519 
L 3088 3981 
L 1259 3981 
L 1013 2750 
Q 1425 3038 1878 3038 
Q 2478 3038 2890 2622 
Q 3303 2206 3303 1553 
Q 3303 931 2941 478 
Q 2500 -78 1738 -78 
Q 1113 -78 717 272 
Q 322 622 266 1200 
z
" transform="scale(0.015625)"/>
       </defs>
       <use xlink:href="#ArialMT-35"/>
      </g>
     </g>
    </g>
    <g id="text_6">
     <!-- Targets (targetId) -->
     <g style="fill: #262626" transform="translate(255.058125 417.496875) scale(0.14 -0.14)">
      <defs>
       <path id="ArialMT-54" d="M 1659 0 
L 1659 4041 
L 150 4041 
L 150 4581 
L 3781 4581 
L 3781 4041 
L 2266 4041 
L 2266 0 
L 1659 0 
z
" transform="scale(0.015625)"/>
       <path id="ArialMT-61" d="M 2588 409 
Q 2275 144 1986 34 
Q 1697 -75 1366 -75 
Q 819 -75 525 192 
Q 231 459 231 875 
Q 231 1119 342 1320 
Q 453 1522 633 1644 
Q 813 1766 1038 1828 
Q 1203 1872 1538 1913 
Q 2219 1994 2541 2106 
Q 2544 2222 2544 2253 
Q 2544 2597 2384 2738 
Q 2169 2928 1744 2928 
Q 1347 2928 1158 2789 
Q 969 2650 878 2297 
L 328 2372 
Q 403 2725 575 2942 
Q 747 3159 1072 3276 
Q 1397 3394 1825 3394 
Q 2250 3394 2515 3294 
Q 2781 3194 2906 3042 
Q 3031 2891 3081 2659 
Q 3109 2516 3109 2141 
L 3109 1391 
Q 3109 606 3145 398 
Q 3181 191 3288 0 
L 2700 0 
Q 2613 175 2588 409 
z
M 2541 1666 
Q 2234 1541 1622 1453 
Q 1275 1403 1131 1340 
Q 988 1278 909 1158 
Q 831 1038 831 891 
Q 831 666 1001 516 
Q 1172 366 1500 366 
Q 1825 366 2078 508 
Q 2331 650 2450 897 
Q 2541 1088 2541 1459 
L 2541 1666 
z
" transform="scale(0.015625)"/>
       <path id="ArialMT-72" d="M 416 0 
L 416 3319 
L 922 3319 
L 922 2816 
Q 1116 3169 1280 3281 
Q 1444 3394 1641 3394 
Q 1925 3394 2219 3213 
L 2025 2691 
Q 1819 2813 1613 2813 
Q 1428 2813 1281 2702 
Q 1134 2591 1072 2394 
Q 978 2094 978 1738 
L 978 0 
L 416 0 
z
" transform="scale(0.015625)"/>
       <path id="ArialMT-67" d="M 319 -275 
L 866 -356 
Q 900 -609 1056 -725 
Q 1266 -881 1628 -881 
Q 2019 -881 2231 -725 
Q 2444 -569 2519 -288 
Q 2563 -116 2559 434 
Q 2191 0 1641 0 
Q 956 0 581 494 
Q 206 988 206 1678 
Q 206 2153 378 2554 
Q 550 2956 876 3175 
Q 1203 3394 1644 3394 
Q 2231 3394 2613 2919 
L 2613 3319 
L 3131 3319 
L 3131 450 
Q 3131 -325 2973 -648 
Q 2816 -972 2473 -1159 
Q 2131 -1347 1631 -1347 
Q 1038 -1347 672 -1080 
Q 306 -813 319 -275 
z
M 784 1719 
Q 784 1066 1043 766 
Q 1303 466 1694 466 
Q 2081 466 2343 764 
Q 2606 1063 2606 1700 
Q 2606 2309 2336 2618 
Q 2066 2928 1684 2928 
Q 1309 2928 1046 2623 
Q 784 2319 784 1719 
z
" transform="scale(0.015625)"/>
       <path id="ArialMT-65" d="M 2694 1069 
L 3275 997 
Q 3138 488 2766 206 
Q 2394 -75 1816 -75 
Q 1088 -75 661 373 
Q 234 822 234 1631 
Q 234 2469 665 2931 
Q 1097 3394 1784 3394 
Q 2450 3394 2872 2941 
Q 3294 2488 3294 1666 
Q 3294 1616 3291 1516 
L 816 1516 
Q 847 969 1125 678 
Q 1403 388 1819 388 
Q 2128 388 2347 550 
Q 2566 713 2694 1069 
z
M 847 1978 
L 2700 1978 
Q 2663 2397 2488 2606 
Q 2219 2931 1791 2931 
Q 1403 2931 1139 2672 
Q 875 2413 847 1978 
z
" transform="scale(0.015625)"/>
       <path id="ArialMT-74" d="M 1650 503 
L 1731 6 
Q 1494 -44 1306 -44 
Q 1000 -44 831 53 
Q 663 150 594 308 
Q 525 466 525 972 
L 525 2881 
L 113 2881 
L 113 3319 
L 525 3319 
L 525 4141 
L 1084 4478 
L 1084 3319 
L 1650 3319 
L 1650 2881 
L 1084 2881 
L 1084 941 
Q 1084 700 1114 631 
Q 1144 563 1211 522 
Q 1278 481 1403 481 
Q 1497 481 1650 503 
z
" transform="scale(0.015625)"/>
       <path id="ArialMT-73" d="M 197 991 
L 753 1078 
Q 800 744 1014 566 
Q 1228 388 1613 388 
Q 2000 388 2187 545 
Q 2375 703 2375 916 
Q 2375 1106 2209 1216 
Q 2094 1291 1634 1406 
Q 1016 1563 777 1677 
Q 538 1791 414 1992 
Q 291 2194 291 2438 
Q 291 2659 392 2848 
Q 494 3038 669 3163 
Q 800 3259 1026 3326 
Q 1253 3394 1513 3394 
Q 1903 3394 2198 3281 
Q 2494 3169 2634 2976 
Q 2775 2784 2828 2463 
L 2278 2388 
Q 2241 2644 2061 2787 
Q 1881 2931 1553 2931 
Q 1166 2931 1000 2803 
Q 834 2675 834 2503 
Q 834 2394 903 2306 
Q 972 2216 1119 2156 
Q 1203 2125 1616 2013 
Q 2213 1853 2448 1751 
Q 2684 1650 2818 1456 
Q 2953 1263 2953 975 
Q 2953 694 2789 445 
Q 2625 197 2315 61 
Q 2006 -75 1616 -75 
Q 969 -75 630 194 
Q 291 463 197 991 
z
" transform="scale(0.015625)"/>
       <path id="ArialMT-20" transform="scale(0.015625)"/>
       <path id="ArialMT-28" d="M 1497 -1347 
Q 1031 -759 709 28 
Q 388 816 388 1659 
Q 388 2403 628 3084 
Q 909 3875 1497 4659 
L 1900 4659 
Q 1522 4009 1400 3731 
Q 1209 3300 1100 2831 
Q 966 2247 966 1656 
Q 966 153 1900 -1347 
L 1497 -1347 
z
" transform="scale(0.015625)"/>
       <path id="ArialMT-49" d="M 597 0 
L 597 4581 
L 1203 4581 
L 1203 0 
L 597 0 
z
" transform="scale(0.015625)"/>
       <path id="ArialMT-64" d="M 2575 0 
L 2575 419 
Q 2259 -75 1647 -75 
Q 1250 -75 917 144 
Q 584 363 401 755 
Q 219 1147 219 1656 
Q 219 2153 384 2558 
Q 550 2963 881 3178 
Q 1213 3394 1622 3394 
Q 1922 3394 2156 3267 
Q 2391 3141 2538 2938 
L 2538 4581 
L 3097 4581 
L 3097 0 
L 2575 0 
z
M 797 1656 
Q 797 1019 1065 703 
Q 1334 388 1700 388 
Q 2069 388 2326 689 
Q 2584 991 2584 1609 
Q 2584 2291 2321 2609 
Q 2059 2928 1675 2928 
Q 1300 2928 1048 2622 
Q 797 2316 797 1656 
z
" transform="scale(0.015625)"/>
       <path id="ArialMT-29" d="M 791 -1347 
L 388 -1347 
Q 1322 153 1322 1656 
Q 1322 2244 1188 2822 
Q 1081 3291 891 3722 
Q 769 4003 388 4659 
L 791 4659 
Q 1378 3875 1659 3084 
Q 1900 2403 1900 1659 
Q 1900 816 1576 28 
Q 1253 -759 791 -1347 
z
" transform="scale(0.015625)"/>
      </defs>
      <use xlink:href="#ArialMT-54"/>
      <use xlink:href="#ArialMT-61" transform="translate(49.958984 0)"/>
      <use xlink:href="#ArialMT-72" transform="translate(105.574219 0)"/>
      <use xlink:href="#ArialMT-67" transform="translate(138.875 0)"/>
      <use xlink:href="#ArialMT-65" transform="translate(194.490234 0)"/>
      <use xlink:href="#ArialMT-74" transform="translate(250.105469 0)"/>
      <use xlink:href="#ArialMT-73" transform="translate(277.888672 0)"/>
      <use xlink:href="#ArialMT-20" transform="translate(327.888672 0)"/>
      <use xlink:href="#ArialMT-28" transform="translate(355.671875 0)"/>
      <use xlink:href="#ArialMT-74" transform="translate(388.972656 0)"/>
      <use xlink:href="#ArialMT-61" transform="translate(416.755859 0)"/>
      <use xlink:href="#ArialMT-72" transform="translate(472.371094 0)"/>
      <use xlink:href="#ArialMT-67" transform="translate(505.671875 0)"/>
      <use xlink:href="#ArialMT-65" transform="translate(561.287109 0)"/>
      <use xlink:href="#ArialMT-74" transform="translate(616.902344 0)"/>
      <use xlink:href="#ArialMT-49" transform="translate(644.685547 0)"/>
      <use xlink:href="#ArialMT-64" transform="translate(672.46875 0)"/>
      <use xlink:href="#ArialMT-29" transform="translate(728.083984 0)"/>
     </g>
    </g>
   </g>
   <g id="matplotlib.axis_2">
    <g id="ytick_1">
     <g id="line2d_6">
      <defs>
       <path id="ma0dd73772f" d="M 0 0 
L -3.5 0 
" style="stroke: #262626; stroke-width: 0.8"/>
      </defs>
      <g>
       <use xlink:href="#ma0dd73772f" x="51.5" y="333.780485" style="fill: #262626; stroke: #262626; stroke-width: 0.8"/>
      </g>
     </g>
     <g id="text_7">
      <!-- 0 -->
      <g style="fill: #262626" transform="translate(38.939063 337.359391) scale(0.1 -0.1)">
       <defs>
        <path id="ArialMT-30" d="M 266 2259 
Q 266 3072 433 3567 
Q 600 4063 929 4331 
Q 1259 4600 1759 4600 
Q 2128 4600 2406 4451 
Q 2684 4303 2865 4023 
Q 3047 3744 3150 3342 
Q 3253 2941 3253 2259 
Q 3253 1453 3087 958 
Q 2922 463 2592 192 
Q 2263 -78 1759 -78 
Q 1097 -78 719 397 
Q 266 969 266 2259 
z
M 844 2259 
Q 844 1131 1108 757 
Q 1372 384 1759 384 
Q 2147 384 2411 759 
Q 2675 1134 2675 2259 
Q 2675 3391 2411 3762 
Q 2147 4134 1753 4134 
Q 1366 4134 1134 3806 
Q 844 3388 844 2259 
z
" transform="scale(0.015625)"/>
       </defs>
       <use xlink:href="#ArialMT-30"/>
      </g>
     </g>
    </g>
    <g id="ytick_2">
     <g id="line2d_7">
      <g>
       <use xlink:href="#ma0dd73772f" x="51.5" y="256.487275" style="fill: #262626; stroke: #262626; stroke-width: 0.8"/>
      </g>
     </g>
     <g id="text_8">
      <!-- 200 -->
      <g style="fill: #262626" transform="translate(27.817188 260.066181) scale(0.1 -0.1)">
       <use xlink:href="#ArialMT-32"/>
       <use xlink:href="#ArialMT-30" transform="translate(55.615234 0)"/>
       <use xlink:href="#ArialMT-30" transform="translate(111.230469 0)"/>
      </g>
     </g>
    </g>
    <g id="ytick_3">
     <g id="line2d_8">
      <g>
       <use xlink:href="#ma0dd73772f" x="51.5" y="179.194064" style="fill: #262626; stroke: #262626; stroke-width: 0.8"/>
      </g>
     </g>
     <g id="text_9">
      <!-- 400 -->
      <g style="fill: #262626" transform="translate(27.817188 182.772971) scale(0.1 -0.1)">
       <use xlink:href="#ArialMT-34"/>
       <use xlink:href="#ArialMT-30" transform="translate(55.615234 0)"/>
       <use xlink:href="#ArialMT-30" transform="translate(111.230469 0)"/>
      </g>
     </g>
    </g>
    <g id="ytick_4">
     <g id="line2d_9">
      <g>
       <use xlink:href="#ma0dd73772f" x="51.5" y="101.900854" style="fill: #262626; stroke: #262626; stroke-width: 0.8"/>
      </g>
     </g>
     <g id="text_10">
      <!-- 600 -->
      <g style="fill: #262626" transform="translate(27.817188 105.47976) scale(0.1 -0.1)">
       <defs>
        <path id="ArialMT-36" d="M 3184 3459 
L 2625 3416 
Q 2550 3747 2413 3897 
Q 2184 4138 1850 4138 
Q 1581 4138 1378 3988 
Q 1113 3794 959 3422 
Q 806 3050 800 2363 
Q 1003 2672 1297 2822 
Q 1591 2972 1913 2972 
Q 2475 2972 2870 2558 
Q 3266 2144 3266 1488 
Q 3266 1056 3080 686 
Q 2894 316 2569 119 
Q 2244 -78 1831 -78 
Q 1128 -78 684 439 
Q 241 956 241 2144 
Q 241 3472 731 4075 
Q 1159 4600 1884 4600 
Q 2425 4600 2770 4297 
Q 3116 3994 3184 3459 
z
M 888 1484 
Q 888 1194 1011 928 
Q 1134 663 1356 523 
Q 1578 384 1822 384 
Q 2178 384 2434 671 
Q 2691 959 2691 1453 
Q 2691 1928 2437 2201 
Q 2184 2475 1800 2475 
Q 1419 2475 1153 2201 
Q 888 1928 888 1484 
z
" transform="scale(0.015625)"/>
       </defs>
       <use xlink:href="#ArialMT-36"/>
       <use xlink:href="#ArialMT-30" transform="translate(55.615234 0)"/>
       <use xlink:href="#ArialMT-30" transform="translate(111.230469 0)"/>
      </g>
     </g>
    </g>
    <g id="ytick_5">
     <g id="line2d_10">
      <g>
       <use xlink:href="#ma0dd73772f" x="51.5" y="24.607644" style="fill: #262626; stroke: #262626; stroke-width: 0.8"/>
      </g>
     </g>
     <g id="text_11">
      <!-- 800 -->
      <g style="fill: #262626" transform="translate(27.817188 28.18655) scale(0.1 -0.1)">
       <defs>
        <path id="ArialMT-38" d="M 1131 2484 
Q 781 2613 612 2850 
Q 444 3088 444 3419 
Q 444 3919 803 4259 
Q 1163 4600 1759 4600 
Q 2359 4600 2725 4251 
Q 3091 3903 3091 3403 
Q 3091 3084 2923 2848 
Q 2756 2613 2416 2484 
Q 2838 2347 3058 2040 
Q 3278 1734 3278 1309 
Q 3278 722 2862 322 
Q 2447 -78 1769 -78 
Q 1091 -78 675 323 
Q 259 725 259 1325 
Q 259 1772 486 2073 
Q 713 2375 1131 2484 
z
M 1019 3438 
Q 1019 3113 1228 2906 
Q 1438 2700 1772 2700 
Q 2097 2700 2305 2904 
Q 2513 3109 2513 3406 
Q 2513 3716 2298 3927 
Q 2084 4138 1766 4138 
Q 1444 4138 1231 3931 
Q 1019 3725 1019 3438 
z
M 838 1322 
Q 838 1081 952 856 
Q 1066 631 1291 507 
Q 1516 384 1775 384 
Q 2178 384 2440 643 
Q 2703 903 2703 1303 
Q 2703 1709 2433 1975 
Q 2163 2241 1756 2241 
Q 1359 2241 1098 1978 
Q 838 1716 838 1322 
z
" transform="scale(0.015625)"/>
       </defs>
       <use xlink:href="#ArialMT-38"/>
       <use xlink:href="#ArialMT-30" transform="translate(55.615234 0)"/>
       <use xlink:href="#ArialMT-30" transform="translate(111.230469 0)"/>
      </g>
     </g>
    </g>
    <g id="text_12">
     <!-- Diseases (diseaseId) -->
     <g style="fill: #262626" transform="translate(20.870625 264.338125) rotate(-90) scale(0.14 -0.14)">
      <defs>
       <path id="ArialMT-44" d="M 494 0 
L 494 4581 
L 2072 4581 
Q 2606 4581 2888 4516 
Q 3281 4425 3559 4188 
Q 3922 3881 4101 3404 
Q 4281 2928 4281 2316 
Q 4281 1794 4159 1391 
Q 4038 988 3847 723 
Q 3656 459 3429 307 
Q 3203 156 2883 78 
Q 2563 0 2147 0 
L 494 0 
z
M 1100 541 
L 2078 541 
Q 2531 541 2789 625 
Q 3047 709 3200 863 
Q 3416 1078 3536 1442 
Q 3656 1806 3656 2325 
Q 3656 3044 3420 3430 
Q 3184 3816 2847 3947 
Q 2603 4041 2063 4041 
L 1100 4041 
L 1100 541 
z
" transform="scale(0.015625)"/>
       <path id="ArialMT-69" d="M 425 3934 
L 425 4581 
L 988 4581 
L 988 3934 
L 425 3934 
z
M 425 0 
L 425 3319 
L 988 3319 
L 988 0 
L 425 0 
z
" transform="scale(0.015625)"/>
      </defs>
      <use xlink:href="#ArialMT-44"/>
      <use xlink:href="#ArialMT-69" transform="translate(72.216797 0)"/>
      <use xlink:href="#ArialMT-73" transform="translate(94.433594 0)"/>
      <use xlink:href="#ArialMT-65" transform="translate(144.433594 0)"/>
      <use xlink:href="#ArialMT-61" transform="translate(200.048828 0)"/>
      <use xlink:href="#ArialMT-73" transform="translate(255.664062 0)"/>
      <use xlink:href="#ArialMT-65" transform="translate(305.664062 0)"/>
      <use xlink:href="#ArialMT-73" transform="translate(361.279297 0)"/>
      <use xlink:href="#ArialMT-20" transform="translate(411.279297 0)"/>
      <use xlink:href="#ArialMT-28" transform="translate(439.0625 0)"/>
      <use xlink:href="#ArialMT-64" transform="translate(472.363281 0)"/>
      <use xlink:href="#ArialMT-69" transform="translate(527.978516 0)"/>
      <use xlink:href="#ArialMT-73" transform="translate(550.195312 0)"/>
      <use xlink:href="#ArialMT-65" transform="translate(600.195312 0)"/>
      <use xlink:href="#ArialMT-61" transform="translate(655.810547 0)"/>
      <use xlink:href="#ArialMT-73" transform="translate(711.425781 0)"/>
      <use xlink:href="#ArialMT-65" transform="translate(761.425781 0)"/>
      <use xlink:href="#ArialMT-49" transform="translate(817.041016 0)"/>
      <use xlink:href="#ArialMT-64" transform="translate(844.824219 0)"/>
      <use xlink:href="#ArialMT-29" transform="translate(900.439453 0)"/>
     </g>
    </g>
   </g>
   <g id="FillBetweenPolyCollection_1">
    <defs>
     <path id="m01628d94e0" d="M 106.261405 -80.263511 
L 99.478595 -80.263511 
L 95.988897 -83.534513 
L 90.494213 -86.805515 
L 83.111078 -90.076518 
L 74.810434 -93.34752 
L 67.332768 -96.618522 
L 62.582157 -99.889524 
L 61.774 -103.160526 
L 64.87616 -106.431529 
L 70.714429 -109.702531 
L 77.627327 -112.973533 
L 84.194211 -116.244535 
L 89.618784 -119.515537 
L 93.693661 -122.786539 
L 96.551698 -126.057542 
L 98.43904 -129.328544 
L 99.606172 -132.599546 
L 100.28369 -135.870548 
L 100.676418 -139.14155 
L 100.945411 -142.412553 
L 101.188266 -145.683555 
L 101.438231 -148.954557 
L 101.686516 -152.225559 
L 101.913285 -155.496561 
L 102.108675 -158.767564 
L 102.275951 -162.038566 
L 102.422781 -165.309568 
L 102.552337 -168.58057 
L 102.661578 -171.851572 
L 102.745745 -175.122574 
L 102.80345 -178.393577 
L 102.838214 -181.664579 
L 102.856524 -184.935581 
L 102.864943 -188.206583 
L 102.868324 -191.477585 
L 102.86951 -194.748588 
L 102.869874 -198.01959 
L 102.869971 -201.290592 
L 102.869994 -204.561594 
L 102.869999 -207.832596 
L 102.87 -211.103598 
L 102.87 -214.374601 
L 102.87 -217.645603 
L 102.87 -220.916605 
L 102.87 -224.187607 
L 102.87 -227.458609 
L 102.87 -230.729612 
L 102.87 -234.000614 
L 102.87 -237.271616 
L 102.87 -240.542618 
L 102.87 -243.81362 
L 102.87 -247.084622 
L 102.87 -250.355625 
L 102.87 -253.626627 
L 102.87 -256.897629 
L 102.87 -260.168631 
L 102.87 -263.439633 
L 102.87 -266.710636 
L 102.87 -269.981638 
L 102.87 -273.25264 
L 102.87 -276.523642 
L 102.87 -279.794644 
L 102.87 -283.065646 
L 102.87 -286.336649 
L 102.87 -289.607651 
L 102.87 -292.878653 
L 102.87 -296.149655 
L 102.87 -299.420657 
L 102.87 -302.69166 
L 102.87 -305.962662 
L 102.87 -309.233664 
L 102.87 -312.504666 
L 102.87 -315.775668 
L 102.87 -319.04667 
L 102.87 -322.317673 
L 102.87 -325.588675 
L 102.87 -328.859677 
L 102.87 -332.130679 
L 102.87 -335.401681 
L 102.869999 -338.672684 
L 102.869996 -341.943686 
L 102.869981 -345.214688 
L 102.869913 -348.48569 
L 102.869653 -351.756692 
L 102.868777 -355.027695 
L 102.86621 -358.298697 
L 102.859658 -361.569699 
L 102.845147 -364.840701 
L 102.817409 -368.111703 
L 102.772009 -371.382705 
L 102.709223 -374.653708 
L 102.63772 -377.92471 
L 102.5745 -381.195712 
L 102.538977 -384.466714 
L 102.543477 -387.737716 
L 102.586388 -391.008719 
L 102.653084 -394.279721 
L 102.723913 -397.550723 
L 102.783366 -400.821725 
L 102.82476 -404.092727 
L 102.91524 -404.092727 
L 102.91524 -404.092727 
L 102.956634 -400.821725 
L 103.016087 -397.550723 
L 103.086916 -394.279721 
L 103.153612 -391.008719 
L 103.196523 -387.737716 
L 103.201023 -384.466714 
L 103.1655 -381.195712 
L 103.10228 -377.92471 
L 103.030777 -374.653708 
L 102.967991 -371.382705 
L 102.922591 -368.111703 
L 102.894853 -364.840701 
L 102.880342 -361.569699 
L 102.87379 -358.298697 
L 102.871223 -355.027695 
L 102.870347 -351.756692 
L 102.870087 -348.48569 
L 102.870019 -345.214688 
L 102.870004 -341.943686 
L 102.870001 -338.672684 
L 102.87 -335.401681 
L 102.87 -332.130679 
L 102.87 -328.859677 
L 102.87 -325.588675 
L 102.87 -322.317673 
L 102.87 -319.04667 
L 102.87 -315.775668 
L 102.87 -312.504666 
L 102.87 -309.233664 
L 102.87 -305.962662 
L 102.87 -302.69166 
L 102.87 -299.420657 
L 102.87 -296.149655 
L 102.87 -292.878653 
L 102.87 -289.607651 
L 102.87 -286.336649 
L 102.87 -283.065646 
L 102.87 -279.794644 
L 102.87 -276.523642 
L 102.87 -273.25264 
L 102.87 -269.981638 
L 102.87 -266.710636 
L 102.87 -263.439633 
L 102.87 -260.168631 
L 102.87 -256.897629 
L 102.87 -253.626627 
L 102.87 -250.355625 
L 102.87 -247.084622 
L 102.87 -243.81362 
L 102.87 -240.542618 
L 102.87 -237.271616 
L 102.87 -234.000614 
L 102.87 -230.729612 
L 102.87 -227.458609 
L 102.87 -224.187607 
L 102.87 -220.916605 
L 102.87 -217.645603 
L 102.87 -214.374601 
L 102.87 -211.103598 
L 102.870001 -207.832596 
L 102.870006 -204.561594 
L 102.870029 -201.290592 
L 102.870126 -198.01959 
L 102.87049 -194.748588 
L 102.871676 -191.477585 
L 102.875057 -188.206583 
L 102.883476 -184.935581 
L 102.901786 -181.664579 
L 102.93655 -178.393577 
L 102.994255 -175.122574 
L 103.078422 -171.851572 
L 103.187663 -168.58057 
L 103.317219 -165.309568 
L 103.464049 -162.038566 
L 103.631325 -158.767564 
L 103.826715 -155.496561 
L 104.053484 -152.225559 
L 104.301769 -148.954557 
L 104.551734 -145.683555 
L 104.794589 -142.412553 
L 105.063582 -139.14155 
L 105.45631 -135.870548 
L 106.133828 -132.599546 
L 107.30096 -129.328544 
L 109.188302 -126.057542 
L 112.046339 -122.786539 
L 116.121216 -119.515537 
L 121.545789 -116.244535 
L 128.112673 -112.973533 
L 135.025571 -109.702531 
L 140.86384 -106.431529 
L 143.966 -103.160526 
L 143.157843 -99.889524 
L 138.407232 -96.618522 
L 130.929566 -93.34752 
L 122.628922 -90.076518 
L 115.245787 -86.805515 
L 109.751103 -83.534513 
L 106.261405 -80.263511 
z
" style="stroke: #2d2d2d; stroke-width: 1.25"/>
    </defs>
    <g clip-path="url(#p6088c3e09c)">
     <use xlink:href="#m01628d94e0" x="0" y="432" style="fill: #90b6cf; stroke: #2d2d2d; stroke-width: 1.25"/>
    </g>
   </g>
   <g id="FillBetweenPolyCollection_2">
    <defs>
     <path id="md2014677ac" d="M 208.626093 -72.066882 
L 202.593907 -72.066882 
L 201.684522 -73.742905 
L 200.575016 -75.418928 
L 199.245128 -77.094951 
L 197.679543 -78.770974 
L 195.870034 -80.446997 
L 193.817541 -82.12302 
L 191.533991 -83.799043 
L 189.04363 -85.475066 
L 186.383667 -87.151089 
L 183.604046 -88.827113 
L 180.766252 -90.503136 
L 177.94113 -92.179159 
L 175.205797 -93.855182 
L 172.639835 -95.531205 
L 170.321032 -97.207228 
L 168.321014 -98.883251 
L 166.701123 -100.559274 
L 165.508898 -102.235297 
L 164.77546 -103.91132 
L 164.514 -105.587343 
L 164.719494 -107.263367 
L 165.369614 -108.93939 
L 166.426715 -110.615413 
L 167.840683 -112.291436 
L 169.552359 -113.967459 
L 171.497227 -115.643482 
L 173.609074 -117.319505 
L 175.823337 -118.995528 
L 178.079942 -120.671551 
L 180.325498 -122.347574 
L 182.514773 -124.023597 
L 184.611465 -125.69962 
L 186.588338 -127.375644 
L 188.426807 -129.051667 
L 190.116114 -130.72769 
L 191.652225 -132.403713 
L 193.036579 -134.079736 
L 194.274788 -135.755759 
L 195.375412 -137.431782 
L 196.348844 -139.107805 
L 197.206376 -140.783828 
L 197.959455 -142.459851 
L 198.619146 -144.135874 
L 199.195775 -145.811898 
L 199.698745 -147.487921 
L 200.136473 -149.163944 
L 200.51644 -150.839967 
L 200.845282 -152.51599 
L 201.128922 -154.192013 
L 201.372695 -155.868036 
L 201.581453 -157.544059 
L 201.759641 -159.220082 
L 201.911346 -160.896105 
L 202.04032 -162.572128 
L 202.149987 -164.248151 
L 202.243449 -165.924175 
L 202.323503 -167.600198 
L 202.392656 -169.276221 
L 202.453167 -170.952244 
L 202.507074 -172.628267 
L 202.556226 -174.30429 
L 202.602293 -175.980313 
L 202.64675 -177.656336 
L 202.690844 -179.332359 
L 202.735528 -181.008382 
L 202.781403 -182.684405 
L 202.828655 -184.360429 
L 202.877033 -186.036452 
L 202.925871 -187.712475 
L 202.974168 -189.388498 
L 203.020723 -191.064521 
L 203.064326 -192.740544 
L 203.103974 -194.416567 
L 203.139084 -196.09259 
L 203.169682 -197.768613 
L 203.196521 -199.444636 
L 203.22112 -201.120659 
L 203.245701 -202.796682 
L 203.273034 -204.472706 
L 203.306195 -206.148729 
L 203.348278 -207.824752 
L 203.402074 -209.500775 
L 203.469785 -211.176798 
L 203.55278 -212.852821 
L 203.651439 -214.528844 
L 203.765091 -216.204867 
L 203.892063 -217.88089 
L 204.029812 -219.556913 
L 204.175142 -221.232936 
L 204.324459 -222.90896 
L 204.474053 -224.584983 
L 204.620355 -226.261006 
L 204.760171 -227.937029 
L 204.890849 -229.613052 
L 205.01039 -231.289075 
L 205.117487 -232.965098 
L 205.211508 -234.641121 
L 205.292434 -236.317144 
L 205.360751 -237.993167 
L 205.859249 -237.993167 
L 205.859249 -237.993167 
L 205.927566 -236.317144 
L 206.008492 -234.641121 
L 206.102513 -232.965098 
L 206.20961 -231.289075 
L 206.329151 -229.613052 
L 206.459829 -227.937029 
L 206.599645 -226.261006 
L 206.745947 -224.584983 
L 206.895541 -222.90896 
L 207.044858 -221.232936 
L 207.190188 -219.556913 
L 207.327937 -217.88089 
L 207.454909 -216.204867 
L 207.568561 -214.528844 
L 207.66722 -212.852821 
L 207.750215 -211.176798 
L 207.817926 -209.500775 
L 207.871722 -207.824752 
L 207.913805 -206.148729 
L 207.946966 -204.472706 
L 207.974299 -202.796682 
L 207.99888 -201.120659 
L 208.023479 -199.444636 
L 208.050318 -197.768613 
L 208.080916 -196.09259 
L 208.116026 -194.416567 
L 208.155674 -192.740544 
L 208.199277 -191.064521 
L 208.245832 -189.388498 
L 208.294129 -187.712475 
L 208.342967 -186.036452 
L 208.391345 -184.360429 
L 208.438597 -182.684405 
L 208.484472 -181.008382 
L 208.529156 -179.332359 
L 208.57325 -177.656336 
L 208.617707 -175.980313 
L 208.663774 -174.30429 
L 208.712926 -172.628267 
L 208.766833 -170.952244 
L 208.827344 -169.276221 
L 208.896497 -167.600198 
L 208.976551 -165.924175 
L 209.070013 -164.248151 
L 209.17968 -162.572128 
L 209.308654 -160.896105 
L 209.460359 -159.220082 
L 209.638547 -157.544059 
L 209.847305 -155.868036 
L 210.091078 -154.192013 
L 210.374718 -152.51599 
L 210.70356 -150.839967 
L 211.083527 -149.163944 
L 211.521255 -147.487921 
L 212.024225 -145.811898 
L 212.600854 -144.135874 
L 213.260545 -142.459851 
L 214.013624 -140.783828 
L 214.871156 -139.107805 
L 215.844588 -137.431782 
L 216.945212 -135.755759 
L 218.183421 -134.079736 
L 219.567775 -132.403713 
L 221.103886 -130.72769 
L 222.793193 -129.051667 
L 224.631662 -127.375644 
L 226.608535 -125.69962 
L 228.705227 -124.023597 
L 230.894502 -122.347574 
L 233.140058 -120.671551 
L 235.396663 -118.995528 
L 237.610926 -117.319505 
L 239.722773 -115.643482 
L 241.667641 -113.967459 
L 243.379317 -112.291436 
L 244.793285 -110.615413 
L 245.850386 -108.93939 
L 246.500506 -107.263367 
L 246.706 -105.587343 
L 246.44454 -103.91132 
L 245.711102 -102.235297 
L 244.518877 -100.559274 
L 242.898986 -98.883251 
L 240.898968 -97.207228 
L 238.580165 -95.531205 
L 236.014203 -93.855182 
L 233.27887 -92.179159 
L 230.453748 -90.503136 
L 227.615954 -88.827113 
L 224.836333 -87.151089 
L 222.17637 -85.475066 
L 219.686009 -83.799043 
L 217.402459 -82.12302 
L 215.349966 -80.446997 
L 213.540457 -78.770974 
L 211.974872 -77.094951 
L 210.644984 -75.418928 
L 209.535478 -73.742905 
L 208.626093 -72.066882 
z
" style="stroke: #2d2d2d; stroke-width: 1.25"/>
    </defs>
    <g clip-path="url(#p6088c3e09c)">
     <use xlink:href="#md2014677ac" x="0" y="432" style="fill: #6c9dbf; stroke: #2d2d2d; stroke-width: 1.25"/>
    </g>
   </g>
   <g id="FillBetweenPolyCollection_3">
    <defs>
     <path id="m606e72fbd0" d="M 312.141436 -61.947273 
L 304.558564 -61.947273 
L 303.831009 -63.573992 
L 303.001485 -65.200711 
L 302.063819 -66.827431 
L 301.013128 -68.45415 
L 299.846165 -70.080869 
L 298.561663 -71.707588 
L 297.160654 -73.334308 
L 295.64675 -74.961027 
L 294.026364 -76.587746 
L 292.308857 -78.214466 
L 290.506593 -79.841185 
L 288.634894 -81.467904 
L 286.711877 -83.094624 
L 284.758191 -84.721343 
L 282.796627 -86.348062 
L 280.851639 -87.974781 
L 278.948773 -89.601501 
L 277.114029 -91.22822 
L 275.37318 -92.854939 
L 273.751083 -94.481659 
L 272.270995 -96.108378 
L 270.953949 -97.735097 
L 269.818188 -99.361816 
L 268.878707 -100.988536 
L 268.146905 -102.615255 
L 267.630368 -104.241974 
L 267.332785 -105.868694 
L 267.254 -107.495413 
L 267.390178 -109.122132 
L 267.734091 -110.748852 
L 268.275486 -112.375571 
L 269.001518 -114.00229 
L 269.897228 -115.629009 
L 270.946036 -117.255729 
L 272.130218 -118.882448 
L 273.431366 -120.509167 
L 274.830796 -122.135887 
L 276.309907 -123.762606 
L 277.850469 -125.389325 
L 279.434858 -127.016045 
L 281.046225 -128.642764 
L 282.668613 -130.269483 
L 284.287032 -131.896202 
L 285.887495 -133.522922 
L 287.45704 -135.149641 
L 288.983736 -136.77636 
L 290.456678 -138.40308 
L 291.866003 -140.029799 
L 293.202897 -141.656518 
L 294.459627 -143.283237 
L 295.629572 -144.909957 
L 296.707271 -146.536676 
L 297.688474 -148.163395 
L 298.570191 -149.790115 
L 299.35074 -151.416834 
L 300.02978 -153.043553 
L 300.608336 -154.670273 
L 301.088798 -156.296992 
L 301.474896 -157.923711 
L 301.771651 -159.55043 
L 301.985299 -161.17715 
L 302.123184 -162.803869 
L 302.19362 -164.430588 
L 302.205733 -166.057308 
L 302.169278 -167.684027 
L 302.094431 -169.310746 
L 301.991574 -170.937465 
L 301.871067 -172.564185 
L 301.74302 -174.190904 
L 301.617067 -175.817623 
L 301.502155 -177.444343 
L 301.40635 -179.071062 
L 301.336666 -180.697781 
L 301.298932 -182.324501 
L 301.297688 -183.95122 
L 301.336126 -185.577939 
L 301.416072 -187.204658 
L 301.538006 -188.831378 
L 301.701129 -190.458097 
L 301.903464 -192.084816 
L 302.141991 -193.711536 
L 302.412807 -195.338255 
L 302.711308 -196.964974 
L 303.032381 -198.591693 
L 303.370599 -200.218413 
L 303.720416 -201.845132 
L 304.076346 -203.471851 
L 304.433123 -205.098571 
L 304.785849 -206.72529 
L 305.130101 -208.352009 
L 305.462021 -209.978729 
L 305.778374 -211.605448 
L 306.076572 -213.232167 
L 306.354682 -214.858886 
L 306.611404 -216.485606 
L 306.846026 -218.112325 
L 307.058378 -219.739044 
L 307.248756 -221.365764 
L 307.417854 -222.992483 
L 309.282146 -222.992483 
L 309.282146 -222.992483 
L 309.451244 -221.365764 
L 309.641622 -219.739044 
L 309.853974 -218.112325 
L 310.088596 -216.485606 
L 310.345318 -214.858886 
L 310.623428 -213.232167 
L 310.921626 -211.605448 
L 311.237979 -209.978729 
L 311.569899 -208.352009 
L 311.914151 -206.72529 
L 312.266877 -205.098571 
L 312.623654 -203.471851 
L 312.979584 -201.845132 
L 313.329401 -200.218413 
L 313.667619 -198.591693 
L 313.988692 -196.964974 
L 314.287193 -195.338255 
L 314.558009 -193.711536 
L 314.796536 -192.084816 
L 314.998871 -190.458097 
L 315.161994 -188.831378 
L 315.283928 -187.204658 
L 315.363874 -185.577939 
L 315.402312 -183.95122 
L 315.401068 -182.324501 
L 315.363334 -180.697781 
L 315.29365 -179.071062 
L 315.197845 -177.444343 
L 315.082933 -175.817623 
L 314.95698 -174.190904 
L 314.828933 -172.564185 
L 314.708426 -170.937465 
L 314.605569 -169.310746 
L 314.530722 -167.684027 
L 314.494267 -166.057308 
L 314.50638 -164.430588 
L 314.576816 -162.803869 
L 314.714701 -161.17715 
L 314.928349 -159.55043 
L 315.225104 -157.923711 
L 315.611202 -156.296992 
L 316.091664 -154.670273 
L 316.67022 -153.043553 
L 317.34926 -151.416834 
L 318.129809 -149.790115 
L 319.011526 -148.163395 
L 319.992729 -146.536676 
L 321.070428 -144.909957 
L 322.240373 -143.283237 
L 323.497103 -141.656518 
L 324.833997 -140.029799 
L 326.243322 -138.40308 
L 327.716264 -136.77636 
L 329.24296 -135.149641 
L 330.812505 -133.522922 
L 332.412968 -131.896202 
L 334.031387 -130.269483 
L 335.653775 -128.642764 
L 337.265142 -127.016045 
L 338.849531 -125.389325 
L 340.390093 -123.762606 
L 341.869204 -122.135887 
L 343.268634 -120.509167 
L 344.569782 -118.882448 
L 345.753964 -117.255729 
L 346.802772 -115.629009 
L 347.698482 -114.00229 
L 348.424514 -112.375571 
L 348.965909 -110.748852 
L 349.309822 -109.122132 
L 349.446 -107.495413 
L 349.367215 -105.868694 
L 349.069632 -104.241974 
L 348.553095 -102.615255 
L 347.821293 -100.988536 
L 346.881812 -99.361816 
L 345.746051 -97.735097 
L 344.429005 -96.108378 
L 342.948917 -94.481659 
L 341.32682 -92.854939 
L 339.585971 -91.22822 
L 337.751227 -89.601501 
L 335.848361 -87.974781 
L 333.903373 -86.348062 
L 331.941809 -84.721343 
L 329.988123 -83.094624 
L 328.065106 -81.467904 
L 326.193407 -79.841185 
L 324.391143 -78.214466 
L 322.673636 -76.587746 
L 321.05325 -74.961027 
L 319.539346 -73.334308 
L 318.138337 -71.707588 
L 316.853835 -70.080869 
L 315.686872 -68.45415 
L 314.636181 -66.827431 
L 313.698515 -65.200711 
L 312.868991 -63.573992 
L 312.141436 -61.947273 
z
" style="stroke: #2d2d2d; stroke-width: 1.25"/>
    </defs>
    <g clip-path="url(#p6088c3e09c)">
     <use xlink:href="#m606e72fbd0" x="0" y="432" style="fill: #4884af; stroke: #2d2d2d; stroke-width: 1.25"/>
    </g>
   </g>
   <g id="FillBetweenPolyCollection_4">
    <defs>
     <path id="ma266b4e64b" d="M 414.998282 -104.964327 
L 407.181718 -104.964327 
L 406.714143 -105.288704 
L 406.205953 -105.613082 
L 405.655748 -105.937459 
L 405.062361 -106.261837 
L 404.424898 -106.586214 
L 403.742771 -106.910592 
L 403.015736 -107.234969 
L 402.243916 -107.559347 
L 401.427838 -107.883724 
L 400.568447 -108.208102 
L 399.667126 -108.532479 
L 398.725708 -108.856857 
L 397.746473 -109.181234 
L 396.732153 -109.505611 
L 395.685912 -109.829989 
L 394.611327 -110.154366 
L 393.512362 -110.478744 
L 392.393329 -110.803121 
L 391.258844 -111.127499 
L 390.113773 -111.451876 
L 388.963179 -111.776254 
L 387.812255 -112.100631 
L 386.666259 -112.425009 
L 385.530446 -112.749386 
L 384.409996 -113.073764 
L 383.309949 -113.398141 
L 382.235135 -113.722519 
L 381.190113 -114.046896 
L 380.179115 -114.371274 
L 379.206 -114.695651 
L 378.274209 -115.020029 
L 377.38674 -115.344406 
L 376.546124 -115.668784 
L 375.754419 -115.993161 
L 375.013213 -116.317538 
L 374.323638 -116.641916 
L 373.686394 -116.966293 
L 373.101787 -117.290671 
L 372.56977 -117.615048 
L 372.089996 -117.939426 
L 371.661875 -118.263803 
L 371.284636 -118.588181 
L 370.957388 -118.912558 
L 370.679184 -119.236936 
L 370.449083 -119.561313 
L 370.266204 -119.885691 
L 370.129777 -120.210068 
L 370.039185 -120.534446 
L 369.994 -120.858823 
L 369.994 -121.183201 
L 370.039185 -121.507578 
L 370.129777 -121.831956 
L 370.266204 -122.156333 
L 370.449083 -122.480711 
L 370.679184 -122.805088 
L 370.957388 -123.129466 
L 371.284636 -123.453843 
L 371.661875 -123.77822 
L 372.089996 -124.102598 
L 372.56977 -124.426975 
L 373.101787 -124.751353 
L 373.686394 -125.07573 
L 374.323638 -125.400108 
L 375.013213 -125.724485 
L 375.754419 -126.048863 
L 376.546124 -126.37324 
L 377.38674 -126.697618 
L 378.274209 -127.021995 
L 379.206 -127.346373 
L 380.179115 -127.67075 
L 381.190113 -127.995128 
L 382.235135 -128.319505 
L 383.309949 -128.643883 
L 384.409996 -128.96826 
L 385.530446 -129.292638 
L 386.666259 -129.617015 
L 387.812255 -129.941393 
L 388.963179 -130.26577 
L 390.113773 -130.590147 
L 391.258844 -130.914525 
L 392.393329 -131.238902 
L 393.512362 -131.56328 
L 394.611327 -131.887657 
L 395.685912 -132.212035 
L 396.732153 -132.536412 
L 397.746473 -132.86079 
L 398.725708 -133.185167 
L 399.667126 -133.509545 
L 400.568447 -133.833922 
L 401.427838 -134.1583 
L 402.243916 -134.482677 
L 403.015736 -134.807055 
L 403.742771 -135.131432 
L 404.424898 -135.45581 
L 405.062361 -135.780187 
L 405.655748 -136.104565 
L 406.205953 -136.428942 
L 406.714143 -136.75332 
L 407.181718 -137.077697 
L 414.998282 -137.077697 
L 414.998282 -137.077697 
L 415.465857 -136.75332 
L 415.974047 -136.428942 
L 416.524252 -136.104565 
L 417.117639 -135.780187 
L 417.755102 -135.45581 
L 418.437229 -135.131432 
L 419.164264 -134.807055 
L 419.936084 -134.482677 
L 420.752162 -134.1583 
L 421.611553 -133.833922 
L 422.512874 -133.509545 
L 423.454292 -133.185167 
L 424.433527 -132.86079 
L 425.447847 -132.536412 
L 426.494088 -132.212035 
L 427.568673 -131.887657 
L 428.667638 -131.56328 
L 429.786671 -131.238902 
L 430.921156 -130.914525 
L 432.066227 -130.590147 
L 433.216821 -130.26577 
L 434.367745 -129.941393 
L 435.513741 -129.617015 
L 436.649554 -129.292638 
L 437.770004 -128.96826 
L 438.870051 -128.643883 
L 439.944865 -128.319505 
L 440.989887 -127.995128 
L 442.000885 -127.67075 
L 442.974 -127.346373 
L 443.905791 -127.021995 
L 444.79326 -126.697618 
L 445.633876 -126.37324 
L 446.425581 -126.048863 
L 447.166787 -125.724485 
L 447.856362 -125.400108 
L 448.493606 -125.07573 
L 449.078213 -124.751353 
L 449.61023 -124.426975 
L 450.090004 -124.102598 
L 450.518125 -123.77822 
L 450.895364 -123.453843 
L 451.222612 -123.129466 
L 451.500816 -122.805088 
L 451.730917 -122.480711 
L 451.913796 -122.156333 
L 452.050223 -121.831956 
L 452.140815 -121.507578 
L 452.186 -121.183201 
L 452.186 -120.858823 
L 452.140815 -120.534446 
L 452.050223 -120.210068 
L 451.913796 -119.885691 
L 451.730917 -119.561313 
L 451.500816 -119.236936 
L 451.222612 -118.912558 
L 450.895364 -118.588181 
L 450.518125 -118.263803 
L 450.090004 -117.939426 
L 449.61023 -117.615048 
L 449.078213 -117.290671 
L 448.493606 -116.966293 
L 447.856362 -116.641916 
L 447.166787 -116.317538 
L 446.425581 -115.993161 
L 445.633876 -115.668784 
L 444.79326 -115.344406 
L 443.905791 -115.020029 
L 442.974 -114.695651 
L 442.000885 -114.371274 
L 440.989887 -114.046896 
L 439.944865 -113.722519 
L 438.870051 -113.398141 
L 437.770004 -113.073764 
L 436.649554 -112.749386 
L 435.513741 -112.425009 
L 434.367745 -112.100631 
L 433.216821 -111.776254 
L 432.066227 -111.451876 
L 430.921156 -111.127499 
L 429.786671 -110.803121 
L 428.667638 -110.478744 
L 427.568673 -110.154366 
L 426.494088 -109.829989 
L 425.447847 -109.505611 
L 424.433527 -109.181234 
L 423.454292 -108.856857 
L 422.512874 -108.532479 
L 421.611553 -108.208102 
L 420.752162 -107.883724 
L 419.936084 -107.559347 
L 419.164264 -107.234969 
L 418.437229 -106.910592 
L 417.755102 -106.586214 
L 417.117639 -106.261837 
L 416.524252 -105.937459 
L 415.974047 -105.613082 
L 415.465857 -105.288704 
L 414.998282 -104.964327 
z
" style="stroke: #2d2d2d; stroke-width: 1.25"/>
    </defs>
    <g clip-path="url(#p6088c3e09c)">
     <use xlink:href="#ma266b4e64b" x="0" y="432" style="fill: #416986; stroke: #2d2d2d; stroke-width: 1.25"/>
    </g>
   </g>
   <g id="line2d_11">
    <path d="M 472.734 319.481241 
L 554.926 319.481241 
" clip-path="url(#p6088c3e09c)" style="fill: none; stroke: #2d2d2d; stroke-width: 1.25; stroke-linecap: round"/>
   </g>
   <g id="patch_3">
    <path d="M 95.1645 332.621087 
L 110.5755 332.621087 
L 110.5755 324.891766 
L 95.1645 324.891766 
L 95.1645 332.621087 
z
" clip-path="url(#p6088c3e09c)" style="fill: #ffffff; opacity: 0.9; stroke: #000000; stroke-linejoin: miter"/>
   </g>
   <g id="line2d_12">
    <path d="M 102.87 332.621087 
L 102.87 333.394019 
" clip-path="url(#p6088c3e09c)" style="fill: none; stroke: #000000"/>
   </g>
   <g id="line2d_13">
    <path d="M 102.87 324.891766 
L 102.87 314.070716 
" clip-path="url(#p6088c3e09c)" style="fill: none; stroke: #000000"/>
   </g>
   <g id="line2d_14">
    <path d="M 99.01725 333.394019 
L 106.72275 333.394019 
" clip-path="url(#p6088c3e09c)" style="fill: none; stroke: #000000; stroke-linecap: round"/>
   </g>
   <g id="line2d_15">
    <path d="M 99.01725 314.070716 
L 106.72275 314.070716 
" clip-path="url(#p6088c3e09c)" style="fill: none; stroke: #000000; stroke-linecap: round"/>
   </g>
   <g id="patch_4">
    <path d="M 197.9045 331.075223 
L 213.3155 331.075223 
L 213.3155 314.843649 
L 197.9045 314.843649 
L 197.9045 331.075223 
z
" clip-path="url(#p6088c3e09c)" style="fill: #ffffff; opacity: 0.9; stroke: #000000; stroke-linejoin: miter"/>
   </g>
   <g id="line2d_16">
    <path d="M 205.61 331.075223 
L 205.61 333.007553 
" clip-path="url(#p6088c3e09c)" style="fill: none; stroke: #000000"/>
   </g>
   <g id="line2d_17">
    <path d="M 205.61 314.843649 
L 205.61 295.13388 
" clip-path="url(#p6088c3e09c)" style="fill: none; stroke: #000000"/>
   </g>
   <g id="line2d_18">
    <path d="M 201.75725 333.007553 
L 209.46275 333.007553 
" clip-path="url(#p6088c3e09c)" style="fill: none; stroke: #000000; stroke-linecap: round"/>
   </g>
   <g id="line2d_19">
    <path d="M 201.75725 295.13388 
L 209.46275 295.13388 
" clip-path="url(#p6088c3e09c)" style="fill: none; stroke: #000000; stroke-linecap: round"/>
   </g>
   <g id="patch_5">
    <path d="M 300.6445 331.171839 
L 316.0555 331.171839 
L 316.0555 304.988764 
L 300.6445 304.988764 
L 300.6445 331.171839 
z
" clip-path="url(#p6088c3e09c)" style="fill: #ffffff; opacity: 0.9; stroke: #000000; stroke-linejoin: miter"/>
   </g>
   <g id="line2d_20">
    <path d="M 308.35 331.171839 
L 308.35 331.848155 
" clip-path="url(#p6088c3e09c)" style="fill: none; stroke: #000000"/>
   </g>
   <g id="line2d_21">
    <path d="M 308.35 304.988764 
L 308.35 304.409065 
" clip-path="url(#p6088c3e09c)" style="fill: none; stroke: #000000"/>
   </g>
   <g id="line2d_22">
    <path d="M 304.49725 331.848155 
L 312.20275 331.848155 
" clip-path="url(#p6088c3e09c)" style="fill: none; stroke: #000000; stroke-linecap: round"/>
   </g>
   <g id="line2d_23">
    <path d="M 304.49725 304.409065 
L 312.20275 304.409065 
" clip-path="url(#p6088c3e09c)" style="fill: none; stroke: #000000; stroke-linecap: round"/>
   </g>
   <g id="patch_6">
    <path d="M 403.3845 313.297784 
L 418.7955 313.297784 
L 418.7955 308.660192 
L 403.3845 308.660192 
L 403.3845 313.297784 
z
" clip-path="url(#p6088c3e09c)" style="fill: #ffffff; opacity: 0.9; stroke: #000000; stroke-linejoin: miter"/>
   </g>
   <g id="line2d_24">
    <path d="M 411.09 313.297784 
L 411.09 315.616581 
" clip-path="url(#p6088c3e09c)" style="fill: none; stroke: #000000"/>
   </g>
   <g id="line2d_25">
    <path d="M 411.09 308.660192 
L 411.09 306.341395 
" clip-path="url(#p6088c3e09c)" style="fill: none; stroke: #000000"/>
   </g>
   <g id="line2d_26">
    <path d="M 407.23725 315.616581 
L 414.94275 315.616581 
" clip-path="url(#p6088c3e09c)" style="fill: none; stroke: #000000; stroke-linecap: round"/>
   </g>
   <g id="line2d_27">
    <path d="M 407.23725 306.341395 
L 414.94275 306.341395 
" clip-path="url(#p6088c3e09c)" style="fill: none; stroke: #000000; stroke-linecap: round"/>
   </g>
   <g id="patch_7">
    <path d="M 506.1245 319.481241 
L 521.5355 319.481241 
L 521.5355 319.481241 
L 506.1245 319.481241 
L 506.1245 319.481241 
z
" clip-path="url(#p6088c3e09c)" style="fill: #ffffff; opacity: 0.9; stroke: #000000; stroke-linejoin: miter"/>
   </g>
   <g id="line2d_28">
    <path d="M 513.83 319.481241 
L 513.83 319.481241 
" clip-path="url(#p6088c3e09c)" style="fill: none; stroke: #000000"/>
   </g>
   <g id="line2d_29">
    <path d="M 513.83 319.481241 
L 513.83 319.481241 
" clip-path="url(#p6088c3e09c)" style="fill: none; stroke: #000000"/>
   </g>
   <g id="line2d_30">
    <path d="M 509.97725 319.481241 
L 517.68275 319.481241 
" clip-path="url(#p6088c3e09c)" style="fill: none; stroke: #000000; stroke-linecap: round"/>
   </g>
   <g id="line2d_31">
    <path d="M 509.97725 319.481241 
L 517.68275 319.481241 
" clip-path="url(#p6088c3e09c)" style="fill: none; stroke: #000000; stroke-linecap: round"/>
   </g>
   <g id="line2d_32">
    <path d="M 95.1645 330.688757 
L 110.5755 330.688757 
" clip-path="url(#p6088c3e09c)" style="fill: none; stroke: #000000"/>
   </g>
   <g id="line2d_33">
    <path d="M 197.9045 326.051164 
L 213.3155 326.051164 
" clip-path="url(#p6088c3e09c)" style="fill: none; stroke: #000000"/>
   </g>
   <g id="line2d_34">
    <path d="M 300.6445 326.824096 
L 316.0555 326.824096 
" clip-path="url(#p6088c3e09c)" style="fill: none; stroke: #000000"/>
   </g>
   <g id="line2d_35">
    <path d="M 403.3845 310.978988 
L 418.7955 310.978988 
" clip-path="url(#p6088c3e09c)" style="fill: none; stroke: #000000"/>
   </g>
   <g id="line2d_36">
    <path d="M 506.1245 319.481241 
L 521.5355 319.481241 
" clip-path="url(#p6088c3e09c)" style="fill: none; stroke: #000000"/>
   </g>
   <g id="patch_8">
    <path d="M 51.5 387.16 
L 51.5 10.8 
" style="fill: none; stroke: #262626; stroke-width: 0.8; stroke-linejoin: miter; stroke-linecap: square"/>
   </g>
   <g id="patch_9">
    <path d="M 565.2 387.16 
L 565.2 10.8 
" style="fill: none; stroke: #262626; stroke-width: 0.8; stroke-linejoin: miter; stroke-linecap: square"/>
   </g>
   <g id="patch_10">
    <path d="M 51.5 387.16 
L 565.2 387.16 
" style="fill: none; stroke: #262626; stroke-width: 0.8; stroke-linejoin: miter; stroke-linecap: square"/>
   </g>
   <g id="patch_11">
    <path d="M 51.5 10.8 
L 565.2 10.8 
" style="fill: none; stroke: #262626; stroke-width: 0.8; stroke-linejoin: miter; stroke-linecap: square"/>
   </g>
  </g>
 </g>
 <defs>
  <clipPath id="p6088c3e09c">
   <rect x="51.5" y="10.8" width="513.7" height="376.36"/>
  </clipPath>
 </defs>
</svg>
