<?xml version="1.0" encoding="utf-8" standalone="no"?>
<!DOCTYPE svg PUBLIC "-//W3C//DTD SVG 1.1//EN"
  "http://www.w3.org/Graphics/SVG/1.1/DTD/svg11.dtd">
<svg xmlns:xlink="http://www.w3.org/1999/xlink" width="576pt" height="360pt" viewBox="0 0 576 360" xmlns="http://www.w3.org/2000/svg" version="1.1">
 <metadata>
  <rdf:RDF xmlns:dc="http://purl.org/dc/elements/1.1/" xmlns:cc="http://creativecommons.org/ns#" xmlns:rdf="http://www.w3.org/1999/02/22-rdf-syntax-ns#">
   <cc:Work>
    <dc:type rdf:resource="http://purl.org/dc/dcmitype/StillImage"/>
    <dc:date>2026-06-15T11:52:56.452154</dc:date>
    <dc:format>image/svg+xml</dc:format>
    <dc:creator>
     <cc:Agent>
      <dc:title>Matplotlib v3.11.0, https://matplotlib.org/</dc:title>
     </cc:Agent>
    </dc:creator>
   </cc:Work>
  </rdf:RDF>
 </metadata>
 <defs>
  <style type="text/css">*{stroke-linejoin: round; stroke-linecap: butt}</style>
 </defs>
 <g id="figure_1">
  <g id="patch_1">
   <path d="M 0 360 
L 576 360 
L 576 0 
L 0 0 
z
" style="fill: #ffffff"/>
  </g>
  <g id="axes_1">
   <g id="patch_2">
    <path d="M 52.218672 315.676562 
L 565.2 315.676562 
L 565.2 10.8 
L 52.218672 10.8 
z
" style="fill: #ffffff"/>
   </g>
   <g id="matplotlib.axis_1">
    <g id="xtick_1">
     <g id="line2d_1">
      <defs>
       <path id="mb31f1ffd84" d="M 0 0 
L 0 3.5 
" style="stroke: #262626; stroke-width: 0.8"/>
      </defs>
      <g>
       <use xlink:href="#mb31f1ffd84" x="103.516805" y="315.676562" style="fill: #262626; stroke: #262626; stroke-width: 0.8"/>
      </g>
     </g>
     <g id="text_1">
      <!-- 1 -->
      <g style="fill: #262626" transform="translate(100.736336 329.956836) scale(0.1 -0.1)">
       <defs>
        <path id="ArialMT-14" d="M 2384 0 
L 1822 0 
L 1822 3584 
Q 1619 3391 1289 3197 
Q 959 3003 697 2906 
L 697 3450 
Q 1169 3672 1522 3987 
Q 1875 4303 2022 4600 
L 2384 4600 
L 2384 0 
z
" transform="scale(0.015625)"/>
       </defs>
       <use xlink:href="#ArialMT-14"/>
      </g>
     </g>
    </g>
    <g id="xtick_2">
     <g id="line2d_2">
      <g>
       <use xlink:href="#mb31f1ffd84" x="206.11307" y="315.676562" style="fill: #262626; stroke: #262626; stroke-width: 0.8"/>
      </g>
     </g>
     <g id="text_2">
      <!-- 2 -->
      <g style="fill: #262626" transform="translate(203.332602 329.956836) scale(0.1 -0.1)">
       <defs>
        <path id="ArialMT-15" d="M 3222 541 
L 3222 0 
L 194 0 
Q 188 203 259 391 
Q 375 700 629 1000 
Q 884 1300 1366 1694 
Q 2113 2306 2375 2664 
Q 2638 3022 2638 3341 
Q 2638 3675 2398 3904 
Q 2159 4134 1775 4134 
Q 1369 4134 1125 3890 
Q 881 3647 878 3216 
L 300 3275 
Q 359 3922 746 4261 
Q 1134 4600 1788 4600 
Q 2447 4600 2831 4234 
Q 3216 3869 3216 3328 
Q 3216 3053 3103 2787 
Q 2991 2522 2730 2228 
Q 2469 1934 1863 1422 
Q 1356 997 1212 845 
Q 1069 694 975 541 
L 3222 541 
z
" transform="scale(0.015625)"/>
       </defs>
       <use xlink:href="#ArialMT-15"/>
      </g>
     </g>
    </g>
    <g id="xtick_3">
     <g id="line2d_3">
      <g>
       <use xlink:href="#mb31f1ffd84" x="308.709336" y="315.676562" style="fill: #262626; stroke: #262626; stroke-width: 0.8"/>
      </g>
     </g>
     <g id="text_3">
      <!-- 3 -->
      <g style="fill: #262626" transform="translate(305.928867 329.956836) scale(0.1 -0.1)">
       <defs>
        <path id="ArialMT-16" d="M 269 1209 
L 831 1284 
Q 928 806 1161 595 
Q 1394 384 1728 384 
Q 2125 384 2398 659 
Q 2672 934 2672 1341 
Q 2672 1728 2419 1979 
Q 2166 2231 1775 2231 
Q 1616 2231 1378 2169 
L 1441 2663 
Q 1497 2656 1531 2656 
Q 1891 2656 2178 2843 
Q 2466 3031 2466 3422 
Q 2466 3731 2256 3934 
Q 2047 4138 1716 4138 
Q 1388 4138 1169 3931 
Q 950 3725 888 3313 
L 325 3413 
Q 428 3978 793 4289 
Q 1159 4600 1703 4600 
Q 2078 4600 2393 4439 
Q 2709 4278 2876 4000 
Q 3044 3722 3044 3409 
Q 3044 3113 2884 2869 
Q 2725 2625 2413 2481 
Q 2819 2388 3044 2092 
Q 3269 1797 3269 1353 
Q 3269 753 2831 336 
Q 2394 -81 1725 -81 
Q 1122 -81 723 278 
Q 325 638 269 1209 
z
" transform="scale(0.015625)"/>
       </defs>
       <use xlink:href="#ArialMT-16"/>
      </g>
     </g>
    </g>
    <g id="xtick_4">
     <g id="line2d_4">
      <g>
       <use xlink:href="#mb31f1ffd84" x="411.305602" y="315.676562" style="fill: #262626; stroke: #262626; stroke-width: 0.8"/>
      </g>
     </g>
     <g id="text_4">
      <!-- 4 -->
      <g style="fill: #262626" transform="translate(408.525133 329.956836) scale(0.1 -0.1)">
       <defs>
        <path id="ArialMT-17" d="M 2069 0 
L 2069 1097 
L 81 1097 
L 81 1613 
L 2172 4581 
L 2631 4581 
L 2631 1613 
L 3250 1613 
L 3250 1097 
L 2631 1097 
L 2631 0 
L 2069 0 
z
M 2069 1613 
L 2069 3678 
L 634 1613 
L 2069 1613 
z
" transform="scale(0.015625)"/>
       </defs>
       <use xlink:href="#ArialMT-17"/>
      </g>
     </g>
    </g>
    <g id="xtick_5">
     <g id="line2d_5">
      <g>
       <use xlink:href="#mb31f1ffd84" x="513.901867" y="315.676562" style="fill: #262626; stroke: #262626; stroke-width: 0.8"/>
      </g>
     </g>
     <g id="text_5">
      <!-- 5 -->
      <g style="fill: #262626" transform="translate(511.121398 329.956836) scale(0.1 -0.1)">
       <defs>
        <path id="ArialMT-18" d="M 266 1200 
L 856 1250 
Q 922 819 1161 601 
Q 1400 384 1738 384 
Q 2144 384 2425 690 
Q 2706 997 2706 1503 
Q 2706 1984 2436 2262 
Q 2166 2541 1728 2541 
Q 1456 2541 1237 2417 
Q 1019 2294 894 2097 
L 366 2166 
L 809 4519 
L 3088 4519 
L 3088 3981 
L 1259 3981 
L 1013 2750 
Q 1425 3038 1878 3038 
Q 2478 3038 2890 2622 
Q 3303 2206 3303 1553 
Q 3303 931 2941 478 
Q 2500 -78 1738 -78 
Q 1113 -78 717 272 
Q 322 622 266 1200 
z
" transform="scale(0.015625)"/>
       </defs>
       <use xlink:href="#ArialMT-18"/>
      </g>
     </g>
    </g>
    <g id="text_6">
     <!-- Targets count (targetId) -->
     <g style="fill: #262626" transform="translate(236.346836 346.253711) scale(0.14 -0.14)">
      <defs>
       <path id="ArialMT-37" d="M 1659 0 
L 1659 4041 
L 150 4041 
L 150 4581 
L 3781 4581 
L 3781 4041 
L 2266 4041 
L 2266 0 
L 1659 0 
z
" transform="scale(0.015625)"/>
       <path id="ArialMT-44" d="M 2588 409 
Q 2275 144 1986 34 
Q 1697 -75 1366 -75 
Q 819 -75 525 192 
Q 231 459 231 875 
Q 231 1119 342 1320 
Q 453 1522 633 1644 
Q 813 1766 1038 1828 
Q 1203 1872 1538 1913 
Q 2219 1994 2541 2106 
Q 2544 2222 2544 2253 
Q 2544 2597 2384 2738 
Q 2169 2928 1744 2928 
Q 1347 2928 1158 2789 
Q 969 2650 878 2297 
L 328 2372 
Q 403 2725 575 2942 
Q 747 3159 1072 3276 
Q 1397 3394 1825 3394 
Q 2250 3394 2515 3294 
Q 2781 3194 2906 3042 
Q 3031 2891 3081 2659 
Q 3109 2516 3109 2141 
L 3109 1391 
Q 3109 606 3145 398 
Q 3181 191 3288 0 
L 2700 0 
Q 2613 175 2588 409 
z
M 2541 1666 
Q 2234 1541 1622 1453 
Q 1275 1403 1131 1340 
Q 988 1278 909 1158 
Q 831 1038 831 891 
Q 831 666 1001 516 
Q 1172 366 1500 366 
Q 1825 366 2078 508 
Q 2331 650 2450 897 
Q 2541 1088 2541 1459 
L 2541 1666 
z
" transform="scale(0.015625)"/>
       <path id="ArialMT-55" d="M 416 0 
L 416 3319 
L 922 3319 
L 922 2816 
Q 1116 3169 1280 3281 
Q 1444 3394 1641 3394 
Q 1925 3394 2219 3213 
L 2025 2691 
Q 1819 2813 1613 2813 
Q 1428 2813 1281 2702 
Q 1134 2591 1072 2394 
Q 978 2094 978 1738 
L 978 0 
L 416 0 
z
" transform="scale(0.015625)"/>
       <path id="ArialMT-4a" d="M 319 -275 
L 866 -356 
Q 900 -609 1056 -725 
Q 1266 -881 1628 -881 
Q 2019 -881 2231 -725 
Q 2444 -569 2519 -288 
Q 2563 -116 2559 434 
Q 2191 0 1641 0 
Q 956 0 581 494 
Q 206 988 206 1678 
Q 206 2153 378 2554 
Q 550 2956 876 3175 
Q 1203 3394 1644 3394 
Q 2231 3394 2613 2919 
L 2613 3319 
L 3131 3319 
L 3131 450 
Q 3131 -325 2973 -648 
Q 2816 -972 2473 -1159 
Q 2131 -1347 1631 -1347 
Q 1038 -1347 672 -1080 
Q 306 -813 319 -275 
z
M 784 1719 
Q 784 1066 1043 766 
Q 1303 466 1694 466 
Q 2081 466 2343 764 
Q 2606 1063 2606 1700 
Q 2606 2309 2336 2618 
Q 2066 2928 1684 2928 
Q 1309 2928 1046 2623 
Q 784 2319 784 1719 
z
" transform="scale(0.015625)"/>
       <path id="ArialMT-48" d="M 2694 1069 
L 3275 997 
Q 3138 488 2766 206 
Q 2394 -75 1816 -75 
Q 1088 -75 661 373 
Q 234 822 234 1631 
Q 234 2469 665 2931 
Q 1097 3394 1784 3394 
Q 2450 3394 2872 2941 
Q 3294 2488 3294 1666 
Q 3294 1616 3291 1516 
L 816 1516 
Q 847 969 1125 678 
Q 1403 388 1819 388 
Q 2128 388 2347 550 
Q 2566 713 2694 1069 
z
M 847 1978 
L 2700 1978 
Q 2663 2397 2488 2606 
Q 2219 2931 1791 2931 
Q 1403 2931 1139 2672 
Q 875 2413 847 1978 
z
" transform="scale(0.015625)"/>
       <path id="ArialMT-57" d="M 1650 503 
L 1731 6 
Q 1494 -44 1306 -44 
Q 1000 -44 831 53 
Q 663 150 594 308 
Q 525 466 525 972 
L 525 2881 
L 113 2881 
L 113 3319 
L 525 3319 
L 525 4141 
L 1084 4478 
L 1084 3319 
L 1650 3319 
L 1650 2881 
L 1084 2881 
L 1084 941 
Q 1084 700 1114 631 
Q 1144 563 1211 522 
Q 1278 481 1403 481 
Q 1497 481 1650 503 
z
" transform="scale(0.015625)"/>
       <path id="ArialMT-56" d="M 197 991 
L 753 1078 
Q 800 744 1014 566 
Q 1228 388 1613 388 
Q 2000 388 2187 545 
Q 2375 703 2375 916 
Q 2375 1106 2209 1216 
Q 2094 1291 1634 1406 
Q 1016 1563 777 1677 
Q 538 1791 414 1992 
Q 291 2194 291 2438 
Q 291 2659 392 2848 
Q 494 3038 669 3163 
Q 800 3259 1026 3326 
Q 1253 3394 1513 3394 
Q 1903 3394 2198 3281 
Q 2494 3169 2634 2976 
Q 2775 2784 2828 2463 
L 2278 2388 
Q 2241 2644 2061 2787 
Q 1881 2931 1553 2931 
Q 1166 2931 1000 2803 
Q 834 2675 834 2503 
Q 834 2394 903 2306 
Q 972 2216 1119 2156 
Q 1203 2125 1616 2013 
Q 2213 1853 2448 1751 
Q 2684 1650 2818 1456 
Q 2953 1263 2953 975 
Q 2953 694 2789 445 
Q 2625 197 2315 61 
Q 2006 -75 1616 -75 
Q 969 -75 630 194 
Q 291 463 197 991 
z
" transform="scale(0.015625)"/>
       <path id="ArialMT-3" transform="scale(0.015625)"/>
       <path id="ArialMT-46" d="M 2588 1216 
L 3141 1144 
Q 3050 572 2676 248 
Q 2303 -75 1759 -75 
Q 1078 -75 664 370 
Q 250 816 250 1647 
Q 250 2184 428 2587 
Q 606 2991 970 3192 
Q 1334 3394 1763 3394 
Q 2303 3394 2647 3120 
Q 2991 2847 3088 2344 
L 2541 2259 
Q 2463 2594 2264 2762 
Q 2066 2931 1784 2931 
Q 1359 2931 1093 2626 
Q 828 2322 828 1663 
Q 828 994 1084 691 
Q 1341 388 1753 388 
Q 2084 388 2306 591 
Q 2528 794 2588 1216 
z
" transform="scale(0.015625)"/>
       <path id="ArialMT-52" d="M 213 1659 
Q 213 2581 725 3025 
Q 1153 3394 1769 3394 
Q 2453 3394 2887 2945 
Q 3322 2497 3322 1706 
Q 3322 1066 3130 698 
Q 2938 331 2570 128 
Q 2203 -75 1769 -75 
Q 1072 -75 642 372 
Q 213 819 213 1659 
z
M 791 1659 
Q 791 1022 1069 705 
Q 1347 388 1769 388 
Q 2188 388 2466 706 
Q 2744 1025 2744 1678 
Q 2744 2294 2464 2611 
Q 2184 2928 1769 2928 
Q 1347 2928 1069 2612 
Q 791 2297 791 1659 
z
" transform="scale(0.015625)"/>
       <path id="ArialMT-58" d="M 2597 0 
L 2597 488 
Q 2209 -75 1544 -75 
Q 1250 -75 995 37 
Q 741 150 617 320 
Q 494 491 444 738 
Q 409 903 409 1263 
L 409 3319 
L 972 3319 
L 972 1478 
Q 972 1038 1006 884 
Q 1059 663 1231 536 
Q 1403 409 1656 409 
Q 1909 409 2131 539 
Q 2353 669 2445 892 
Q 2538 1116 2538 1541 
L 2538 3319 
L 3100 3319 
L 3100 0 
L 2597 0 
z
" transform="scale(0.015625)"/>
       <path id="ArialMT-51" d="M 422 0 
L 422 3319 
L 928 3319 
L 928 2847 
Q 1294 3394 1984 3394 
Q 2284 3394 2536 3286 
Q 2788 3178 2913 3003 
Q 3038 2828 3088 2588 
Q 3119 2431 3119 2041 
L 3119 0 
L 2556 0 
L 2556 2019 
Q 2556 2363 2490 2533 
Q 2425 2703 2258 2804 
Q 2091 2906 1866 2906 
Q 1506 2906 1245 2678 
Q 984 2450 984 1813 
L 984 0 
L 422 0 
z
" transform="scale(0.015625)"/>
       <path id="ArialMT-b" d="M 1497 -1347 
Q 1031 -759 709 28 
Q 388 816 388 1659 
Q 388 2403 628 3084 
Q 909 3875 1497 4659 
L 1900 4659 
Q 1522 4009 1400 3731 
Q 1209 3300 1100 2831 
Q 966 2247 966 1656 
Q 966 153 1900 -1347 
L 1497 -1347 
z
" transform="scale(0.015625)"/>
       <path id="ArialMT-2c" d="M 597 0 
L 597 4581 
L 1203 4581 
L 1203 0 
L 597 0 
z
" transform="scale(0.015625)"/>
       <path id="ArialMT-47" d="M 2575 0 
L 2575 419 
Q 2259 -75 1647 -75 
Q 1250 -75 917 144 
Q 584 363 401 755 
Q 219 1147 219 1656 
Q 219 2153 384 2558 
Q 550 2963 881 3178 
Q 1213 3394 1622 3394 
Q 1922 3394 2156 3267 
Q 2391 3141 2538 2938 
L 2538 4581 
L 3097 4581 
L 3097 0 
L 2575 0 
z
M 797 1656 
Q 797 1019 1065 703 
Q 1334 388 1700 388 
Q 2069 388 2326 689 
Q 2584 991 2584 1609 
Q 2584 2291 2321 2609 
Q 2059 2928 1675 2928 
Q 1300 2928 1048 2622 
Q 797 2316 797 1656 
z
" transform="scale(0.015625)"/>
       <path id="ArialMT-c" d="M 791 -1347 
L 388 -1347 
Q 1322 153 1322 1656 
Q 1322 2244 1188 2822 
Q 1081 3291 891 3722 
Q 769 4003 388 4659 
L 791 4659 
Q 1378 3875 1659 3084 
Q 1900 2403 1900 1659 
Q 1900 816 1576 28 
Q 1253 -759 791 -1347 
z
" transform="scale(0.015625)"/>
      </defs>
      <use xlink:href="#ArialMT-37"/>
      <use xlink:href="#ArialMT-44" transform="translate(50 0)"/>
      <use xlink:href="#ArialMT-55" transform="translate(105.609375 0)"/>
      <use xlink:href="#ArialMT-4a" transform="translate(138.90625 0)"/>
      <use xlink:href="#ArialMT-48" transform="translate(194.515625 0)"/>
      <use xlink:href="#ArialMT-57" transform="translate(250.125 0)"/>
      <use xlink:href="#ArialMT-56" transform="translate(277.90625 0)"/>
      <use xlink:href="#ArialMT-3" transform="translate(327.90625 0)"/>
      <use xlink:href="#ArialMT-46" transform="translate(355.6875 0)"/>
      <use xlink:href="#ArialMT-52" transform="translate(405.6875 0)"/>
      <use xlink:href="#ArialMT-58" transform="translate(461.296875 0)"/>
      <use xlink:href="#ArialMT-51" transform="translate(516.90625 0)"/>
      <use xlink:href="#ArialMT-57" transform="translate(572.515625 0)"/>
      <use xlink:href="#ArialMT-3" transform="translate(600.296875 0)"/>
      <use xlink:href="#ArialMT-b" transform="translate(628.078125 0)"/>
      <use xlink:href="#ArialMT-57" transform="translate(661.375 0)"/>
      <use xlink:href="#ArialMT-44" transform="translate(689.15625 0)"/>
      <use xlink:href="#ArialMT-55" transform="translate(744.765625 0)"/>
      <use xlink:href="#ArialMT-4a" transform="translate(778.0625 0)"/>
      <use xlink:href="#ArialMT-48" transform="translate(833.671875 0)"/>
      <use xlink:href="#ArialMT-57" transform="translate(889.28125 0)"/>
      <use xlink:href="#ArialMT-2c" transform="translate(917.0625 0)"/>
      <use xlink:href="#ArialMT-47" transform="translate(944.84375 0)"/>
      <use xlink:href="#ArialMT-c" transform="translate(1000.453125 0)"/>
     </g>
    </g>
   </g>
   <g id="matplotlib.axis_2">
    <g id="ytick_1">
     <g id="line2d_6">
      <defs>
       <path id="m74224960f8" d="M 0 0 
L -3.5 0 
" style="stroke: #262626; stroke-width: 0.8"/>
      </defs>
      <g>
       <use xlink:href="#m74224960f8" x="52.218672" y="272.42856" style="fill: #262626; stroke: #262626; stroke-width: 0.8"/>
      </g>
     </g>
     <g id="text_7">
      <!-- 0 -->
      <g style="fill: #262626" transform="translate(39.657734 276.068697) scale(0.1 -0.1)">
       <defs>
        <path id="ArialMT-13" d="M 266 2259 
Q 266 3072 433 3567 
Q 600 4063 929 4331 
Q 1259 4600 1759 4600 
Q 2128 4600 2406 4451 
Q 2684 4303 2865 4023 
Q 3047 3744 3150 3342 
Q 3253 2941 3253 2259 
Q 3253 1453 3087 958 
Q 2922 463 2592 192 
Q 2263 -78 1759 -78 
Q 1097 -78 719 397 
Q 266 969 266 2259 
z
M 844 2259 
Q 844 1131 1108 757 
Q 1372 384 1759 384 
Q 2147 384 2411 759 
Q 2675 1134 2675 2259 
Q 2675 3391 2411 3762 
Q 2147 4134 1753 4134 
Q 1366 4134 1134 3806 
Q 844 3388 844 2259 
z
" transform="scale(0.015625)"/>
       </defs>
       <use xlink:href="#ArialMT-13"/>
      </g>
     </g>
    </g>
    <g id="ytick_2">
     <g id="line2d_7">
      <g>
       <use xlink:href="#m74224960f8" x="52.218672" y="209.729847" style="fill: #262626; stroke: #262626; stroke-width: 0.8"/>
      </g>
     </g>
     <g id="text_8">
      <!-- 200 -->
      <g style="fill: #262626" transform="translate(28.535859 213.369983) scale(0.1 -0.1)">
       <use xlink:href="#ArialMT-15"/>
       <use xlink:href="#ArialMT-13" transform="translate(55.609375 0)"/>
       <use xlink:href="#ArialMT-13" transform="translate(111.21875 0)"/>
      </g>
     </g>
    </g>
    <g id="ytick_3">
     <g id="line2d_8">
      <g>
       <use xlink:href="#m74224960f8" x="52.218672" y="147.031133" style="fill: #262626; stroke: #262626; stroke-width: 0.8"/>
      </g>
     </g>
     <g id="text_9">
      <!-- 400 -->
      <g style="fill: #262626" transform="translate(28.535859 150.67127) scale(0.1 -0.1)">
       <use xlink:href="#ArialMT-17"/>
       <use xlink:href="#ArialMT-13" transform="translate(55.609375 0)"/>
       <use xlink:href="#ArialMT-13" transform="translate(111.21875 0)"/>
      </g>
     </g>
    </g>
    <g id="ytick_4">
     <g id="line2d_9">
      <g>
       <use xlink:href="#m74224960f8" x="52.218672" y="84.33242" style="fill: #262626; stroke: #262626; stroke-width: 0.8"/>
      </g>
     </g>
     <g id="text_10">
      <!-- 600 -->
      <g style="fill: #262626" transform="translate(28.535859 87.972557) scale(0.1 -0.1)">
       <defs>
        <path id="ArialMT-19" d="M 3184 3459 
L 2625 3416 
Q 2550 3747 2413 3897 
Q 2184 4138 1850 4138 
Q 1581 4138 1378 3988 
Q 1113 3794 959 3422 
Q 806 3050 800 2363 
Q 1003 2672 1297 2822 
Q 1591 2972 1913 2972 
Q 2475 2972 2870 2558 
Q 3266 2144 3266 1488 
Q 3266 1056 3080 686 
Q 2894 316 2569 119 
Q 2244 -78 1831 -78 
Q 1128 -78 684 439 
Q 241 956 241 2144 
Q 241 3472 731 4075 
Q 1159 4600 1884 4600 
Q 2425 4600 2770 4297 
Q 3116 3994 3184 3459 
z
M 888 1484 
Q 888 1194 1011 928 
Q 1134 663 1356 523 
Q 1578 384 1822 384 
Q 2178 384 2434 671 
Q 2691 959 2691 1453 
Q 2691 1928 2437 2201 
Q 2184 2475 1800 2475 
Q 1419 2475 1153 2201 
Q 888 1928 888 1484 
z
" transform="scale(0.015625)"/>
       </defs>
       <use xlink:href="#ArialMT-19"/>
       <use xlink:href="#ArialMT-13" transform="translate(55.609375 0)"/>
       <use xlink:href="#ArialMT-13" transform="translate(111.21875 0)"/>
      </g>
     </g>
    </g>
    <g id="ytick_5">
     <g id="line2d_10">
      <g>
       <use xlink:href="#m74224960f8" x="52.218672" y="21.633707" style="fill: #262626; stroke: #262626; stroke-width: 0.8"/>
      </g>
     </g>
     <g id="text_11">
      <!-- 800 -->
      <g style="fill: #262626" transform="translate(28.535859 25.273843) scale(0.1 -0.1)">
       <defs>
        <path id="ArialMT-1b" d="M 1131 2484 
Q 781 2613 612 2850 
Q 444 3088 444 3419 
Q 444 3919 803 4259 
Q 1163 4600 1759 4600 
Q 2359 4600 2725 4251 
Q 3091 3903 3091 3403 
Q 3091 3084 2923 2848 
Q 2756 2613 2416 2484 
Q 2838 2347 3058 2040 
Q 3278 1734 3278 1309 
Q 3278 722 2862 322 
Q 2447 -78 1769 -78 
Q 1091 -78 675 323 
Q 259 725 259 1325 
Q 259 1772 486 2073 
Q 713 2375 1131 2484 
z
M 1019 3438 
Q 1019 3113 1228 2906 
Q 1438 2700 1772 2700 
Q 2097 2700 2305 2904 
Q 2513 3109 2513 3406 
Q 2513 3716 2298 3927 
Q 2084 4138 1766 4138 
Q 1444 4138 1231 3931 
Q 1019 3725 1019 3438 
z
M 838 1322 
Q 838 1081 952 856 
Q 1066 631 1291 507 
Q 1516 384 1775 384 
Q 2178 384 2440 643 
Q 2703 903 2703 1303 
Q 2703 1709 2433 1975 
Q 2163 2241 1756 2241 
Q 1359 2241 1098 1978 
Q 838 1716 838 1322 
z
" transform="scale(0.015625)"/>
       </defs>
       <use xlink:href="#ArialMT-1b"/>
       <use xlink:href="#ArialMT-13" transform="translate(55.609375 0)"/>
       <use xlink:href="#ArialMT-13" transform="translate(111.21875 0)"/>
      </g>
     </g>
    </g>
    <g id="text_12">
     <!-- Diseases count (diseaseId) -->
     <g style="fill: #262626" transform="translate(21.589297 247.66375) rotate(-90) scale(0.14 -0.14)">
      <defs>
       <path id="ArialMT-27" d="M 494 0 
L 494 4581 
L 2072 4581 
Q 2606 4581 2888 4516 
Q 3281 4425 3559 4188 
Q 3922 3881 4101 3404 
Q 4281 2928 4281 2316 
Q 4281 1794 4159 1391 
Q 4038 988 3847 723 
Q 3656 459 3429 307 
Q 3203 156 2883 78 
Q 2563 0 2147 0 
L 494 0 
z
M 1100 541 
L 2078 541 
Q 2531 541 2789 625 
Q 3047 709 3200 863 
Q 3416 1078 3536 1442 
Q 3656 1806 3656 2325 
Q 3656 3044 3420 3430 
Q 3184 3816 2847 3947 
Q 2603 4041 2063 4041 
L 1100 4041 
L 1100 541 
z
" transform="scale(0.015625)"/>
       <path id="ArialMT-4c" d="M 425 3934 
L 425 4581 
L 988 4581 
L 988 3934 
L 425 3934 
z
M 425 0 
L 425 3319 
L 988 3319 
L 988 0 
L 425 0 
z
" transform="scale(0.015625)"/>
      </defs>
      <use xlink:href="#ArialMT-27"/>
      <use xlink:href="#ArialMT-4c" transform="translate(72.21875 0)"/>
      <use xlink:href="#ArialMT-56" transform="translate(94.4375 0)"/>
      <use xlink:href="#ArialMT-48" transform="translate(144.4375 0)"/>
      <use xlink:href="#ArialMT-44" transform="translate(200.046875 0)"/>
      <use xlink:href="#ArialMT-56" transform="translate(255.65625 0)"/>
      <use xlink:href="#ArialMT-48" transform="translate(305.65625 0)"/>
      <use xlink:href="#ArialMT-56" transform="translate(361.265625 0)"/>
      <use xlink:href="#ArialMT-3" transform="translate(411.265625 0)"/>
      <use xlink:href="#ArialMT-46" transform="translate(439.046875 0)"/>
      <use xlink:href="#ArialMT-52" transform="translate(489.046875 0)"/>
      <use xlink:href="#ArialMT-58" transform="translate(544.65625 0)"/>
      <use xlink:href="#ArialMT-51" transform="translate(600.265625 0)"/>
      <use xlink:href="#ArialMT-57" transform="translate(655.875 0)"/>
      <use xlink:href="#ArialMT-3" transform="translate(683.65625 0)"/>
      <use xlink:href="#ArialMT-b" transform="translate(711.4375 0)"/>
      <use xlink:href="#ArialMT-47" transform="translate(744.734375 0)"/>
      <use xlink:href="#ArialMT-4c" transform="translate(800.34375 0)"/>
      <use xlink:href="#ArialMT-56" transform="translate(822.5625 0)"/>
      <use xlink:href="#ArialMT-48" transform="translate(872.5625 0)"/>
      <use xlink:href="#ArialMT-44" transform="translate(928.171875 0)"/>
      <use xlink:href="#ArialMT-56" transform="translate(983.78125 0)"/>
      <use xlink:href="#ArialMT-48" transform="translate(1033.78125 0)"/>
      <use xlink:href="#ArialMT-2c" transform="translate(1089.390625 0)"/>
      <use xlink:href="#ArialMT-47" transform="translate(1117.171875 0)"/>
      <use xlink:href="#ArialMT-c" transform="translate(1172.78125 0)"/>
     </g>
    </g>
   </g>
   <g id="FillBetweenPolyCollection_1">
    <defs>
     <path id="mea90f77dfb" d="M 106.903424 -73.040119 
L 100.130185 -73.040119 
L 96.640895 -75.689633 
L 91.144898 -78.339147 
L 83.759663 -80.98866 
L 75.459663 -83.638174 
L 67.990359 -86.287688 
L 63.258826 -88.937201 
L 62.478298 -91.586715 
L 65.609608 -94.236229 
L 71.470774 -96.885742 
L 78.396212 -99.535256 
L 84.965705 -102.18477 
L 90.385192 -104.834284 
L 94.448579 -107.483797 
L 97.289149 -110.133311 
L 99.154736 -112.782825 
L 100.299882 -115.432338 
L 100.960079 -118.081852 
L 101.343055 -120.731366 
L 101.609268 -123.380879 
L 101.853152 -126.030393 
L 102.104575 -128.679907 
L 102.352967 -131.32942 
L 102.578547 -133.978934 
L 102.772344 -136.628448 
L 102.938217 -139.277962 
L 103.083709 -141.927475 
L 103.21151 -144.576989 
L 103.318352 -147.226503 
L 103.399742 -149.876016 
L 103.454829 -152.52553 
L 103.487566 -155.175044 
L 103.504567 -157.824557 
L 103.512274 -160.474071 
L 103.515323 -163.123585 
L 103.516377 -165.773098 
L 103.516696 -168.422612 
L 103.51678 -171.072126 
L 103.5168 -173.721639 
L 103.516804 -176.371153 
L 103.516805 -179.020667 
L 103.516805 -181.670181 
L 103.516805 -184.319694 
L 103.516805 -186.969208 
L 103.516805 -189.618722 
L 103.516805 -192.268235 
L 103.516805 -194.917749 
L 103.516805 -197.567263 
L 103.516805 -200.216776 
L 103.516805 -202.86629 
L 103.516805 -205.515804 
L 103.516805 -208.165317 
L 103.516805 -210.814831 
L 103.516805 -213.464345 
L 103.516805 -216.113858 
L 103.516805 -218.763372 
L 103.516805 -221.412886 
L 103.516805 -224.0624 
L 103.516805 -226.711913 
L 103.516805 -229.361427 
L 103.516805 -232.010941 
L 103.516805 -234.660454 
L 103.516805 -237.309968 
L 103.516805 -239.959482 
L 103.516805 -242.608995 
L 103.516805 -245.258509 
L 103.516805 -247.908023 
L 103.516805 -250.557536 
L 103.516805 -253.20705 
L 103.516805 -255.856564 
L 103.516805 -258.506077 
L 103.516805 -261.155591 
L 103.516805 -263.805105 
L 103.516805 -266.454619 
L 103.516805 -269.104132 
L 103.516805 -271.753646 
L 103.516805 -274.40316 
L 103.516805 -277.052673 
L 103.516805 -279.702187 
L 103.516804 -282.351701 
L 103.516801 -285.001214 
L 103.516786 -287.650728 
L 103.51672 -290.300242 
L 103.516464 -292.949755 
L 103.515604 -295.599269 
L 103.513073 -298.248783 
L 103.506596 -300.898296 
L 103.492221 -303.54781 
L 103.464686 -306.197324 
L 103.419532 -308.846838 
L 103.356977 -311.496351 
L 103.28561 -314.145865 
L 103.222388 -316.795379 
L 103.186732 -319.444892 
L 103.191029 -322.094406 
L 103.233738 -324.74392 
L 103.300273 -327.393433 
L 103.370986 -330.042947 
L 103.430354 -332.692461 
L 103.471683 -335.341974 
L 103.561926 -335.341974 
L 103.561926 -335.341974 
L 103.603255 -332.692461 
L 103.662624 -330.042947 
L 103.733336 -327.393433 
L 103.799871 -324.74392 
L 103.84258 -322.094406 
L 103.846878 -319.444892 
L 103.811222 -316.795379 
L 103.747999 -314.145865 
L 103.676633 -311.496351 
L 103.614077 -308.846838 
L 103.568923 -306.197324 
L 103.541389 -303.54781 
L 103.527013 -300.898296 
L 103.520537 -298.248783 
L 103.518006 -295.599269 
L 103.517145 -292.949755 
L 103.51689 -290.300242 
L 103.516823 -287.650728 
L 103.516808 -285.001214 
L 103.516805 -282.351701 
L 103.516805 -279.702187 
L 103.516805 -277.052673 
L 103.516805 -274.40316 
L 103.516805 -271.753646 
L 103.516805 -269.104132 
L 103.516805 -266.454619 
L 103.516805 -263.805105 
L 103.516805 -261.155591 
L 103.516805 -258.506077 
L 103.516805 -255.856564 
L 103.516805 -253.20705 
L 103.516805 -250.557536 
L 103.516805 -247.908023 
L 103.516805 -245.258509 
L 103.516805 -242.608995 
L 103.516805 -239.959482 
L 103.516805 -237.309968 
L 103.516805 -234.660454 
L 103.516805 -232.010941 
L 103.516805 -229.361427 
L 103.516805 -226.711913 
L 103.516805 -224.0624 
L 103.516805 -221.412886 
L 103.516805 -218.763372 
L 103.516805 -216.113858 
L 103.516805 -213.464345 
L 103.516805 -210.814831 
L 103.516805 -208.165317 
L 103.516805 -205.515804 
L 103.516805 -202.86629 
L 103.516805 -200.216776 
L 103.516805 -197.567263 
L 103.516805 -194.917749 
L 103.516805 -192.268235 
L 103.516805 -189.618722 
L 103.516805 -186.969208 
L 103.516805 -184.319694 
L 103.516805 -181.670181 
L 103.516805 -179.020667 
L 103.516806 -176.371153 
L 103.516809 -173.721639 
L 103.516829 -171.072126 
L 103.516913 -168.422612 
L 103.517232 -165.773098 
L 103.518286 -163.123585 
L 103.521336 -160.474071 
L 103.529042 -157.824557 
L 103.546044 -155.175044 
L 103.57878 -152.52553 
L 103.633867 -149.876016 
L 103.715257 -147.226503 
L 103.822099 -144.576989 
L 103.949901 -141.927475 
L 104.095392 -139.277962 
L 104.261266 -136.628448 
L 104.455062 -133.978934 
L 104.680642 -131.32942 
L 104.929034 -128.679907 
L 105.180457 -126.030393 
L 105.424342 -123.380879 
L 105.690555 -120.731366 
L 106.073531 -118.081852 
L 106.733727 -115.432338 
L 107.878873 -112.782825 
L 109.74446 -110.133311 
L 112.58503 -107.483797 
L 116.648417 -104.834284 
L 122.067905 -102.18477 
L 128.637398 -99.535256 
L 135.562836 -96.885742 
L 141.424001 -94.236229 
L 144.555311 -91.586715 
L 143.774784 -88.937201 
L 139.04325 -86.287688 
L 131.573947 -83.638174 
L 123.273946 -80.98866 
L 115.888711 -78.339147 
L 110.392715 -75.689633 
L 106.903424 -73.040119 
z
" style="stroke: #2d2d2d; stroke-width: 1.25"/>
    </defs>
    <g clip-path="url(#p53bf61bac6)">
     <use xlink:href="#mea90f77dfb" x="0" y="360" style="fill: #90b6cf; stroke: #2d2d2d; stroke-width: 1.25"/>
    </g>
   </g>
   <g id="FillBetweenPolyCollection_2">
    <defs>
     <path id="m81d89dd01d" d="M 209.12554 -66.452122 
L 203.1006 -66.452122 
L 202.191193 -67.806589 
L 201.08138 -69.161056 
L 199.750827 -70.515523 
L 198.184161 -71.86999 
L 196.373117 -73.224458 
L 194.318644 -74.578925 
L 192.032728 -75.933392 
L 189.539745 -77.287859 
L 186.877106 -78.642326 
L 184.095036 -79.996794 
L 181.255375 -81.351261 
L 178.429376 -82.705728 
L 175.694601 -84.060195 
L 173.131077 -85.414662 
L 170.817 -86.76913 
L 168.824323 -88.123597 
L 167.214598 -89.478064 
L 166.035419 -90.832531 
L 165.317782 -92.186998 
L 165.074564 -93.541465 
L 165.300242 -94.895933 
L 165.971823 -96.2504 
L 167.050876 -97.604867 
L 168.486421 -98.959334 
L 170.21842 -100.313801 
L 172.181529 -101.668269 
L 174.308806 -103.022736 
L 176.535121 -104.377203 
L 178.800026 -105.73167 
L 181.049968 -107.086137 
L 183.239771 -108.440605 
L 185.333389 -109.795072 
L 187.304007 -111.149539 
L 189.133587 -112.504006 
L 190.811992 -113.858473 
L 192.335835 -115.212941 
L 193.707173 -116.567408 
L 194.932177 -117.921875 
L 196.019868 -119.276342 
L 196.980996 -120.630809 
L 197.82709 -121.985277 
L 198.569733 -123.339744 
L 199.220029 -124.694211 
L 199.788277 -126.048678 
L 200.283797 -127.403145 
L 200.714905 -128.757612 
L 201.088968 -130.11208 
L 201.412519 -131.466547 
L 201.691394 -132.821014 
L 201.930859 -134.175481 
L 202.135718 -135.529948 
L 202.310384 -136.884416 
L 202.458921 -138.238883 
L 202.585063 -139.59335 
L 202.692214 -140.947817 
L 202.783458 -142.302284 
L 202.861563 -143.656752 
L 202.929014 -145.011219 
L 202.988038 -146.365686 
L 203.040648 -147.720153 
L 203.088671 -149.07462 
L 203.133756 -150.429088 
L 203.177368 -151.783555 
L 203.220741 -153.138022 
L 203.264821 -154.492489 
L 203.310196 -155.846956 
L 203.357038 -157.201424 
L 203.405077 -158.555891 
L 203.453621 -159.910358 
L 203.501638 -161.264825 
L 203.547894 -162.619292 
L 203.591146 -163.973759 
L 203.630359 -165.328227 
L 203.664925 -166.682694 
L 203.694851 -168.037161 
L 203.720881 -169.391628 
L 203.744536 -170.746095 
L 203.768048 -172.100563 
L 203.794206 -173.45503 
L 203.826111 -174.809497 
L 203.866883 -176.163964 
L 203.919344 -177.518431 
L 203.985724 -178.872899 
L 204.067418 -180.227366 
L 204.164827 -181.581833 
L 204.277298 -182.9363 
L 204.403168 -184.290767 
L 204.539903 -185.645235 
L 204.684309 -186.999702 
L 204.832793 -188.354169 
L 204.981641 -189.708636 
L 205.12728 -191.063103 
L 205.26651 -192.417571 
L 205.396673 -193.772038 
L 205.515763 -195.126505 
L 205.622469 -196.480972 
L 205.716152 -197.835439 
L 205.796787 -199.189906 
L 205.864858 -200.544374 
L 206.361283 -200.544374 
L 206.361283 -200.544374 
L 206.429353 -199.189906 
L 206.509989 -197.835439 
L 206.603672 -196.480972 
L 206.710377 -195.126505 
L 206.829468 -193.772038 
L 206.959631 -192.417571 
L 207.098861 -191.063103 
L 207.2445 -189.708636 
L 207.393347 -188.354169 
L 207.541831 -186.999702 
L 207.686238 -185.645235 
L 207.822973 -184.290767 
L 207.948843 -182.9363 
L 208.061314 -181.581833 
L 208.158723 -180.227366 
L 208.240417 -178.872899 
L 208.306797 -177.518431 
L 208.359258 -176.163964 
L 208.40003 -174.809497 
L 208.431935 -173.45503 
L 208.458093 -172.100563 
L 208.481605 -170.746095 
L 208.50526 -169.391628 
L 208.53129 -168.037161 
L 208.561216 -166.682694 
L 208.595782 -165.328227 
L 208.634995 -163.973759 
L 208.678247 -162.619292 
L 208.724503 -161.264825 
L 208.77252 -159.910358 
L 208.821064 -158.555891 
L 208.869103 -157.201424 
L 208.915945 -155.846956 
L 208.961319 -154.492489 
L 209.005399 -153.138022 
L 209.048772 -151.783555 
L 209.092384 -150.429088 
L 209.13747 -149.07462 
L 209.185492 -147.720153 
L 209.238103 -146.365686 
L 209.297127 -145.011219 
L 209.364577 -143.656752 
L 209.442683 -142.302284 
L 209.533926 -140.947817 
L 209.641078 -139.59335 
L 209.767219 -138.238883 
L 209.915757 -136.884416 
L 210.090423 -135.529948 
L 210.295282 -134.175481 
L 210.534747 -132.821014 
L 210.813622 -131.466547 
L 211.137173 -130.11208 
L 211.511236 -128.757612 
L 211.942344 -127.403145 
L 212.437864 -126.048678 
L 213.006111 -124.694211 
L 213.656408 -123.339744 
L 214.399051 -121.985277 
L 215.245145 -120.630809 
L 216.206272 -119.276342 
L 217.293964 -117.921875 
L 218.518968 -116.567408 
L 219.890305 -115.212941 
L 221.414148 -113.858473 
L 223.092554 -112.504006 
L 224.922133 -111.149539 
L 226.892751 -109.795072 
L 228.986369 -108.440605 
L 231.176172 -107.086137 
L 233.426115 -105.73167 
L 235.69102 -104.377203 
L 237.917334 -103.022736 
L 240.044612 -101.668269 
L 242.00772 -100.313801 
L 243.73972 -98.959334 
L 245.175265 -97.604867 
L 246.254317 -96.2504 
L 246.925899 -94.895933 
L 247.151577 -93.541465 
L 246.908359 -92.186998 
L 246.190722 -90.832531 
L 245.011543 -89.478064 
L 243.401818 -88.123597 
L 241.409141 -86.76913 
L 239.095063 -85.414662 
L 236.531539 -84.060195 
L 233.796765 -82.705728 
L 230.970766 -81.351261 
L 228.131104 -79.996794 
L 225.349035 -78.642326 
L 222.686396 -77.287859 
L 220.193413 -75.933392 
L 217.907497 -74.578925 
L 215.853023 -73.224458 
L 214.04198 -71.86999 
L 212.475313 -70.515523 
L 211.144761 -69.161056 
L 210.034948 -67.806589 
L 209.12554 -66.452122 
z
" style="stroke: #2d2d2d; stroke-width: 1.25"/>
    </defs>
    <g clip-path="url(#p53bf61bac6)">
     <use xlink:href="#m81d89dd01d" x="0" y="360" style="fill: #6c9dbf; stroke: #2d2d2d; stroke-width: 1.25"/>
    </g>
   </g>
   <g id="FillBetweenPolyCollection_3">
    <defs>
     <path id="m5da880b14f" d="M 312.482964 -58.181463 
L 304.935708 -58.181463 
L 304.210825 -59.500352 
L 303.384193 -60.81924 
L 302.449621 -62.138129 
L 301.4022 -63.457018 
L 300.238647 -64.775907 
L 298.957649 -66.094795 
L 297.560186 -67.413684 
L 296.049808 -68.732573 
L 294.432859 -70.051461 
L 292.718628 -71.37035 
L 290.919405 -72.689239 
L 289.050434 -74.008127 
L 287.129766 -75.327016 
L 285.177987 -76.645905 
L 283.217839 -77.964794 
L 281.273748 -79.283682 
L 279.371248 -80.602571 
L 277.536357 -81.92146 
L 275.794892 -83.240348 
L 274.171784 -84.559237 
L 272.690401 -85.878126 
L 271.371911 -87.197014 
L 270.234724 -88.515903 
L 269.294027 -89.834792 
L 268.561427 -91.15368 
L 268.04473 -92.472569 
L 267.747846 -93.791458 
L 267.67083 -95.110347 
L 267.810038 -96.429235 
L 268.158402 -97.748124 
L 268.705787 -99.067013 
L 269.439415 -100.385901 
L 270.344337 -101.70479 
L 271.403915 -103.023679 
L 272.600304 -104.342567 
L 273.914909 -105.661456 
L 275.328799 -106.980345 
L 276.82307 -108.299234 
L 278.379149 -109.618122 
L 279.979034 -110.937011 
L 281.605485 -112.2559 
L 283.242154 -113.574788 
L 284.873673 -114.893677 
L 286.485712 -116.212566 
L 288.065008 -117.531454 
L 289.599383 -118.850343 
L 291.077757 -120.169232 
L 292.490158 -121.48812 
L 293.827739 -122.807009 
L 295.082805 -124.125898 
L 296.248841 -125.444787 
L 297.320553 -126.763675 
L 298.293909 -128.082564 
L 299.166177 -129.401453 
L 299.93596 -130.720341 
L 300.60322 -132.03923 
L 301.169283 -133.358119 
L 301.636835 -134.677007 
L 302.009881 -135.995896 
L 302.293693 -137.314785 
L 302.494724 -138.633674 
L 302.620495 -139.952562 
L 302.679465 -141.271451 
L 302.680863 -142.59034 
L 302.634507 -143.909228 
L 302.550606 -145.228117 
L 302.439543 -146.547006 
L 302.311656 -147.865894 
L 302.177009 -149.184783 
L 302.04518 -150.503672 
L 301.925045 -151.82256 
L 301.824595 -153.141449 
L 301.75077 -154.460338 
L 301.709323 -155.779227 
L 301.704727 -157.098115 
L 301.740109 -158.417004 
L 301.817238 -159.735893 
L 301.936549 -161.054781 
L 302.097202 -162.37367 
L 302.297191 -163.692559 
L 302.533471 -165.011447 
L 302.802123 -166.330336 
L 303.098532 -167.649225 
L 303.417579 -168.968114 
L 303.753835 -170.287002 
L 304.101756 -171.605891 
L 304.455857 -172.92478 
L 304.810877 -174.243668 
L 305.161922 -175.562557 
L 305.504575 -176.881446 
L 305.834982 -178.200334 
L 306.14991 -179.519223 
L 306.446776 -180.838112 
L 306.723649 -182.157001 
L 306.979227 -183.475889 
L 307.212801 -184.794778 
L 307.424197 -186.113667 
L 307.613709 -187.432555 
L 307.782029 -188.751444 
L 309.636643 -188.751444 
L 309.636643 -188.751444 
L 309.804962 -187.432555 
L 309.994475 -186.113667 
L 310.205871 -184.794778 
L 310.439445 -183.475889 
L 310.695023 -182.157001 
L 310.971895 -180.838112 
L 311.268762 -179.519223 
L 311.58369 -178.200334 
L 311.914097 -176.881446 
L 312.25675 -175.562557 
L 312.607795 -174.243668 
L 312.962815 -172.92478 
L 313.316916 -171.605891 
L 313.664836 -170.287002 
L 314.001093 -168.968114 
L 314.32014 -167.649225 
L 314.616549 -166.330336 
L 314.885201 -165.011447 
L 315.121481 -163.692559 
L 315.32147 -162.37367 
L 315.482123 -161.054781 
L 315.601434 -159.735893 
L 315.678563 -158.417004 
L 315.713945 -157.098115 
L 315.709349 -155.779227 
L 315.667902 -154.460338 
L 315.594077 -153.141449 
L 315.493627 -151.82256 
L 315.373492 -150.503672 
L 315.241662 -149.184783 
L 315.107016 -147.865894 
L 314.979129 -146.547006 
L 314.868066 -145.228117 
L 314.784165 -143.909228 
L 314.737809 -142.59034 
L 314.739206 -141.271451 
L 314.798176 -139.952562 
L 314.923948 -138.633674 
L 315.124979 -137.314785 
L 315.408791 -135.995896 
L 315.781837 -134.677007 
L 316.249388 -133.358119 
L 316.815452 -132.03923 
L 317.482712 -130.720341 
L 318.252495 -129.401453 
L 319.124763 -128.082564 
L 320.098119 -126.763675 
L 321.169831 -125.444787 
L 322.335867 -124.125898 
L 323.590932 -122.807009 
L 324.928514 -121.48812 
L 326.340915 -120.169232 
L 327.819289 -118.850343 
L 329.353664 -117.531454 
L 330.93296 -116.212566 
L 332.544998 -114.893677 
L 334.176517 -113.574788 
L 335.813186 -112.2559 
L 337.439638 -110.937011 
L 339.039523 -109.618122 
L 340.595601 -108.299234 
L 342.089873 -106.980345 
L 343.503763 -105.661456 
L 344.818368 -104.342567 
L 346.014757 -103.023679 
L 347.074335 -101.70479 
L 347.979257 -100.385901 
L 348.712885 -99.067013 
L 349.26027 -97.748124 
L 349.608634 -96.429235 
L 349.747842 -95.110347 
L 349.670826 -93.791458 
L 349.373942 -92.472569 
L 348.857245 -91.15368 
L 348.124645 -89.834792 
L 347.183947 -88.515903 
L 346.046761 -87.197014 
L 344.728271 -85.878126 
L 343.246888 -84.559237 
L 341.62378 -83.240348 
L 339.882315 -81.92146 
L 338.047424 -80.602571 
L 336.144924 -79.283682 
L 334.200833 -77.964794 
L 332.240685 -76.645905 
L 330.288906 -75.327016 
L 328.368238 -74.008127 
L 326.499267 -72.689239 
L 324.700043 -71.37035 
L 322.985813 -70.051461 
L 321.368864 -68.732573 
L 319.858486 -67.413684 
L 318.461022 -66.094795 
L 317.180025 -64.775907 
L 316.016472 -63.457018 
L 314.969051 -62.138129 
L 314.034479 -60.81924 
L 313.207846 -59.500352 
L 312.482964 -58.181463 
z
" style="stroke: #2d2d2d; stroke-width: 1.25"/>
    </defs>
    <g clip-path="url(#p53bf61bac6)">
     <use xlink:href="#m5da880b14f" x="0" y="360" style="fill: #4884af; stroke: #2d2d2d; stroke-width: 1.25"/>
    </g>
   </g>
   <g id="FillBetweenPolyCollection_4">
    <defs>
     <path id="m24cb7295a9" d="M 415.208415 -92.729204 
L 407.402788 -92.729204 
L 406.935866 -92.992332 
L 406.428387 -93.255461 
L 405.878952 -93.518589 
L 405.286395 -93.781718 
L 404.649824 -94.044847 
L 403.968652 -94.307975 
L 403.242633 -94.571104 
L 402.471894 -94.834232 
L 401.656957 -95.097361 
L 400.798768 -95.360489 
L 399.898709 -95.623618 
L 398.958607 -95.886746 
L 397.980743 -96.149875 
L 396.967842 -96.413003 
L 395.923064 -96.676132 
L 394.849982 -96.939261 
L 393.752555 -97.202389 
L 392.635088 -97.465518 
L 391.502189 -97.728646 
L 390.358721 -97.991775 
L 389.209736 -98.254903 
L 388.060422 -98.518032 
L 386.916029 -98.78116 
L 385.781805 -99.044289 
L 384.662924 -99.307418 
L 383.564416 -99.570546 
L 382.491105 -99.833675 
L 381.447544 -100.096803 
L 380.437961 -100.359932 
L 379.466207 -100.62306 
L 378.53572 -100.886189 
L 377.649493 -101.149317 
L 376.810053 -101.412446 
L 376.019455 -101.675574 
L 375.279286 -101.938703 
L 374.590676 -102.201832 
L 373.954324 -102.46496 
L 373.370534 -102.728089 
L 372.839262 -102.991217 
L 372.360159 -103.254346 
L 371.932637 -103.517474 
L 371.555926 -103.780603 
L 371.229136 -104.043731 
L 370.951321 -104.30686 
L 370.721542 -104.569989 
L 370.538918 -104.833117 
L 370.402682 -105.096246 
L 370.312217 -105.359374 
L 370.267095 -105.622503 
L 370.267095 -105.885631 
L 370.312217 -106.14876 
L 370.402682 -106.411888 
L 370.538918 -106.675017 
L 370.721542 -106.938146 
L 370.951321 -107.201274 
L 371.229136 -107.464403 
L 371.555926 -107.727531 
L 371.932637 -107.99066 
L 372.360159 -108.253788 
L 372.839262 -108.516917 
L 373.370534 -108.780045 
L 373.954324 -109.043174 
L 374.590676 -109.306302 
L 375.279286 -109.569431 
L 376.019455 -109.83256 
L 376.810053 -110.095688 
L 377.649493 -110.358817 
L 378.53572 -110.621945 
L 379.466207 -110.885074 
L 380.437961 -111.148202 
L 381.447544 -111.411331 
L 382.491105 -111.674459 
L 383.564416 -111.937588 
L 384.662924 -112.200717 
L 385.781805 -112.463845 
L 386.916029 -112.726974 
L 388.060422 -112.990102 
L 389.209736 -113.253231 
L 390.358721 -113.516359 
L 391.502189 -113.779488 
L 392.635088 -114.042616 
L 393.752555 -114.305745 
L 394.849982 -114.568873 
L 395.923064 -114.832002 
L 396.967842 -115.095131 
L 397.980743 -115.358259 
L 398.958607 -115.621388 
L 399.898709 -115.884516 
L 400.798768 -116.147645 
L 401.656957 -116.410773 
L 402.471894 -116.673902 
L 403.242633 -116.93703 
L 403.968652 -117.200159 
L 404.649824 -117.463288 
L 405.286395 -117.726416 
L 405.878952 -117.989545 
L 406.428387 -118.252673 
L 406.935866 -118.515802 
L 407.402788 -118.77893 
L 415.208415 -118.77893 
L 415.208415 -118.77893 
L 415.675337 -118.515802 
L 416.182816 -118.252673 
L 416.732251 -117.989545 
L 417.324808 -117.726416 
L 417.961379 -117.463288 
L 418.642551 -117.200159 
L 419.36857 -116.93703 
L 420.13931 -116.673902 
L 420.954246 -116.410773 
L 421.812435 -116.147645 
L 422.712494 -115.884516 
L 423.652596 -115.621388 
L 424.63046 -115.358259 
L 425.643362 -115.095131 
L 426.688139 -114.832002 
L 427.761221 -114.568873 
L 428.858648 -114.305745 
L 429.976115 -114.042616 
L 431.109014 -113.779488 
L 432.252482 -113.516359 
L 433.401467 -113.253231 
L 434.550781 -112.990102 
L 435.695174 -112.726974 
L 436.829398 -112.463845 
L 437.94828 -112.200717 
L 439.046787 -111.937588 
L 440.120098 -111.674459 
L 441.163659 -111.411331 
L 442.173242 -111.148202 
L 443.144996 -110.885074 
L 444.075483 -110.621945 
L 444.96171 -110.358817 
L 445.80115 -110.095688 
L 446.591748 -109.83256 
L 447.331917 -109.569431 
L 448.020527 -109.306302 
L 448.656879 -109.043174 
L 449.240669 -108.780045 
L 449.771941 -108.516917 
L 450.251044 -108.253788 
L 450.678566 -107.99066 
L 451.055277 -107.727531 
L 451.382068 -107.464403 
L 451.659882 -107.201274 
L 451.889661 -106.938146 
L 452.072285 -106.675017 
L 452.208521 -106.411888 
L 452.298986 -106.14876 
L 452.344108 -105.885631 
L 452.344108 -105.622503 
L 452.298986 -105.359374 
L 452.208521 -105.096246 
L 452.072285 -104.833117 
L 451.889661 -104.569989 
L 451.659882 -104.30686 
L 451.382068 -104.043731 
L 451.055277 -103.780603 
L 450.678566 -103.517474 
L 450.251044 -103.254346 
L 449.771941 -102.991217 
L 449.240669 -102.728089 
L 448.656879 -102.46496 
L 448.020527 -102.201832 
L 447.331917 -101.938703 
L 446.591748 -101.675574 
L 445.80115 -101.412446 
L 444.96171 -101.149317 
L 444.075483 -100.886189 
L 443.144996 -100.62306 
L 442.173242 -100.359932 
L 441.163659 -100.096803 
L 440.120098 -99.833675 
L 439.046787 -99.570546 
L 437.94828 -99.307418 
L 436.829398 -99.044289 
L 435.695174 -98.78116 
L 434.550781 -98.518032 
L 433.401467 -98.254903 
L 432.252482 -97.991775 
L 431.109014 -97.728646 
L 429.976115 -97.465518 
L 428.858648 -97.202389 
L 427.761221 -96.939261 
L 426.688139 -96.676132 
L 425.643362 -96.413003 
L 424.63046 -96.149875 
L 423.652596 -95.886746 
L 422.712494 -95.623618 
L 421.812435 -95.360489 
L 420.954246 -95.097361 
L 420.13931 -94.834232 
L 419.36857 -94.571104 
L 418.642551 -94.307975 
L 417.961379 -94.044847 
L 417.324808 -93.781718 
L 416.732251 -93.518589 
L 416.182816 -93.255461 
L 415.675337 -92.992332 
L 415.208415 -92.729204 
z
" style="stroke: #2d2d2d; stroke-width: 1.25"/>
    </defs>
    <g clip-path="url(#p53bf61bac6)">
     <use xlink:href="#m24cb7295a9" x="0" y="360" style="fill: #416986; stroke: #2d2d2d; stroke-width: 1.25"/>
    </g>
   </g>
   <g id="line2d_11">
    <path d="M 472.863361 261.142791 
L 554.940373 261.142791 
" clip-path="url(#p53bf61bac6)" style="fill: none; stroke: #2d2d2d; stroke-width: 1.25; stroke-linecap: round"/>
   </g>
   <g id="patch_3">
    <path d="M 95.822085 271.488079 
L 111.211525 271.488079 
L 111.211525 265.453328 
L 95.822085 265.453328 
L 95.822085 271.488079 
z
" clip-path="url(#p53bf61bac6)" style="fill: #ffffff; opacity: 0.9; stroke: #000000; stroke-linejoin: miter"/>
   </g>
   <g id="line2d_12">
    <path d="M 103.516805 271.488079 
L 103.516805 272.115066 
" clip-path="url(#p53bf61bac6)" style="fill: none; stroke: #000000"/>
   </g>
   <g id="line2d_13">
    <path d="M 103.516805 265.453328 
L 103.516805 256.753882 
" clip-path="url(#p53bf61bac6)" style="fill: none; stroke: #000000"/>
   </g>
   <g id="line2d_14">
    <path d="M 99.669445 272.115066 
L 107.364165 272.115066 
" clip-path="url(#p53bf61bac6)" style="fill: none; stroke: #000000; stroke-linecap: round"/>
   </g>
   <g id="line2d_15">
    <path d="M 99.669445 256.753882 
L 107.364165 256.753882 
" clip-path="url(#p53bf61bac6)" style="fill: none; stroke: #000000; stroke-linecap: round"/>
   </g>
   <g id="line2d_16">
    <defs>
     <path id="mf1c688f446" d="M 0 3 
C 0.795609 3 1.55874 2.683901 2.12132 2.12132 
C 2.683901 1.55874 3 0.795609 3 0 
C 3 -0.795609 2.683901 -1.55874 2.12132 -2.12132 
C 1.55874 -2.683901 0.795609 -3 0 -3 
C -0.795609 -3 -1.55874 -2.683901 -2.12132 -2.12132 
C -2.683901 -1.55874 -3 -0.795609 -3 0 
C -3 0.795609 -2.683901 1.55874 -2.12132 2.12132 
C -1.55874 2.683901 -0.795609 3 0 3 
z
" style="stroke: #2d2d2d"/>
    </defs>
    <g clip-path="url(#p53bf61bac6)">
     <use xlink:href="#mf1c688f446" x="103.516805" y="39.50284" style="fill-opacity: 0; stroke: #2d2d2d"/>
     <use xlink:href="#mf1c688f446" x="103.516805" y="255.186414" style="fill-opacity: 0; stroke: #2d2d2d"/>
     <use xlink:href="#mf1c688f446" x="103.516805" y="255.186414" style="fill-opacity: 0; stroke: #2d2d2d"/>
     <use xlink:href="#mf1c688f446" x="103.516805" y="235.749813" style="fill-opacity: 0; stroke: #2d2d2d"/>
     <use xlink:href="#mf1c688f446" x="103.516805" y="253.932439" style="fill-opacity: 0; stroke: #2d2d2d"/>
     <use xlink:href="#mf1c688f446" x="103.516805" y="255.499907" style="fill-opacity: 0; stroke: #2d2d2d"/>
     <use xlink:href="#mf1c688f446" x="103.516805" y="237.630774" style="fill-opacity: 0; stroke: #2d2d2d"/>
     <use xlink:href="#mf1c688f446" x="103.516805" y="253.932439" style="fill-opacity: 0; stroke: #2d2d2d"/>
     <use xlink:href="#mf1c688f446" x="103.516805" y="230.106928" style="fill-opacity: 0; stroke: #2d2d2d"/>
     <use xlink:href="#mf1c688f446" x="103.516805" y="249.543529" style="fill-opacity: 0; stroke: #2d2d2d"/>
     <use xlink:href="#mf1c688f446" x="103.516805" y="240.138722" style="fill-opacity: 0; stroke: #2d2d2d"/>
     <use xlink:href="#mf1c688f446" x="103.516805" y="254.87292" style="fill-opacity: 0; stroke: #2d2d2d"/>
     <use xlink:href="#mf1c688f446" x="103.516805" y="246.722087" style="fill-opacity: 0; stroke: #2d2d2d"/>
     <use xlink:href="#mf1c688f446" x="103.516805" y="238.884748" style="fill-opacity: 0; stroke: #2d2d2d"/>
     <use xlink:href="#mf1c688f446" x="103.516805" y="221.329109" style="fill-opacity: 0; stroke: #2d2d2d"/>
    </g>
   </g>
   <g id="patch_4">
    <path d="M 198.41835 270.234105 
L 213.80779 270.234105 
L 213.80779 257.380869 
L 198.41835 257.380869 
L 198.41835 270.234105 
z
" clip-path="url(#p53bf61bac6)" style="fill: #ffffff; opacity: 0.9; stroke: #000000; stroke-linejoin: miter"/>
   </g>
   <g id="line2d_17">
    <path d="M 206.11307 270.234105 
L 206.11307 271.801573 
" clip-path="url(#p53bf61bac6)" style="fill: none; stroke: #000000"/>
   </g>
   <g id="line2d_18">
    <path d="M 206.11307 257.380869 
L 206.11307 241.392697 
" clip-path="url(#p53bf61bac6)" style="fill: none; stroke: #000000"/>
   </g>
   <g id="line2d_19">
    <path d="M 202.26571 271.801573 
L 209.96043 271.801573 
" clip-path="url(#p53bf61bac6)" style="fill: none; stroke: #000000; stroke-linecap: round"/>
   </g>
   <g id="line2d_20">
    <path d="M 202.26571 241.392697 
L 209.96043 241.392697 
" clip-path="url(#p53bf61bac6)" style="fill: none; stroke: #000000; stroke-linecap: round"/>
   </g>
   <g id="line2d_21">
    <g clip-path="url(#p53bf61bac6)">
     <use xlink:href="#mf1c688f446" x="206.11307" y="181.201932" style="fill-opacity: 0; stroke: #2d2d2d"/>
     <use xlink:href="#mf1c688f446" x="206.11307" y="201.892507" style="fill-opacity: 0; stroke: #2d2d2d"/>
     <use xlink:href="#mf1c688f446" x="206.11307" y="233.555358" style="fill-opacity: 0; stroke: #2d2d2d"/>
     <use xlink:href="#mf1c688f446" x="206.11307" y="218.507666" style="fill-opacity: 0; stroke: #2d2d2d"/>
    </g>
   </g>
   <g id="patch_5">
    <path d="M 301.014616 270.312478 
L 316.404056 270.312478 
L 316.404056 249.386783 
L 301.014616 249.386783 
L 301.014616 270.312478 
z
" clip-path="url(#p53bf61bac6)" style="fill: #ffffff; opacity: 0.9; stroke: #000000; stroke-linejoin: miter"/>
   </g>
   <g id="line2d_22">
    <path d="M 308.709336 270.312478 
L 308.709336 270.861092 
" clip-path="url(#p53bf61bac6)" style="fill: none; stroke: #000000"/>
   </g>
   <g id="line2d_23">
    <path d="M 308.709336 249.386783 
L 308.709336 248.916542 
" clip-path="url(#p53bf61bac6)" style="fill: none; stroke: #000000"/>
   </g>
   <g id="line2d_24">
    <path d="M 304.861976 270.861092 
L 312.556696 270.861092 
" clip-path="url(#p53bf61bac6)" style="fill: none; stroke: #000000; stroke-linecap: round"/>
   </g>
   <g id="line2d_25">
    <path d="M 304.861976 248.916542 
L 312.556696 248.916542 
" clip-path="url(#p53bf61bac6)" style="fill: none; stroke: #000000; stroke-linecap: round"/>
   </g>
   <g id="line2d_26">
    <g clip-path="url(#p53bf61bac6)">
     <use xlink:href="#mf1c688f446" x="308.709336" y="202.206001" style="fill-opacity: 0; stroke: #2d2d2d"/>
    </g>
   </g>
   <g id="patch_6">
    <path d="M 403.610882 256.126894 
L 419.000321 256.126894 
L 419.000321 252.364972 
L 403.610882 252.364972 
L 403.610882 256.126894 
z
" clip-path="url(#p53bf61bac6)" style="fill: #ffffff; opacity: 0.9; stroke: #000000; stroke-linejoin: miter"/>
   </g>
   <g id="line2d_27">
    <path d="M 411.305602 256.126894 
L 411.305602 258.007856 
" clip-path="url(#p53bf61bac6)" style="fill: none; stroke: #000000"/>
   </g>
   <g id="line2d_28">
    <path d="M 411.305602 252.364972 
L 411.305602 250.48401 
" clip-path="url(#p53bf61bac6)" style="fill: none; stroke: #000000"/>
   </g>
   <g id="line2d_29">
    <path d="M 407.458242 258.007856 
L 415.152962 258.007856 
" clip-path="url(#p53bf61bac6)" style="fill: none; stroke: #000000; stroke-linecap: round"/>
   </g>
   <g id="line2d_30">
    <path d="M 407.458242 250.48401 
L 415.152962 250.48401 
" clip-path="url(#p53bf61bac6)" style="fill: none; stroke: #000000; stroke-linecap: round"/>
   </g>
   <g id="line2d_31"/>
   <g id="patch_7">
    <path d="M 506.207147 261.142791 
L 521.596587 261.142791 
L 521.596587 261.142791 
L 506.207147 261.142791 
L 506.207147 261.142791 
z
" clip-path="url(#p53bf61bac6)" style="fill: #ffffff; opacity: 0.9; stroke: #000000; stroke-linejoin: miter"/>
   </g>
   <g id="line2d_32">
    <path d="M 513.901867 261.142791 
L 513.901867 261.142791 
" clip-path="url(#p53bf61bac6)" style="fill: none; stroke: #000000"/>
   </g>
   <g id="line2d_33">
    <path d="M 513.901867 261.142791 
L 513.901867 261.142791 
" clip-path="url(#p53bf61bac6)" style="fill: none; stroke: #000000"/>
   </g>
   <g id="line2d_34">
    <path d="M 510.054507 261.142791 
L 517.749227 261.142791 
" clip-path="url(#p53bf61bac6)" style="fill: none; stroke: #000000; stroke-linecap: round"/>
   </g>
   <g id="line2d_35">
    <path d="M 510.054507 261.142791 
L 517.749227 261.142791 
" clip-path="url(#p53bf61bac6)" style="fill: none; stroke: #000000; stroke-linecap: round"/>
   </g>
   <g id="line2d_36"/>
   <g id="line2d_37">
    <path d="M 95.822085 269.920611 
L 111.211525 269.920611 
" clip-path="url(#p53bf61bac6)" style="fill: none; stroke: #000000"/>
   </g>
   <g id="line2d_38">
    <path d="M 198.41835 266.158688 
L 213.80779 266.158688 
" clip-path="url(#p53bf61bac6)" style="fill: none; stroke: #000000"/>
   </g>
   <g id="line2d_39">
    <path d="M 301.014616 266.785676 
L 316.404056 266.785676 
" clip-path="url(#p53bf61bac6)" style="fill: none; stroke: #000000"/>
   </g>
   <g id="line2d_40">
    <path d="M 403.610882 254.245933 
L 419.000321 254.245933 
" clip-path="url(#p53bf61bac6)" style="fill: none; stroke: #000000"/>
   </g>
   <g id="line2d_41">
    <path d="M 506.207147 261.142791 
L 521.596587 261.142791 
" clip-path="url(#p53bf61bac6)" style="fill: none; stroke: #000000"/>
   </g>
   <g id="patch_8">
    <path d="M 52.218672 315.676563 
L 52.218672 10.8 
" style="fill: none; stroke: #262626; stroke-width: 0.8; stroke-linejoin: miter; stroke-linecap: square"/>
   </g>
   <g id="patch_9">
    <path d="M 565.2 315.676563 
L 565.2 10.8 
" style="fill: none; stroke: #262626; stroke-width: 0.8; stroke-linejoin: miter; stroke-linecap: square"/>
   </g>
   <g id="patch_10">
    <path d="M 52.218672 315.676562 
L 565.2 315.676562 
" style="fill: none; stroke: #262626; stroke-width: 0.8; stroke-linejoin: miter; stroke-linecap: square"/>
   </g>
   <g id="patch_11">
    <path d="M 52.218672 10.8 
L 565.2 10.8 
" style="fill: none; stroke: #262626; stroke-width: 0.8; stroke-linejoin: miter; stroke-linecap: square"/>
   </g>
  </g>
 </g>
 <defs>
  <clipPath id="p53bf61bac6">
   <rect x="52.218672" y="10.8" width="512.981328" height="304.876562"/>
  </clipPath>
 </defs>
</svg>
