<?xml version="1.0" encoding="utf-8" standalone="no"?>
<!DOCTYPE svg PUBLIC "-//W3C//DTD SVG 1.1//EN"
  "http://www.w3.org/Graphics/SVG/1.1/DTD/svg11.dtd">
<svg xmlns:xlink="http://www.w3.org/1999/xlink" width="576pt" height="432pt" viewBox="0 0 576 432" xmlns="http://www.w3.org/2000/svg" version="1.1">
 <metadata>
  <rdf:RDF xmlns:dc="http://purl.org/dc/elements/1.1/" xmlns:cc="http://creativecommons.org/ns#" xmlns:rdf="http://www.w3.org/1999/02/22-rdf-syntax-ns#">
   <cc:Work>
    <dc:type rdf:resource="http://purl.org/dc/dcmitype/StillImage"/>
    <dc:date>2025-11-24T11:29:48.638082</dc:date>
    <dc:format>image/svg+xml</dc:format>
    <dc:creator>
     <cc:Agent>
      <dc:title>Matplotlib v3.10.3, https://matplotlib.org/</dc:title>
     </cc:Agent>
    </dc:creator>
   </cc:Work>
  </rdf:RDF>
 </metadata>
 <defs>
  <style type="text/css">*{stroke-linejoin: round; stroke-linecap: butt}</style>
 </defs>
 <g id="figure_1">
  <g id="patch_1">
   <path d="M 0 432 
L 576 432 
L 576 0 
L 0 0 
z
" style="fill: #ffffff"/>
  </g>
  <g id="axes_1">
   <g id="patch_2">
    <path d="M 70.22 386.44 
L 565.2 386.44 
L 565.2 10.8 
L 70.22 10.8 
z
" style="fill: #ffffff"/>
   </g>
   <g id="FillBetweenPolyCollection_1">
    <defs>
     <path id="mfd6296c581" d="M 92.719091 -48.263592 
L 92.719091 -45.56 
L 94.980306 -45.56 
L 97.241521 -45.56 
L 99.502736 -45.56 
L 101.763952 -45.56 
L 104.025167 -45.56 
L 106.286382 -45.56 
L 108.547597 -45.56 
L 110.808812 -45.56 
L 113.070027 -45.56 
L 115.331243 -45.56 
L 117.592458 -45.56 
L 119.853673 -45.56 
L 122.114888 -45.56 
L 124.376103 -45.56 
L 126.637318 -45.56 
L 128.898534 -45.56 
L 131.159749 -45.56 
L 133.420964 -45.56 
L 135.682179 -45.56 
L 137.943394 -45.56 
L 140.204609 -45.56 
L 142.465825 -45.56 
L 144.72704 -45.56 
L 146.988255 -45.56 
L 149.24947 -45.56 
L 151.510685 -45.56 
L 153.7719 -45.56 
L 156.033116 -45.56 
L 158.294331 -45.56 
L 160.555546 -45.56 
L 162.816761 -45.56 
L 165.077976 -45.56 
L 167.339191 -45.56 
L 169.600407 -45.56 
L 171.861622 -45.56 
L 174.122837 -45.56 
L 176.384052 -45.56 
L 178.645267 -45.56 
L 180.906482 -45.56 
L 183.167698 -45.56 
L 185.428913 -45.56 
L 187.690128 -45.56 
L 189.951343 -45.56 
L 192.212558 -45.56 
L 194.473773 -45.56 
L 196.734989 -45.56 
L 198.996204 -45.56 
L 201.257419 -45.56 
L 203.518634 -45.56 
L 205.779849 -45.56 
L 208.041064 -45.56 
L 210.30228 -45.56 
L 212.563495 -45.56 
L 214.82471 -45.56 
L 217.085925 -45.56 
L 219.34714 -45.56 
L 221.608355 -45.56 
L 223.869571 -45.56 
L 226.130786 -45.56 
L 228.392001 -45.56 
L 230.653216 -45.56 
L 232.914431 -45.56 
L 235.175646 -45.56 
L 237.436862 -45.56 
L 239.698077 -45.56 
L 241.959292 -45.56 
L 244.220507 -45.56 
L 246.481722 -45.56 
L 248.742937 -45.56 
L 251.004153 -45.56 
L 253.265368 -45.56 
L 255.526583 -45.56 
L 257.787798 -45.56 
L 260.049013 -45.56 
L 262.310228 -45.56 
L 264.571444 -45.56 
L 266.832659 -45.56 
L 269.093874 -45.56 
L 271.355089 -45.56 
L 273.616304 -45.56 
L 275.877519 -45.56 
L 278.138735 -45.56 
L 280.39995 -45.56 
L 282.661165 -45.56 
L 284.92238 -45.56 
L 287.183595 -45.56 
L 289.44481 -45.56 
L 291.706026 -45.56 
L 293.967241 -45.56 
L 296.228456 -45.56 
L 298.489671 -45.56 
L 300.750886 -45.56 
L 303.012101 -45.56 
L 305.273317 -45.56 
L 307.534532 -45.56 
L 309.795747 -45.56 
L 312.056962 -45.56 
L 314.318177 -45.56 
L 316.579392 -45.56 
L 318.840608 -45.56 
L 321.101823 -45.56 
L 323.363038 -45.56 
L 325.624253 -45.56 
L 327.885468 -45.56 
L 330.146683 -45.56 
L 332.407899 -45.56 
L 334.669114 -45.56 
L 336.930329 -45.56 
L 339.191544 -45.56 
L 341.452759 -45.56 
L 343.713974 -45.56 
L 345.97519 -45.56 
L 348.236405 -45.56 
L 350.49762 -45.56 
L 352.758835 -45.56 
L 355.02005 -45.56 
L 357.281265 -45.56 
L 359.542481 -45.56 
L 361.803696 -45.56 
L 364.064911 -45.56 
L 366.326126 -45.56 
L 368.587341 -45.56 
L 370.848556 -45.56 
L 373.109772 -45.56 
L 375.370987 -45.56 
L 377.632202 -45.56 
L 379.893417 -45.56 
L 382.154632 -45.56 
L 384.415847 -45.56 
L 386.677063 -45.56 
L 388.938278 -45.56 
L 391.199493 -45.56 
L 393.460708 -45.56 
L 395.721923 -45.56 
L 397.983138 -45.56 
L 400.244354 -45.56 
L 402.505569 -45.56 
L 404.766784 -45.56 
L 407.027999 -45.56 
L 409.289214 -45.56 
L 411.550429 -45.56 
L 413.811645 -45.56 
L 416.07286 -45.56 
L 418.334075 -45.56 
L 420.59529 -45.56 
L 422.856505 -45.56 
L 425.11772 -45.56 
L 427.378936 -45.56 
L 429.640151 -45.56 
L 431.901366 -45.56 
L 434.162581 -45.56 
L 436.423796 -45.56 
L 438.685011 -45.56 
L 440.946227 -45.56 
L 443.207442 -45.56 
L 445.468657 -45.56 
L 447.729872 -45.56 
L 449.991087 -45.56 
L 452.252302 -45.56 
L 454.513518 -45.56 
L 456.774733 -45.56 
L 459.035948 -45.56 
L 461.297163 -45.56 
L 463.558378 -45.56 
L 465.819593 -45.56 
L 468.080809 -45.56 
L 470.342024 -45.56 
L 472.603239 -45.56 
L 474.864454 -45.56 
L 477.125669 -45.56 
L 479.386884 -45.56 
L 481.6481 -45.56 
L 483.909315 -45.56 
L 486.17053 -45.56 
L 488.431745 -45.56 
L 490.69296 -45.56 
L 492.954175 -45.56 
L 495.215391 -45.56 
L 497.476606 -45.56 
L 499.737821 -45.56 
L 501.999036 -45.56 
L 504.260251 -45.56 
L 506.521466 -45.56 
L 508.782682 -45.56 
L 511.043897 -45.56 
L 513.305112 -45.56 
L 515.566327 -45.56 
L 517.827542 -45.56 
L 520.088757 -45.56 
L 522.349973 -45.56 
L 524.611188 -45.56 
L 526.872403 -45.56 
L 529.133618 -45.56 
L 531.394833 -45.56 
L 533.656048 -45.56 
L 535.917264 -45.56 
L 538.178479 -45.56 
L 540.439694 -45.56 
L 542.700909 -45.56 
L 542.700909 -45.583678 
L 542.700909 -45.583678 
L 540.439694 -45.599097 
L 538.178479 -45.622673 
L 535.917264 -45.657532 
L 533.656048 -45.70735 
L 531.394833 -45.776118 
L 529.133618 -45.86773 
L 526.872403 -45.985388 
L 524.611188 -46.130871 
L 522.349973 -46.303752 
L 520.088757 -46.500708 
L 517.827542 -46.715098 
L 515.566327 -46.936954 
L 513.305112 -47.15352 
L 511.043897 -47.350327 
L 508.782682 -47.51274 
L 506.521466 -47.627728 
L 504.260251 -47.68559 
L 501.999036 -47.681302 
L 499.737821 -47.61524 
L 497.476606 -47.493124 
L 495.215391 -47.3252 
L 492.954175 -47.124823 
L 490.69296 -46.906708 
L 488.431745 -46.685172 
L 486.17053 -46.472643 
L 483.909315 -46.278655 
L 481.6481 -46.109385 
L 479.386884 -45.967728 
L 477.125669 -45.853765 
L 474.864454 -45.765479 
L 472.603239 -45.699532 
L 470.342024 -45.651984 
L 468.080809 -45.61887 
L 465.819593 -45.596577 
L 463.558378 -45.582063 
L 461.297163 -45.57292 
L 459.035948 -45.567345 
L 456.774733 -45.564054 
L 454.513518 -45.562172 
L 452.252302 -45.56113 
L 449.991087 -45.56057 
L 447.729872 -45.56028 
L 445.468657 -45.560133 
L 443.207442 -45.560062 
L 440.946227 -45.560028 
L 438.685011 -45.560012 
L 436.423796 -45.560005 
L 434.162581 -45.560002 
L 431.901366 -45.560001 
L 429.640151 -45.56 
L 427.378936 -45.56 
L 425.11772 -45.56 
L 422.856505 -45.56 
L 420.59529 -45.56 
L 418.334075 -45.56 
L 416.07286 -45.56 
L 413.811645 -45.56 
L 411.550429 -45.56 
L 409.289214 -45.56 
L 407.027999 -45.56 
L 404.766784 -45.560001 
L 402.505569 -45.560003 
L 400.244354 -45.560007 
L 397.983138 -45.560016 
L 395.721923 -45.560037 
L 393.460708 -45.560082 
L 391.199493 -45.560177 
L 388.938278 -45.560367 
L 386.677063 -45.560742 
L 384.415847 -45.561454 
L 382.154632 -45.56277 
L 379.893417 -45.565122 
L 377.632202 -45.569201 
L 375.370987 -45.576052 
L 373.109772 -45.587203 
L 370.848556 -45.604785 
L 368.587341 -45.631639 
L 366.326126 -45.671362 
L 364.064911 -45.72826 
L 361.803696 -45.807162 
L 359.542481 -45.913072 
L 357.281265 -46.050639 
L 355.02005 -46.223503 
L 352.758835 -46.433557 
L 350.49762 -46.680258 
L 348.236405 -46.960106 
L 345.97519 -47.2664 
L 343.713974 -47.589366 
L 341.452759 -47.91667 
L 339.191544 -48.234274 
L 336.930329 -48.527517 
L 334.669114 -48.782299 
L 332.407899 -48.986229 
L 330.146683 -49.129625 
L 327.885468 -49.206337 
L 325.624253 -49.214347 
L 323.363038 -49.156179 
L 321.101823 -49.039086 
L 318.840608 -48.874977 
L 316.579392 -48.680023 
L 314.318177 -48.473846 
L 312.056962 -48.278232 
L 309.795747 -48.115379 
L 307.534532 -48.005763 
L 305.273317 -47.965821 
L 303.012101 -48.005726 
L 300.750886 -48.127592 
L 298.489671 -48.324422 
L 296.228456 -48.580093 
L 293.967241 -48.870503 
L 291.706026 -49.165863 
L 289.44481 -49.43392 
L 287.183595 -49.643692 
L 284.92238 -49.769193 
L 282.661165 -49.79256 
L 280.39995 -49.706095 
L 278.138735 -49.51289 
L 275.877519 -49.225972 
L 273.616304 -48.866169 
L 271.355089 -48.459118 
L 269.093874 -48.031972 
L 266.832659 -47.610359 
L 264.571444 -47.216063 
L 262.310228 -46.865672 
L 260.049013 -46.570273 
L 257.787798 -46.336034 
L 255.526583 -46.165399 
L 253.265368 -46.058563 
L 251.004153 -46.014858 
L 248.742937 -46.033806 
L 246.481722 -46.115615 
L 244.220507 -46.261084 
L 241.959292 -46.470944 
L 239.698077 -46.744798 
L 237.436862 -47.079927 
L 235.175646 -47.470256 
L 232.914431 -47.905812 
L 230.653216 -48.372917 
L 228.392001 -48.855242 
L 226.130786 -49.335658 
L 223.869571 -49.798588 
L 221.608355 -50.232415 
L 219.34714 -50.631385 
L 217.085925 -50.996526 
L 214.82471 -51.335263 
L 212.563495 -51.659756 
L 210.30228 -51.984317 
L 208.041064 -52.322566 
L 205.779849 -52.685115 
L 203.518634 -53.078486 
L 201.257419 -53.505683 
L 198.996204 -53.968394 
L 196.734989 -54.470349 
L 194.473773 -55.021078 
L 192.212558 -55.639213 
L 189.951343 -56.354788 
L 187.690128 -57.210467 
L 185.428913 -58.262287 
L 183.167698 -59.581076 
L 180.906482 -61.255926 
L 178.645267 -63.400953 
L 176.384052 -66.165791 
L 174.122837 -69.749021 
L 171.861622 -74.412149 
L 169.600407 -80.490073 
L 167.339191 -88.392652 
L 165.077976 -98.591389 
L 162.816761 -111.585864 
L 160.555546 -127.846709 
L 158.294331 -147.735845 
L 156.033116 -171.410022 
L 153.7719 -198.719865 
L 151.510685 -229.122095 
L 149.24947 -261.625896 
L 146.988255 -294.793632 
L 144.72704 -326.810348 
L 142.465825 -355.625594 
L 140.204609 -379.156819 
L 137.943394 -395.528825 
L 135.682179 -403.312381 
L 133.420964 -401.720658 
L 131.159749 -390.726681 
L 128.898534 -371.07824 
L 126.637318 -344.205918 
L 124.376103 -312.040474 
L 122.114888 -276.772698 
L 119.853673 -240.597992 
L 117.592458 -205.487449 
L 115.331243 -173.018062 
L 113.070027 -144.279741 
L 110.808812 -119.860433 
L 108.547597 -99.896657 
L 106.286382 -84.167958 
L 104.025167 -72.211091 
L 101.763952 -63.432389 
L 99.502736 -57.202805 
L 97.241521 -52.927505 
L 94.980306 -50.088491 
L 92.719091 -48.263592 
z
" style="stroke: #1f77b4"/>
    </defs>
    <g clip-path="url(#p752da6c5cb)">
     <use xlink:href="#mfd6296c581" x="0" y="432" style="fill: #1f77b4; fill-opacity: 0.3; stroke: #1f77b4"/>
    </g>
   </g>
   <g id="matplotlib.axis_1">
    <g id="xtick_1">
     <g id="line2d_1">
      <defs>
       <path id="maa9b4241b6" d="M 0 0 
L 0 3.5 
" style="stroke: #000000; stroke-width: 0.8"/>
      </defs>
      <g>
       <use xlink:href="#maa9b4241b6" x="132.04212" y="386.44" style="stroke: #000000; stroke-width: 0.8"/>
      </g>
     </g>
     <g id="text_1">
      <!-- 0 -->
      <g transform="translate(128.86087 401.038437) scale(0.1 -0.1)">
       <defs>
        <path id="DejaVuSans-30" d="M 2034 4250 
Q 1547 4250 1301 3770 
Q 1056 3291 1056 2328 
Q 1056 1369 1301 889 
Q 1547 409 2034 409 
Q 2525 409 2770 889 
Q 3016 1369 3016 2328 
Q 3016 3291 2770 3770 
Q 2525 4250 2034 4250 
z
M 2034 4750 
Q 2819 4750 3233 4129 
Q 3647 3509 3647 2328 
Q 3647 1150 3233 529 
Q 2819 -91 2034 -91 
Q 1250 -91 836 529 
Q 422 1150 422 2328 
Q 422 3509 836 4129 
Q 1250 4750 2034 4750 
z
" transform="scale(0.015625)"/>
       </defs>
       <use xlink:href="#DejaVuSans-30"/>
      </g>
     </g>
    </g>
    <g id="xtick_2">
     <g id="line2d_2">
      <g>
       <use xlink:href="#maa9b4241b6" x="226.122627" y="386.44" style="stroke: #000000; stroke-width: 0.8"/>
      </g>
     </g>
     <g id="text_2">
      <!-- 1000 -->
      <g transform="translate(213.397627 401.038437) scale(0.1 -0.1)">
       <defs>
        <path id="DejaVuSans-31" d="M 794 531 
L 1825 531 
L 1825 4091 
L 703 3866 
L 703 4441 
L 1819 4666 
L 2450 4666 
L 2450 531 
L 3481 531 
L 3481 0 
L 794 0 
L 794 531 
z
" transform="scale(0.015625)"/>
       </defs>
       <use xlink:href="#DejaVuSans-31"/>
       <use xlink:href="#DejaVuSans-30" transform="translate(63.623047 0)"/>
       <use xlink:href="#DejaVuSans-30" transform="translate(127.246094 0)"/>
       <use xlink:href="#DejaVuSans-30" transform="translate(190.869141 0)"/>
      </g>
     </g>
    </g>
    <g id="xtick_3">
     <g id="line2d_3">
      <g>
       <use xlink:href="#maa9b4241b6" x="320.203133" y="386.44" style="stroke: #000000; stroke-width: 0.8"/>
      </g>
     </g>
     <g id="text_3">
      <!-- 2000 -->
      <g transform="translate(307.478133 401.038437) scale(0.1 -0.1)">
       <defs>
        <path id="DejaVuSans-32" d="M 1228 531 
L 3431 531 
L 3431 0 
L 469 0 
L 469 531 
Q 828 903 1448 1529 
Q 2069 2156 2228 2338 
Q 2531 2678 2651 2914 
Q 2772 3150 2772 3378 
Q 2772 3750 2511 3984 
Q 2250 4219 1831 4219 
Q 1534 4219 1204 4116 
Q 875 4013 500 3803 
L 500 4441 
Q 881 4594 1212 4672 
Q 1544 4750 1819 4750 
Q 2544 4750 2975 4387 
Q 3406 4025 3406 3419 
Q 3406 3131 3298 2873 
Q 3191 2616 2906 2266 
Q 2828 2175 2409 1742 
Q 1991 1309 1228 531 
z
" transform="scale(0.015625)"/>
       </defs>
       <use xlink:href="#DejaVuSans-32"/>
       <use xlink:href="#DejaVuSans-30" transform="translate(63.623047 0)"/>
       <use xlink:href="#DejaVuSans-30" transform="translate(127.246094 0)"/>
       <use xlink:href="#DejaVuSans-30" transform="translate(190.869141 0)"/>
      </g>
     </g>
    </g>
    <g id="xtick_4">
     <g id="line2d_4">
      <g>
       <use xlink:href="#maa9b4241b6" x="414.28364" y="386.44" style="stroke: #000000; stroke-width: 0.8"/>
      </g>
     </g>
     <g id="text_4">
      <!-- 3000 -->
      <g transform="translate(401.55864 401.038437) scale(0.1 -0.1)">
       <defs>
        <path id="DejaVuSans-33" d="M 2597 2516 
Q 3050 2419 3304 2112 
Q 3559 1806 3559 1356 
Q 3559 666 3084 287 
Q 2609 -91 1734 -91 
Q 1441 -91 1130 -33 
Q 819 25 488 141 
L 488 750 
Q 750 597 1062 519 
Q 1375 441 1716 441 
Q 2309 441 2620 675 
Q 2931 909 2931 1356 
Q 2931 1769 2642 2001 
Q 2353 2234 1838 2234 
L 1294 2234 
L 1294 2753 
L 1863 2753 
Q 2328 2753 2575 2939 
Q 2822 3125 2822 3475 
Q 2822 3834 2567 4026 
Q 2313 4219 1838 4219 
Q 1578 4219 1281 4162 
Q 984 4106 628 3988 
L 628 4550 
Q 988 4650 1302 4700 
Q 1616 4750 1894 4750 
Q 2613 4750 3031 4423 
Q 3450 4097 3450 3541 
Q 3450 3153 3228 2886 
Q 3006 2619 2597 2516 
z
" transform="scale(0.015625)"/>
       </defs>
       <use xlink:href="#DejaVuSans-33"/>
       <use xlink:href="#DejaVuSans-30" transform="translate(63.623047 0)"/>
       <use xlink:href="#DejaVuSans-30" transform="translate(127.246094 0)"/>
       <use xlink:href="#DejaVuSans-30" transform="translate(190.869141 0)"/>
      </g>
     </g>
    </g>
    <g id="xtick_5">
     <g id="line2d_5">
      <g>
       <use xlink:href="#maa9b4241b6" x="508.364147" y="386.44" style="stroke: #000000; stroke-width: 0.8"/>
      </g>
     </g>
     <g id="text_5">
      <!-- 4000 -->
      <g transform="translate(495.639147 401.038437) scale(0.1 -0.1)">
       <defs>
        <path id="DejaVuSans-34" d="M 2419 4116 
L 825 1625 
L 2419 1625 
L 2419 4116 
z
M 2253 4666 
L 3047 4666 
L 3047 1625 
L 3713 1625 
L 3713 1100 
L 3047 1100 
L 3047 0 
L 2419 0 
L 2419 1100 
L 313 1100 
L 313 1709 
L 2253 4666 
z
" transform="scale(0.015625)"/>
       </defs>
       <use xlink:href="#DejaVuSans-34"/>
       <use xlink:href="#DejaVuSans-30" transform="translate(63.623047 0)"/>
       <use xlink:href="#DejaVuSans-30" transform="translate(127.246094 0)"/>
       <use xlink:href="#DejaVuSans-30" transform="translate(190.869141 0)"/>
      </g>
     </g>
    </g>
    <g id="text_6">
     <!-- Articles (pmid) -->
     <g transform="translate(266.269844 417.755938) scale(0.14 -0.14)">
      <defs>
       <path id="DejaVuSans-41" d="M 2188 4044 
L 1331 1722 
L 3047 1722 
L 2188 4044 
z
M 1831 4666 
L 2547 4666 
L 4325 0 
L 3669 0 
L 3244 1197 
L 1141 1197 
L 716 0 
L 50 0 
L 1831 4666 
z
" transform="scale(0.015625)"/>
       <path id="DejaVuSans-72" d="M 2631 2963 
Q 2534 3019 2420 3045 
Q 2306 3072 2169 3072 
Q 1681 3072 1420 2755 
Q 1159 2438 1159 1844 
L 1159 0 
L 581 0 
L 581 3500 
L 1159 3500 
L 1159 2956 
Q 1341 3275 1631 3429 
Q 1922 3584 2338 3584 
Q 2397 3584 2469 3576 
Q 2541 3569 2628 3553 
L 2631 2963 
z
" transform="scale(0.015625)"/>
       <path id="DejaVuSans-74" d="M 1172 4494 
L 1172 3500 
L 2356 3500 
L 2356 3053 
L 1172 3053 
L 1172 1153 
Q 1172 725 1289 603 
Q 1406 481 1766 481 
L 2356 481 
L 2356 0 
L 1766 0 
Q 1100 0 847 248 
Q 594 497 594 1153 
L 594 3053 
L 172 3053 
L 172 3500 
L 594 3500 
L 594 4494 
L 1172 4494 
z
" transform="scale(0.015625)"/>
       <path id="DejaVuSans-69" d="M 603 3500 
L 1178 3500 
L 1178 0 
L 603 0 
L 603 3500 
z
M 603 4863 
L 1178 4863 
L 1178 4134 
L 603 4134 
L 603 4863 
z
" transform="scale(0.015625)"/>
       <path id="DejaVuSans-63" d="M 3122 3366 
L 3122 2828 
Q 2878 2963 2633 3030 
Q 2388 3097 2138 3097 
Q 1578 3097 1268 2742 
Q 959 2388 959 1747 
Q 959 1106 1268 751 
Q 1578 397 2138 397 
Q 2388 397 2633 464 
Q 2878 531 3122 666 
L 3122 134 
Q 2881 22 2623 -34 
Q 2366 -91 2075 -91 
Q 1284 -91 818 406 
Q 353 903 353 1747 
Q 353 2603 823 3093 
Q 1294 3584 2113 3584 
Q 2378 3584 2631 3529 
Q 2884 3475 3122 3366 
z
" transform="scale(0.015625)"/>
       <path id="DejaVuSans-6c" d="M 603 4863 
L 1178 4863 
L 1178 0 
L 603 0 
L 603 4863 
z
" transform="scale(0.015625)"/>
       <path id="DejaVuSans-65" d="M 3597 1894 
L 3597 1613 
L 953 1613 
Q 991 1019 1311 708 
Q 1631 397 2203 397 
Q 2534 397 2845 478 
Q 3156 559 3463 722 
L 3463 178 
Q 3153 47 2828 -22 
Q 2503 -91 2169 -91 
Q 1331 -91 842 396 
Q 353 884 353 1716 
Q 353 2575 817 3079 
Q 1281 3584 2069 3584 
Q 2775 3584 3186 3129 
Q 3597 2675 3597 1894 
z
M 3022 2063 
Q 3016 2534 2758 2815 
Q 2500 3097 2075 3097 
Q 1594 3097 1305 2825 
Q 1016 2553 972 2059 
L 3022 2063 
z
" transform="scale(0.015625)"/>
       <path id="DejaVuSans-73" d="M 2834 3397 
L 2834 2853 
Q 2591 2978 2328 3040 
Q 2066 3103 1784 3103 
Q 1356 3103 1142 2972 
Q 928 2841 928 2578 
Q 928 2378 1081 2264 
Q 1234 2150 1697 2047 
L 1894 2003 
Q 2506 1872 2764 1633 
Q 3022 1394 3022 966 
Q 3022 478 2636 193 
Q 2250 -91 1575 -91 
Q 1294 -91 989 -36 
Q 684 19 347 128 
L 347 722 
Q 666 556 975 473 
Q 1284 391 1588 391 
Q 1994 391 2212 530 
Q 2431 669 2431 922 
Q 2431 1156 2273 1281 
Q 2116 1406 1581 1522 
L 1381 1569 
Q 847 1681 609 1914 
Q 372 2147 372 2553 
Q 372 3047 722 3315 
Q 1072 3584 1716 3584 
Q 2034 3584 2315 3537 
Q 2597 3491 2834 3397 
z
" transform="scale(0.015625)"/>
       <path id="DejaVuSans-20" transform="scale(0.015625)"/>
       <path id="DejaVuSans-28" d="M 1984 4856 
Q 1566 4138 1362 3434 
Q 1159 2731 1159 2009 
Q 1159 1288 1364 580 
Q 1569 -128 1984 -844 
L 1484 -844 
Q 1016 -109 783 600 
Q 550 1309 550 2009 
Q 550 2706 781 3412 
Q 1013 4119 1484 4856 
L 1984 4856 
z
" transform="scale(0.015625)"/>
       <path id="DejaVuSans-70" d="M 1159 525 
L 1159 -1331 
L 581 -1331 
L 581 3500 
L 1159 3500 
L 1159 2969 
Q 1341 3281 1617 3432 
Q 1894 3584 2278 3584 
Q 2916 3584 3314 3078 
Q 3713 2572 3713 1747 
Q 3713 922 3314 415 
Q 2916 -91 2278 -91 
Q 1894 -91 1617 61 
Q 1341 213 1159 525 
z
M 3116 1747 
Q 3116 2381 2855 2742 
Q 2594 3103 2138 3103 
Q 1681 3103 1420 2742 
Q 1159 2381 1159 1747 
Q 1159 1113 1420 752 
Q 1681 391 2138 391 
Q 2594 391 2855 752 
Q 3116 1113 3116 1747 
z
" transform="scale(0.015625)"/>
       <path id="DejaVuSans-6d" d="M 3328 2828 
Q 3544 3216 3844 3400 
Q 4144 3584 4550 3584 
Q 5097 3584 5394 3201 
Q 5691 2819 5691 2113 
L 5691 0 
L 5113 0 
L 5113 2094 
Q 5113 2597 4934 2840 
Q 4756 3084 4391 3084 
Q 3944 3084 3684 2787 
Q 3425 2491 3425 1978 
L 3425 0 
L 2847 0 
L 2847 2094 
Q 2847 2600 2669 2842 
Q 2491 3084 2119 3084 
Q 1678 3084 1418 2786 
Q 1159 2488 1159 1978 
L 1159 0 
L 581 0 
L 581 3500 
L 1159 3500 
L 1159 2956 
Q 1356 3278 1631 3431 
Q 1906 3584 2284 3584 
Q 2666 3584 2933 3390 
Q 3200 3197 3328 2828 
z
" transform="scale(0.015625)"/>
       <path id="DejaVuSans-64" d="M 2906 2969 
L 2906 4863 
L 3481 4863 
L 3481 0 
L 2906 0 
L 2906 525 
Q 2725 213 2448 61 
Q 2172 -91 1784 -91 
Q 1150 -91 751 415 
Q 353 922 353 1747 
Q 353 2572 751 3078 
Q 1150 3584 1784 3584 
Q 2172 3584 2448 3432 
Q 2725 3281 2906 2969 
z
M 947 1747 
Q 947 1113 1208 752 
Q 1469 391 1925 391 
Q 2381 391 2643 752 
Q 2906 1113 2906 1747 
Q 2906 2381 2643 2742 
Q 2381 3103 1925 3103 
Q 1469 3103 1208 2742 
Q 947 2381 947 1747 
z
" transform="scale(0.015625)"/>
       <path id="DejaVuSans-29" d="M 513 4856 
L 1013 4856 
Q 1481 4119 1714 3412 
Q 1947 2706 1947 2009 
Q 1947 1309 1714 600 
Q 1481 -109 1013 -844 
L 513 -844 
Q 928 -128 1133 580 
Q 1338 1288 1338 2009 
Q 1338 2731 1133 3434 
Q 928 4138 513 4856 
z
" transform="scale(0.015625)"/>
      </defs>
      <use xlink:href="#DejaVuSans-41"/>
      <use xlink:href="#DejaVuSans-72" transform="translate(68.408203 0)"/>
      <use xlink:href="#DejaVuSans-74" transform="translate(109.521484 0)"/>
      <use xlink:href="#DejaVuSans-69" transform="translate(148.730469 0)"/>
      <use xlink:href="#DejaVuSans-63" transform="translate(176.513672 0)"/>
      <use xlink:href="#DejaVuSans-6c" transform="translate(231.494141 0)"/>
      <use xlink:href="#DejaVuSans-65" transform="translate(259.277344 0)"/>
      <use xlink:href="#DejaVuSans-73" transform="translate(320.800781 0)"/>
      <use xlink:href="#DejaVuSans-20" transform="translate(372.900391 0)"/>
      <use xlink:href="#DejaVuSans-28" transform="translate(404.6875 0)"/>
      <use xlink:href="#DejaVuSans-70" transform="translate(443.701172 0)"/>
      <use xlink:href="#DejaVuSans-6d" transform="translate(507.177734 0)"/>
      <use xlink:href="#DejaVuSans-69" transform="translate(604.589844 0)"/>
      <use xlink:href="#DejaVuSans-64" transform="translate(632.373047 0)"/>
      <use xlink:href="#DejaVuSans-29" transform="translate(695.849609 0)"/>
     </g>
    </g>
   </g>
   <g id="matplotlib.axis_2">
    <g id="ytick_1">
     <g id="line2d_6">
      <defs>
       <path id="m4c253e7742" d="M 0 0 
L -3.5 0 
" style="stroke: #000000; stroke-width: 0.8"/>
      </defs>
      <g>
       <use xlink:href="#m4c253e7742" x="70.22" y="386.44" style="stroke: #000000; stroke-width: 0.8"/>
      </g>
     </g>
     <g id="text_7">
      <!-- 0.0000 -->
      <g transform="translate(28.229375 390.239219) scale(0.1 -0.1)">
       <defs>
        <path id="DejaVuSans-2e" d="M 684 794 
L 1344 794 
L 1344 0 
L 684 0 
L 684 794 
z
" transform="scale(0.015625)"/>
       </defs>
       <use xlink:href="#DejaVuSans-30"/>
       <use xlink:href="#DejaVuSans-2e" transform="translate(63.623047 0)"/>
       <use xlink:href="#DejaVuSans-30" transform="translate(95.410156 0)"/>
       <use xlink:href="#DejaVuSans-30" transform="translate(159.033203 0)"/>
       <use xlink:href="#DejaVuSans-30" transform="translate(222.65625 0)"/>
       <use xlink:href="#DejaVuSans-30" transform="translate(286.279297 0)"/>
      </g>
     </g>
    </g>
    <g id="ytick_2">
     <g id="line2d_7">
      <g>
       <use xlink:href="#m4c253e7742" x="70.22" y="314.062384" style="stroke: #000000; stroke-width: 0.8"/>
      </g>
     </g>
     <g id="text_8">
      <!-- 0.0005 -->
      <g transform="translate(28.229375 317.861602) scale(0.1 -0.1)">
       <defs>
        <path id="DejaVuSans-35" d="M 691 4666 
L 3169 4666 
L 3169 4134 
L 1269 4134 
L 1269 2991 
Q 1406 3038 1543 3061 
Q 1681 3084 1819 3084 
Q 2600 3084 3056 2656 
Q 3513 2228 3513 1497 
Q 3513 744 3044 326 
Q 2575 -91 1722 -91 
Q 1428 -91 1123 -41 
Q 819 9 494 109 
L 494 744 
Q 775 591 1075 516 
Q 1375 441 1709 441 
Q 2250 441 2565 725 
Q 2881 1009 2881 1497 
Q 2881 1984 2565 2268 
Q 2250 2553 1709 2553 
Q 1456 2553 1204 2497 
Q 953 2441 691 2322 
L 691 4666 
z
" transform="scale(0.015625)"/>
       </defs>
       <use xlink:href="#DejaVuSans-30"/>
       <use xlink:href="#DejaVuSans-2e" transform="translate(63.623047 0)"/>
       <use xlink:href="#DejaVuSans-30" transform="translate(95.410156 0)"/>
       <use xlink:href="#DejaVuSans-30" transform="translate(159.033203 0)"/>
       <use xlink:href="#DejaVuSans-30" transform="translate(222.65625 0)"/>
       <use xlink:href="#DejaVuSans-35" transform="translate(286.279297 0)"/>
      </g>
     </g>
    </g>
    <g id="ytick_3">
     <g id="line2d_8">
      <g>
       <use xlink:href="#m4c253e7742" x="70.22" y="241.684767" style="stroke: #000000; stroke-width: 0.8"/>
      </g>
     </g>
     <g id="text_9">
      <!-- 0.0010 -->
      <g transform="translate(28.229375 245.483986) scale(0.1 -0.1)">
       <use xlink:href="#DejaVuSans-30"/>
       <use xlink:href="#DejaVuSans-2e" transform="translate(63.623047 0)"/>
       <use xlink:href="#DejaVuSans-30" transform="translate(95.410156 0)"/>
       <use xlink:href="#DejaVuSans-30" transform="translate(159.033203 0)"/>
       <use xlink:href="#DejaVuSans-31" transform="translate(222.65625 0)"/>
       <use xlink:href="#DejaVuSans-30" transform="translate(286.279297 0)"/>
      </g>
     </g>
    </g>
    <g id="ytick_4">
     <g id="line2d_9">
      <g>
       <use xlink:href="#m4c253e7742" x="70.22" y="169.307151" style="stroke: #000000; stroke-width: 0.8"/>
      </g>
     </g>
     <g id="text_10">
      <!-- 0.0015 -->
      <g transform="translate(28.229375 173.10637) scale(0.1 -0.1)">
       <use xlink:href="#DejaVuSans-30"/>
       <use xlink:href="#DejaVuSans-2e" transform="translate(63.623047 0)"/>
       <use xlink:href="#DejaVuSans-30" transform="translate(95.410156 0)"/>
       <use xlink:href="#DejaVuSans-30" transform="translate(159.033203 0)"/>
       <use xlink:href="#DejaVuSans-31" transform="translate(222.65625 0)"/>
       <use xlink:href="#DejaVuSans-35" transform="translate(286.279297 0)"/>
      </g>
     </g>
    </g>
    <g id="ytick_5">
     <g id="line2d_10">
      <g>
       <use xlink:href="#m4c253e7742" x="70.22" y="96.929535" style="stroke: #000000; stroke-width: 0.8"/>
      </g>
     </g>
     <g id="text_11">
      <!-- 0.0020 -->
      <g transform="translate(28.229375 100.728754) scale(0.1 -0.1)">
       <use xlink:href="#DejaVuSans-30"/>
       <use xlink:href="#DejaVuSans-2e" transform="translate(63.623047 0)"/>
       <use xlink:href="#DejaVuSans-30" transform="translate(95.410156 0)"/>
       <use xlink:href="#DejaVuSans-30" transform="translate(159.033203 0)"/>
       <use xlink:href="#DejaVuSans-32" transform="translate(222.65625 0)"/>
       <use xlink:href="#DejaVuSans-30" transform="translate(286.279297 0)"/>
      </g>
     </g>
    </g>
    <g id="ytick_6">
     <g id="line2d_11">
      <g>
       <use xlink:href="#m4c253e7742" x="70.22" y="24.551919" style="stroke: #000000; stroke-width: 0.8"/>
      </g>
     </g>
     <g id="text_12">
      <!-- 0.0025 -->
      <g transform="translate(28.229375 28.351137) scale(0.1 -0.1)">
       <use xlink:href="#DejaVuSans-30"/>
       <use xlink:href="#DejaVuSans-2e" transform="translate(63.623047 0)"/>
       <use xlink:href="#DejaVuSans-30" transform="translate(95.410156 0)"/>
       <use xlink:href="#DejaVuSans-30" transform="translate(159.033203 0)"/>
       <use xlink:href="#DejaVuSans-32" transform="translate(222.65625 0)"/>
       <use xlink:href="#DejaVuSans-35" transform="translate(286.279297 0)"/>
      </g>
     </g>
    </g>
    <g id="text_13">
     <!-- Density -->
     <g transform="translate(21.317813 225.232031) rotate(-90) scale(0.14 -0.14)">
      <defs>
       <path id="DejaVuSans-44" d="M 1259 4147 
L 1259 519 
L 2022 519 
Q 2988 519 3436 956 
Q 3884 1394 3884 2338 
Q 3884 3275 3436 3711 
Q 2988 4147 2022 4147 
L 1259 4147 
z
M 628 4666 
L 1925 4666 
Q 3281 4666 3915 4102 
Q 4550 3538 4550 2338 
Q 4550 1131 3912 565 
Q 3275 0 1925 0 
L 628 0 
L 628 4666 
z
" transform="scale(0.015625)"/>
       <path id="DejaVuSans-6e" d="M 3513 2113 
L 3513 0 
L 2938 0 
L 2938 2094 
Q 2938 2591 2744 2837 
Q 2550 3084 2163 3084 
Q 1697 3084 1428 2787 
Q 1159 2491 1159 1978 
L 1159 0 
L 581 0 
L 581 3500 
L 1159 3500 
L 1159 2956 
Q 1366 3272 1645 3428 
Q 1925 3584 2291 3584 
Q 2894 3584 3203 3211 
Q 3513 2838 3513 2113 
z
" transform="scale(0.015625)"/>
       <path id="DejaVuSans-79" d="M 2059 -325 
Q 1816 -950 1584 -1140 
Q 1353 -1331 966 -1331 
L 506 -1331 
L 506 -850 
L 844 -850 
Q 1081 -850 1212 -737 
Q 1344 -625 1503 -206 
L 1606 56 
L 191 3500 
L 800 3500 
L 1894 763 
L 2988 3500 
L 3597 3500 
L 2059 -325 
z
" transform="scale(0.015625)"/>
      </defs>
      <use xlink:href="#DejaVuSans-44"/>
      <use xlink:href="#DejaVuSans-65" transform="translate(77.001953 0)"/>
      <use xlink:href="#DejaVuSans-6e" transform="translate(138.525391 0)"/>
      <use xlink:href="#DejaVuSans-73" transform="translate(201.904297 0)"/>
      <use xlink:href="#DejaVuSans-69" transform="translate(254.003906 0)"/>
      <use xlink:href="#DejaVuSans-74" transform="translate(281.787109 0)"/>
      <use xlink:href="#DejaVuSans-79" transform="translate(320.996094 0)"/>
     </g>
    </g>
   </g>
   <g id="patch_3">
    <path d="M 70.22 386.44 
L 70.22 10.8 
" style="fill: none; stroke: #000000; stroke-width: 0.8; stroke-linejoin: miter; stroke-linecap: square"/>
   </g>
   <g id="patch_4">
    <path d="M 565.2 386.44 
L 565.2 10.8 
" style="fill: none; stroke: #000000; stroke-width: 0.8; stroke-linejoin: miter; stroke-linecap: square"/>
   </g>
   <g id="patch_5">
    <path d="M 70.22 386.44 
L 565.2 386.44 
" style="fill: none; stroke: #000000; stroke-width: 0.8; stroke-linejoin: miter; stroke-linecap: square"/>
   </g>
   <g id="patch_6">
    <path d="M 70.22 10.8 
L 565.2 10.8 
" style="fill: none; stroke: #000000; stroke-width: 0.8; stroke-linejoin: miter; stroke-linecap: square"/>
   </g>
   <g id="legend_1">
    <g id="patch_7">
     <path d="M 488.046875 33.478125 
L 558.2 33.478125 
Q 560.2 33.478125 560.2 31.478125 
L 560.2 17.8 
Q 560.2 15.8 558.2 15.8 
L 488.046875 15.8 
Q 486.046875 15.8 486.046875 17.8 
L 486.046875 31.478125 
Q 486.046875 33.478125 488.046875 33.478125 
z
" style="fill: #ffffff; opacity: 0.8; stroke: #cccccc; stroke-linejoin: miter"/>
    </g>
    <g id="patch_8">
     <path d="M 490.046875 27.398438 
L 510.046875 27.398438 
L 510.046875 20.398438 
L 490.046875 20.398438 
z
" style="fill: #1f77b4; fill-opacity: 0.3; stroke: #1f77b4; stroke-linejoin: miter"/>
    </g>
    <g id="text_14">
     <!-- probeId -->
     <g transform="translate(518.046875 27.398438) scale(0.1 -0.1)">
      <defs>
       <path id="DejaVuSans-6f" d="M 1959 3097 
Q 1497 3097 1228 2736 
Q 959 2375 959 1747 
Q 959 1119 1226 758 
Q 1494 397 1959 397 
Q 2419 397 2687 759 
Q 2956 1122 2956 1747 
Q 2956 2369 2687 2733 
Q 2419 3097 1959 3097 
z
M 1959 3584 
Q 2709 3584 3137 3096 
Q 3566 2609 3566 1747 
Q 3566 888 3137 398 
Q 2709 -91 1959 -91 
Q 1206 -91 779 398 
Q 353 888 353 1747 
Q 353 2609 779 3096 
Q 1206 3584 1959 3584 
z
" transform="scale(0.015625)"/>
       <path id="DejaVuSans-62" d="M 3116 1747 
Q 3116 2381 2855 2742 
Q 2594 3103 2138 3103 
Q 1681 3103 1420 2742 
Q 1159 2381 1159 1747 
Q 1159 1113 1420 752 
Q 1681 391 2138 391 
Q 2594 391 2855 752 
Q 3116 1113 3116 1747 
z
M 1159 2969 
Q 1341 3281 1617 3432 
Q 1894 3584 2278 3584 
Q 2916 3584 3314 3078 
Q 3713 2572 3713 1747 
Q 3713 922 3314 415 
Q 2916 -91 2278 -91 
Q 1894 -91 1617 61 
Q 1341 213 1159 525 
L 1159 0 
L 581 0 
L 581 4863 
L 1159 4863 
L 1159 2969 
z
" transform="scale(0.015625)"/>
       <path id="DejaVuSans-49" d="M 628 4666 
L 1259 4666 
L 1259 0 
L 628 0 
L 628 4666 
z
" transform="scale(0.015625)"/>
      </defs>
      <use xlink:href="#DejaVuSans-70"/>
      <use xlink:href="#DejaVuSans-72" transform="translate(63.476562 0)"/>
      <use xlink:href="#DejaVuSans-6f" transform="translate(102.339844 0)"/>
      <use xlink:href="#DejaVuSans-62" transform="translate(163.521484 0)"/>
      <use xlink:href="#DejaVuSans-65" transform="translate(226.998047 0)"/>
      <use xlink:href="#DejaVuSans-49" transform="translate(288.521484 0)"/>
      <use xlink:href="#DejaVuSans-64" transform="translate(318.013672 0)"/>
     </g>
    </g>
   </g>
  </g>
 </g>
 <defs>
  <clipPath id="p752da6c5cb">
   <rect x="70.22" y="10.8" width="494.98" height="375.64"/>
  </clipPath>
 </defs>
</svg>
