<?xml version="1.0" encoding="utf-8" standalone="no"?>
<!DOCTYPE svg PUBLIC "-//W3C//DTD SVG 1.1//EN"
  "http://www.w3.org/Graphics/SVG/1.1/DTD/svg11.dtd">
<svg xmlns:xlink="http://www.w3.org/1999/xlink" width="576pt" height="360pt" viewBox="0 0 576 360" xmlns="http://www.w3.org/2000/svg" version="1.1">
 <metadata>
  <rdf:RDF xmlns:dc="http://purl.org/dc/elements/1.1/" xmlns:cc="http://creativecommons.org/ns#" xmlns:rdf="http://www.w3.org/1999/02/22-rdf-syntax-ns#">
   <cc:Work>
    <dc:type rdf:resource="http://purl.org/dc/dcmitype/StillImage"/>
    <dc:date>2025-12-16T09:27:07.635275</dc:date>
    <dc:format>image/svg+xml</dc:format>
    <dc:creator>
     <cc:Agent>
      <dc:title>Matplotlib v3.10.3, https://matplotlib.org/</dc:title>
     </cc:Agent>
    </dc:creator>
   </cc:Work>
  </rdf:RDF>
 </metadata>
 <defs>
  <style type="text/css">*{stroke-linejoin: round; stroke-linecap: butt}</style>
 </defs>
 <g id="figure_1">
  <g id="patch_1">
   <path d="M 0 360 
L 576 360 
L 576 0 
L 0 0 
z
" style="fill: #ffffff"/>
  </g>
  <g id="axes_1">
   <g id="patch_2">
    <path d="M 51.5 315.16 
L 565.2 315.16 
L 565.2 10.8 
L 51.5 10.8 
z
" style="fill: #ffffff"/>
   </g>
   <g id="matplotlib.axis_1">
    <g id="xtick_1">
     <g id="line2d_1">
      <defs>
       <path id="m43e15192b1" d="M 0 0 
L 0 3.5 
" style="stroke: #262626; stroke-width: 0.8"/>
      </defs>
      <g>
       <use xlink:href="#m43e15192b1" x="102.87" y="315.16" style="fill: #262626; stroke: #262626; stroke-width: 0.8"/>
      </g>
     </g>
     <g id="text_1">
      <!-- 1 -->
      <g style="fill: #262626" transform="translate(100.089531 329.317813) scale(0.1 -0.1)">
       <defs>
        <path id="ArialMT-31" d="M 2384 0 
L 1822 0 
L 1822 3584 
Q 1619 3391 1289 3197 
Q 959 3003 697 2906 
L 697 3450 
Q 1169 3672 1522 3987 
Q 1875 4303 2022 4600 
L 2384 4600 
L 2384 0 
z
" transform="scale(0.015625)"/>
       </defs>
       <use xlink:href="#ArialMT-31"/>
      </g>
     </g>
    </g>
    <g id="xtick_2">
     <g id="line2d_2">
      <g>
       <use xlink:href="#m43e15192b1" x="205.61" y="315.16" style="fill: #262626; stroke: #262626; stroke-width: 0.8"/>
      </g>
     </g>
     <g id="text_2">
      <!-- 2 -->
      <g style="fill: #262626" transform="translate(202.829531 329.317813) scale(0.1 -0.1)">
       <defs>
        <path id="ArialMT-32" d="M 3222 541 
L 3222 0 
L 194 0 
Q 188 203 259 391 
Q 375 700 629 1000 
Q 884 1300 1366 1694 
Q 2113 2306 2375 2664 
Q 2638 3022 2638 3341 
Q 2638 3675 2398 3904 
Q 2159 4134 1775 4134 
Q 1369 4134 1125 3890 
Q 881 3647 878 3216 
L 300 3275 
Q 359 3922 746 4261 
Q 1134 4600 1788 4600 
Q 2447 4600 2831 4234 
Q 3216 3869 3216 3328 
Q 3216 3053 3103 2787 
Q 2991 2522 2730 2228 
Q 2469 1934 1863 1422 
Q 1356 997 1212 845 
Q 1069 694 975 541 
L 3222 541 
z
" transform="scale(0.015625)"/>
       </defs>
       <use xlink:href="#ArialMT-32"/>
      </g>
     </g>
    </g>
    <g id="xtick_3">
     <g id="line2d_3">
      <g>
       <use xlink:href="#m43e15192b1" x="308.35" y="315.16" style="fill: #262626; stroke: #262626; stroke-width: 0.8"/>
      </g>
     </g>
     <g id="text_3">
      <!-- 3 -->
      <g style="fill: #262626" transform="translate(305.569531 329.317813) scale(0.1 -0.1)">
       <defs>
        <path id="ArialMT-33" d="M 269 1209 
L 831 1284 
Q 928 806 1161 595 
Q 1394 384 1728 384 
Q 2125 384 2398 659 
Q 2672 934 2672 1341 
Q 2672 1728 2419 1979 
Q 2166 2231 1775 2231 
Q 1616 2231 1378 2169 
L 1441 2663 
Q 1497 2656 1531 2656 
Q 1891 2656 2178 2843 
Q 2466 3031 2466 3422 
Q 2466 3731 2256 3934 
Q 2047 4138 1716 4138 
Q 1388 4138 1169 3931 
Q 950 3725 888 3313 
L 325 3413 
Q 428 3978 793 4289 
Q 1159 4600 1703 4600 
Q 2078 4600 2393 4439 
Q 2709 4278 2876 4000 
Q 3044 3722 3044 3409 
Q 3044 3113 2884 2869 
Q 2725 2625 2413 2481 
Q 2819 2388 3044 2092 
Q 3269 1797 3269 1353 
Q 3269 753 2831 336 
Q 2394 -81 1725 -81 
Q 1122 -81 723 278 
Q 325 638 269 1209 
z
" transform="scale(0.015625)"/>
       </defs>
       <use xlink:href="#ArialMT-33"/>
      </g>
     </g>
    </g>
    <g id="xtick_4">
     <g id="line2d_4">
      <g>
       <use xlink:href="#m43e15192b1" x="411.09" y="315.16" style="fill: #262626; stroke: #262626; stroke-width: 0.8"/>
      </g>
     </g>
     <g id="text_4">
      <!-- 4 -->
      <g style="fill: #262626" transform="translate(408.309531 329.317813) scale(0.1 -0.1)">
       <defs>
        <path id="ArialMT-34" d="M 2069 0 
L 2069 1097 
L 81 1097 
L 81 1613 
L 2172 4581 
L 2631 4581 
L 2631 1613 
L 3250 1613 
L 3250 1097 
L 2631 1097 
L 2631 0 
L 2069 0 
z
M 2069 1613 
L 2069 3678 
L 634 1613 
L 2069 1613 
z
" transform="scale(0.015625)"/>
       </defs>
       <use xlink:href="#ArialMT-34"/>
      </g>
     </g>
    </g>
    <g id="xtick_5">
     <g id="line2d_5">
      <g>
       <use xlink:href="#m43e15192b1" x="513.83" y="315.16" style="fill: #262626; stroke: #262626; stroke-width: 0.8"/>
      </g>
     </g>
     <g id="text_5">
      <!-- 5 -->
      <g style="fill: #262626" transform="translate(511.049531 329.317813) scale(0.1 -0.1)">
       <defs>
        <path id="ArialMT-35" d="M 266 1200 
L 856 1250 
Q 922 819 1161 601 
Q 1400 384 1738 384 
Q 2144 384 2425 690 
Q 2706 997 2706 1503 
Q 2706 1984 2436 2262 
Q 2166 2541 1728 2541 
Q 1456 2541 1237 2417 
Q 1019 2294 894 2097 
L 366 2166 
L 809 4519 
L 3088 4519 
L 3088 3981 
L 1259 3981 
L 1013 2750 
Q 1425 3038 1878 3038 
Q 2478 3038 2890 2622 
Q 3303 2206 3303 1553 
Q 3303 931 2941 478 
Q 2500 -78 1738 -78 
Q 1113 -78 717 272 
Q 322 622 266 1200 
z
" transform="scale(0.015625)"/>
       </defs>
       <use xlink:href="#ArialMT-35"/>
      </g>
     </g>
    </g>
    <g id="text_6">
     <!-- Targets count (targetId) -->
     <g style="fill: #262626" transform="translate(235.990781 345.496875) scale(0.14 -0.14)">
      <defs>
       <path id="ArialMT-54" d="M 1659 0 
L 1659 4041 
L 150 4041 
L 150 4581 
L 3781 4581 
L 3781 4041 
L 2266 4041 
L 2266 0 
L 1659 0 
z
" transform="scale(0.015625)"/>
       <path id="ArialMT-61" d="M 2588 409 
Q 2275 144 1986 34 
Q 1697 -75 1366 -75 
Q 819 -75 525 192 
Q 231 459 231 875 
Q 231 1119 342 1320 
Q 453 1522 633 1644 
Q 813 1766 1038 1828 
Q 1203 1872 1538 1913 
Q 2219 1994 2541 2106 
Q 2544 2222 2544 2253 
Q 2544 2597 2384 2738 
Q 2169 2928 1744 2928 
Q 1347 2928 1158 2789 
Q 969 2650 878 2297 
L 328 2372 
Q 403 2725 575 2942 
Q 747 3159 1072 3276 
Q 1397 3394 1825 3394 
Q 2250 3394 2515 3294 
Q 2781 3194 2906 3042 
Q 3031 2891 3081 2659 
Q 3109 2516 3109 2141 
L 3109 1391 
Q 3109 606 3145 398 
Q 3181 191 3288 0 
L 2700 0 
Q 2613 175 2588 409 
z
M 2541 1666 
Q 2234 1541 1622 1453 
Q 1275 1403 1131 1340 
Q 988 1278 909 1158 
Q 831 1038 831 891 
Q 831 666 1001 516 
Q 1172 366 1500 366 
Q 1825 366 2078 508 
Q 2331 650 2450 897 
Q 2541 1088 2541 1459 
L 2541 1666 
z
" transform="scale(0.015625)"/>
       <path id="ArialMT-72" d="M 416 0 
L 416 3319 
L 922 3319 
L 922 2816 
Q 1116 3169 1280 3281 
Q 1444 3394 1641 3394 
Q 1925 3394 2219 3213 
L 2025 2691 
Q 1819 2813 1613 2813 
Q 1428 2813 1281 2702 
Q 1134 2591 1072 2394 
Q 978 2094 978 1738 
L 978 0 
L 416 0 
z
" transform="scale(0.015625)"/>
       <path id="ArialMT-67" d="M 319 -275 
L 866 -356 
Q 900 -609 1056 -725 
Q 1266 -881 1628 -881 
Q 2019 -881 2231 -725 
Q 2444 -569 2519 -288 
Q 2563 -116 2559 434 
Q 2191 0 1641 0 
Q 956 0 581 494 
Q 206 988 206 1678 
Q 206 2153 378 2554 
Q 550 2956 876 3175 
Q 1203 3394 1644 3394 
Q 2231 3394 2613 2919 
L 2613 3319 
L 3131 3319 
L 3131 450 
Q 3131 -325 2973 -648 
Q 2816 -972 2473 -1159 
Q 2131 -1347 1631 -1347 
Q 1038 -1347 672 -1080 
Q 306 -813 319 -275 
z
M 784 1719 
Q 784 1066 1043 766 
Q 1303 466 1694 466 
Q 2081 466 2343 764 
Q 2606 1063 2606 1700 
Q 2606 2309 2336 2618 
Q 2066 2928 1684 2928 
Q 1309 2928 1046 2623 
Q 784 2319 784 1719 
z
" transform="scale(0.015625)"/>
       <path id="ArialMT-65" d="M 2694 1069 
L 3275 997 
Q 3138 488 2766 206 
Q 2394 -75 1816 -75 
Q 1088 -75 661 373 
Q 234 822 234 1631 
Q 234 2469 665 2931 
Q 1097 3394 1784 3394 
Q 2450 3394 2872 2941 
Q 3294 2488 3294 1666 
Q 3294 1616 3291 1516 
L 816 1516 
Q 847 969 1125 678 
Q 1403 388 1819 388 
Q 2128 388 2347 550 
Q 2566 713 2694 1069 
z
M 847 1978 
L 2700 1978 
Q 2663 2397 2488 2606 
Q 2219 2931 1791 2931 
Q 1403 2931 1139 2672 
Q 875 2413 847 1978 
z
" transform="scale(0.015625)"/>
       <path id="ArialMT-74" d="M 1650 503 
L 1731 6 
Q 1494 -44 1306 -44 
Q 1000 -44 831 53 
Q 663 150 594 308 
Q 525 466 525 972 
L 525 2881 
L 113 2881 
L 113 3319 
L 525 3319 
L 525 4141 
L 1084 4478 
L 1084 3319 
L 1650 3319 
L 1650 2881 
L 1084 2881 
L 1084 941 
Q 1084 700 1114 631 
Q 1144 563 1211 522 
Q 1278 481 1403 481 
Q 1497 481 1650 503 
z
" transform="scale(0.015625)"/>
       <path id="ArialMT-73" d="M 197 991 
L 753 1078 
Q 800 744 1014 566 
Q 1228 388 1613 388 
Q 2000 388 2187 545 
Q 2375 703 2375 916 
Q 2375 1106 2209 1216 
Q 2094 1291 1634 1406 
Q 1016 1563 777 1677 
Q 538 1791 414 1992 
Q 291 2194 291 2438 
Q 291 2659 392 2848 
Q 494 3038 669 3163 
Q 800 3259 1026 3326 
Q 1253 3394 1513 3394 
Q 1903 3394 2198 3281 
Q 2494 3169 2634 2976 
Q 2775 2784 2828 2463 
L 2278 2388 
Q 2241 2644 2061 2787 
Q 1881 2931 1553 2931 
Q 1166 2931 1000 2803 
Q 834 2675 834 2503 
Q 834 2394 903 2306 
Q 972 2216 1119 2156 
Q 1203 2125 1616 2013 
Q 2213 1853 2448 1751 
Q 2684 1650 2818 1456 
Q 2953 1263 2953 975 
Q 2953 694 2789 445 
Q 2625 197 2315 61 
Q 2006 -75 1616 -75 
Q 969 -75 630 194 
Q 291 463 197 991 
z
" transform="scale(0.015625)"/>
       <path id="ArialMT-20" transform="scale(0.015625)"/>
       <path id="ArialMT-63" d="M 2588 1216 
L 3141 1144 
Q 3050 572 2676 248 
Q 2303 -75 1759 -75 
Q 1078 -75 664 370 
Q 250 816 250 1647 
Q 250 2184 428 2587 
Q 606 2991 970 3192 
Q 1334 3394 1763 3394 
Q 2303 3394 2647 3120 
Q 2991 2847 3088 2344 
L 2541 2259 
Q 2463 2594 2264 2762 
Q 2066 2931 1784 2931 
Q 1359 2931 1093 2626 
Q 828 2322 828 1663 
Q 828 994 1084 691 
Q 1341 388 1753 388 
Q 2084 388 2306 591 
Q 2528 794 2588 1216 
z
" transform="scale(0.015625)"/>
       <path id="ArialMT-6f" d="M 213 1659 
Q 213 2581 725 3025 
Q 1153 3394 1769 3394 
Q 2453 3394 2887 2945 
Q 3322 2497 3322 1706 
Q 3322 1066 3130 698 
Q 2938 331 2570 128 
Q 2203 -75 1769 -75 
Q 1072 -75 642 372 
Q 213 819 213 1659 
z
M 791 1659 
Q 791 1022 1069 705 
Q 1347 388 1769 388 
Q 2188 388 2466 706 
Q 2744 1025 2744 1678 
Q 2744 2294 2464 2611 
Q 2184 2928 1769 2928 
Q 1347 2928 1069 2612 
Q 791 2297 791 1659 
z
" transform="scale(0.015625)"/>
       <path id="ArialMT-75" d="M 2597 0 
L 2597 488 
Q 2209 -75 1544 -75 
Q 1250 -75 995 37 
Q 741 150 617 320 
Q 494 491 444 738 
Q 409 903 409 1263 
L 409 3319 
L 972 3319 
L 972 1478 
Q 972 1038 1006 884 
Q 1059 663 1231 536 
Q 1403 409 1656 409 
Q 1909 409 2131 539 
Q 2353 669 2445 892 
Q 2538 1116 2538 1541 
L 2538 3319 
L 3100 3319 
L 3100 0 
L 2597 0 
z
" transform="scale(0.015625)"/>
       <path id="ArialMT-6e" d="M 422 0 
L 422 3319 
L 928 3319 
L 928 2847 
Q 1294 3394 1984 3394 
Q 2284 3394 2536 3286 
Q 2788 3178 2913 3003 
Q 3038 2828 3088 2588 
Q 3119 2431 3119 2041 
L 3119 0 
L 2556 0 
L 2556 2019 
Q 2556 2363 2490 2533 
Q 2425 2703 2258 2804 
Q 2091 2906 1866 2906 
Q 1506 2906 1245 2678 
Q 984 2450 984 1813 
L 984 0 
L 422 0 
z
" transform="scale(0.015625)"/>
       <path id="ArialMT-28" d="M 1497 -1347 
Q 1031 -759 709 28 
Q 388 816 388 1659 
Q 388 2403 628 3084 
Q 909 3875 1497 4659 
L 1900 4659 
Q 1522 4009 1400 3731 
Q 1209 3300 1100 2831 
Q 966 2247 966 1656 
Q 966 153 1900 -1347 
L 1497 -1347 
z
" transform="scale(0.015625)"/>
       <path id="ArialMT-49" d="M 597 0 
L 597 4581 
L 1203 4581 
L 1203 0 
L 597 0 
z
" transform="scale(0.015625)"/>
       <path id="ArialMT-64" d="M 2575 0 
L 2575 419 
Q 2259 -75 1647 -75 
Q 1250 -75 917 144 
Q 584 363 401 755 
Q 219 1147 219 1656 
Q 219 2153 384 2558 
Q 550 2963 881 3178 
Q 1213 3394 1622 3394 
Q 1922 3394 2156 3267 
Q 2391 3141 2538 2938 
L 2538 4581 
L 3097 4581 
L 3097 0 
L 2575 0 
z
M 797 1656 
Q 797 1019 1065 703 
Q 1334 388 1700 388 
Q 2069 388 2326 689 
Q 2584 991 2584 1609 
Q 2584 2291 2321 2609 
Q 2059 2928 1675 2928 
Q 1300 2928 1048 2622 
Q 797 2316 797 1656 
z
" transform="scale(0.015625)"/>
       <path id="ArialMT-29" d="M 791 -1347 
L 388 -1347 
Q 1322 153 1322 1656 
Q 1322 2244 1188 2822 
Q 1081 3291 891 3722 
Q 769 4003 388 4659 
L 791 4659 
Q 1378 3875 1659 3084 
Q 1900 2403 1900 1659 
Q 1900 816 1576 28 
Q 1253 -759 791 -1347 
z
" transform="scale(0.015625)"/>
      </defs>
      <use xlink:href="#ArialMT-54"/>
      <use xlink:href="#ArialMT-61" transform="translate(49.958984 0)"/>
      <use xlink:href="#ArialMT-72" transform="translate(105.574219 0)"/>
      <use xlink:href="#ArialMT-67" transform="translate(138.875 0)"/>
      <use xlink:href="#ArialMT-65" transform="translate(194.490234 0)"/>
      <use xlink:href="#ArialMT-74" transform="translate(250.105469 0)"/>
      <use xlink:href="#ArialMT-73" transform="translate(277.888672 0)"/>
      <use xlink:href="#ArialMT-20" transform="translate(327.888672 0)"/>
      <use xlink:href="#ArialMT-63" transform="translate(355.671875 0)"/>
      <use xlink:href="#ArialMT-6f" transform="translate(405.671875 0)"/>
      <use xlink:href="#ArialMT-75" transform="translate(461.287109 0)"/>
      <use xlink:href="#ArialMT-6e" transform="translate(516.902344 0)"/>
      <use xlink:href="#ArialMT-74" transform="translate(572.517578 0)"/>
      <use xlink:href="#ArialMT-20" transform="translate(600.300781 0)"/>
      <use xlink:href="#ArialMT-28" transform="translate(628.083984 0)"/>
      <use xlink:href="#ArialMT-74" transform="translate(661.384766 0)"/>
      <use xlink:href="#ArialMT-61" transform="translate(689.167969 0)"/>
      <use xlink:href="#ArialMT-72" transform="translate(744.783203 0)"/>
      <use xlink:href="#ArialMT-67" transform="translate(778.083984 0)"/>
      <use xlink:href="#ArialMT-65" transform="translate(833.699219 0)"/>
      <use xlink:href="#ArialMT-74" transform="translate(889.314453 0)"/>
      <use xlink:href="#ArialMT-49" transform="translate(917.097656 0)"/>
      <use xlink:href="#ArialMT-64" transform="translate(944.880859 0)"/>
      <use xlink:href="#ArialMT-29" transform="translate(1000.496094 0)"/>
     </g>
    </g>
   </g>
   <g id="matplotlib.axis_2">
    <g id="ytick_1">
     <g id="line2d_6">
      <defs>
       <path id="mc7cffeeb5a" d="M 0 0 
L -3.5 0 
" style="stroke: #262626; stroke-width: 0.8"/>
      </defs>
      <g>
       <use xlink:href="#mc7cffeeb5a" x="51.5" y="271.985274" style="fill: #262626; stroke: #262626; stroke-width: 0.8"/>
      </g>
     </g>
     <g id="text_7">
      <!-- 0 -->
      <g style="fill: #262626" transform="translate(38.939063 275.56418) scale(0.1 -0.1)">
       <defs>
        <path id="ArialMT-30" d="M 266 2259 
Q 266 3072 433 3567 
Q 600 4063 929 4331 
Q 1259 4600 1759 4600 
Q 2128 4600 2406 4451 
Q 2684 4303 2865 4023 
Q 3047 3744 3150 3342 
Q 3253 2941 3253 2259 
Q 3253 1453 3087 958 
Q 2922 463 2592 192 
Q 2263 -78 1759 -78 
Q 1097 -78 719 397 
Q 266 969 266 2259 
z
M 844 2259 
Q 844 1131 1108 757 
Q 1372 384 1759 384 
Q 2147 384 2411 759 
Q 2675 1134 2675 2259 
Q 2675 3391 2411 3762 
Q 2147 4134 1753 4134 
Q 1366 4134 1134 3806 
Q 844 3388 844 2259 
z
" transform="scale(0.015625)"/>
       </defs>
       <use xlink:href="#ArialMT-30"/>
      </g>
     </g>
    </g>
    <g id="ytick_2">
     <g id="line2d_7">
      <g>
       <use xlink:href="#mc7cffeeb5a" x="51.5" y="209.392793" style="fill: #262626; stroke: #262626; stroke-width: 0.8"/>
      </g>
     </g>
     <g id="text_8">
      <!-- 200 -->
      <g style="fill: #262626" transform="translate(27.817188 212.971699) scale(0.1 -0.1)">
       <use xlink:href="#ArialMT-32"/>
       <use xlink:href="#ArialMT-30" transform="translate(55.615234 0)"/>
       <use xlink:href="#ArialMT-30" transform="translate(111.230469 0)"/>
      </g>
     </g>
    </g>
    <g id="ytick_3">
     <g id="line2d_8">
      <g>
       <use xlink:href="#mc7cffeeb5a" x="51.5" y="146.800312" style="fill: #262626; stroke: #262626; stroke-width: 0.8"/>
      </g>
     </g>
     <g id="text_9">
      <!-- 400 -->
      <g style="fill: #262626" transform="translate(27.817188 150.379219) scale(0.1 -0.1)">
       <use xlink:href="#ArialMT-34"/>
       <use xlink:href="#ArialMT-30" transform="translate(55.615234 0)"/>
       <use xlink:href="#ArialMT-30" transform="translate(111.230469 0)"/>
      </g>
     </g>
    </g>
    <g id="ytick_4">
     <g id="line2d_9">
      <g>
       <use xlink:href="#mc7cffeeb5a" x="51.5" y="84.207832" style="fill: #262626; stroke: #262626; stroke-width: 0.8"/>
      </g>
     </g>
     <g id="text_10">
      <!-- 600 -->
      <g style="fill: #262626" transform="translate(27.817188 87.786738) scale(0.1 -0.1)">
       <defs>
        <path id="ArialMT-36" d="M 3184 3459 
L 2625 3416 
Q 2550 3747 2413 3897 
Q 2184 4138 1850 4138 
Q 1581 4138 1378 3988 
Q 1113 3794 959 3422 
Q 806 3050 800 2363 
Q 1003 2672 1297 2822 
Q 1591 2972 1913 2972 
Q 2475 2972 2870 2558 
Q 3266 2144 3266 1488 
Q 3266 1056 3080 686 
Q 2894 316 2569 119 
Q 2244 -78 1831 -78 
Q 1128 -78 684 439 
Q 241 956 241 2144 
Q 241 3472 731 4075 
Q 1159 4600 1884 4600 
Q 2425 4600 2770 4297 
Q 3116 3994 3184 3459 
z
M 888 1484 
Q 888 1194 1011 928 
Q 1134 663 1356 523 
Q 1578 384 1822 384 
Q 2178 384 2434 671 
Q 2691 959 2691 1453 
Q 2691 1928 2437 2201 
Q 2184 2475 1800 2475 
Q 1419 2475 1153 2201 
Q 888 1928 888 1484 
z
" transform="scale(0.015625)"/>
       </defs>
       <use xlink:href="#ArialMT-36"/>
       <use xlink:href="#ArialMT-30" transform="translate(55.615234 0)"/>
       <use xlink:href="#ArialMT-30" transform="translate(111.230469 0)"/>
      </g>
     </g>
    </g>
    <g id="ytick_5">
     <g id="line2d_10">
      <g>
       <use xlink:href="#mc7cffeeb5a" x="51.5" y="21.615351" style="fill: #262626; stroke: #262626; stroke-width: 0.8"/>
      </g>
     </g>
     <g id="text_11">
      <!-- 800 -->
      <g style="fill: #262626" transform="translate(27.817188 25.194257) scale(0.1 -0.1)">
       <defs>
        <path id="ArialMT-38" d="M 1131 2484 
Q 781 2613 612 2850 
Q 444 3088 444 3419 
Q 444 3919 803 4259 
Q 1163 4600 1759 4600 
Q 2359 4600 2725 4251 
Q 3091 3903 3091 3403 
Q 3091 3084 2923 2848 
Q 2756 2613 2416 2484 
Q 2838 2347 3058 2040 
Q 3278 1734 3278 1309 
Q 3278 722 2862 322 
Q 2447 -78 1769 -78 
Q 1091 -78 675 323 
Q 259 725 259 1325 
Q 259 1772 486 2073 
Q 713 2375 1131 2484 
z
M 1019 3438 
Q 1019 3113 1228 2906 
Q 1438 2700 1772 2700 
Q 2097 2700 2305 2904 
Q 2513 3109 2513 3406 
Q 2513 3716 2298 3927 
Q 2084 4138 1766 4138 
Q 1444 4138 1231 3931 
Q 1019 3725 1019 3438 
z
M 838 1322 
Q 838 1081 952 856 
Q 1066 631 1291 507 
Q 1516 384 1775 384 
Q 2178 384 2440 643 
Q 2703 903 2703 1303 
Q 2703 1709 2433 1975 
Q 2163 2241 1756 2241 
Q 1359 2241 1098 1978 
Q 838 1716 838 1322 
z
" transform="scale(0.015625)"/>
       </defs>
       <use xlink:href="#ArialMT-38"/>
       <use xlink:href="#ArialMT-30" transform="translate(55.615234 0)"/>
       <use xlink:href="#ArialMT-30" transform="translate(111.230469 0)"/>
      </g>
     </g>
    </g>
    <g id="text_12">
     <!-- Diseases count (diseaseId) -->
     <g style="fill: #262626" transform="translate(20.870625 247.405469) rotate(-90) scale(0.14 -0.14)">
      <defs>
       <path id="ArialMT-44" d="M 494 0 
L 494 4581 
L 2072 4581 
Q 2606 4581 2888 4516 
Q 3281 4425 3559 4188 
Q 3922 3881 4101 3404 
Q 4281 2928 4281 2316 
Q 4281 1794 4159 1391 
Q 4038 988 3847 723 
Q 3656 459 3429 307 
Q 3203 156 2883 78 
Q 2563 0 2147 0 
L 494 0 
z
M 1100 541 
L 2078 541 
Q 2531 541 2789 625 
Q 3047 709 3200 863 
Q 3416 1078 3536 1442 
Q 3656 1806 3656 2325 
Q 3656 3044 3420 3430 
Q 3184 3816 2847 3947 
Q 2603 4041 2063 4041 
L 1100 4041 
L 1100 541 
z
" transform="scale(0.015625)"/>
       <path id="ArialMT-69" d="M 425 3934 
L 425 4581 
L 988 4581 
L 988 3934 
L 425 3934 
z
M 425 0 
L 425 3319 
L 988 3319 
L 988 0 
L 425 0 
z
" transform="scale(0.015625)"/>
      </defs>
      <use xlink:href="#ArialMT-44"/>
      <use xlink:href="#ArialMT-69" transform="translate(72.216797 0)"/>
      <use xlink:href="#ArialMT-73" transform="translate(94.433594 0)"/>
      <use xlink:href="#ArialMT-65" transform="translate(144.433594 0)"/>
      <use xlink:href="#ArialMT-61" transform="translate(200.048828 0)"/>
      <use xlink:href="#ArialMT-73" transform="translate(255.664062 0)"/>
      <use xlink:href="#ArialMT-65" transform="translate(305.664062 0)"/>
      <use xlink:href="#ArialMT-73" transform="translate(361.279297 0)"/>
      <use xlink:href="#ArialMT-20" transform="translate(411.279297 0)"/>
      <use xlink:href="#ArialMT-63" transform="translate(439.0625 0)"/>
      <use xlink:href="#ArialMT-6f" transform="translate(489.0625 0)"/>
      <use xlink:href="#ArialMT-75" transform="translate(544.677734 0)"/>
      <use xlink:href="#ArialMT-6e" transform="translate(600.292969 0)"/>
      <use xlink:href="#ArialMT-74" transform="translate(655.908203 0)"/>
      <use xlink:href="#ArialMT-20" transform="translate(683.691406 0)"/>
      <use xlink:href="#ArialMT-28" transform="translate(711.474609 0)"/>
      <use xlink:href="#ArialMT-64" transform="translate(744.775391 0)"/>
      <use xlink:href="#ArialMT-69" transform="translate(800.390625 0)"/>
      <use xlink:href="#ArialMT-73" transform="translate(822.607422 0)"/>
      <use xlink:href="#ArialMT-65" transform="translate(872.607422 0)"/>
      <use xlink:href="#ArialMT-61" transform="translate(928.222656 0)"/>
      <use xlink:href="#ArialMT-73" transform="translate(983.837891 0)"/>
      <use xlink:href="#ArialMT-65" transform="translate(1033.837891 0)"/>
      <use xlink:href="#ArialMT-49" transform="translate(1089.453125 0)"/>
      <use xlink:href="#ArialMT-64" transform="translate(1117.236328 0)"/>
      <use xlink:href="#ArialMT-29" transform="translate(1172.851562 0)"/>
     </g>
    </g>
   </g>
   <g id="FillBetweenPolyCollection_1">
    <defs>
     <path id="m67c19a1a0d" d="M 106.261364 -73.508026 
L 99.478636 -73.508026 
L 95.984457 -76.153051 
L 90.480761 -78.798075 
L 83.08518 -81.4431 
L 74.773551 -84.088124 
L 67.293783 -86.733149 
L 62.555621 -89.378173 
L 61.774 -92.023198 
L 64.909697 -94.668222 
L 70.779074 -97.313247 
L 77.714214 -99.958271 
L 84.29291 -102.603296 
L 89.71999 -105.248321 
L 93.78907 -107.893345 
L 96.63362 -110.53837 
L 98.50182 -113.183394 
L 99.648571 -115.828419 
L 100.309692 -118.473443 
L 100.693205 -121.118468 
L 100.959791 -123.763492 
L 101.204017 -126.408517 
L 101.455792 -129.053541 
L 101.704532 -131.698566 
L 101.930428 -134.34359 
L 102.124496 -136.988615 
L 102.290602 -139.633639 
L 102.436297 -142.278664 
L 102.564278 -144.923688 
L 102.671269 -147.568713 
L 102.752773 -150.213738 
L 102.807938 -152.858762 
L 102.84072 -155.503787 
L 102.857745 -158.148811 
L 102.865463 -160.793836 
L 102.868516 -163.43886 
L 102.869572 -166.083885 
L 102.869891 -168.728909 
L 102.869976 -171.373934 
L 102.869995 -174.018958 
L 102.869999 -176.663983 
L 102.87 -179.309007 
L 102.87 -181.954032 
L 102.87 -184.599056 
L 102.87 -187.244081 
L 102.87 -189.889105 
L 102.87 -192.53413 
L 102.87 -195.179155 
L 102.87 -197.824179 
L 102.87 -200.469204 
L 102.87 -203.114228 
L 102.87 -205.759253 
L 102.87 -208.404277 
L 102.87 -211.049302 
L 102.87 -213.694326 
L 102.87 -216.339351 
L 102.87 -218.984375 
L 102.87 -221.6294 
L 102.87 -224.274424 
L 102.87 -226.919449 
L 102.87 -229.564473 
L 102.87 -232.209498 
L 102.87 -234.854522 
L 102.87 -237.499547 
L 102.87 -240.144571 
L 102.87 -242.789596 
L 102.87 -245.434621 
L 102.87 -248.079645 
L 102.87 -250.72467 
L 102.87 -253.369694 
L 102.87 -256.014719 
L 102.87 -258.659743 
L 102.87 -261.304768 
L 102.87 -263.949792 
L 102.87 -266.594817 
L 102.87 -269.239841 
L 102.87 -271.884866 
L 102.87 -274.52989 
L 102.87 -277.174915 
L 102.87 -279.819939 
L 102.869999 -282.464964 
L 102.869996 -285.109988 
L 102.869981 -287.755013 
L 102.869915 -290.400038 
L 102.869659 -293.045062 
L 102.868797 -295.690087 
L 102.866263 -298.335111 
L 102.859777 -300.980136 
L 102.845382 -303.62516 
L 102.817809 -306.270185 
L 102.772591 -308.915209 
L 102.709948 -311.560234 
L 102.638482 -314.205258 
L 102.575171 -316.850283 
L 102.539465 -319.495307 
L 102.543768 -322.140332 
L 102.586537 -324.785356 
L 102.653165 -327.430381 
L 102.723977 -330.075405 
L 102.783428 -332.72043 
L 102.824815 -335.365455 
L 102.915185 -335.365455 
L 102.915185 -335.365455 
L 102.956572 -332.72043 
L 103.016023 -330.075405 
L 103.086835 -327.430381 
L 103.153463 -324.785356 
L 103.196232 -322.140332 
L 103.200535 -319.495307 
L 103.164829 -316.850283 
L 103.101518 -314.205258 
L 103.030052 -311.560234 
L 102.967409 -308.915209 
L 102.922191 -306.270185 
L 102.894618 -303.62516 
L 102.880223 -300.980136 
L 102.873737 -298.335111 
L 102.871203 -295.690087 
L 102.870341 -293.045062 
L 102.870085 -290.400038 
L 102.870019 -287.755013 
L 102.870004 -285.109988 
L 102.870001 -282.464964 
L 102.87 -279.819939 
L 102.87 -277.174915 
L 102.87 -274.52989 
L 102.87 -271.884866 
L 102.87 -269.239841 
L 102.87 -266.594817 
L 102.87 -263.949792 
L 102.87 -261.304768 
L 102.87 -258.659743 
L 102.87 -256.014719 
L 102.87 -253.369694 
L 102.87 -250.72467 
L 102.87 -248.079645 
L 102.87 -245.434621 
L 102.87 -242.789596 
L 102.87 -240.144571 
L 102.87 -237.499547 
L 102.87 -234.854522 
L 102.87 -232.209498 
L 102.87 -229.564473 
L 102.87 -226.919449 
L 102.87 -224.274424 
L 102.87 -221.6294 
L 102.87 -218.984375 
L 102.87 -216.339351 
L 102.87 -213.694326 
L 102.87 -211.049302 
L 102.87 -208.404277 
L 102.87 -205.759253 
L 102.87 -203.114228 
L 102.87 -200.469204 
L 102.87 -197.824179 
L 102.87 -195.179155 
L 102.87 -192.53413 
L 102.87 -189.889105 
L 102.87 -187.244081 
L 102.87 -184.599056 
L 102.87 -181.954032 
L 102.87 -179.309007 
L 102.870001 -176.663983 
L 102.870005 -174.018958 
L 102.870024 -171.373934 
L 102.870109 -168.728909 
L 102.870428 -166.083885 
L 102.871484 -163.43886 
L 102.874537 -160.793836 
L 102.882255 -158.148811 
L 102.89928 -155.503787 
L 102.932062 -152.858762 
L 102.987227 -150.213738 
L 103.068731 -147.568713 
L 103.175722 -144.923688 
L 103.303703 -142.278664 
L 103.449398 -139.633639 
L 103.615504 -136.988615 
L 103.809572 -134.34359 
L 104.035468 -131.698566 
L 104.284208 -129.053541 
L 104.535983 -126.408517 
L 104.780209 -123.763492 
L 105.046795 -121.118468 
L 105.430308 -118.473443 
L 106.091429 -115.828419 
L 107.23818 -113.183394 
L 109.10638 -110.53837 
L 111.95093 -107.893345 
L 116.02001 -105.248321 
L 121.44709 -102.603296 
L 128.025786 -99.958271 
L 134.960926 -97.313247 
L 140.830303 -94.668222 
L 143.966 -92.023198 
L 143.184379 -89.378173 
L 138.446217 -86.733149 
L 130.966449 -84.088124 
L 122.65482 -81.4431 
L 115.259239 -78.798075 
L 109.755543 -76.153051 
L 106.261364 -73.508026 
z
" style="stroke: #2d2d2d; stroke-width: 1.25"/>
    </defs>
    <g clip-path="url(#pc7ddc17a9f)">
     <use xlink:href="#m67c19a1a0d" x="0" y="360" style="fill: #90b6cf; stroke: #2d2d2d; stroke-width: 1.25"/>
    </g>
   </g>
   <g id="FillBetweenPolyCollection_2">
    <defs>
     <path id="m2505b60996" d="M 208.62669 -66.931191 
L 202.59331 -66.931191 
L 201.682628 -68.283363 
L 200.57126 -69.635535 
L 199.238844 -70.987708 
L 197.669982 -72.33988 
L 195.856402 -73.692052 
L 193.79905 -75.044224 
L 191.509931 -76.396397 
L 189.013456 -77.748569 
L 186.347087 -79.100741 
L 183.561119 -80.452914 
L 180.717479 -81.805086 
L 177.887521 -83.157258 
L 175.148915 -84.50943 
L 172.5818 -85.861603 
L 170.264481 -87.213775 
L 168.269012 -88.565947 
L 166.657032 -89.918119 
L 165.476201 -91.270292 
L 164.757558 -92.622464 
L 164.514 -93.974636 
L 164.739994 -95.326809 
L 165.412516 -96.678981 
L 166.49308 -98.031153 
L 167.930636 -99.383325 
L 169.665063 -100.735498 
L 171.630921 -102.08767 
L 173.761179 -103.439842 
L 175.990613 -104.792014 
L 178.258691 -106.144187 
L 180.511785 -107.496359 
L 182.704656 -108.848531 
L 184.801207 -110.200704 
L 186.774586 -111.552876 
L 188.606729 -112.905048 
L 190.287486 -114.25722 
L 191.813464 -115.609393 
L 193.186722 -116.961565 
L 194.413442 -118.313737 
L 195.502658 -119.665909 
L 196.465131 -121.018082 
L 197.312411 -122.370254 
L 198.056094 -123.722426 
L 198.707302 -125.074599 
L 199.276345 -126.426771 
L 199.77256 -127.778943 
L 200.204272 -129.131115 
L 200.578859 -130.483288 
L 200.902863 -131.83546 
L 201.182129 -133.187632 
L 201.42193 -134.539804 
L 201.627076 -135.891977 
L 201.801986 -137.244149 
L 201.950732 -138.596321 
L 202.07705 -139.948494 
L 202.184352 -141.300666 
L 202.275723 -142.652838 
L 202.353938 -144.00501 
L 202.421483 -145.357183 
L 202.48059 -146.709355 
L 202.533274 -148.061527 
L 202.581363 -149.413699 
L 202.626512 -150.765872 
L 202.670185 -152.118044 
L 202.713619 -153.470216 
L 202.757761 -154.822389 
L 202.803199 -156.174561 
L 202.850107 -157.526733 
L 202.898213 -158.878905 
L 202.946825 -160.231078 
L 202.994909 -161.58325 
L 203.04123 -162.935422 
L 203.084543 -164.287594 
L 203.12381 -165.639767 
L 203.158425 -166.991939 
L 203.188392 -168.344111 
L 203.214459 -169.696284 
L 203.238147 -171.048456 
L 203.261692 -172.400628 
L 203.287887 -173.7528 
L 203.319837 -175.104973 
L 203.360666 -176.457145 
L 203.4132 -177.809317 
L 203.479673 -179.161489 
L 203.561482 -180.513662 
L 203.659027 -181.865834 
L 203.771655 -183.218006 
L 203.897702 -184.570179 
L 204.034629 -185.922351 
L 204.179237 -187.274523 
L 204.327929 -188.626695 
L 204.476985 -189.978868 
L 204.622828 -191.33104 
L 204.762253 -192.683212 
L 204.892599 -194.035384 
L 205.011856 -195.387557 
L 205.118711 -196.739729 
L 205.212526 -198.091901 
L 205.293274 -199.444074 
L 205.36144 -200.796246 
L 205.85856 -200.796246 
L 205.85856 -200.796246 
L 205.926726 -199.444074 
L 206.007474 -198.091901 
L 206.101289 -196.739729 
L 206.208144 -195.387557 
L 206.327401 -194.035384 
L 206.457747 -192.683212 
L 206.597172 -191.33104 
L 206.743015 -189.978868 
L 206.892071 -188.626695 
L 207.040763 -187.274523 
L 207.185371 -185.922351 
L 207.322298 -184.570179 
L 207.448345 -183.218006 
L 207.560973 -181.865834 
L 207.658518 -180.513662 
L 207.740327 -179.161489 
L 207.8068 -177.809317 
L 207.859334 -176.457145 
L 207.900163 -175.104973 
L 207.932113 -173.7528 
L 207.958308 -172.400628 
L 207.981853 -171.048456 
L 208.005541 -169.696284 
L 208.031608 -168.344111 
L 208.061575 -166.991939 
L 208.09619 -165.639767 
L 208.135457 -164.287594 
L 208.17877 -162.935422 
L 208.225091 -161.58325 
L 208.273175 -160.231078 
L 208.321787 -158.878905 
L 208.369893 -157.526733 
L 208.416801 -156.174561 
L 208.462239 -154.822389 
L 208.506381 -153.470216 
L 208.549815 -152.118044 
L 208.593488 -150.765872 
L 208.638637 -149.413699 
L 208.686726 -148.061527 
L 208.73941 -146.709355 
L 208.798517 -145.357183 
L 208.866062 -144.00501 
L 208.944277 -142.652838 
L 209.035648 -141.300666 
L 209.14295 -139.948494 
L 209.269268 -138.596321 
L 209.418014 -137.244149 
L 209.592924 -135.891977 
L 209.79807 -134.539804 
L 210.037871 -133.187632 
L 210.317137 -131.83546 
L 210.641141 -130.483288 
L 211.015728 -129.131115 
L 211.44744 -127.778943 
L 211.943655 -126.426771 
L 212.512698 -125.074599 
L 213.163906 -123.722426 
L 213.907589 -122.370254 
L 214.754869 -121.018082 
L 215.717342 -119.665909 
L 216.806558 -118.313737 
L 218.033278 -116.961565 
L 219.406536 -115.609393 
L 220.932514 -114.25722 
L 222.613271 -112.905048 
L 224.445414 -111.552876 
L 226.418793 -110.200704 
L 228.515344 -108.848531 
L 230.708215 -107.496359 
L 232.961309 -106.144187 
L 235.229387 -104.792014 
L 237.458821 -103.439842 
L 239.589079 -102.08767 
L 241.554937 -100.735498 
L 243.289364 -99.383325 
L 244.72692 -98.031153 
L 245.807484 -96.678981 
L 246.480006 -95.326809 
L 246.706 -93.974636 
L 246.462442 -92.622464 
L 245.743799 -91.270292 
L 244.562968 -89.918119 
L 242.950988 -88.565947 
L 240.955519 -87.213775 
L 238.6382 -85.861603 
L 236.071085 -84.50943 
L 233.332479 -83.157258 
L 230.502521 -81.805086 
L 227.658881 -80.452914 
L 224.872913 -79.100741 
L 222.206544 -77.748569 
L 219.710069 -76.396397 
L 217.42095 -75.044224 
L 215.363598 -73.692052 
L 213.550018 -72.33988 
L 211.981156 -70.987708 
L 210.64874 -69.635535 
L 209.537372 -68.283363 
L 208.62669 -66.931191 
z
" style="stroke: #2d2d2d; stroke-width: 1.25"/>
    </defs>
    <g clip-path="url(#pc7ddc17a9f)">
     <use xlink:href="#m2505b60996" x="0" y="360" style="fill: #6c9dbf; stroke: #2d2d2d; stroke-width: 1.25"/>
    </g>
   </g>
   <g id="FillBetweenPolyCollection_3">
    <defs>
     <path id="ma09c81e6e2" d="M 312.128914 -58.674545 
L 304.571086 -58.674545 
L 303.845187 -59.9912 
L 303.017396 -61.307854 
L 302.081516 -62.624508 
L 301.032627 -63.941162 
L 299.867444 -65.257816 
L 298.584652 -66.57447 
L 297.185231 -67.891124 
L 295.672736 -69.207778 
L 294.053522 -70.524432 
L 292.33689 -71.841086 
L 290.535146 -73.15774 
L 288.663557 -74.474394 
L 286.740198 -75.791048 
L 284.785684 -77.107702 
L 282.822791 -78.424356 
L 280.875975 -79.74101 
L 278.970811 -81.057664 
L 277.133348 -82.374319 
L 275.389443 -83.690973 
L 273.764062 -85.007627 
L 272.280603 -86.324281 
L 270.960266 -87.640935 
L 269.821487 -88.957589 
L 268.879471 -90.274243 
L 268.145845 -91.590897 
L 267.628424 -92.907551 
L 267.331124 -94.224205 
L 267.254 -95.540859 
L 267.393403 -96.857513 
L 267.742255 -98.174167 
L 268.290407 -99.490821 
L 269.025063 -100.807475 
L 269.931253 -102.124129 
L 270.992315 -103.440783 
L 272.19038 -104.757438 
L 273.506827 -106.074092 
L 274.922698 -107.390746 
L 276.419063 -108.7074 
L 277.977321 -110.024054 
L 279.579448 -111.340708 
L 281.208178 -112.657362 
L 282.84714 -113.974016 
L 284.480944 -115.29067 
L 286.095241 -116.607324 
L 287.67675 -117.923978 
L 289.213274 -119.240632 
L 290.69372 -120.557286 
L 292.108099 -121.87394 
L 293.447555 -123.190594 
L 294.704379 -124.507248 
L 295.872048 -125.823902 
L 296.945261 -127.140557 
L 297.919981 -128.457211 
L 298.793471 -129.773865 
L 299.564333 -131.090519 
L 300.232527 -132.407173 
L 300.799384 -133.723827 
L 301.267591 -135.040481 
L 301.641159 -136.357135 
L 301.925369 -137.673789 
L 302.126681 -138.990443 
L 302.252629 -140.307097 
L 302.311682 -141.623751 
L 302.313081 -142.940405 
L 302.26666 -144.257059 
L 302.182642 -145.573713 
L 302.071423 -146.890367 
L 301.943357 -148.207021 
L 301.808522 -149.523676 
L 301.676508 -150.84033 
L 301.556204 -152.156984 
L 301.455614 -153.473638 
L 301.381685 -154.790292 
L 301.340181 -156.106946 
L 301.335578 -157.4236 
L 301.371009 -158.740254 
L 301.448247 -160.056908 
L 301.567724 -161.373562 
L 301.728603 -162.690216 
L 301.928872 -164.00687 
L 302.165482 -165.323524 
L 302.434511 -166.640178 
L 302.731335 -167.956832 
L 303.050829 -169.273486 
L 303.387557 -170.59014 
L 303.735965 -171.906795 
L 304.090562 -173.223449 
L 304.446079 -174.540103 
L 304.797616 -175.856757 
L 305.140749 -177.173411 
L 305.471619 -178.490065 
L 305.786989 -179.806719 
L 306.084271 -181.123373 
L 306.361531 -182.440027 
L 306.617467 -183.756681 
L 306.851369 -185.073335 
L 307.063061 -186.389989 
L 307.252839 -187.706643 
L 307.421394 -189.023297 
L 309.278606 -189.023297 
L 309.278606 -189.023297 
L 309.447161 -187.706643 
L 309.636939 -186.389989 
L 309.848631 -185.073335 
L 310.082533 -183.756681 
L 310.338469 -182.440027 
L 310.615729 -181.123373 
L 310.913011 -179.806719 
L 311.228381 -178.490065 
L 311.559251 -177.173411 
L 311.902384 -175.856757 
L 312.253921 -174.540103 
L 312.609438 -173.223449 
L 312.964035 -171.906795 
L 313.312443 -170.59014 
L 313.649171 -169.273486 
L 313.968665 -167.956832 
L 314.265489 -166.640178 
L 314.534518 -165.323524 
L 314.771128 -164.00687 
L 314.971397 -162.690216 
L 315.132276 -161.373562 
L 315.251753 -160.056908 
L 315.328991 -158.740254 
L 315.364422 -157.4236 
L 315.359819 -156.106946 
L 315.318315 -154.790292 
L 315.244386 -153.473638 
L 315.143796 -152.156984 
L 315.023492 -150.84033 
L 314.891478 -149.523676 
L 314.756643 -148.207021 
L 314.628577 -146.890367 
L 314.517358 -145.573713 
L 314.43334 -144.257059 
L 314.386919 -142.940405 
L 314.388318 -141.623751 
L 314.447371 -140.307097 
L 314.573319 -138.990443 
L 314.774631 -137.673789 
L 315.058841 -136.357135 
L 315.432409 -135.040481 
L 315.900616 -133.723827 
L 316.467473 -132.407173 
L 317.135667 -131.090519 
L 317.906529 -129.773865 
L 318.780019 -128.457211 
L 319.754739 -127.140557 
L 320.827952 -125.823902 
L 321.995621 -124.507248 
L 323.252445 -123.190594 
L 324.591901 -121.87394 
L 326.00628 -120.557286 
L 327.486726 -119.240632 
L 329.02325 -117.923978 
L 330.604759 -116.607324 
L 332.219056 -115.29067 
L 333.85286 -113.974016 
L 335.491822 -112.657362 
L 337.120552 -111.340708 
L 338.722679 -110.024054 
L 340.280937 -108.7074 
L 341.777302 -107.390746 
L 343.193173 -106.074092 
L 344.50962 -104.757438 
L 345.707685 -103.440783 
L 346.768747 -102.124129 
L 347.674937 -100.807475 
L 348.409593 -99.490821 
L 348.957745 -98.174167 
L 349.306597 -96.857513 
L 349.446 -95.540859 
L 349.368876 -94.224205 
L 349.071576 -92.907551 
L 348.554155 -91.590897 
L 347.820529 -90.274243 
L 346.878513 -88.957589 
L 345.739734 -87.640935 
L 344.419397 -86.324281 
L 342.935938 -85.007627 
L 341.310557 -83.690973 
L 339.566652 -82.374319 
L 337.729189 -81.057664 
L 335.824025 -79.74101 
L 333.877209 -78.424356 
L 331.914316 -77.107702 
L 329.959802 -75.791048 
L 328.036443 -74.474394 
L 326.164854 -73.15774 
L 324.36311 -71.841086 
L 322.646478 -70.524432 
L 321.027264 -69.207778 
L 319.514769 -67.891124 
L 318.115348 -66.57447 
L 316.832556 -65.257816 
L 315.667373 -63.941162 
L 314.618484 -62.624508 
L 313.682604 -61.307854 
L 312.854813 -59.9912 
L 312.128914 -58.674545 
z
" style="stroke: #2d2d2d; stroke-width: 1.25"/>
    </defs>
    <g clip-path="url(#pc7ddc17a9f)">
     <use xlink:href="#ma09c81e6e2" x="0" y="360" style="fill: #4884af; stroke: #2d2d2d; stroke-width: 1.25"/>
    </g>
   </g>
   <g id="FillBetweenPolyCollection_4">
    <defs>
     <path id="ma3096b9b7d" d="M 414.998282 -93.163751 
L 407.181718 -93.163751 
L 406.714143 -93.426433 
L 406.205953 -93.689116 
L 405.655748 -93.951799 
L 405.062361 -94.214482 
L 404.424898 -94.477164 
L 403.742771 -94.739847 
L 403.015736 -95.00253 
L 402.243916 -95.265213 
L 401.427838 -95.527895 
L 400.568447 -95.790578 
L 399.667126 -96.053261 
L 398.725708 -96.315943 
L 397.746473 -96.578626 
L 396.732153 -96.841309 
L 395.685912 -97.103992 
L 394.611327 -97.366674 
L 393.512362 -97.629357 
L 392.393329 -97.89204 
L 391.258844 -98.154723 
L 390.113773 -98.417405 
L 388.963179 -98.680088 
L 387.812255 -98.942771 
L 386.666259 -99.205453 
L 385.530446 -99.468136 
L 384.409996 -99.730819 
L 383.309949 -99.993502 
L 382.235135 -100.256184 
L 381.190113 -100.518867 
L 380.179115 -100.78155 
L 379.206 -101.044232 
L 378.274209 -101.306915 
L 377.38674 -101.569598 
L 376.546124 -101.832281 
L 375.754419 -102.094963 
L 375.013213 -102.357646 
L 374.323638 -102.620329 
L 373.686394 -102.883012 
L 373.101787 -103.145694 
L 372.56977 -103.408377 
L 372.089996 -103.67106 
L 371.661875 -103.933742 
L 371.284636 -104.196425 
L 370.957388 -104.459108 
L 370.679184 -104.721791 
L 370.449083 -104.984473 
L 370.266204 -105.247156 
L 370.129777 -105.509839 
L 370.039185 -105.772521 
L 369.994 -106.035204 
L 369.994 -106.297887 
L 370.039185 -106.56057 
L 370.129777 -106.823252 
L 370.266204 -107.085935 
L 370.449083 -107.348618 
L 370.679184 -107.611301 
L 370.957388 -107.873983 
L 371.284636 -108.136666 
L 371.661875 -108.399349 
L 372.089996 -108.662031 
L 372.56977 -108.924714 
L 373.101787 -109.187397 
L 373.686394 -109.45008 
L 374.323638 -109.712762 
L 375.013213 -109.975445 
L 375.754419 -110.238128 
L 376.546124 -110.500811 
L 377.38674 -110.763493 
L 378.274209 -111.026176 
L 379.206 -111.288859 
L 380.179115 -111.551541 
L 381.190113 -111.814224 
L 382.235135 -112.076907 
L 383.309949 -112.33959 
L 384.409996 -112.602272 
L 385.530446 -112.864955 
L 386.666259 -113.127638 
L 387.812255 -113.39032 
L 388.963179 -113.653003 
L 390.113773 -113.915686 
L 391.258844 -114.178369 
L 392.393329 -114.441051 
L 393.512362 -114.703734 
L 394.611327 -114.966417 
L 395.685912 -115.2291 
L 396.732153 -115.491782 
L 397.746473 -115.754465 
L 398.725708 -116.017148 
L 399.667126 -116.27983 
L 400.568447 -116.542513 
L 401.427838 -116.805196 
L 402.243916 -117.067879 
L 403.015736 -117.330561 
L 403.742771 -117.593244 
L 404.424898 -117.855927 
L 405.062361 -118.118609 
L 405.655748 -118.381292 
L 406.205953 -118.643975 
L 406.714143 -118.906658 
L 407.181718 -119.16934 
L 414.998282 -119.16934 
L 414.998282 -119.16934 
L 415.465857 -118.906658 
L 415.974047 -118.643975 
L 416.524252 -118.381292 
L 417.117639 -118.118609 
L 417.755102 -117.855927 
L 418.437229 -117.593244 
L 419.164264 -117.330561 
L 419.936084 -117.067879 
L 420.752162 -116.805196 
L 421.611553 -116.542513 
L 422.512874 -116.27983 
L 423.454292 -116.017148 
L 424.433527 -115.754465 
L 425.447847 -115.491782 
L 426.494088 -115.2291 
L 427.568673 -114.966417 
L 428.667638 -114.703734 
L 429.786671 -114.441051 
L 430.921156 -114.178369 
L 432.066227 -113.915686 
L 433.216821 -113.653003 
L 434.367745 -113.39032 
L 435.513741 -113.127638 
L 436.649554 -112.864955 
L 437.770004 -112.602272 
L 438.870051 -112.33959 
L 439.944865 -112.076907 
L 440.989887 -111.814224 
L 442.000885 -111.551541 
L 442.974 -111.288859 
L 443.905791 -111.026176 
L 444.79326 -110.763493 
L 445.633876 -110.500811 
L 446.425581 -110.238128 
L 447.166787 -109.975445 
L 447.856362 -109.712762 
L 448.493606 -109.45008 
L 449.078213 -109.187397 
L 449.61023 -108.924714 
L 450.090004 -108.662031 
L 450.518125 -108.399349 
L 450.895364 -108.136666 
L 451.222612 -107.873983 
L 451.500816 -107.611301 
L 451.730917 -107.348618 
L 451.913796 -107.085935 
L 452.050223 -106.823252 
L 452.140815 -106.56057 
L 452.186 -106.297887 
L 452.186 -106.035204 
L 452.140815 -105.772521 
L 452.050223 -105.509839 
L 451.913796 -105.247156 
L 451.730917 -104.984473 
L 451.500816 -104.721791 
L 451.222612 -104.459108 
L 450.895364 -104.196425 
L 450.518125 -103.933742 
L 450.090004 -103.67106 
L 449.61023 -103.408377 
L 449.078213 -103.145694 
L 448.493606 -102.883012 
L 447.856362 -102.620329 
L 447.166787 -102.357646 
L 446.425581 -102.094963 
L 445.633876 -101.832281 
L 444.79326 -101.569598 
L 443.905791 -101.306915 
L 442.974 -101.044232 
L 442.000885 -100.78155 
L 440.989887 -100.518867 
L 439.944865 -100.256184 
L 438.870051 -99.993502 
L 437.770004 -99.730819 
L 436.649554 -99.468136 
L 435.513741 -99.205453 
L 434.367745 -98.942771 
L 433.216821 -98.680088 
L 432.066227 -98.417405 
L 430.921156 -98.154723 
L 429.786671 -97.89204 
L 428.667638 -97.629357 
L 427.568673 -97.366674 
L 426.494088 -97.103992 
L 425.447847 -96.841309 
L 424.433527 -96.578626 
L 423.454292 -96.315943 
L 422.512874 -96.053261 
L 421.611553 -95.790578 
L 420.752162 -95.527895 
L 419.936084 -95.265213 
L 419.164264 -95.00253 
L 418.437229 -94.739847 
L 417.755102 -94.477164 
L 417.117639 -94.214482 
L 416.524252 -93.951799 
L 415.974047 -93.689116 
L 415.465857 -93.426433 
L 414.998282 -93.163751 
z
" style="stroke: #2d2d2d; stroke-width: 1.25"/>
    </defs>
    <g clip-path="url(#pc7ddc17a9f)">
     <use xlink:href="#ma3096b9b7d" x="0" y="360" style="fill: #416986; stroke: #2d2d2d; stroke-width: 1.25"/>
    </g>
   </g>
   <g id="line2d_11">
    <path d="M 472.734 260.718627 
L 554.926 260.718627 
" clip-path="url(#pc7ddc17a9f)" style="fill: none; stroke: #2d2d2d; stroke-width: 1.25; stroke-linecap: round"/>
   </g>
   <g id="patch_3">
    <path d="M 95.1645 271.046387 
L 110.5755 271.046387 
L 110.5755 265.02186 
L 95.1645 265.02186 
L 95.1645 271.046387 
z
" clip-path="url(#pc7ddc17a9f)" style="fill: #ffffff; opacity: 0.9; stroke: #000000; stroke-linejoin: miter"/>
   </g>
   <g id="line2d_12">
    <path d="M 102.87 271.046387 
L 102.87 271.672311 
" clip-path="url(#pc7ddc17a9f)" style="fill: none; stroke: #000000"/>
   </g>
   <g id="line2d_13">
    <path d="M 102.87 265.02186 
L 102.87 256.337154 
" clip-path="url(#pc7ddc17a9f)" style="fill: none; stroke: #000000"/>
   </g>
   <g id="line2d_14">
    <path d="M 99.01725 271.672311 
L 106.72275 271.672311 
" clip-path="url(#pc7ddc17a9f)" style="fill: none; stroke: #000000; stroke-linecap: round"/>
   </g>
   <g id="line2d_15">
    <path d="M 99.01725 256.337154 
L 106.72275 256.337154 
" clip-path="url(#pc7ddc17a9f)" style="fill: none; stroke: #000000; stroke-linecap: round"/>
   </g>
   <g id="line2d_16">
    <defs>
     <path id="ma4183f181e" d="M 0 3 
C 0.795609 3 1.55874 2.683901 2.12132 2.12132 
C 2.683901 1.55874 3 0.795609 3 0 
C 3 -0.795609 2.683901 -1.55874 2.12132 -2.12132 
C 1.55874 -2.683901 0.795609 -3 0 -3 
C -0.795609 -3 -1.55874 -2.683901 -2.12132 -2.12132 
C -2.683901 -1.55874 -3 -0.795609 -3 0 
C -3 0.795609 -2.683901 1.55874 -2.12132 2.12132 
C -1.55874 2.683901 -0.795609 3 0 3 
z
" style="stroke: #2d2d2d"/>
    </defs>
    <g clip-path="url(#pc7ddc17a9f)">
     <use xlink:href="#ma4183f181e" x="102.87" y="254.459379" style="fill-opacity: 0; stroke: #2d2d2d"/>
     <use xlink:href="#ma4183f181e" x="102.87" y="246.322357" style="fill-opacity: 0; stroke: #2d2d2d"/>
     <use xlink:href="#ma4183f181e" x="102.87" y="238.498297" style="fill-opacity: 0; stroke: #2d2d2d"/>
     <use xlink:href="#ma4183f181e" x="102.87" y="249.139018" style="fill-opacity: 0; stroke: #2d2d2d"/>
     <use xlink:href="#ma4183f181e" x="102.87" y="239.750146" style="fill-opacity: 0; stroke: #2d2d2d"/>
     <use xlink:href="#ma4183f181e" x="102.87" y="237.246447" style="fill-opacity: 0; stroke: #2d2d2d"/>
     <use xlink:href="#ma4183f181e" x="102.87" y="255.085304" style="fill-opacity: 0; stroke: #2d2d2d"/>
     <use xlink:href="#ma4183f181e" x="102.87" y="220.972402" style="fill-opacity: 0; stroke: #2d2d2d"/>
     <use xlink:href="#ma4183f181e" x="102.87" y="253.520492" style="fill-opacity: 0; stroke: #2d2d2d"/>
     <use xlink:href="#ma4183f181e" x="102.87" y="254.772342" style="fill-opacity: 0; stroke: #2d2d2d"/>
     <use xlink:href="#ma4183f181e" x="102.87" y="39.454208" style="fill-opacity: 0; stroke: #2d2d2d"/>
     <use xlink:href="#ma4183f181e" x="102.87" y="229.735349" style="fill-opacity: 0; stroke: #2d2d2d"/>
     <use xlink:href="#ma4183f181e" x="102.87" y="253.520492" style="fill-opacity: 0; stroke: #2d2d2d"/>
     <use xlink:href="#ma4183f181e" x="102.87" y="235.368673" style="fill-opacity: 0; stroke: #2d2d2d"/>
     <use xlink:href="#ma4183f181e" x="102.87" y="254.772342" style="fill-opacity: 0; stroke: #2d2d2d"/>
    </g>
   </g>
   <g id="patch_4">
    <path d="M 197.9045 269.794537 
L 213.3155 269.794537 
L 213.3155 256.963078 
L 197.9045 256.963078 
L 197.9045 269.794537 
z
" clip-path="url(#pc7ddc17a9f)" style="fill: #ffffff; opacity: 0.9; stroke: #000000; stroke-linejoin: miter"/>
   </g>
   <g id="line2d_17">
    <path d="M 205.61 269.794537 
L 205.61 271.359349 
" clip-path="url(#pc7ddc17a9f)" style="fill: none; stroke: #000000"/>
   </g>
   <g id="line2d_18">
    <path d="M 205.61 256.963078 
L 205.61 241.001996 
" clip-path="url(#pc7ddc17a9f)" style="fill: none; stroke: #000000"/>
   </g>
   <g id="line2d_19">
    <path d="M 201.75725 271.359349 
L 209.46275 271.359349 
" clip-path="url(#pc7ddc17a9f)" style="fill: none; stroke: #000000; stroke-linecap: round"/>
   </g>
   <g id="line2d_20">
    <path d="M 201.75725 241.001996 
L 209.46275 241.001996 
" clip-path="url(#pc7ddc17a9f)" style="fill: none; stroke: #000000; stroke-linecap: round"/>
   </g>
   <g id="line2d_21">
    <g clip-path="url(#pc7ddc17a9f)">
     <use xlink:href="#ma4183f181e" x="205.61" y="218.15574" style="fill-opacity: 0; stroke: #2d2d2d"/>
     <use xlink:href="#ma4183f181e" x="205.61" y="180.913214" style="fill-opacity: 0; stroke: #2d2d2d"/>
     <use xlink:href="#ma4183f181e" x="205.61" y="201.568733" style="fill-opacity: 0; stroke: #2d2d2d"/>
     <use xlink:href="#ma4183f181e" x="205.61" y="233.177936" style="fill-opacity: 0; stroke: #2d2d2d"/>
    </g>
   </g>
   <g id="patch_5">
    <path d="M 300.6445 269.872778 
L 316.0555 269.872778 
L 316.0555 248.982537 
L 300.6445 248.982537 
L 300.6445 269.872778 
z
" clip-path="url(#pc7ddc17a9f)" style="fill: #ffffff; opacity: 0.9; stroke: #000000; stroke-linejoin: miter"/>
   </g>
   <g id="line2d_22">
    <path d="M 308.35 269.872778 
L 308.35 270.420462 
" clip-path="url(#pc7ddc17a9f)" style="fill: none; stroke: #000000"/>
   </g>
   <g id="line2d_23">
    <path d="M 308.35 248.982537 
L 308.35 248.513094 
" clip-path="url(#pc7ddc17a9f)" style="fill: none; stroke: #000000"/>
   </g>
   <g id="line2d_24">
    <path d="M 304.49725 270.420462 
L 312.20275 270.420462 
" clip-path="url(#pc7ddc17a9f)" style="fill: none; stroke: #000000; stroke-linecap: round"/>
   </g>
   <g id="line2d_25">
    <path d="M 304.49725 248.513094 
L 312.20275 248.513094 
" clip-path="url(#pc7ddc17a9f)" style="fill: none; stroke: #000000; stroke-linecap: round"/>
   </g>
   <g id="line2d_26">
    <g clip-path="url(#pc7ddc17a9f)">
     <use xlink:href="#ma4183f181e" x="308.35" y="201.881695" style="fill-opacity: 0; stroke: #2d2d2d"/>
    </g>
   </g>
   <g id="patch_6">
    <path d="M 403.3845 255.711229 
L 418.7955 255.711229 
L 418.7955 251.95568 
L 403.3845 251.95568 
L 403.3845 255.711229 
z
" clip-path="url(#pc7ddc17a9f)" style="fill: #ffffff; opacity: 0.9; stroke: #000000; stroke-linejoin: miter"/>
   </g>
   <g id="line2d_27">
    <path d="M 411.09 255.711229 
L 411.09 257.589003 
" clip-path="url(#pc7ddc17a9f)" style="fill: none; stroke: #000000"/>
   </g>
   <g id="line2d_28">
    <path d="M 411.09 251.95568 
L 411.09 250.077906 
" clip-path="url(#pc7ddc17a9f)" style="fill: none; stroke: #000000"/>
   </g>
   <g id="line2d_29">
    <path d="M 407.23725 257.589003 
L 414.94275 257.589003 
" clip-path="url(#pc7ddc17a9f)" style="fill: none; stroke: #000000; stroke-linecap: round"/>
   </g>
   <g id="line2d_30">
    <path d="M 407.23725 250.077906 
L 414.94275 250.077906 
" clip-path="url(#pc7ddc17a9f)" style="fill: none; stroke: #000000; stroke-linecap: round"/>
   </g>
   <g id="line2d_31"/>
   <g id="patch_7">
    <path d="M 506.1245 260.718627 
L 521.5355 260.718627 
L 521.5355 260.718627 
L 506.1245 260.718627 
L 506.1245 260.718627 
z
" clip-path="url(#pc7ddc17a9f)" style="fill: #ffffff; opacity: 0.9; stroke: #000000; stroke-linejoin: miter"/>
   </g>
   <g id="line2d_32">
    <path d="M 513.83 260.718627 
L 513.83 260.718627 
" clip-path="url(#pc7ddc17a9f)" style="fill: none; stroke: #000000"/>
   </g>
   <g id="line2d_33">
    <path d="M 513.83 260.718627 
L 513.83 260.718627 
" clip-path="url(#pc7ddc17a9f)" style="fill: none; stroke: #000000"/>
   </g>
   <g id="line2d_34">
    <path d="M 509.97725 260.718627 
L 517.68275 260.718627 
" clip-path="url(#pc7ddc17a9f)" style="fill: none; stroke: #000000; stroke-linecap: round"/>
   </g>
   <g id="line2d_35">
    <path d="M 509.97725 260.718627 
L 517.68275 260.718627 
" clip-path="url(#pc7ddc17a9f)" style="fill: none; stroke: #000000; stroke-linecap: round"/>
   </g>
   <g id="line2d_36"/>
   <g id="line2d_37">
    <path d="M 95.1645 269.481575 
L 110.5755 269.481575 
" clip-path="url(#pc7ddc17a9f)" style="fill: none; stroke: #000000"/>
   </g>
   <g id="line2d_38">
    <path d="M 197.9045 265.726026 
L 213.3155 265.726026 
" clip-path="url(#pc7ddc17a9f)" style="fill: none; stroke: #000000"/>
   </g>
   <g id="line2d_39">
    <path d="M 300.6445 266.351951 
L 316.0555 266.351951 
" clip-path="url(#pc7ddc17a9f)" style="fill: none; stroke: #000000"/>
   </g>
   <g id="line2d_40">
    <path d="M 403.3845 253.833454 
L 418.7955 253.833454 
" clip-path="url(#pc7ddc17a9f)" style="fill: none; stroke: #000000"/>
   </g>
   <g id="line2d_41">
    <path d="M 506.1245 260.718627 
L 521.5355 260.718627 
" clip-path="url(#pc7ddc17a9f)" style="fill: none; stroke: #000000"/>
   </g>
   <g id="patch_8">
    <path d="M 51.5 315.16 
L 51.5 10.8 
" style="fill: none; stroke: #262626; stroke-width: 0.8; stroke-linejoin: miter; stroke-linecap: square"/>
   </g>
   <g id="patch_9">
    <path d="M 565.2 315.16 
L 565.2 10.8 
" style="fill: none; stroke: #262626; stroke-width: 0.8; stroke-linejoin: miter; stroke-linecap: square"/>
   </g>
   <g id="patch_10">
    <path d="M 51.5 315.16 
L 565.2 315.16 
" style="fill: none; stroke: #262626; stroke-width: 0.8; stroke-linejoin: miter; stroke-linecap: square"/>
   </g>
   <g id="patch_11">
    <path d="M 51.5 10.8 
L 565.2 10.8 
" style="fill: none; stroke: #262626; stroke-width: 0.8; stroke-linejoin: miter; stroke-linecap: square"/>
   </g>
  </g>
 </g>
 <defs>
  <clipPath id="pc7ddc17a9f">
   <rect x="51.5" y="10.8" width="513.7" height="304.36"/>
  </clipPath>
 </defs>
</svg>
