<?xml version="1.0" encoding="utf-8" standalone="no"?>
<!DOCTYPE svg PUBLIC "-//W3C//DTD SVG 1.1//EN"
  "http://www.w3.org/Graphics/SVG/1.1/DTD/svg11.dtd">
<svg xmlns:xlink="http://www.w3.org/1999/xlink" width="576pt" height="432pt" viewBox="0 0 576 432" xmlns="http://www.w3.org/2000/svg" version="1.1">
 <metadata>
  <rdf:RDF xmlns:dc="http://purl.org/dc/elements/1.1/" xmlns:cc="http://creativecommons.org/ns#" xmlns:rdf="http://www.w3.org/1999/02/22-rdf-syntax-ns#">
   <cc:Work>
    <dc:type rdf:resource="http://purl.org/dc/dcmitype/StillImage"/>
    <dc:date>2025-11-24T11:29:50.065886</dc:date>
    <dc:format>image/svg+xml</dc:format>
    <dc:creator>
     <cc:Agent>
      <dc:title>Matplotlib v3.10.3, https://matplotlib.org/</dc:title>
     </cc:Agent>
    </dc:creator>
   </cc:Work>
  </rdf:RDF>
 </metadata>
 <defs>
  <style type="text/css">*{stroke-linejoin: round; stroke-linecap: butt}</style>
 </defs>
 <g id="figure_1">
  <g id="patch_1">
   <path d="M 0 432 
L 576 432 
L 576 0 
L 0 0 
z
" style="fill: #ffffff"/>
  </g>
  <g id="axes_1">
   <g id="patch_2">
    <path d="M 51.5 387.16 
L 565.2 387.16 
L 565.2 10.8 
L 51.5 10.8 
z
" style="fill: #ffffff"/>
   </g>
   <g id="matplotlib.axis_1">
    <g id="xtick_1">
     <g id="line2d_1">
      <defs>
       <path id="m544f90c030" d="M 0 0 
L 0 3.5 
" style="stroke: #262626; stroke-width: 0.8"/>
      </defs>
      <g>
       <use xlink:href="#m544f90c030" x="102.87" y="387.16" style="fill: #262626; stroke: #262626; stroke-width: 0.8"/>
      </g>
     </g>
     <g id="text_1">
      <!-- 1 -->
      <g style="fill: #262626" transform="translate(100.089531 401.317813) scale(0.1 -0.1)">
       <defs>
        <path id="ArialMT-31" d="M 2384 0 
L 1822 0 
L 1822 3584 
Q 1619 3391 1289 3197 
Q 959 3003 697 2906 
L 697 3450 
Q 1169 3672 1522 3987 
Q 1875 4303 2022 4600 
L 2384 4600 
L 2384 0 
z
" transform="scale(0.015625)"/>
       </defs>
       <use xlink:href="#ArialMT-31"/>
      </g>
     </g>
    </g>
    <g id="xtick_2">
     <g id="line2d_2">
      <g>
       <use xlink:href="#m544f90c030" x="205.61" y="387.16" style="fill: #262626; stroke: #262626; stroke-width: 0.8"/>
      </g>
     </g>
     <g id="text_2">
      <!-- 2 -->
      <g style="fill: #262626" transform="translate(202.829531 401.317813) scale(0.1 -0.1)">
       <defs>
        <path id="ArialMT-32" d="M 3222 541 
L 3222 0 
L 194 0 
Q 188 203 259 391 
Q 375 700 629 1000 
Q 884 1300 1366 1694 
Q 2113 2306 2375 2664 
Q 2638 3022 2638 3341 
Q 2638 3675 2398 3904 
Q 2159 4134 1775 4134 
Q 1369 4134 1125 3890 
Q 881 3647 878 3216 
L 300 3275 
Q 359 3922 746 4261 
Q 1134 4600 1788 4600 
Q 2447 4600 2831 4234 
Q 3216 3869 3216 3328 
Q 3216 3053 3103 2787 
Q 2991 2522 2730 2228 
Q 2469 1934 1863 1422 
Q 1356 997 1212 845 
Q 1069 694 975 541 
L 3222 541 
z
" transform="scale(0.015625)"/>
       </defs>
       <use xlink:href="#ArialMT-32"/>
      </g>
     </g>
    </g>
    <g id="xtick_3">
     <g id="line2d_3">
      <g>
       <use xlink:href="#m544f90c030" x="308.35" y="387.16" style="fill: #262626; stroke: #262626; stroke-width: 0.8"/>
      </g>
     </g>
     <g id="text_3">
      <!-- 3 -->
      <g style="fill: #262626" transform="translate(305.569531 401.317813) scale(0.1 -0.1)">
       <defs>
        <path id="ArialMT-33" d="M 269 1209 
L 831 1284 
Q 928 806 1161 595 
Q 1394 384 1728 384 
Q 2125 384 2398 659 
Q 2672 934 2672 1341 
Q 2672 1728 2419 1979 
Q 2166 2231 1775 2231 
Q 1616 2231 1378 2169 
L 1441 2663 
Q 1497 2656 1531 2656 
Q 1891 2656 2178 2843 
Q 2466 3031 2466 3422 
Q 2466 3731 2256 3934 
Q 2047 4138 1716 4138 
Q 1388 4138 1169 3931 
Q 950 3725 888 3313 
L 325 3413 
Q 428 3978 793 4289 
Q 1159 4600 1703 4600 
Q 2078 4600 2393 4439 
Q 2709 4278 2876 4000 
Q 3044 3722 3044 3409 
Q 3044 3113 2884 2869 
Q 2725 2625 2413 2481 
Q 2819 2388 3044 2092 
Q 3269 1797 3269 1353 
Q 3269 753 2831 336 
Q 2394 -81 1725 -81 
Q 1122 -81 723 278 
Q 325 638 269 1209 
z
" transform="scale(0.015625)"/>
       </defs>
       <use xlink:href="#ArialMT-33"/>
      </g>
     </g>
    </g>
    <g id="xtick_4">
     <g id="line2d_4">
      <g>
       <use xlink:href="#m544f90c030" x="411.09" y="387.16" style="fill: #262626; stroke: #262626; stroke-width: 0.8"/>
      </g>
     </g>
     <g id="text_4">
      <!-- 4 -->
      <g style="fill: #262626" transform="translate(408.309531 401.317813) scale(0.1 -0.1)">
       <defs>
        <path id="ArialMT-34" d="M 2069 0 
L 2069 1097 
L 81 1097 
L 81 1613 
L 2172 4581 
L 2631 4581 
L 2631 1613 
L 3250 1613 
L 3250 1097 
L 2631 1097 
L 2631 0 
L 2069 0 
z
M 2069 1613 
L 2069 3678 
L 634 1613 
L 2069 1613 
z
" transform="scale(0.015625)"/>
       </defs>
       <use xlink:href="#ArialMT-34"/>
      </g>
     </g>
    </g>
    <g id="xtick_5">
     <g id="line2d_5">
      <g>
       <use xlink:href="#m544f90c030" x="513.83" y="387.16" style="fill: #262626; stroke: #262626; stroke-width: 0.8"/>
      </g>
     </g>
     <g id="text_5">
      <!-- 5 -->
      <g style="fill: #262626" transform="translate(511.049531 401.317813) scale(0.1 -0.1)">
       <defs>
        <path id="ArialMT-35" d="M 266 1200 
L 856 1250 
Q 922 819 1161 601 
Q 1400 384 1738 384 
Q 2144 384 2425 690 
Q 2706 997 2706 1503 
Q 2706 1984 2436 2262 
Q 2166 2541 1728 2541 
Q 1456 2541 1237 2417 
Q 1019 2294 894 2097 
L 366 2166 
L 809 4519 
L 3088 4519 
L 3088 3981 
L 1259 3981 
L 1013 2750 
Q 1425 3038 1878 3038 
Q 2478 3038 2890 2622 
Q 3303 2206 3303 1553 
Q 3303 931 2941 478 
Q 2500 -78 1738 -78 
Q 1113 -78 717 272 
Q 322 622 266 1200 
z
" transform="scale(0.015625)"/>
       </defs>
       <use xlink:href="#ArialMT-35"/>
      </g>
     </g>
    </g>
    <g id="text_6">
     <!-- Targets (targetId) -->
     <g style="fill: #262626" transform="translate(255.058125 417.496875) scale(0.14 -0.14)">
      <defs>
       <path id="ArialMT-54" d="M 1659 0 
L 1659 4041 
L 150 4041 
L 150 4581 
L 3781 4581 
L 3781 4041 
L 2266 4041 
L 2266 0 
L 1659 0 
z
" transform="scale(0.015625)"/>
       <path id="ArialMT-61" d="M 2588 409 
Q 2275 144 1986 34 
Q 1697 -75 1366 -75 
Q 819 -75 525 192 
Q 231 459 231 875 
Q 231 1119 342 1320 
Q 453 1522 633 1644 
Q 813 1766 1038 1828 
Q 1203 1872 1538 1913 
Q 2219 1994 2541 2106 
Q 2544 2222 2544 2253 
Q 2544 2597 2384 2738 
Q 2169 2928 1744 2928 
Q 1347 2928 1158 2789 
Q 969 2650 878 2297 
L 328 2372 
Q 403 2725 575 2942 
Q 747 3159 1072 3276 
Q 1397 3394 1825 3394 
Q 2250 3394 2515 3294 
Q 2781 3194 2906 3042 
Q 3031 2891 3081 2659 
Q 3109 2516 3109 2141 
L 3109 1391 
Q 3109 606 3145 398 
Q 3181 191 3288 0 
L 2700 0 
Q 2613 175 2588 409 
z
M 2541 1666 
Q 2234 1541 1622 1453 
Q 1275 1403 1131 1340 
Q 988 1278 909 1158 
Q 831 1038 831 891 
Q 831 666 1001 516 
Q 1172 366 1500 366 
Q 1825 366 2078 508 
Q 2331 650 2450 897 
Q 2541 1088 2541 1459 
L 2541 1666 
z
" transform="scale(0.015625)"/>
       <path id="ArialMT-72" d="M 416 0 
L 416 3319 
L 922 3319 
L 922 2816 
Q 1116 3169 1280 3281 
Q 1444 3394 1641 3394 
Q 1925 3394 2219 3213 
L 2025 2691 
Q 1819 2813 1613 2813 
Q 1428 2813 1281 2702 
Q 1134 2591 1072 2394 
Q 978 2094 978 1738 
L 978 0 
L 416 0 
z
" transform="scale(0.015625)"/>
       <path id="ArialMT-67" d="M 319 -275 
L 866 -356 
Q 900 -609 1056 -725 
Q 1266 -881 1628 -881 
Q 2019 -881 2231 -725 
Q 2444 -569 2519 -288 
Q 2563 -116 2559 434 
Q 2191 0 1641 0 
Q 956 0 581 494 
Q 206 988 206 1678 
Q 206 2153 378 2554 
Q 550 2956 876 3175 
Q 1203 3394 1644 3394 
Q 2231 3394 2613 2919 
L 2613 3319 
L 3131 3319 
L 3131 450 
Q 3131 -325 2973 -648 
Q 2816 -972 2473 -1159 
Q 2131 -1347 1631 -1347 
Q 1038 -1347 672 -1080 
Q 306 -813 319 -275 
z
M 784 1719 
Q 784 1066 1043 766 
Q 1303 466 1694 466 
Q 2081 466 2343 764 
Q 2606 1063 2606 1700 
Q 2606 2309 2336 2618 
Q 2066 2928 1684 2928 
Q 1309 2928 1046 2623 
Q 784 2319 784 1719 
z
" transform="scale(0.015625)"/>
       <path id="ArialMT-65" d="M 2694 1069 
L 3275 997 
Q 3138 488 2766 206 
Q 2394 -75 1816 -75 
Q 1088 -75 661 373 
Q 234 822 234 1631 
Q 234 2469 665 2931 
Q 1097 3394 1784 3394 
Q 2450 3394 2872 2941 
Q 3294 2488 3294 1666 
Q 3294 1616 3291 1516 
L 816 1516 
Q 847 969 1125 678 
Q 1403 388 1819 388 
Q 2128 388 2347 550 
Q 2566 713 2694 1069 
z
M 847 1978 
L 2700 1978 
Q 2663 2397 2488 2606 
Q 2219 2931 1791 2931 
Q 1403 2931 1139 2672 
Q 875 2413 847 1978 
z
" transform="scale(0.015625)"/>
       <path id="ArialMT-74" d="M 1650 503 
L 1731 6 
Q 1494 -44 1306 -44 
Q 1000 -44 831 53 
Q 663 150 594 308 
Q 525 466 525 972 
L 525 2881 
L 113 2881 
L 113 3319 
L 525 3319 
L 525 4141 
L 1084 4478 
L 1084 3319 
L 1650 3319 
L 1650 2881 
L 1084 2881 
L 1084 941 
Q 1084 700 1114 631 
Q 1144 563 1211 522 
Q 1278 481 1403 481 
Q 1497 481 1650 503 
z
" transform="scale(0.015625)"/>
       <path id="ArialMT-73" d="M 197 991 
L 753 1078 
Q 800 744 1014 566 
Q 1228 388 1613 388 
Q 2000 388 2187 545 
Q 2375 703 2375 916 
Q 2375 1106 2209 1216 
Q 2094 1291 1634 1406 
Q 1016 1563 777 1677 
Q 538 1791 414 1992 
Q 291 2194 291 2438 
Q 291 2659 392 2848 
Q 494 3038 669 3163 
Q 800 3259 1026 3326 
Q 1253 3394 1513 3394 
Q 1903 3394 2198 3281 
Q 2494 3169 2634 2976 
Q 2775 2784 2828 2463 
L 2278 2388 
Q 2241 2644 2061 2787 
Q 1881 2931 1553 2931 
Q 1166 2931 1000 2803 
Q 834 2675 834 2503 
Q 834 2394 903 2306 
Q 972 2216 1119 2156 
Q 1203 2125 1616 2013 
Q 2213 1853 2448 1751 
Q 2684 1650 2818 1456 
Q 2953 1263 2953 975 
Q 2953 694 2789 445 
Q 2625 197 2315 61 
Q 2006 -75 1616 -75 
Q 969 -75 630 194 
Q 291 463 197 991 
z
" transform="scale(0.015625)"/>
       <path id="ArialMT-20" transform="scale(0.015625)"/>
       <path id="ArialMT-28" d="M 1497 -1347 
Q 1031 -759 709 28 
Q 388 816 388 1659 
Q 388 2403 628 3084 
Q 909 3875 1497 4659 
L 1900 4659 
Q 1522 4009 1400 3731 
Q 1209 3300 1100 2831 
Q 966 2247 966 1656 
Q 966 153 1900 -1347 
L 1497 -1347 
z
" transform="scale(0.015625)"/>
       <path id="ArialMT-49" d="M 597 0 
L 597 4581 
L 1203 4581 
L 1203 0 
L 597 0 
z
" transform="scale(0.015625)"/>
       <path id="ArialMT-64" d="M 2575 0 
L 2575 419 
Q 2259 -75 1647 -75 
Q 1250 -75 917 144 
Q 584 363 401 755 
Q 219 1147 219 1656 
Q 219 2153 384 2558 
Q 550 2963 881 3178 
Q 1213 3394 1622 3394 
Q 1922 3394 2156 3267 
Q 2391 3141 2538 2938 
L 2538 4581 
L 3097 4581 
L 3097 0 
L 2575 0 
z
M 797 1656 
Q 797 1019 1065 703 
Q 1334 388 1700 388 
Q 2069 388 2326 689 
Q 2584 991 2584 1609 
Q 2584 2291 2321 2609 
Q 2059 2928 1675 2928 
Q 1300 2928 1048 2622 
Q 797 2316 797 1656 
z
" transform="scale(0.015625)"/>
       <path id="ArialMT-29" d="M 791 -1347 
L 388 -1347 
Q 1322 153 1322 1656 
Q 1322 2244 1188 2822 
Q 1081 3291 891 3722 
Q 769 4003 388 4659 
L 791 4659 
Q 1378 3875 1659 3084 
Q 1900 2403 1900 1659 
Q 1900 816 1576 28 
Q 1253 -759 791 -1347 
z
" transform="scale(0.015625)"/>
      </defs>
      <use xlink:href="#ArialMT-54"/>
      <use xlink:href="#ArialMT-61" transform="translate(49.958984 0)"/>
      <use xlink:href="#ArialMT-72" transform="translate(105.574219 0)"/>
      <use xlink:href="#ArialMT-67" transform="translate(138.875 0)"/>
      <use xlink:href="#ArialMT-65" transform="translate(194.490234 0)"/>
      <use xlink:href="#ArialMT-74" transform="translate(250.105469 0)"/>
      <use xlink:href="#ArialMT-73" transform="translate(277.888672 0)"/>
      <use xlink:href="#ArialMT-20" transform="translate(327.888672 0)"/>
      <use xlink:href="#ArialMT-28" transform="translate(355.671875 0)"/>
      <use xlink:href="#ArialMT-74" transform="translate(388.972656 0)"/>
      <use xlink:href="#ArialMT-61" transform="translate(416.755859 0)"/>
      <use xlink:href="#ArialMT-72" transform="translate(472.371094 0)"/>
      <use xlink:href="#ArialMT-67" transform="translate(505.671875 0)"/>
      <use xlink:href="#ArialMT-65" transform="translate(561.287109 0)"/>
      <use xlink:href="#ArialMT-74" transform="translate(616.902344 0)"/>
      <use xlink:href="#ArialMT-49" transform="translate(644.685547 0)"/>
      <use xlink:href="#ArialMT-64" transform="translate(672.46875 0)"/>
      <use xlink:href="#ArialMT-29" transform="translate(728.083984 0)"/>
     </g>
    </g>
   </g>
   <g id="matplotlib.axis_2">
    <g id="ytick_1">
     <g id="line2d_6">
      <defs>
       <path id="m39298528a8" d="M 0 0 
L -3.5 0 
" style="stroke: #262626; stroke-width: 0.8"/>
      </defs>
      <g>
       <use xlink:href="#m39298528a8" x="51.5" y="333.771776" style="fill: #262626; stroke: #262626; stroke-width: 0.8"/>
      </g>
     </g>
     <g id="text_7">
      <!-- 0 -->
      <g style="fill: #262626" transform="translate(38.939063 337.350682) scale(0.1 -0.1)">
       <defs>
        <path id="ArialMT-30" d="M 266 2259 
Q 266 3072 433 3567 
Q 600 4063 929 4331 
Q 1259 4600 1759 4600 
Q 2128 4600 2406 4451 
Q 2684 4303 2865 4023 
Q 3047 3744 3150 3342 
Q 3253 2941 3253 2259 
Q 3253 1453 3087 958 
Q 2922 463 2592 192 
Q 2263 -78 1759 -78 
Q 1097 -78 719 397 
Q 266 969 266 2259 
z
M 844 2259 
Q 844 1131 1108 757 
Q 1372 384 1759 384 
Q 2147 384 2411 759 
Q 2675 1134 2675 2259 
Q 2675 3391 2411 3762 
Q 2147 4134 1753 4134 
Q 1366 4134 1134 3806 
Q 844 3388 844 2259 
z
" transform="scale(0.015625)"/>
       </defs>
       <use xlink:href="#ArialMT-30"/>
      </g>
     </g>
    </g>
    <g id="ytick_2">
     <g id="line2d_7">
      <g>
       <use xlink:href="#m39298528a8" x="51.5" y="256.372295" style="fill: #262626; stroke: #262626; stroke-width: 0.8"/>
      </g>
     </g>
     <g id="text_8">
      <!-- 200 -->
      <g style="fill: #262626" transform="translate(27.817188 259.951201) scale(0.1 -0.1)">
       <use xlink:href="#ArialMT-32"/>
       <use xlink:href="#ArialMT-30" transform="translate(55.615234 0)"/>
       <use xlink:href="#ArialMT-30" transform="translate(111.230469 0)"/>
      </g>
     </g>
    </g>
    <g id="ytick_3">
     <g id="line2d_8">
      <g>
       <use xlink:href="#m39298528a8" x="51.5" y="178.972814" style="fill: #262626; stroke: #262626; stroke-width: 0.8"/>
      </g>
     </g>
     <g id="text_9">
      <!-- 400 -->
      <g style="fill: #262626" transform="translate(27.817188 182.55172) scale(0.1 -0.1)">
       <use xlink:href="#ArialMT-34"/>
       <use xlink:href="#ArialMT-30" transform="translate(55.615234 0)"/>
       <use xlink:href="#ArialMT-30" transform="translate(111.230469 0)"/>
      </g>
     </g>
    </g>
    <g id="ytick_4">
     <g id="line2d_9">
      <g>
       <use xlink:href="#m39298528a8" x="51.5" y="101.573333" style="fill: #262626; stroke: #262626; stroke-width: 0.8"/>
      </g>
     </g>
     <g id="text_10">
      <!-- 600 -->
      <g style="fill: #262626" transform="translate(27.817188 105.152239) scale(0.1 -0.1)">
       <defs>
        <path id="ArialMT-36" d="M 3184 3459 
L 2625 3416 
Q 2550 3747 2413 3897 
Q 2184 4138 1850 4138 
Q 1581 4138 1378 3988 
Q 1113 3794 959 3422 
Q 806 3050 800 2363 
Q 1003 2672 1297 2822 
Q 1591 2972 1913 2972 
Q 2475 2972 2870 2558 
Q 3266 2144 3266 1488 
Q 3266 1056 3080 686 
Q 2894 316 2569 119 
Q 2244 -78 1831 -78 
Q 1128 -78 684 439 
Q 241 956 241 2144 
Q 241 3472 731 4075 
Q 1159 4600 1884 4600 
Q 2425 4600 2770 4297 
Q 3116 3994 3184 3459 
z
M 888 1484 
Q 888 1194 1011 928 
Q 1134 663 1356 523 
Q 1578 384 1822 384 
Q 2178 384 2434 671 
Q 2691 959 2691 1453 
Q 2691 1928 2437 2201 
Q 2184 2475 1800 2475 
Q 1419 2475 1153 2201 
Q 888 1928 888 1484 
z
" transform="scale(0.015625)"/>
       </defs>
       <use xlink:href="#ArialMT-36"/>
       <use xlink:href="#ArialMT-30" transform="translate(55.615234 0)"/>
       <use xlink:href="#ArialMT-30" transform="translate(111.230469 0)"/>
      </g>
     </g>
    </g>
    <g id="ytick_5">
     <g id="line2d_10">
      <g>
       <use xlink:href="#m39298528a8" x="51.5" y="24.173851" style="fill: #262626; stroke: #262626; stroke-width: 0.8"/>
      </g>
     </g>
     <g id="text_11">
      <!-- 800 -->
      <g style="fill: #262626" transform="translate(27.817188 27.752758) scale(0.1 -0.1)">
       <defs>
        <path id="ArialMT-38" d="M 1131 2484 
Q 781 2613 612 2850 
Q 444 3088 444 3419 
Q 444 3919 803 4259 
Q 1163 4600 1759 4600 
Q 2359 4600 2725 4251 
Q 3091 3903 3091 3403 
Q 3091 3084 2923 2848 
Q 2756 2613 2416 2484 
Q 2838 2347 3058 2040 
Q 3278 1734 3278 1309 
Q 3278 722 2862 322 
Q 2447 -78 1769 -78 
Q 1091 -78 675 323 
Q 259 725 259 1325 
Q 259 1772 486 2073 
Q 713 2375 1131 2484 
z
M 1019 3438 
Q 1019 3113 1228 2906 
Q 1438 2700 1772 2700 
Q 2097 2700 2305 2904 
Q 2513 3109 2513 3406 
Q 2513 3716 2298 3927 
Q 2084 4138 1766 4138 
Q 1444 4138 1231 3931 
Q 1019 3725 1019 3438 
z
M 838 1322 
Q 838 1081 952 856 
Q 1066 631 1291 507 
Q 1516 384 1775 384 
Q 2178 384 2440 643 
Q 2703 903 2703 1303 
Q 2703 1709 2433 1975 
Q 2163 2241 1756 2241 
Q 1359 2241 1098 1978 
Q 838 1716 838 1322 
z
" transform="scale(0.015625)"/>
       </defs>
       <use xlink:href="#ArialMT-38"/>
       <use xlink:href="#ArialMT-30" transform="translate(55.615234 0)"/>
       <use xlink:href="#ArialMT-30" transform="translate(111.230469 0)"/>
      </g>
     </g>
    </g>
    <g id="text_12">
     <!-- Diseases (diseaseId) -->
     <g style="fill: #262626" transform="translate(20.870625 264.338125) rotate(-90) scale(0.14 -0.14)">
      <defs>
       <path id="ArialMT-44" d="M 494 0 
L 494 4581 
L 2072 4581 
Q 2606 4581 2888 4516 
Q 3281 4425 3559 4188 
Q 3922 3881 4101 3404 
Q 4281 2928 4281 2316 
Q 4281 1794 4159 1391 
Q 4038 988 3847 723 
Q 3656 459 3429 307 
Q 3203 156 2883 78 
Q 2563 0 2147 0 
L 494 0 
z
M 1100 541 
L 2078 541 
Q 2531 541 2789 625 
Q 3047 709 3200 863 
Q 3416 1078 3536 1442 
Q 3656 1806 3656 2325 
Q 3656 3044 3420 3430 
Q 3184 3816 2847 3947 
Q 2603 4041 2063 4041 
L 1100 4041 
L 1100 541 
z
" transform="scale(0.015625)"/>
       <path id="ArialMT-69" d="M 425 3934 
L 425 4581 
L 988 4581 
L 988 3934 
L 425 3934 
z
M 425 0 
L 425 3319 
L 988 3319 
L 988 0 
L 425 0 
z
" transform="scale(0.015625)"/>
      </defs>
      <use xlink:href="#ArialMT-44"/>
      <use xlink:href="#ArialMT-69" transform="translate(72.216797 0)"/>
      <use xlink:href="#ArialMT-73" transform="translate(94.433594 0)"/>
      <use xlink:href="#ArialMT-65" transform="translate(144.433594 0)"/>
      <use xlink:href="#ArialMT-61" transform="translate(200.048828 0)"/>
      <use xlink:href="#ArialMT-73" transform="translate(255.664062 0)"/>
      <use xlink:href="#ArialMT-65" transform="translate(305.664062 0)"/>
      <use xlink:href="#ArialMT-73" transform="translate(361.279297 0)"/>
      <use xlink:href="#ArialMT-20" transform="translate(411.279297 0)"/>
      <use xlink:href="#ArialMT-28" transform="translate(439.0625 0)"/>
      <use xlink:href="#ArialMT-64" transform="translate(472.363281 0)"/>
      <use xlink:href="#ArialMT-69" transform="translate(527.978516 0)"/>
      <use xlink:href="#ArialMT-73" transform="translate(550.195312 0)"/>
      <use xlink:href="#ArialMT-65" transform="translate(600.195312 0)"/>
      <use xlink:href="#ArialMT-61" transform="translate(655.810547 0)"/>
      <use xlink:href="#ArialMT-73" transform="translate(711.425781 0)"/>
      <use xlink:href="#ArialMT-65" transform="translate(761.425781 0)"/>
      <use xlink:href="#ArialMT-49" transform="translate(817.041016 0)"/>
      <use xlink:href="#ArialMT-64" transform="translate(844.824219 0)"/>
      <use xlink:href="#ArialMT-29" transform="translate(900.439453 0)"/>
     </g>
    </g>
   </g>
   <g id="FillBetweenPolyCollection_1">
    <defs>
     <path id="m08fdb4764a" d="M 106.261364 -80.289791 
L 99.478636 -80.289791 
L 95.984457 -83.560528 
L 90.480761 -86.831264 
L 83.08518 -90.102001 
L 74.773551 -93.372738 
L 67.293783 -96.643474 
L 62.555621 -99.914211 
L 61.774 -103.184948 
L 64.909697 -106.455685 
L 70.779074 -109.726421 
L 77.714214 -112.997158 
L 84.29291 -116.267895 
L 89.71999 -119.538632 
L 93.78907 -122.809368 
L 96.63362 -126.080105 
L 98.50182 -129.350842 
L 99.648571 -132.621579 
L 100.309692 -135.892315 
L 100.693205 -139.163052 
L 100.959791 -142.433789 
L 101.204017 -145.704525 
L 101.455792 -148.975262 
L 101.704532 -152.245999 
L 101.930428 -155.516736 
L 102.124496 -158.787472 
L 102.290602 -162.058209 
L 102.436297 -165.328946 
L 102.564278 -168.599683 
L 102.671269 -171.870419 
L 102.752773 -175.141156 
L 102.807938 -178.411893 
L 102.84072 -181.682629 
L 102.857745 -184.953366 
L 102.865463 -188.224103 
L 102.868516 -191.49484 
L 102.869572 -194.765576 
L 102.869891 -198.036313 
L 102.869976 -201.30705 
L 102.869995 -204.577787 
L 102.869999 -207.848523 
L 102.87 -211.11926 
L 102.87 -214.389997 
L 102.87 -217.660734 
L 102.87 -220.93147 
L 102.87 -224.202207 
L 102.87 -227.472944 
L 102.87 -230.74368 
L 102.87 -234.014417 
L 102.87 -237.285154 
L 102.87 -240.555891 
L 102.87 -243.826627 
L 102.87 -247.097364 
L 102.87 -250.368101 
L 102.87 -253.638838 
L 102.87 -256.909574 
L 102.87 -260.180311 
L 102.87 -263.451048 
L 102.87 -266.721785 
L 102.87 -269.992521 
L 102.87 -273.263258 
L 102.87 -276.533995 
L 102.87 -279.804731 
L 102.87 -283.075468 
L 102.87 -286.346205 
L 102.87 -289.616942 
L 102.87 -292.887678 
L 102.87 -296.158415 
L 102.87 -299.429152 
L 102.87 -302.699889 
L 102.87 -305.970625 
L 102.87 -309.241362 
L 102.87 -312.512099 
L 102.87 -315.782836 
L 102.87 -319.053572 
L 102.87 -322.324309 
L 102.87 -325.595046 
L 102.87 -328.865782 
L 102.87 -332.136519 
L 102.87 -335.407256 
L 102.869999 -338.677993 
L 102.869996 -341.948729 
L 102.869981 -345.219466 
L 102.869915 -348.490203 
L 102.869659 -351.76094 
L 102.868797 -355.031676 
L 102.866263 -358.302413 
L 102.859777 -361.57315 
L 102.845382 -364.843886 
L 102.817809 -368.114623 
L 102.772591 -371.38536 
L 102.709948 -374.656097 
L 102.638482 -377.926833 
L 102.575171 -381.19757 
L 102.539465 -384.468307 
L 102.543768 -387.739044 
L 102.586537 -391.00978 
L 102.653165 -394.280517 
L 102.723977 -397.551254 
L 102.783428 -400.821991 
L 102.824815 -404.092727 
L 102.915185 -404.092727 
L 102.915185 -404.092727 
L 102.956572 -400.821991 
L 103.016023 -397.551254 
L 103.086835 -394.280517 
L 103.153463 -391.00978 
L 103.196232 -387.739044 
L 103.200535 -384.468307 
L 103.164829 -381.19757 
L 103.101518 -377.926833 
L 103.030052 -374.656097 
L 102.967409 -371.38536 
L 102.922191 -368.114623 
L 102.894618 -364.843886 
L 102.880223 -361.57315 
L 102.873737 -358.302413 
L 102.871203 -355.031676 
L 102.870341 -351.76094 
L 102.870085 -348.490203 
L 102.870019 -345.219466 
L 102.870004 -341.948729 
L 102.870001 -338.677993 
L 102.87 -335.407256 
L 102.87 -332.136519 
L 102.87 -328.865782 
L 102.87 -325.595046 
L 102.87 -322.324309 
L 102.87 -319.053572 
L 102.87 -315.782836 
L 102.87 -312.512099 
L 102.87 -309.241362 
L 102.87 -305.970625 
L 102.87 -302.699889 
L 102.87 -299.429152 
L 102.87 -296.158415 
L 102.87 -292.887678 
L 102.87 -289.616942 
L 102.87 -286.346205 
L 102.87 -283.075468 
L 102.87 -279.804731 
L 102.87 -276.533995 
L 102.87 -273.263258 
L 102.87 -269.992521 
L 102.87 -266.721785 
L 102.87 -263.451048 
L 102.87 -260.180311 
L 102.87 -256.909574 
L 102.87 -253.638838 
L 102.87 -250.368101 
L 102.87 -247.097364 
L 102.87 -243.826627 
L 102.87 -240.555891 
L 102.87 -237.285154 
L 102.87 -234.014417 
L 102.87 -230.74368 
L 102.87 -227.472944 
L 102.87 -224.202207 
L 102.87 -220.93147 
L 102.87 -217.660734 
L 102.87 -214.389997 
L 102.87 -211.11926 
L 102.870001 -207.848523 
L 102.870005 -204.577787 
L 102.870024 -201.30705 
L 102.870109 -198.036313 
L 102.870428 -194.765576 
L 102.871484 -191.49484 
L 102.874537 -188.224103 
L 102.882255 -184.953366 
L 102.89928 -181.682629 
L 102.932062 -178.411893 
L 102.987227 -175.141156 
L 103.068731 -171.870419 
L 103.175722 -168.599683 
L 103.303703 -165.328946 
L 103.449398 -162.058209 
L 103.615504 -158.787472 
L 103.809572 -155.516736 
L 104.035468 -152.245999 
L 104.284208 -148.975262 
L 104.535983 -145.704525 
L 104.780209 -142.433789 
L 105.046795 -139.163052 
L 105.430308 -135.892315 
L 106.091429 -132.621579 
L 107.23818 -129.350842 
L 109.10638 -126.080105 
L 111.95093 -122.809368 
L 116.02001 -119.538632 
L 121.44709 -116.267895 
L 128.025786 -112.997158 
L 134.960926 -109.726421 
L 140.830303 -106.455685 
L 143.966 -103.184948 
L 143.184379 -99.914211 
L 138.446217 -96.643474 
L 130.966449 -93.372738 
L 122.65482 -90.102001 
L 115.259239 -86.831264 
L 109.755543 -83.560528 
L 106.261364 -80.289791 
z
" style="stroke: #2d2d2d; stroke-width: 1.25"/>
    </defs>
    <g clip-path="url(#pc19442c3c6)">
     <use xlink:href="#m08fdb4764a" x="0" y="432" style="fill: #90b6cf; stroke: #2d2d2d; stroke-width: 1.25"/>
    </g>
   </g>
   <g id="FillBetweenPolyCollection_2">
    <defs>
     <path id="m5a3bb3a2e9" d="M 208.62669 -72.157126 
L 202.59331 -72.157126 
L 201.682628 -73.829171 
L 200.57126 -75.501216 
L 199.238844 -77.173261 
L 197.669982 -78.845306 
L 195.856402 -80.51735 
L 193.79905 -82.189395 
L 191.509931 -83.86144 
L 189.013456 -85.533485 
L 186.347087 -87.20553 
L 183.561119 -88.877574 
L 180.717479 -90.549619 
L 177.887521 -92.221664 
L 175.148915 -93.893709 
L 172.5818 -95.565754 
L 170.264481 -97.237798 
L 168.269012 -98.909843 
L 166.657032 -100.581888 
L 165.476201 -102.253933 
L 164.757558 -103.925978 
L 164.514 -105.598022 
L 164.739994 -107.270067 
L 165.412516 -108.942112 
L 166.49308 -110.614157 
L 167.930636 -112.286202 
L 169.665063 -113.958246 
L 171.630921 -115.630291 
L 173.761179 -117.302336 
L 175.990613 -118.974381 
L 178.258691 -120.646426 
L 180.511785 -122.31847 
L 182.704656 -123.990515 
L 184.801207 -125.66256 
L 186.774586 -127.334605 
L 188.606729 -129.00665 
L 190.287486 -130.678694 
L 191.813464 -132.350739 
L 193.186722 -134.022784 
L 194.413442 -135.694829 
L 195.502658 -137.366874 
L 196.465131 -139.038918 
L 197.312411 -140.710963 
L 198.056094 -142.383008 
L 198.707302 -144.055053 
L 199.276345 -145.727098 
L 199.77256 -147.399143 
L 200.204272 -149.071187 
L 200.578859 -150.743232 
L 200.902863 -152.415277 
L 201.182129 -154.087322 
L 201.42193 -155.759367 
L 201.627076 -157.431411 
L 201.801986 -159.103456 
L 201.950732 -160.775501 
L 202.07705 -162.447546 
L 202.184352 -164.119591 
L 202.275723 -165.791635 
L 202.353938 -167.46368 
L 202.421483 -169.135725 
L 202.48059 -170.80777 
L 202.533274 -172.479815 
L 202.581363 -174.151859 
L 202.626512 -175.823904 
L 202.670185 -177.495949 
L 202.713619 -179.167994 
L 202.757761 -180.840039 
L 202.803199 -182.512083 
L 202.850107 -184.184128 
L 202.898213 -185.856173 
L 202.946825 -187.528218 
L 202.994909 -189.200263 
L 203.04123 -190.872307 
L 203.084543 -192.544352 
L 203.12381 -194.216397 
L 203.158425 -195.888442 
L 203.188392 -197.560487 
L 203.214459 -199.232531 
L 203.238147 -200.904576 
L 203.261692 -202.576621 
L 203.287887 -204.248666 
L 203.319837 -205.920711 
L 203.360666 -207.592755 
L 203.4132 -209.2648 
L 203.479673 -210.936845 
L 203.561482 -212.60889 
L 203.659027 -214.280935 
L 203.771655 -215.95298 
L 203.897702 -217.625024 
L 204.034629 -219.297069 
L 204.179237 -220.969114 
L 204.327929 -222.641159 
L 204.476985 -224.313204 
L 204.622828 -225.985248 
L 204.762253 -227.657293 
L 204.892599 -229.329338 
L 205.011856 -231.001383 
L 205.118711 -232.673428 
L 205.212526 -234.345472 
L 205.293274 -236.017517 
L 205.36144 -237.689562 
L 205.85856 -237.689562 
L 205.85856 -237.689562 
L 205.926726 -236.017517 
L 206.007474 -234.345472 
L 206.101289 -232.673428 
L 206.208144 -231.001383 
L 206.327401 -229.329338 
L 206.457747 -227.657293 
L 206.597172 -225.985248 
L 206.743015 -224.313204 
L 206.892071 -222.641159 
L 207.040763 -220.969114 
L 207.185371 -219.297069 
L 207.322298 -217.625024 
L 207.448345 -215.95298 
L 207.560973 -214.280935 
L 207.658518 -212.60889 
L 207.740327 -210.936845 
L 207.8068 -209.2648 
L 207.859334 -207.592755 
L 207.900163 -205.920711 
L 207.932113 -204.248666 
L 207.958308 -202.576621 
L 207.981853 -200.904576 
L 208.005541 -199.232531 
L 208.031608 -197.560487 
L 208.061575 -195.888442 
L 208.09619 -194.216397 
L 208.135457 -192.544352 
L 208.17877 -190.872307 
L 208.225091 -189.200263 
L 208.273175 -187.528218 
L 208.321787 -185.856173 
L 208.369893 -184.184128 
L 208.416801 -182.512083 
L 208.462239 -180.840039 
L 208.506381 -179.167994 
L 208.549815 -177.495949 
L 208.593488 -175.823904 
L 208.638637 -174.151859 
L 208.686726 -172.479815 
L 208.73941 -170.80777 
L 208.798517 -169.135725 
L 208.866062 -167.46368 
L 208.944277 -165.791635 
L 209.035648 -164.119591 
L 209.14295 -162.447546 
L 209.269268 -160.775501 
L 209.418014 -159.103456 
L 209.592924 -157.431411 
L 209.79807 -155.759367 
L 210.037871 -154.087322 
L 210.317137 -152.415277 
L 210.641141 -150.743232 
L 211.015728 -149.071187 
L 211.44744 -147.399143 
L 211.943655 -145.727098 
L 212.512698 -144.055053 
L 213.163906 -142.383008 
L 213.907589 -140.710963 
L 214.754869 -139.038918 
L 215.717342 -137.366874 
L 216.806558 -135.694829 
L 218.033278 -134.022784 
L 219.406536 -132.350739 
L 220.932514 -130.678694 
L 222.613271 -129.00665 
L 224.445414 -127.334605 
L 226.418793 -125.66256 
L 228.515344 -123.990515 
L 230.708215 -122.31847 
L 232.961309 -120.646426 
L 235.229387 -118.974381 
L 237.458821 -117.302336 
L 239.589079 -115.630291 
L 241.554937 -113.958246 
L 243.289364 -112.286202 
L 244.72692 -110.614157 
L 245.807484 -108.942112 
L 246.480006 -107.270067 
L 246.706 -105.598022 
L 246.462442 -103.925978 
L 245.743799 -102.253933 
L 244.562968 -100.581888 
L 242.950988 -98.909843 
L 240.955519 -97.237798 
L 238.6382 -95.565754 
L 236.071085 -93.893709 
L 233.332479 -92.221664 
L 230.502521 -90.549619 
L 227.658881 -88.877574 
L 224.872913 -87.20553 
L 222.206544 -85.533485 
L 219.710069 -83.86144 
L 217.42095 -82.189395 
L 215.363598 -80.51735 
L 213.550018 -78.845306 
L 211.981156 -77.173261 
L 210.64874 -75.501216 
L 209.537372 -73.829171 
L 208.62669 -72.157126 
z
" style="stroke: #2d2d2d; stroke-width: 1.25"/>
    </defs>
    <g clip-path="url(#pc19442c3c6)">
     <use xlink:href="#m5a3bb3a2e9" x="0" y="432" style="fill: #6c9dbf; stroke: #2d2d2d; stroke-width: 1.25"/>
    </g>
   </g>
   <g id="FillBetweenPolyCollection_3">
    <defs>
     <path id="m0693531bf6" d="M 312.128914 -61.947273 
L 304.571086 -61.947273 
L 303.845187 -63.575397 
L 303.017396 -65.203521 
L 302.081516 -66.831646 
L 301.032627 -68.45977 
L 299.867444 -70.087894 
L 298.584652 -71.716019 
L 297.185231 -73.344143 
L 295.672736 -74.972267 
L 294.053522 -76.600392 
L 292.33689 -78.228516 
L 290.535146 -79.85664 
L 288.663557 -81.484765 
L 286.740198 -83.112889 
L 284.785684 -84.741013 
L 282.822791 -86.369138 
L 280.875975 -87.997262 
L 278.970811 -89.625386 
L 277.133348 -91.253511 
L 275.389443 -92.881635 
L 273.764062 -94.509759 
L 272.280603 -96.137884 
L 270.960266 -97.766008 
L 269.821487 -99.394132 
L 268.879471 -101.022257 
L 268.145845 -102.650381 
L 267.628424 -104.278505 
L 267.331124 -105.90663 
L 267.254 -107.534754 
L 267.393403 -109.162878 
L 267.742255 -110.791003 
L 268.290407 -112.419127 
L 269.025063 -114.047251 
L 269.931253 -115.675376 
L 270.992315 -117.3035 
L 272.19038 -118.931624 
L 273.506827 -120.559749 
L 274.922698 -122.187873 
L 276.419063 -123.815997 
L 277.977321 -125.444122 
L 279.579448 -127.072246 
L 281.208178 -128.70037 
L 282.84714 -130.328495 
L 284.480944 -131.956619 
L 286.095241 -133.584743 
L 287.67675 -135.212868 
L 289.213274 -136.840992 
L 290.69372 -138.469116 
L 292.108099 -140.097241 
L 293.447555 -141.725365 
L 294.704379 -143.353489 
L 295.872048 -144.981614 
L 296.945261 -146.609738 
L 297.919981 -148.237862 
L 298.793471 -149.865987 
L 299.564333 -151.494111 
L 300.232527 -153.122235 
L 300.799384 -154.75036 
L 301.267591 -156.378484 
L 301.641159 -158.006608 
L 301.925369 -159.634733 
L 302.126681 -161.262857 
L 302.252629 -162.890981 
L 302.311682 -164.519106 
L 302.313081 -166.14723 
L 302.26666 -167.775354 
L 302.182642 -169.403479 
L 302.071423 -171.031603 
L 301.943357 -172.659727 
L 301.808522 -174.287852 
L 301.676508 -175.915976 
L 301.556204 -177.5441 
L 301.455614 -179.172225 
L 301.381685 -180.800349 
L 301.340181 -182.428473 
L 301.335578 -184.056598 
L 301.371009 -185.684722 
L 301.448247 -187.312846 
L 301.567724 -188.940971 
L 301.728603 -190.569095 
L 301.928872 -192.197219 
L 302.165482 -193.825344 
L 302.434511 -195.453468 
L 302.731335 -197.081592 
L 303.050829 -198.709717 
L 303.387557 -200.337841 
L 303.735965 -201.965965 
L 304.090562 -203.59409 
L 304.446079 -205.222214 
L 304.797616 -206.850338 
L 305.140749 -208.478463 
L 305.471619 -210.106587 
L 305.786989 -211.734711 
L 306.084271 -213.362836 
L 306.361531 -214.99096 
L 306.617467 -216.619084 
L 306.851369 -218.247209 
L 307.063061 -219.875333 
L 307.252839 -221.503457 
L 307.421394 -223.131582 
L 309.278606 -223.131582 
L 309.278606 -223.131582 
L 309.447161 -221.503457 
L 309.636939 -219.875333 
L 309.848631 -218.247209 
L 310.082533 -216.619084 
L 310.338469 -214.99096 
L 310.615729 -213.362836 
L 310.913011 -211.734711 
L 311.228381 -210.106587 
L 311.559251 -208.478463 
L 311.902384 -206.850338 
L 312.253921 -205.222214 
L 312.609438 -203.59409 
L 312.964035 -201.965965 
L 313.312443 -200.337841 
L 313.649171 -198.709717 
L 313.968665 -197.081592 
L 314.265489 -195.453468 
L 314.534518 -193.825344 
L 314.771128 -192.197219 
L 314.971397 -190.569095 
L 315.132276 -188.940971 
L 315.251753 -187.312846 
L 315.328991 -185.684722 
L 315.364422 -184.056598 
L 315.359819 -182.428473 
L 315.318315 -180.800349 
L 315.244386 -179.172225 
L 315.143796 -177.5441 
L 315.023492 -175.915976 
L 314.891478 -174.287852 
L 314.756643 -172.659727 
L 314.628577 -171.031603 
L 314.517358 -169.403479 
L 314.43334 -167.775354 
L 314.386919 -166.14723 
L 314.388318 -164.519106 
L 314.447371 -162.890981 
L 314.573319 -161.262857 
L 314.774631 -159.634733 
L 315.058841 -158.006608 
L 315.432409 -156.378484 
L 315.900616 -154.75036 
L 316.467473 -153.122235 
L 317.135667 -151.494111 
L 317.906529 -149.865987 
L 318.780019 -148.237862 
L 319.754739 -146.609738 
L 320.827952 -144.981614 
L 321.995621 -143.353489 
L 323.252445 -141.725365 
L 324.591901 -140.097241 
L 326.00628 -138.469116 
L 327.486726 -136.840992 
L 329.02325 -135.212868 
L 330.604759 -133.584743 
L 332.219056 -131.956619 
L 333.85286 -130.328495 
L 335.491822 -128.70037 
L 337.120552 -127.072246 
L 338.722679 -125.444122 
L 340.280937 -123.815997 
L 341.777302 -122.187873 
L 343.193173 -120.559749 
L 344.50962 -118.931624 
L 345.707685 -117.3035 
L 346.768747 -115.675376 
L 347.674937 -114.047251 
L 348.409593 -112.419127 
L 348.957745 -110.791003 
L 349.306597 -109.162878 
L 349.446 -107.534754 
L 349.368876 -105.90663 
L 349.071576 -104.278505 
L 348.554155 -102.650381 
L 347.820529 -101.022257 
L 346.878513 -99.394132 
L 345.739734 -97.766008 
L 344.419397 -96.137884 
L 342.935938 -94.509759 
L 341.310557 -92.881635 
L 339.566652 -91.253511 
L 337.729189 -89.625386 
L 335.824025 -87.997262 
L 333.877209 -86.369138 
L 331.914316 -84.741013 
L 329.959802 -83.112889 
L 328.036443 -81.484765 
L 326.164854 -79.85664 
L 324.36311 -78.228516 
L 322.646478 -76.600392 
L 321.027264 -74.972267 
L 319.514769 -73.344143 
L 318.115348 -71.716019 
L 316.832556 -70.087894 
L 315.667373 -68.45977 
L 314.618484 -66.831646 
L 313.682604 -65.203521 
L 312.854813 -63.575397 
L 312.128914 -61.947273 
z
" style="stroke: #2d2d2d; stroke-width: 1.25"/>
    </defs>
    <g clip-path="url(#pc19442c3c6)">
     <use xlink:href="#m0693531bf6" x="0" y="432" style="fill: #4884af; stroke: #2d2d2d; stroke-width: 1.25"/>
    </g>
   </g>
   <g id="FillBetweenPolyCollection_4">
    <defs>
     <path id="m14c4acde91" d="M 414.998282 -104.595312 
L 407.181718 -104.595312 
L 406.714143 -104.920136 
L 406.205953 -105.244959 
L 405.655748 -105.569783 
L 405.062361 -105.894606 
L 404.424898 -106.21943 
L 403.742771 -106.544253 
L 403.015736 -106.869077 
L 402.243916 -107.1939 
L 401.427838 -107.518723 
L 400.568447 -107.843547 
L 399.667126 -108.16837 
L 398.725708 -108.493194 
L 397.746473 -108.818017 
L 396.732153 -109.142841 
L 395.685912 -109.467664 
L 394.611327 -109.792488 
L 393.512362 -110.117311 
L 392.393329 -110.442135 
L 391.258844 -110.766958 
L 390.113773 -111.091782 
L 388.963179 -111.416605 
L 387.812255 -111.741428 
L 386.666259 -112.066252 
L 385.530446 -112.391075 
L 384.409996 -112.715899 
L 383.309949 -113.040722 
L 382.235135 -113.365546 
L 381.190113 -113.690369 
L 380.179115 -114.015193 
L 379.206 -114.340016 
L 378.274209 -114.66484 
L 377.38674 -114.989663 
L 376.546124 -115.314487 
L 375.754419 -115.63931 
L 375.013213 -115.964134 
L 374.323638 -116.288957 
L 373.686394 -116.61378 
L 373.101787 -116.938604 
L 372.56977 -117.263427 
L 372.089996 -117.588251 
L 371.661875 -117.913074 
L 371.284636 -118.237898 
L 370.957388 -118.562721 
L 370.679184 -118.887545 
L 370.449083 -119.212368 
L 370.266204 -119.537192 
L 370.129777 -119.862015 
L 370.039185 -120.186839 
L 369.994 -120.511662 
L 369.994 -120.836485 
L 370.039185 -121.161309 
L 370.129777 -121.486132 
L 370.266204 -121.810956 
L 370.449083 -122.135779 
L 370.679184 -122.460603 
L 370.957388 -122.785426 
L 371.284636 -123.11025 
L 371.661875 -123.435073 
L 372.089996 -123.759897 
L 372.56977 -124.08472 
L 373.101787 -124.409544 
L 373.686394 -124.734367 
L 374.323638 -125.059191 
L 375.013213 -125.384014 
L 375.754419 -125.708837 
L 376.546124 -126.033661 
L 377.38674 -126.358484 
L 378.274209 -126.683308 
L 379.206 -127.008131 
L 380.179115 -127.332955 
L 381.190113 -127.657778 
L 382.235135 -127.982602 
L 383.309949 -128.307425 
L 384.409996 -128.632249 
L 385.530446 -128.957072 
L 386.666259 -129.281896 
L 387.812255 -129.606719 
L 388.963179 -129.931543 
L 390.113773 -130.256366 
L 391.258844 -130.581189 
L 392.393329 -130.906013 
L 393.512362 -131.230836 
L 394.611327 -131.55566 
L 395.685912 -131.880483 
L 396.732153 -132.205307 
L 397.746473 -132.53013 
L 398.725708 -132.854954 
L 399.667126 -133.179777 
L 400.568447 -133.504601 
L 401.427838 -133.829424 
L 402.243916 -134.154248 
L 403.015736 -134.479071 
L 403.742771 -134.803894 
L 404.424898 -135.128718 
L 405.062361 -135.453541 
L 405.655748 -135.778365 
L 406.205953 -136.103188 
L 406.714143 -136.428012 
L 407.181718 -136.752835 
L 414.998282 -136.752835 
L 414.998282 -136.752835 
L 415.465857 -136.428012 
L 415.974047 -136.103188 
L 416.524252 -135.778365 
L 417.117639 -135.453541 
L 417.755102 -135.128718 
L 418.437229 -134.803894 
L 419.164264 -134.479071 
L 419.936084 -134.154248 
L 420.752162 -133.829424 
L 421.611553 -133.504601 
L 422.512874 -133.179777 
L 423.454292 -132.854954 
L 424.433527 -132.53013 
L 425.447847 -132.205307 
L 426.494088 -131.880483 
L 427.568673 -131.55566 
L 428.667638 -131.230836 
L 429.786671 -130.906013 
L 430.921156 -130.581189 
L 432.066227 -130.256366 
L 433.216821 -129.931543 
L 434.367745 -129.606719 
L 435.513741 -129.281896 
L 436.649554 -128.957072 
L 437.770004 -128.632249 
L 438.870051 -128.307425 
L 439.944865 -127.982602 
L 440.989887 -127.657778 
L 442.000885 -127.332955 
L 442.974 -127.008131 
L 443.905791 -126.683308 
L 444.79326 -126.358484 
L 445.633876 -126.033661 
L 446.425581 -125.708837 
L 447.166787 -125.384014 
L 447.856362 -125.059191 
L 448.493606 -124.734367 
L 449.078213 -124.409544 
L 449.61023 -124.08472 
L 450.090004 -123.759897 
L 450.518125 -123.435073 
L 450.895364 -123.11025 
L 451.222612 -122.785426 
L 451.500816 -122.460603 
L 451.730917 -122.135779 
L 451.913796 -121.810956 
L 452.050223 -121.486132 
L 452.140815 -121.161309 
L 452.186 -120.836485 
L 452.186 -120.511662 
L 452.140815 -120.186839 
L 452.050223 -119.862015 
L 451.913796 -119.537192 
L 451.730917 -119.212368 
L 451.500816 -118.887545 
L 451.222612 -118.562721 
L 450.895364 -118.237898 
L 450.518125 -117.913074 
L 450.090004 -117.588251 
L 449.61023 -117.263427 
L 449.078213 -116.938604 
L 448.493606 -116.61378 
L 447.856362 -116.288957 
L 447.166787 -115.964134 
L 446.425581 -115.63931 
L 445.633876 -115.314487 
L 444.79326 -114.989663 
L 443.905791 -114.66484 
L 442.974 -114.340016 
L 442.000885 -114.015193 
L 440.989887 -113.690369 
L 439.944865 -113.365546 
L 438.870051 -113.040722 
L 437.770004 -112.715899 
L 436.649554 -112.391075 
L 435.513741 -112.066252 
L 434.367745 -111.741428 
L 433.216821 -111.416605 
L 432.066227 -111.091782 
L 430.921156 -110.766958 
L 429.786671 -110.442135 
L 428.667638 -110.117311 
L 427.568673 -109.792488 
L 426.494088 -109.467664 
L 425.447847 -109.142841 
L 424.433527 -108.818017 
L 423.454292 -108.493194 
L 422.512874 -108.16837 
L 421.611553 -107.843547 
L 420.752162 -107.518723 
L 419.936084 -107.1939 
L 419.164264 -106.869077 
L 418.437229 -106.544253 
L 417.755102 -106.21943 
L 417.117639 -105.894606 
L 416.524252 -105.569783 
L 415.974047 -105.244959 
L 415.465857 -104.920136 
L 414.998282 -104.595312 
z
" style="stroke: #2d2d2d; stroke-width: 1.25"/>
    </defs>
    <g clip-path="url(#pc19442c3c6)">
     <use xlink:href="#m14c4acde91" x="0" y="432" style="fill: #416986; stroke: #2d2d2d; stroke-width: 1.25"/>
    </g>
   </g>
   <g id="line2d_11">
    <path d="M 472.734 319.839869 
L 554.926 319.839869 
" clip-path="url(#pc19442c3c6)" style="fill: none; stroke: #2d2d2d; stroke-width: 1.25; stroke-linecap: round"/>
   </g>
   <g id="patch_3">
    <path d="M 95.1645 332.610784 
L 110.5755 332.610784 
L 110.5755 325.161083 
L 95.1645 325.161083 
L 95.1645 332.610784 
z
" clip-path="url(#pc19442c3c6)" style="fill: #ffffff; opacity: 0.9; stroke: #000000; stroke-linejoin: miter"/>
   </g>
   <g id="line2d_12">
    <path d="M 102.87 332.610784 
L 102.87 333.384778 
" clip-path="url(#pc19442c3c6)" style="fill: none; stroke: #000000"/>
   </g>
   <g id="line2d_13">
    <path d="M 102.87 325.161083 
L 102.87 314.421905 
" clip-path="url(#pc19442c3c6)" style="fill: none; stroke: #000000"/>
   </g>
   <g id="line2d_14">
    <path d="M 99.01725 333.384778 
L 106.72275 333.384778 
" clip-path="url(#pc19442c3c6)" style="fill: none; stroke: #000000; stroke-linecap: round"/>
   </g>
   <g id="line2d_15">
    <path d="M 99.01725 314.421905 
L 106.72275 314.421905 
" clip-path="url(#pc19442c3c6)" style="fill: none; stroke: #000000; stroke-linecap: round"/>
   </g>
   <g id="patch_4">
    <path d="M 197.9045 331.062794 
L 213.3155 331.062794 
L 213.3155 315.1959 
L 197.9045 315.1959 
L 197.9045 331.062794 
z
" clip-path="url(#pc19442c3c6)" style="fill: #ffffff; opacity: 0.9; stroke: #000000; stroke-linejoin: miter"/>
   </g>
   <g id="line2d_16">
    <path d="M 205.61 331.062794 
L 205.61 332.997781 
" clip-path="url(#pc19442c3c6)" style="fill: none; stroke: #000000"/>
   </g>
   <g id="line2d_17">
    <path d="M 205.61 315.1959 
L 205.61 295.459033 
" clip-path="url(#pc19442c3c6)" style="fill: none; stroke: #000000"/>
   </g>
   <g id="line2d_18">
    <path d="M 201.75725 332.997781 
L 209.46275 332.997781 
" clip-path="url(#pc19442c3c6)" style="fill: none; stroke: #000000; stroke-linecap: round"/>
   </g>
   <g id="line2d_19">
    <path d="M 201.75725 295.459033 
L 209.46275 295.459033 
" clip-path="url(#pc19442c3c6)" style="fill: none; stroke: #000000; stroke-linecap: round"/>
   </g>
   <g id="patch_5">
    <path d="M 300.6445 331.159543 
L 316.0555 331.159543 
L 316.0555 305.327466 
L 300.6445 305.327466 
L 300.6445 331.159543 
z
" clip-path="url(#pc19442c3c6)" style="fill: #ffffff; opacity: 0.9; stroke: #000000; stroke-linejoin: miter"/>
   </g>
   <g id="line2d_20">
    <path d="M 308.35 331.159543 
L 308.35 331.836789 
" clip-path="url(#pc19442c3c6)" style="fill: none; stroke: #000000"/>
   </g>
   <g id="line2d_21">
    <path d="M 308.35 305.327466 
L 308.35 304.74697 
" clip-path="url(#pc19442c3c6)" style="fill: none; stroke: #000000"/>
   </g>
   <g id="line2d_22">
    <path d="M 304.49725 331.836789 
L 312.20275 331.836789 
" clip-path="url(#pc19442c3c6)" style="fill: none; stroke: #000000; stroke-linecap: round"/>
   </g>
   <g id="line2d_23">
    <path d="M 304.49725 304.74697 
L 312.20275 304.74697 
" clip-path="url(#pc19442c3c6)" style="fill: none; stroke: #000000; stroke-linecap: round"/>
   </g>
   <g id="patch_6">
    <path d="M 403.3845 313.647911 
L 418.7955 313.647911 
L 418.7955 309.003942 
L 403.3845 309.003942 
L 403.3845 313.647911 
z
" clip-path="url(#pc19442c3c6)" style="fill: #ffffff; opacity: 0.9; stroke: #000000; stroke-linejoin: miter"/>
   </g>
   <g id="line2d_24">
    <path d="M 411.09 313.647911 
L 411.09 315.969895 
" clip-path="url(#pc19442c3c6)" style="fill: none; stroke: #000000"/>
   </g>
   <g id="line2d_25">
    <path d="M 411.09 309.003942 
L 411.09 306.681957 
" clip-path="url(#pc19442c3c6)" style="fill: none; stroke: #000000"/>
   </g>
   <g id="line2d_26">
    <path d="M 407.23725 315.969895 
L 414.94275 315.969895 
" clip-path="url(#pc19442c3c6)" style="fill: none; stroke: #000000; stroke-linecap: round"/>
   </g>
   <g id="line2d_27">
    <path d="M 407.23725 306.681957 
L 414.94275 306.681957 
" clip-path="url(#pc19442c3c6)" style="fill: none; stroke: #000000; stroke-linecap: round"/>
   </g>
   <g id="patch_7">
    <path d="M 506.1245 319.839869 
L 521.5355 319.839869 
L 521.5355 319.839869 
L 506.1245 319.839869 
L 506.1245 319.839869 
z
" clip-path="url(#pc19442c3c6)" style="fill: #ffffff; opacity: 0.9; stroke: #000000; stroke-linejoin: miter"/>
   </g>
   <g id="line2d_28">
    <path d="M 513.83 319.839869 
L 513.83 319.839869 
" clip-path="url(#pc19442c3c6)" style="fill: none; stroke: #000000"/>
   </g>
   <g id="line2d_29">
    <path d="M 513.83 319.839869 
L 513.83 319.839869 
" clip-path="url(#pc19442c3c6)" style="fill: none; stroke: #000000"/>
   </g>
   <g id="line2d_30">
    <path d="M 509.97725 319.839869 
L 517.68275 319.839869 
" clip-path="url(#pc19442c3c6)" style="fill: none; stroke: #000000; stroke-linecap: round"/>
   </g>
   <g id="line2d_31">
    <path d="M 509.97725 319.839869 
L 517.68275 319.839869 
" clip-path="url(#pc19442c3c6)" style="fill: none; stroke: #000000; stroke-linecap: round"/>
   </g>
   <g id="line2d_32">
    <path d="M 95.1645 330.675797 
L 110.5755 330.675797 
" clip-path="url(#pc19442c3c6)" style="fill: none; stroke: #000000"/>
   </g>
   <g id="line2d_33">
    <path d="M 197.9045 326.031828 
L 213.3155 326.031828 
" clip-path="url(#pc19442c3c6)" style="fill: none; stroke: #000000"/>
   </g>
   <g id="line2d_34">
    <path d="M 300.6445 326.805822 
L 316.0555 326.805822 
" clip-path="url(#pc19442c3c6)" style="fill: none; stroke: #000000"/>
   </g>
   <g id="line2d_35">
    <path d="M 403.3845 311.325926 
L 418.7955 311.325926 
" clip-path="url(#pc19442c3c6)" style="fill: none; stroke: #000000"/>
   </g>
   <g id="line2d_36">
    <path d="M 506.1245 319.839869 
L 521.5355 319.839869 
" clip-path="url(#pc19442c3c6)" style="fill: none; stroke: #000000"/>
   </g>
   <g id="patch_8">
    <path d="M 51.5 387.16 
L 51.5 10.8 
" style="fill: none; stroke: #262626; stroke-width: 0.8; stroke-linejoin: miter; stroke-linecap: square"/>
   </g>
   <g id="patch_9">
    <path d="M 565.2 387.16 
L 565.2 10.8 
" style="fill: none; stroke: #262626; stroke-width: 0.8; stroke-linejoin: miter; stroke-linecap: square"/>
   </g>
   <g id="patch_10">
    <path d="M 51.5 387.16 
L 565.2 387.16 
" style="fill: none; stroke: #262626; stroke-width: 0.8; stroke-linejoin: miter; stroke-linecap: square"/>
   </g>
   <g id="patch_11">
    <path d="M 51.5 10.8 
L 565.2 10.8 
" style="fill: none; stroke: #262626; stroke-width: 0.8; stroke-linejoin: miter; stroke-linecap: square"/>
   </g>
  </g>
 </g>
 <defs>
  <clipPath id="pc19442c3c6">
   <rect x="51.5" y="10.8" width="513.7" height="376.36"/>
  </clipPath>
 </defs>
</svg>
