<?xml version="1.0" encoding="utf-8" standalone="no"?>
<!DOCTYPE svg PUBLIC "-//W3C//DTD SVG 1.1//EN"
  "http://www.w3.org/Graphics/SVG/1.1/DTD/svg11.dtd">
<svg xmlns:xlink="http://www.w3.org/1999/xlink" width="640.004023pt" height="351.930282pt" viewBox="0 0 640.004023 351.930282" xmlns="http://www.w3.org/2000/svg" version="1.1">
 <metadata>
  <rdf:RDF xmlns:dc="http://purl.org/dc/elements/1.1/" xmlns:cc="http://creativecommons.org/ns#" xmlns:rdf="http://www.w3.org/1999/02/22-rdf-syntax-ns#">
   <cc:Work>
    <dc:type rdf:resource="http://purl.org/dc/dcmitype/StillImage"/>
    <dc:date>2026-06-16T10:36:45.093219</dc:date>
    <dc:format>image/svg+xml</dc:format>
    <dc:creator>
     <cc:Agent>
      <dc:title>Matplotlib v3.11.0, https://matplotlib.org/</dc:title>
     </cc:Agent>
    </dc:creator>
   </cc:Work>
  </rdf:RDF>
 </metadata>
 <defs>
  <style type="text/css">*{stroke-linejoin: round; stroke-linecap: butt}</style>
 </defs>
 <g id="figure_1">
  <g id="patch_1">
   <path d="M 0 351.930282 
L 640.004023 351.930282 
L 640.004023 0 
L 0 0 
z
" style="fill: #ffffff"/>
  </g>
  <g id="axes_1">
   <g id="patch_2">
    <path d="M 48.021758 311.206571 
L 627.243086 311.206571 
L 627.243086 30.162008 
L 48.021758 30.162008 
z
" style="fill: #ffffff"/>
   </g>
   <g id="matplotlib.axis_1">
    <g id="xtick_1">
     <g id="line2d_1">
      <defs>
       <path id="mf990fc0429" d="M 0 0 
L 0 3.5 
" style="stroke: #262626; stroke-width: 0.8"/>
      </defs>
      <g>
       <use xlink:href="#mf990fc0429" x="64.892282" y="311.206571" style="fill: #262626; stroke: #262626; stroke-width: 0.8"/>
      </g>
     </g>
     <g id="text_1">
      <!-- −80 -->
      <g style="fill: #262626" transform="translate(56.411032 325.486844) scale(0.1 -0.1)">
       <defs>
        <path id="ArialMT-ed" d="M 3381 1997 
L 356 1997 
L 356 2522 
L 3381 2522 
L 3381 1997 
z
" transform="scale(0.015625)"/>
        <path id="ArialMT-1b" d="M 1131 2484 
Q 781 2613 612 2850 
Q 444 3088 444 3419 
Q 444 3919 803 4259 
Q 1163 4600 1759 4600 
Q 2359 4600 2725 4251 
Q 3091 3903 3091 3403 
Q 3091 3084 2923 2848 
Q 2756 2613 2416 2484 
Q 2838 2347 3058 2040 
Q 3278 1734 3278 1309 
Q 3278 722 2862 322 
Q 2447 -78 1769 -78 
Q 1091 -78 675 323 
Q 259 725 259 1325 
Q 259 1772 486 2073 
Q 713 2375 1131 2484 
z
M 1019 3438 
Q 1019 3113 1228 2906 
Q 1438 2700 1772 2700 
Q 2097 2700 2305 2904 
Q 2513 3109 2513 3406 
Q 2513 3716 2298 3927 
Q 2084 4138 1766 4138 
Q 1444 4138 1231 3931 
Q 1019 3725 1019 3438 
z
M 838 1322 
Q 838 1081 952 856 
Q 1066 631 1291 507 
Q 1516 384 1775 384 
Q 2178 384 2440 643 
Q 2703 903 2703 1303 
Q 2703 1709 2433 1975 
Q 2163 2241 1756 2241 
Q 1359 2241 1098 1978 
Q 838 1716 838 1322 
z
" transform="scale(0.015625)"/>
        <path id="ArialMT-13" d="M 266 2259 
Q 266 3072 433 3567 
Q 600 4063 929 4331 
Q 1259 4600 1759 4600 
Q 2128 4600 2406 4451 
Q 2684 4303 2865 4023 
Q 3047 3744 3150 3342 
Q 3253 2941 3253 2259 
Q 3253 1453 3087 958 
Q 2922 463 2592 192 
Q 2263 -78 1759 -78 
Q 1097 -78 719 397 
Q 266 969 266 2259 
z
M 844 2259 
Q 844 1131 1108 757 
Q 1372 384 1759 384 
Q 2147 384 2411 759 
Q 2675 1134 2675 2259 
Q 2675 3391 2411 3762 
Q 2147 4134 1753 4134 
Q 1366 4134 1134 3806 
Q 844 3388 844 2259 
z
" transform="scale(0.015625)"/>
       </defs>
       <use xlink:href="#ArialMT-ed"/>
       <use xlink:href="#ArialMT-1b" transform="translate(58.40625 0)"/>
       <use xlink:href="#ArialMT-13" transform="translate(114.015625 0)"/>
      </g>
     </g>
    </g>
    <g id="xtick_2">
     <g id="line2d_2">
      <g>
       <use xlink:href="#mf990fc0429" x="121.127362" y="311.206571" style="fill: #262626; stroke: #262626; stroke-width: 0.8"/>
      </g>
     </g>
     <g id="text_2">
      <!-- −70 -->
      <g style="fill: #262626" transform="translate(112.646112 325.486844) scale(0.1 -0.1)">
       <defs>
        <path id="ArialMT-1a" d="M 303 3981 
L 303 4522 
L 3269 4522 
L 3269 4084 
Q 2831 3619 2401 2847 
Q 1972 2075 1738 1259 
Q 1569 684 1522 0 
L 944 0 
Q 953 541 1156 1306 
Q 1359 2072 1739 2783 
Q 2119 3494 2547 3981 
L 303 3981 
z
" transform="scale(0.015625)"/>
       </defs>
       <use xlink:href="#ArialMT-ed"/>
       <use xlink:href="#ArialMT-1a" transform="translate(58.40625 0)"/>
       <use xlink:href="#ArialMT-13" transform="translate(114.015625 0)"/>
      </g>
     </g>
    </g>
    <g id="xtick_3">
     <g id="line2d_3">
      <g>
       <use xlink:href="#mf990fc0429" x="177.362443" y="311.206571" style="fill: #262626; stroke: #262626; stroke-width: 0.8"/>
      </g>
     </g>
     <g id="text_3">
      <!-- −60 -->
      <g style="fill: #262626" transform="translate(168.881193 325.486844) scale(0.1 -0.1)">
       <defs>
        <path id="ArialMT-19" d="M 3184 3459 
L 2625 3416 
Q 2550 3747 2413 3897 
Q 2184 4138 1850 4138 
Q 1581 4138 1378 3988 
Q 1113 3794 959 3422 
Q 806 3050 800 2363 
Q 1003 2672 1297 2822 
Q 1591 2972 1913 2972 
Q 2475 2972 2870 2558 
Q 3266 2144 3266 1488 
Q 3266 1056 3080 686 
Q 2894 316 2569 119 
Q 2244 -78 1831 -78 
Q 1128 -78 684 439 
Q 241 956 241 2144 
Q 241 3472 731 4075 
Q 1159 4600 1884 4600 
Q 2425 4600 2770 4297 
Q 3116 3994 3184 3459 
z
M 888 1484 
Q 888 1194 1011 928 
Q 1134 663 1356 523 
Q 1578 384 1822 384 
Q 2178 384 2434 671 
Q 2691 959 2691 1453 
Q 2691 1928 2437 2201 
Q 2184 2475 1800 2475 
Q 1419 2475 1153 2201 
Q 888 1928 888 1484 
z
" transform="scale(0.015625)"/>
       </defs>
       <use xlink:href="#ArialMT-ed"/>
       <use xlink:href="#ArialMT-19" transform="translate(58.40625 0)"/>
       <use xlink:href="#ArialMT-13" transform="translate(114.015625 0)"/>
      </g>
     </g>
    </g>
    <g id="xtick_4">
     <g id="line2d_4">
      <g>
       <use xlink:href="#mf990fc0429" x="233.597523" y="311.206571" style="fill: #262626; stroke: #262626; stroke-width: 0.8"/>
      </g>
     </g>
     <g id="text_4">
      <!-- −50 -->
      <g style="fill: #262626" transform="translate(225.116273 325.486844) scale(0.1 -0.1)">
       <defs>
        <path id="ArialMT-18" d="M 266 1200 
L 856 1250 
Q 922 819 1161 601 
Q 1400 384 1738 384 
Q 2144 384 2425 690 
Q 2706 997 2706 1503 
Q 2706 1984 2436 2262 
Q 2166 2541 1728 2541 
Q 1456 2541 1237 2417 
Q 1019 2294 894 2097 
L 366 2166 
L 809 4519 
L 3088 4519 
L 3088 3981 
L 1259 3981 
L 1013 2750 
Q 1425 3038 1878 3038 
Q 2478 3038 2890 2622 
Q 3303 2206 3303 1553 
Q 3303 931 2941 478 
Q 2500 -78 1738 -78 
Q 1113 -78 717 272 
Q 322 622 266 1200 
z
" transform="scale(0.015625)"/>
       </defs>
       <use xlink:href="#ArialMT-ed"/>
       <use xlink:href="#ArialMT-18" transform="translate(58.40625 0)"/>
       <use xlink:href="#ArialMT-13" transform="translate(114.015625 0)"/>
      </g>
     </g>
    </g>
    <g id="xtick_5">
     <g id="line2d_5">
      <g>
       <use xlink:href="#mf990fc0429" x="289.832604" y="311.206571" style="fill: #262626; stroke: #262626; stroke-width: 0.8"/>
      </g>
     </g>
     <g id="text_5">
      <!-- −40 -->
      <g style="fill: #262626" transform="translate(281.351354 325.486844) scale(0.1 -0.1)">
       <defs>
        <path id="ArialMT-17" d="M 2069 0 
L 2069 1097 
L 81 1097 
L 81 1613 
L 2172 4581 
L 2631 4581 
L 2631 1613 
L 3250 1613 
L 3250 1097 
L 2631 1097 
L 2631 0 
L 2069 0 
z
M 2069 1613 
L 2069 3678 
L 634 1613 
L 2069 1613 
z
" transform="scale(0.015625)"/>
       </defs>
       <use xlink:href="#ArialMT-ed"/>
       <use xlink:href="#ArialMT-17" transform="translate(58.40625 0)"/>
       <use xlink:href="#ArialMT-13" transform="translate(114.015625 0)"/>
      </g>
     </g>
    </g>
    <g id="xtick_6">
     <g id="line2d_6">
      <g>
       <use xlink:href="#mf990fc0429" x="346.067684" y="311.206571" style="fill: #262626; stroke: #262626; stroke-width: 0.8"/>
      </g>
     </g>
     <g id="text_6">
      <!-- −30 -->
      <g style="fill: #262626" transform="translate(337.586434 325.486844) scale(0.1 -0.1)">
       <defs>
        <path id="ArialMT-16" d="M 269 1209 
L 831 1284 
Q 928 806 1161 595 
Q 1394 384 1728 384 
Q 2125 384 2398 659 
Q 2672 934 2672 1341 
Q 2672 1728 2419 1979 
Q 2166 2231 1775 2231 
Q 1616 2231 1378 2169 
L 1441 2663 
Q 1497 2656 1531 2656 
Q 1891 2656 2178 2843 
Q 2466 3031 2466 3422 
Q 2466 3731 2256 3934 
Q 2047 4138 1716 4138 
Q 1388 4138 1169 3931 
Q 950 3725 888 3313 
L 325 3413 
Q 428 3978 793 4289 
Q 1159 4600 1703 4600 
Q 2078 4600 2393 4439 
Q 2709 4278 2876 4000 
Q 3044 3722 3044 3409 
Q 3044 3113 2884 2869 
Q 2725 2625 2413 2481 
Q 2819 2388 3044 2092 
Q 3269 1797 3269 1353 
Q 3269 753 2831 336 
Q 2394 -81 1725 -81 
Q 1122 -81 723 278 
Q 325 638 269 1209 
z
" transform="scale(0.015625)"/>
       </defs>
       <use xlink:href="#ArialMT-ed"/>
       <use xlink:href="#ArialMT-16" transform="translate(58.40625 0)"/>
       <use xlink:href="#ArialMT-13" transform="translate(114.015625 0)"/>
      </g>
     </g>
    </g>
    <g id="xtick_7">
     <g id="line2d_7">
      <g>
       <use xlink:href="#mf990fc0429" x="402.302764" y="311.206571" style="fill: #262626; stroke: #262626; stroke-width: 0.8"/>
      </g>
     </g>
     <g id="text_7">
      <!-- −20 -->
      <g style="fill: #262626" transform="translate(393.821514 325.486844) scale(0.1 -0.1)">
       <defs>
        <path id="ArialMT-15" d="M 3222 541 
L 3222 0 
L 194 0 
Q 188 203 259 391 
Q 375 700 629 1000 
Q 884 1300 1366 1694 
Q 2113 2306 2375 2664 
Q 2638 3022 2638 3341 
Q 2638 3675 2398 3904 
Q 2159 4134 1775 4134 
Q 1369 4134 1125 3890 
Q 881 3647 878 3216 
L 300 3275 
Q 359 3922 746 4261 
Q 1134 4600 1788 4600 
Q 2447 4600 2831 4234 
Q 3216 3869 3216 3328 
Q 3216 3053 3103 2787 
Q 2991 2522 2730 2228 
Q 2469 1934 1863 1422 
Q 1356 997 1212 845 
Q 1069 694 975 541 
L 3222 541 
z
" transform="scale(0.015625)"/>
       </defs>
       <use xlink:href="#ArialMT-ed"/>
       <use xlink:href="#ArialMT-15" transform="translate(58.40625 0)"/>
       <use xlink:href="#ArialMT-13" transform="translate(114.015625 0)"/>
      </g>
     </g>
    </g>
    <g id="xtick_8">
     <g id="line2d_8">
      <g>
       <use xlink:href="#mf990fc0429" x="458.537845" y="311.206571" style="fill: #262626; stroke: #262626; stroke-width: 0.8"/>
      </g>
     </g>
     <g id="text_8">
      <!-- −10 -->
      <g style="fill: #262626" transform="translate(450.056595 325.486844) scale(0.1 -0.1)">
       <defs>
        <path id="ArialMT-14" d="M 2384 0 
L 1822 0 
L 1822 3584 
Q 1619 3391 1289 3197 
Q 959 3003 697 2906 
L 697 3450 
Q 1169 3672 1522 3987 
Q 1875 4303 2022 4600 
L 2384 4600 
L 2384 0 
z
" transform="scale(0.015625)"/>
       </defs>
       <use xlink:href="#ArialMT-ed"/>
       <use xlink:href="#ArialMT-14" transform="translate(58.40625 0)"/>
       <use xlink:href="#ArialMT-13" transform="translate(114.015625 0)"/>
      </g>
     </g>
    </g>
    <g id="xtick_9">
     <g id="line2d_9">
      <g>
       <use xlink:href="#mf990fc0429" x="514.772925" y="311.206571" style="fill: #262626; stroke: #262626; stroke-width: 0.8"/>
      </g>
     </g>
     <g id="text_9">
      <!-- 0 -->
      <g style="fill: #262626" transform="translate(511.992456 325.486844) scale(0.1 -0.1)">
       <use xlink:href="#ArialMT-13"/>
      </g>
     </g>
    </g>
    <g id="xtick_10">
     <g id="line2d_10">
      <g>
       <use xlink:href="#mf990fc0429" x="571.008006" y="311.206571" style="fill: #262626; stroke: #262626; stroke-width: 0.8"/>
      </g>
     </g>
     <g id="text_10">
      <!-- 10 -->
      <g style="fill: #262626" transform="translate(565.447068 325.486844) scale(0.1 -0.1)">
       <use xlink:href="#ArialMT-14"/>
       <use xlink:href="#ArialMT-13" transform="translate(55.609375 0)"/>
      </g>
     </g>
    </g>
    <g id="xtick_11">
     <g id="line2d_11">
      <g>
       <use xlink:href="#mf990fc0429" x="627.243086" y="311.206571" style="fill: #262626; stroke: #262626; stroke-width: 0.8"/>
      </g>
     </g>
     <g id="text_11">
      <!-- 20 -->
      <g style="fill: #262626" transform="translate(621.682148 325.486844) scale(0.1 -0.1)">
       <use xlink:href="#ArialMT-15"/>
       <use xlink:href="#ArialMT-13" transform="translate(55.609375 0)"/>
      </g>
     </g>
    </g>
    <g id="text_12">
     <!-- First other evidence year - first probe literature year -->
     <g style="fill: #262626" transform="translate(178.524609 341.783719) scale(0.14 -0.14)">
      <defs>
       <path id="ArialMT-29" d="M 525 0 
L 525 4581 
L 3616 4581 
L 3616 4041 
L 1131 4041 
L 1131 2622 
L 3281 2622 
L 3281 2081 
L 1131 2081 
L 1131 0 
L 525 0 
z
" transform="scale(0.015625)"/>
       <path id="ArialMT-4c" d="M 425 3934 
L 425 4581 
L 988 4581 
L 988 3934 
L 425 3934 
z
M 425 0 
L 425 3319 
L 988 3319 
L 988 0 
L 425 0 
z
" transform="scale(0.015625)"/>
       <path id="ArialMT-55" d="M 416 0 
L 416 3319 
L 922 3319 
L 922 2816 
Q 1116 3169 1280 3281 
Q 1444 3394 1641 3394 
Q 1925 3394 2219 3213 
L 2025 2691 
Q 1819 2813 1613 2813 
Q 1428 2813 1281 2702 
Q 1134 2591 1072 2394 
Q 978 2094 978 1738 
L 978 0 
L 416 0 
z
" transform="scale(0.015625)"/>
       <path id="ArialMT-56" d="M 197 991 
L 753 1078 
Q 800 744 1014 566 
Q 1228 388 1613 388 
Q 2000 388 2187 545 
Q 2375 703 2375 916 
Q 2375 1106 2209 1216 
Q 2094 1291 1634 1406 
Q 1016 1563 777 1677 
Q 538 1791 414 1992 
Q 291 2194 291 2438 
Q 291 2659 392 2848 
Q 494 3038 669 3163 
Q 800 3259 1026 3326 
Q 1253 3394 1513 3394 
Q 1903 3394 2198 3281 
Q 2494 3169 2634 2976 
Q 2775 2784 2828 2463 
L 2278 2388 
Q 2241 2644 2061 2787 
Q 1881 2931 1553 2931 
Q 1166 2931 1000 2803 
Q 834 2675 834 2503 
Q 834 2394 903 2306 
Q 972 2216 1119 2156 
Q 1203 2125 1616 2013 
Q 2213 1853 2448 1751 
Q 2684 1650 2818 1456 
Q 2953 1263 2953 975 
Q 2953 694 2789 445 
Q 2625 197 2315 61 
Q 2006 -75 1616 -75 
Q 969 -75 630 194 
Q 291 463 197 991 
z
" transform="scale(0.015625)"/>
       <path id="ArialMT-57" d="M 1650 503 
L 1731 6 
Q 1494 -44 1306 -44 
Q 1000 -44 831 53 
Q 663 150 594 308 
Q 525 466 525 972 
L 525 2881 
L 113 2881 
L 113 3319 
L 525 3319 
L 525 4141 
L 1084 4478 
L 1084 3319 
L 1650 3319 
L 1650 2881 
L 1084 2881 
L 1084 941 
Q 1084 700 1114 631 
Q 1144 563 1211 522 
Q 1278 481 1403 481 
Q 1497 481 1650 503 
z
" transform="scale(0.015625)"/>
       <path id="ArialMT-3" transform="scale(0.015625)"/>
       <path id="ArialMT-52" d="M 213 1659 
Q 213 2581 725 3025 
Q 1153 3394 1769 3394 
Q 2453 3394 2887 2945 
Q 3322 2497 3322 1706 
Q 3322 1066 3130 698 
Q 2938 331 2570 128 
Q 2203 -75 1769 -75 
Q 1072 -75 642 372 
Q 213 819 213 1659 
z
M 791 1659 
Q 791 1022 1069 705 
Q 1347 388 1769 388 
Q 2188 388 2466 706 
Q 2744 1025 2744 1678 
Q 2744 2294 2464 2611 
Q 2184 2928 1769 2928 
Q 1347 2928 1069 2612 
Q 791 2297 791 1659 
z
" transform="scale(0.015625)"/>
       <path id="ArialMT-4b" d="M 422 0 
L 422 4581 
L 984 4581 
L 984 2938 
Q 1378 3394 1978 3394 
Q 2347 3394 2619 3248 
Q 2891 3103 3008 2847 
Q 3125 2591 3125 2103 
L 3125 0 
L 2563 0 
L 2563 2103 
Q 2563 2525 2380 2717 
Q 2197 2909 1863 2909 
Q 1613 2909 1392 2779 
Q 1172 2650 1078 2428 
Q 984 2206 984 1816 
L 984 0 
L 422 0 
z
" transform="scale(0.015625)"/>
       <path id="ArialMT-48" d="M 2694 1069 
L 3275 997 
Q 3138 488 2766 206 
Q 2394 -75 1816 -75 
Q 1088 -75 661 373 
Q 234 822 234 1631 
Q 234 2469 665 2931 
Q 1097 3394 1784 3394 
Q 2450 3394 2872 2941 
Q 3294 2488 3294 1666 
Q 3294 1616 3291 1516 
L 816 1516 
Q 847 969 1125 678 
Q 1403 388 1819 388 
Q 2128 388 2347 550 
Q 2566 713 2694 1069 
z
M 847 1978 
L 2700 1978 
Q 2663 2397 2488 2606 
Q 2219 2931 1791 2931 
Q 1403 2931 1139 2672 
Q 875 2413 847 1978 
z
" transform="scale(0.015625)"/>
       <path id="ArialMT-59" d="M 1344 0 
L 81 3319 
L 675 3319 
L 1388 1331 
Q 1503 1009 1600 663 
Q 1675 925 1809 1294 
L 2547 3319 
L 3125 3319 
L 1869 0 
L 1344 0 
z
" transform="scale(0.015625)"/>
       <path id="ArialMT-47" d="M 2575 0 
L 2575 419 
Q 2259 -75 1647 -75 
Q 1250 -75 917 144 
Q 584 363 401 755 
Q 219 1147 219 1656 
Q 219 2153 384 2558 
Q 550 2963 881 3178 
Q 1213 3394 1622 3394 
Q 1922 3394 2156 3267 
Q 2391 3141 2538 2938 
L 2538 4581 
L 3097 4581 
L 3097 0 
L 2575 0 
z
M 797 1656 
Q 797 1019 1065 703 
Q 1334 388 1700 388 
Q 2069 388 2326 689 
Q 2584 991 2584 1609 
Q 2584 2291 2321 2609 
Q 2059 2928 1675 2928 
Q 1300 2928 1048 2622 
Q 797 2316 797 1656 
z
" transform="scale(0.015625)"/>
       <path id="ArialMT-51" d="M 422 0 
L 422 3319 
L 928 3319 
L 928 2847 
Q 1294 3394 1984 3394 
Q 2284 3394 2536 3286 
Q 2788 3178 2913 3003 
Q 3038 2828 3088 2588 
Q 3119 2431 3119 2041 
L 3119 0 
L 2556 0 
L 2556 2019 
Q 2556 2363 2490 2533 
Q 2425 2703 2258 2804 
Q 2091 2906 1866 2906 
Q 1506 2906 1245 2678 
Q 984 2450 984 1813 
L 984 0 
L 422 0 
z
" transform="scale(0.015625)"/>
       <path id="ArialMT-46" d="M 2588 1216 
L 3141 1144 
Q 3050 572 2676 248 
Q 2303 -75 1759 -75 
Q 1078 -75 664 370 
Q 250 816 250 1647 
Q 250 2184 428 2587 
Q 606 2991 970 3192 
Q 1334 3394 1763 3394 
Q 2303 3394 2647 3120 
Q 2991 2847 3088 2344 
L 2541 2259 
Q 2463 2594 2264 2762 
Q 2066 2931 1784 2931 
Q 1359 2931 1093 2626 
Q 828 2322 828 1663 
Q 828 994 1084 691 
Q 1341 388 1753 388 
Q 2084 388 2306 591 
Q 2528 794 2588 1216 
z
" transform="scale(0.015625)"/>
       <path id="ArialMT-5c" d="M 397 -1278 
L 334 -750 
Q 519 -800 656 -800 
Q 844 -800 956 -737 
Q 1069 -675 1141 -563 
Q 1194 -478 1313 -144 
Q 1328 -97 1363 -6 
L 103 3319 
L 709 3319 
L 1400 1397 
Q 1534 1031 1641 628 
Q 1738 1016 1872 1384 
L 2581 3319 
L 3144 3319 
L 1881 -56 
Q 1678 -603 1566 -809 
Q 1416 -1088 1222 -1217 
Q 1028 -1347 759 -1347 
Q 597 -1347 397 -1278 
z
" transform="scale(0.015625)"/>
       <path id="ArialMT-44" d="M 2588 409 
Q 2275 144 1986 34 
Q 1697 -75 1366 -75 
Q 819 -75 525 192 
Q 231 459 231 875 
Q 231 1119 342 1320 
Q 453 1522 633 1644 
Q 813 1766 1038 1828 
Q 1203 1872 1538 1913 
Q 2219 1994 2541 2106 
Q 2544 2222 2544 2253 
Q 2544 2597 2384 2738 
Q 2169 2928 1744 2928 
Q 1347 2928 1158 2789 
Q 969 2650 878 2297 
L 328 2372 
Q 403 2725 575 2942 
Q 747 3159 1072 3276 
Q 1397 3394 1825 3394 
Q 2250 3394 2515 3294 
Q 2781 3194 2906 3042 
Q 3031 2891 3081 2659 
Q 3109 2516 3109 2141 
L 3109 1391 
Q 3109 606 3145 398 
Q 3181 191 3288 0 
L 2700 0 
Q 2613 175 2588 409 
z
M 2541 1666 
Q 2234 1541 1622 1453 
Q 1275 1403 1131 1340 
Q 988 1278 909 1158 
Q 831 1038 831 891 
Q 831 666 1001 516 
Q 1172 366 1500 366 
Q 1825 366 2078 508 
Q 2331 650 2450 897 
Q 2541 1088 2541 1459 
L 2541 1666 
z
" transform="scale(0.015625)"/>
       <path id="ArialMT-10" d="M 203 1375 
L 203 1941 
L 1931 1941 
L 1931 1375 
L 203 1375 
z
" transform="scale(0.015625)"/>
       <path id="ArialMT-49" d="M 556 0 
L 556 2881 
L 59 2881 
L 59 3319 
L 556 3319 
L 556 3672 
Q 556 4006 616 4169 
Q 697 4388 901 4523 
Q 1106 4659 1475 4659 
Q 1713 4659 2000 4603 
L 1916 4113 
Q 1741 4144 1584 4144 
Q 1328 4144 1222 4034 
Q 1116 3925 1116 3625 
L 1116 3319 
L 1763 3319 
L 1763 2881 
L 1116 2881 
L 1116 0 
L 556 0 
z
" transform="scale(0.015625)"/>
       <path id="ArialMT-53" d="M 422 -1272 
L 422 3319 
L 934 3319 
L 934 2888 
Q 1116 3141 1344 3267 
Q 1572 3394 1897 3394 
Q 2322 3394 2647 3175 
Q 2972 2956 3137 2557 
Q 3303 2159 3303 1684 
Q 3303 1175 3120 767 
Q 2938 359 2589 142 
Q 2241 -75 1856 -75 
Q 1575 -75 1351 44 
Q 1128 163 984 344 
L 984 -1272 
L 422 -1272 
z
M 931 1641 
Q 931 1000 1190 694 
Q 1450 388 1819 388 
Q 2194 388 2461 705 
Q 2728 1022 2728 1688 
Q 2728 2322 2467 2637 
Q 2206 2953 1844 2953 
Q 1484 2953 1207 2617 
Q 931 2281 931 1641 
z
" transform="scale(0.015625)"/>
       <path id="ArialMT-45" d="M 941 0 
L 419 0 
L 419 4581 
L 981 4581 
L 981 2947 
Q 1338 3394 1891 3394 
Q 2197 3394 2470 3270 
Q 2744 3147 2920 2923 
Q 3097 2700 3197 2384 
Q 3297 2069 3297 1709 
Q 3297 856 2875 390 
Q 2453 -75 1863 -75 
Q 1275 -75 941 416 
L 941 0 
z
M 934 1684 
Q 934 1088 1097 822 
Q 1363 388 1816 388 
Q 2184 388 2453 708 
Q 2722 1028 2722 1663 
Q 2722 2313 2464 2622 
Q 2206 2931 1841 2931 
Q 1472 2931 1203 2611 
Q 934 2291 934 1684 
z
" transform="scale(0.015625)"/>
       <path id="ArialMT-4f" d="M 409 0 
L 409 4581 
L 972 4581 
L 972 0 
L 409 0 
z
" transform="scale(0.015625)"/>
       <path id="ArialMT-58" d="M 2597 0 
L 2597 488 
Q 2209 -75 1544 -75 
Q 1250 -75 995 37 
Q 741 150 617 320 
Q 494 491 444 738 
Q 409 903 409 1263 
L 409 3319 
L 972 3319 
L 972 1478 
Q 972 1038 1006 884 
Q 1059 663 1231 536 
Q 1403 409 1656 409 
Q 1909 409 2131 539 
Q 2353 669 2445 892 
Q 2538 1116 2538 1541 
L 2538 3319 
L 3100 3319 
L 3100 0 
L 2597 0 
z
" transform="scale(0.015625)"/>
      </defs>
      <use xlink:href="#ArialMT-29"/>
      <use xlink:href="#ArialMT-4c" transform="translate(61.078125 0)"/>
      <use xlink:href="#ArialMT-55" transform="translate(83.296875 0)"/>
      <use xlink:href="#ArialMT-56" transform="translate(116.59375 0)"/>
      <use xlink:href="#ArialMT-57" transform="translate(166.59375 0)"/>
      <use xlink:href="#ArialMT-3" transform="translate(194.375 0)"/>
      <use xlink:href="#ArialMT-52" transform="translate(222.15625 0)"/>
      <use xlink:href="#ArialMT-57" transform="translate(277.765625 0)"/>
      <use xlink:href="#ArialMT-4b" transform="translate(305.546875 0)"/>
      <use xlink:href="#ArialMT-48" transform="translate(361.15625 0)"/>
      <use xlink:href="#ArialMT-55" transform="translate(416.765625 0)"/>
      <use xlink:href="#ArialMT-3" transform="translate(450.0625 0)"/>
      <use xlink:href="#ArialMT-48" transform="translate(477.84375 0)"/>
      <use xlink:href="#ArialMT-59" transform="translate(533.453125 0)"/>
      <use xlink:href="#ArialMT-4c" transform="translate(583.453125 0)"/>
      <use xlink:href="#ArialMT-47" transform="translate(605.671875 0)"/>
      <use xlink:href="#ArialMT-48" transform="translate(661.28125 0)"/>
      <use xlink:href="#ArialMT-51" transform="translate(716.890625 0)"/>
      <use xlink:href="#ArialMT-46" transform="translate(772.5 0)"/>
      <use xlink:href="#ArialMT-48" transform="translate(822.5 0)"/>
      <use xlink:href="#ArialMT-3" transform="translate(878.109375 0)"/>
      <use xlink:href="#ArialMT-5c" transform="translate(905.890625 0)"/>
      <use xlink:href="#ArialMT-48" transform="translate(955.890625 0)"/>
      <use xlink:href="#ArialMT-44" transform="translate(1011.5 0)"/>
      <use xlink:href="#ArialMT-55" transform="translate(1067.109375 0)"/>
      <use xlink:href="#ArialMT-3" transform="translate(1100.40625 0)"/>
      <use xlink:href="#ArialMT-10" transform="translate(1128.1875 0)"/>
      <use xlink:href="#ArialMT-3" transform="translate(1161.484375 0)"/>
      <use xlink:href="#ArialMT-49" transform="translate(1189.265625 0)"/>
      <use xlink:href="#ArialMT-4c" transform="translate(1217.046875 0)"/>
      <use xlink:href="#ArialMT-55" transform="translate(1239.265625 0)"/>
      <use xlink:href="#ArialMT-56" transform="translate(1272.5625 0)"/>
      <use xlink:href="#ArialMT-57" transform="translate(1322.5625 0)"/>
      <use xlink:href="#ArialMT-3" transform="translate(1350.34375 0)"/>
      <use xlink:href="#ArialMT-53" transform="translate(1378.125 0)"/>
      <use xlink:href="#ArialMT-55" transform="translate(1433.734375 0)"/>
      <use xlink:href="#ArialMT-52" transform="translate(1467.03125 0)"/>
      <use xlink:href="#ArialMT-45" transform="translate(1522.640625 0)"/>
      <use xlink:href="#ArialMT-48" transform="translate(1578.25 0)"/>
      <use xlink:href="#ArialMT-3" transform="translate(1633.859375 0)"/>
      <use xlink:href="#ArialMT-4f" transform="translate(1661.640625 0)"/>
      <use xlink:href="#ArialMT-4c" transform="translate(1683.859375 0)"/>
      <use xlink:href="#ArialMT-57" transform="translate(1706.078125 0)"/>
      <use xlink:href="#ArialMT-48" transform="translate(1733.859375 0)"/>
      <use xlink:href="#ArialMT-55" transform="translate(1789.46875 0)"/>
      <use xlink:href="#ArialMT-44" transform="translate(1822.765625 0)"/>
      <use xlink:href="#ArialMT-57" transform="translate(1878.375 0)"/>
      <use xlink:href="#ArialMT-58" transform="translate(1906.15625 0)"/>
      <use xlink:href="#ArialMT-55" transform="translate(1961.765625 0)"/>
      <use xlink:href="#ArialMT-48" transform="translate(1995.0625 0)"/>
      <use xlink:href="#ArialMT-3" transform="translate(2050.671875 0)"/>
      <use xlink:href="#ArialMT-5c" transform="translate(2078.453125 0)"/>
      <use xlink:href="#ArialMT-48" transform="translate(2128.453125 0)"/>
      <use xlink:href="#ArialMT-44" transform="translate(2184.0625 0)"/>
      <use xlink:href="#ArialMT-55" transform="translate(2239.671875 0)"/>
     </g>
    </g>
   </g>
   <g id="matplotlib.axis_2">
    <g id="ytick_1">
     <g id="line2d_12">
      <path d="M 48.021758 311.206571 
L 627.243086 311.206571 
" clip-path="url(#p59e392994b)" style="fill: none; stroke-dasharray: 2.96,1.28; stroke-dashoffset: 0; stroke: #cccccc; stroke-opacity: 0.4; stroke-width: 0.8"/>
     </g>
     <g id="line2d_13">
      <defs>
       <path id="md04f44e864" d="M 0 0 
L -3.5 0 
" style="stroke: #262626; stroke-width: 0.8"/>
      </defs>
      <g>
       <use xlink:href="#md04f44e864" x="48.021758" y="311.206571" style="fill: #262626; stroke: #262626; stroke-width: 0.8"/>
      </g>
     </g>
     <g id="text_13">
      <!-- 0 -->
      <g style="fill: #262626" transform="translate(35.46082 314.846707) scale(0.1 -0.1)">
       <use xlink:href="#ArialMT-13"/>
      </g>
     </g>
    </g>
    <g id="ytick_2">
     <g id="line2d_14">
      <path d="M 48.021758 262.094371 
L 627.243086 262.094371 
" clip-path="url(#p59e392994b)" style="fill: none; stroke-dasharray: 2.96,1.28; stroke-dashoffset: 0; stroke: #cccccc; stroke-opacity: 0.4; stroke-width: 0.8"/>
     </g>
     <g id="line2d_15">
      <g>
       <use xlink:href="#md04f44e864" x="48.021758" y="262.094371" style="fill: #262626; stroke: #262626; stroke-width: 0.8"/>
      </g>
     </g>
     <g id="text_14">
      <!-- 20 -->
      <g style="fill: #262626" transform="translate(29.899883 265.734508) scale(0.1 -0.1)">
       <use xlink:href="#ArialMT-15"/>
       <use xlink:href="#ArialMT-13" transform="translate(55.609375 0)"/>
      </g>
     </g>
    </g>
    <g id="ytick_3">
     <g id="line2d_16">
      <path d="M 48.021758 212.982171 
L 627.243086 212.982171 
" clip-path="url(#p59e392994b)" style="fill: none; stroke-dasharray: 2.96,1.28; stroke-dashoffset: 0; stroke: #cccccc; stroke-opacity: 0.4; stroke-width: 0.8"/>
     </g>
     <g id="line2d_17">
      <g>
       <use xlink:href="#md04f44e864" x="48.021758" y="212.982171" style="fill: #262626; stroke: #262626; stroke-width: 0.8"/>
      </g>
     </g>
     <g id="text_15">
      <!-- 40 -->
      <g style="fill: #262626" transform="translate(29.899883 216.622308) scale(0.1 -0.1)">
       <use xlink:href="#ArialMT-17"/>
       <use xlink:href="#ArialMT-13" transform="translate(55.609375 0)"/>
      </g>
     </g>
    </g>
    <g id="ytick_4">
     <g id="line2d_18">
      <path d="M 48.021758 163.869972 
L 627.243086 163.869972 
" clip-path="url(#p59e392994b)" style="fill: none; stroke-dasharray: 2.96,1.28; stroke-dashoffset: 0; stroke: #cccccc; stroke-opacity: 0.4; stroke-width: 0.8"/>
     </g>
     <g id="line2d_19">
      <g>
       <use xlink:href="#md04f44e864" x="48.021758" y="163.869972" style="fill: #262626; stroke: #262626; stroke-width: 0.8"/>
      </g>
     </g>
     <g id="text_16">
      <!-- 60 -->
      <g style="fill: #262626" transform="translate(29.899883 167.510108) scale(0.1 -0.1)">
       <use xlink:href="#ArialMT-19"/>
       <use xlink:href="#ArialMT-13" transform="translate(55.609375 0)"/>
      </g>
     </g>
    </g>
    <g id="ytick_5">
     <g id="line2d_20">
      <path d="M 48.021758 114.757772 
L 627.243086 114.757772 
" clip-path="url(#p59e392994b)" style="fill: none; stroke-dasharray: 2.96,1.28; stroke-dashoffset: 0; stroke: #cccccc; stroke-opacity: 0.4; stroke-width: 0.8"/>
     </g>
     <g id="line2d_21">
      <g>
       <use xlink:href="#md04f44e864" x="48.021758" y="114.757772" style="fill: #262626; stroke: #262626; stroke-width: 0.8"/>
      </g>
     </g>
     <g id="text_17">
      <!-- 80 -->
      <g style="fill: #262626" transform="translate(29.899883 118.397909) scale(0.1 -0.1)">
       <use xlink:href="#ArialMT-1b"/>
       <use xlink:href="#ArialMT-13" transform="translate(55.609375 0)"/>
      </g>
     </g>
    </g>
    <g id="ytick_6">
     <g id="line2d_22">
      <path d="M 48.021758 65.645572 
L 627.243086 65.645572 
" clip-path="url(#p59e392994b)" style="fill: none; stroke-dasharray: 2.96,1.28; stroke-dashoffset: 0; stroke: #cccccc; stroke-opacity: 0.4; stroke-width: 0.8"/>
     </g>
     <g id="line2d_23">
      <g>
       <use xlink:href="#md04f44e864" x="48.021758" y="65.645572" style="fill: #262626; stroke: #262626; stroke-width: 0.8"/>
      </g>
     </g>
     <g id="text_18">
      <!-- 100 -->
      <g style="fill: #262626" transform="translate(24.338945 69.285709) scale(0.1 -0.1)">
       <use xlink:href="#ArialMT-14"/>
       <use xlink:href="#ArialMT-13" transform="translate(55.609375 0)"/>
       <use xlink:href="#ArialMT-13" transform="translate(111.21875 0)"/>
      </g>
     </g>
    </g>
    <g id="text_19">
     <!-- Target-disease pairs -->
     <g style="fill: #262626" transform="translate(17.392383 233.710539) rotate(-90) scale(0.14 -0.14)">
      <defs>
       <path id="ArialMT-37" d="M 1659 0 
L 1659 4041 
L 150 4041 
L 150 4581 
L 3781 4581 
L 3781 4041 
L 2266 4041 
L 2266 0 
L 1659 0 
z
" transform="scale(0.015625)"/>
       <path id="ArialMT-4a" d="M 319 -275 
L 866 -356 
Q 900 -609 1056 -725 
Q 1266 -881 1628 -881 
Q 2019 -881 2231 -725 
Q 2444 -569 2519 -288 
Q 2563 -116 2559 434 
Q 2191 0 1641 0 
Q 956 0 581 494 
Q 206 988 206 1678 
Q 206 2153 378 2554 
Q 550 2956 876 3175 
Q 1203 3394 1644 3394 
Q 2231 3394 2613 2919 
L 2613 3319 
L 3131 3319 
L 3131 450 
Q 3131 -325 2973 -648 
Q 2816 -972 2473 -1159 
Q 2131 -1347 1631 -1347 
Q 1038 -1347 672 -1080 
Q 306 -813 319 -275 
z
M 784 1719 
Q 784 1066 1043 766 
Q 1303 466 1694 466 
Q 2081 466 2343 764 
Q 2606 1063 2606 1700 
Q 2606 2309 2336 2618 
Q 2066 2928 1684 2928 
Q 1309 2928 1046 2623 
Q 784 2319 784 1719 
z
" transform="scale(0.015625)"/>
      </defs>
      <use xlink:href="#ArialMT-37"/>
      <use xlink:href="#ArialMT-44" transform="translate(50 0)"/>
      <use xlink:href="#ArialMT-55" transform="translate(105.609375 0)"/>
      <use xlink:href="#ArialMT-4a" transform="translate(138.90625 0)"/>
      <use xlink:href="#ArialMT-48" transform="translate(194.515625 0)"/>
      <use xlink:href="#ArialMT-57" transform="translate(250.125 0)"/>
      <use xlink:href="#ArialMT-10" transform="translate(277.90625 0)"/>
      <use xlink:href="#ArialMT-47" transform="translate(311.203125 0)"/>
      <use xlink:href="#ArialMT-4c" transform="translate(366.8125 0)"/>
      <use xlink:href="#ArialMT-56" transform="translate(389.03125 0)"/>
      <use xlink:href="#ArialMT-48" transform="translate(439.03125 0)"/>
      <use xlink:href="#ArialMT-44" transform="translate(494.640625 0)"/>
      <use xlink:href="#ArialMT-56" transform="translate(550.25 0)"/>
      <use xlink:href="#ArialMT-48" transform="translate(600.25 0)"/>
      <use xlink:href="#ArialMT-3" transform="translate(655.859375 0)"/>
      <use xlink:href="#ArialMT-53" transform="translate(683.640625 0)"/>
      <use xlink:href="#ArialMT-44" transform="translate(739.25 0)"/>
      <use xlink:href="#ArialMT-4c" transform="translate(794.859375 0)"/>
      <use xlink:href="#ArialMT-55" transform="translate(817.078125 0)"/>
      <use xlink:href="#ArialMT-56" transform="translate(850.375 0)"/>
     </g>
    </g>
   </g>
   <g id="patch_3">
    <path d="M 51.255275 311.206571 
L 56.035257 311.206571 
L 56.035257 308.750961 
L 51.255275 308.750961 
z
" clip-path="url(#p59e392994b)" style="fill: #9aa0a6; stroke: #ffffff; stroke-linejoin: miter"/>
   </g>
   <g id="patch_4">
    <path d="M 56.878783 311.206571 
L 61.658765 311.206571 
L 61.658765 311.206571 
L 56.878783 311.206571 
z
" clip-path="url(#p59e392994b)" style="fill: #9aa0a6; stroke: #ffffff; stroke-linejoin: miter"/>
   </g>
   <g id="patch_5">
    <path d="M 62.502291 311.206571 
L 67.282273 311.206571 
L 67.282273 311.206571 
L 62.502291 311.206571 
z
" clip-path="url(#p59e392994b)" style="fill: #9aa0a6; stroke: #ffffff; stroke-linejoin: miter"/>
   </g>
   <g id="patch_6">
    <path d="M 68.125799 311.206571 
L 72.905781 311.206571 
L 72.905781 311.206571 
L 68.125799 311.206571 
z
" clip-path="url(#p59e392994b)" style="fill: #9aa0a6; stroke: #ffffff; stroke-linejoin: miter"/>
   </g>
   <g id="patch_7">
    <path d="M 73.749307 311.206571 
L 78.529289 311.206571 
L 78.529289 311.206571 
L 73.749307 311.206571 
z
" clip-path="url(#p59e392994b)" style="fill: #9aa0a6; stroke: #ffffff; stroke-linejoin: miter"/>
   </g>
   <g id="patch_8">
    <path d="M 79.372815 311.206571 
L 84.152797 311.206571 
L 84.152797 311.206571 
L 79.372815 311.206571 
z
" clip-path="url(#p59e392994b)" style="fill: #9aa0a6; stroke: #ffffff; stroke-linejoin: miter"/>
   </g>
   <g id="patch_9">
    <path d="M 84.996323 311.206571 
L 89.776305 311.206571 
L 89.776305 311.206571 
L 84.996323 311.206571 
z
" clip-path="url(#p59e392994b)" style="fill: #9aa0a6; stroke: #ffffff; stroke-linejoin: miter"/>
   </g>
   <g id="patch_10">
    <path d="M 90.619831 311.206571 
L 95.399813 311.206571 
L 95.399813 311.206571 
L 90.619831 311.206571 
z
" clip-path="url(#p59e392994b)" style="fill: #9aa0a6; stroke: #ffffff; stroke-linejoin: miter"/>
   </g>
   <g id="patch_11">
    <path d="M 96.243339 311.206571 
L 101.023321 311.206571 
L 101.023321 311.206571 
L 96.243339 311.206571 
z
" clip-path="url(#p59e392994b)" style="fill: #9aa0a6; stroke: #ffffff; stroke-linejoin: miter"/>
   </g>
   <g id="patch_12">
    <path d="M 101.866847 311.206571 
L 106.646829 311.206571 
L 106.646829 311.206571 
L 101.866847 311.206571 
z
" clip-path="url(#p59e392994b)" style="fill: #9aa0a6; stroke: #ffffff; stroke-linejoin: miter"/>
   </g>
   <g id="patch_13">
    <path d="M 107.490355 311.206571 
L 112.270337 311.206571 
L 112.270337 311.206571 
L 107.490355 311.206571 
z
" clip-path="url(#p59e392994b)" style="fill: #9aa0a6; stroke: #ffffff; stroke-linejoin: miter"/>
   </g>
   <g id="patch_14">
    <path d="M 113.113863 311.206571 
L 117.893845 311.206571 
L 117.893845 311.206571 
L 113.113863 311.206571 
z
" clip-path="url(#p59e392994b)" style="fill: #9aa0a6; stroke: #ffffff; stroke-linejoin: miter"/>
   </g>
   <g id="patch_15">
    <path d="M 118.737371 311.206571 
L 123.517353 311.206571 
L 123.517353 311.206571 
L 118.737371 311.206571 
z
" clip-path="url(#p59e392994b)" style="fill: #9aa0a6; stroke: #ffffff; stroke-linejoin: miter"/>
   </g>
   <g id="patch_16">
    <path d="M 124.360879 311.206571 
L 129.140861 311.206571 
L 129.140861 311.206571 
L 124.360879 311.206571 
z
" clip-path="url(#p59e392994b)" style="fill: #9aa0a6; stroke: #ffffff; stroke-linejoin: miter"/>
   </g>
   <g id="patch_17">
    <path d="M 129.984387 311.206571 
L 134.764369 311.206571 
L 134.764369 311.206571 
L 129.984387 311.206571 
z
" clip-path="url(#p59e392994b)" style="fill: #9aa0a6; stroke: #ffffff; stroke-linejoin: miter"/>
   </g>
   <g id="patch_18">
    <path d="M 135.607896 311.206571 
L 140.387877 311.206571 
L 140.387877 311.206571 
L 135.607896 311.206571 
z
" clip-path="url(#p59e392994b)" style="fill: #9aa0a6; stroke: #ffffff; stroke-linejoin: miter"/>
   </g>
   <g id="patch_19">
    <path d="M 141.231404 311.206571 
L 146.011385 311.206571 
L 146.011385 311.206571 
L 141.231404 311.206571 
z
" clip-path="url(#p59e392994b)" style="fill: #9aa0a6; stroke: #ffffff; stroke-linejoin: miter"/>
   </g>
   <g id="patch_20">
    <path d="M 146.854912 311.206571 
L 151.634893 311.206571 
L 151.634893 311.206571 
L 146.854912 311.206571 
z
" clip-path="url(#p59e392994b)" style="fill: #9aa0a6; stroke: #ffffff; stroke-linejoin: miter"/>
   </g>
   <g id="patch_21">
    <path d="M 152.47842 311.206571 
L 157.258401 311.206571 
L 157.258401 311.206571 
L 152.47842 311.206571 
z
" clip-path="url(#p59e392994b)" style="fill: #9aa0a6; stroke: #ffffff; stroke-linejoin: miter"/>
   </g>
   <g id="patch_22">
    <path d="M 158.101928 311.206571 
L 162.88191 311.206571 
L 162.88191 311.206571 
L 158.101928 311.206571 
z
" clip-path="url(#p59e392994b)" style="fill: #9aa0a6; stroke: #ffffff; stroke-linejoin: miter"/>
   </g>
   <g id="patch_23">
    <path d="M 163.725436 311.206571 
L 168.505418 311.206571 
L 168.505418 311.206571 
L 163.725436 311.206571 
z
" clip-path="url(#p59e392994b)" style="fill: #9aa0a6; stroke: #ffffff; stroke-linejoin: miter"/>
   </g>
   <g id="patch_24">
    <path d="M 169.348944 311.206571 
L 174.128926 311.206571 
L 174.128926 311.206571 
L 169.348944 311.206571 
z
" clip-path="url(#p59e392994b)" style="fill: #9aa0a6; stroke: #ffffff; stroke-linejoin: miter"/>
   </g>
   <g id="patch_25">
    <path d="M 174.972452 311.206571 
L 179.752434 311.206571 
L 179.752434 311.206571 
L 174.972452 311.206571 
z
" clip-path="url(#p59e392994b)" style="fill: #9aa0a6; stroke: #ffffff; stroke-linejoin: miter"/>
   </g>
   <g id="patch_26">
    <path d="M 180.59596 311.206571 
L 185.375942 311.206571 
L 185.375942 311.206571 
L 180.59596 311.206571 
z
" clip-path="url(#p59e392994b)" style="fill: #9aa0a6; stroke: #ffffff; stroke-linejoin: miter"/>
   </g>
   <g id="patch_27">
    <path d="M 186.219468 311.206571 
L 190.99945 311.206571 
L 190.99945 311.206571 
L 186.219468 311.206571 
z
" clip-path="url(#p59e392994b)" style="fill: #9aa0a6; stroke: #ffffff; stroke-linejoin: miter"/>
   </g>
   <g id="patch_28">
    <path d="M 191.842976 311.206571 
L 196.622958 311.206571 
L 196.622958 311.206571 
L 191.842976 311.206571 
z
" clip-path="url(#p59e392994b)" style="fill: #9aa0a6; stroke: #ffffff; stroke-linejoin: miter"/>
   </g>
   <g id="patch_29">
    <path d="M 197.466484 311.206571 
L 202.246466 311.206571 
L 202.246466 308.750961 
L 197.466484 308.750961 
z
" clip-path="url(#p59e392994b)" style="fill: #9aa0a6; stroke: #ffffff; stroke-linejoin: miter"/>
   </g>
   <g id="patch_30">
    <path d="M 203.089992 311.206571 
L 207.869974 311.206571 
L 207.869974 311.206571 
L 203.089992 311.206571 
z
" clip-path="url(#p59e392994b)" style="fill: #9aa0a6; stroke: #ffffff; stroke-linejoin: miter"/>
   </g>
   <g id="patch_31">
    <path d="M 208.7135 311.206571 
L 213.493482 311.206571 
L 213.493482 311.206571 
L 208.7135 311.206571 
z
" clip-path="url(#p59e392994b)" style="fill: #9aa0a6; stroke: #ffffff; stroke-linejoin: miter"/>
   </g>
   <g id="patch_32">
    <path d="M 214.337008 311.206571 
L 219.11699 311.206571 
L 219.11699 311.206571 
L 214.337008 311.206571 
z
" clip-path="url(#p59e392994b)" style="fill: #9aa0a6; stroke: #ffffff; stroke-linejoin: miter"/>
   </g>
   <g id="patch_33">
    <path d="M 219.960516 311.206571 
L 224.740498 311.206571 
L 224.740498 311.206571 
L 219.960516 311.206571 
z
" clip-path="url(#p59e392994b)" style="fill: #9aa0a6; stroke: #ffffff; stroke-linejoin: miter"/>
   </g>
   <g id="patch_34">
    <path d="M 225.584024 311.206571 
L 230.364006 311.206571 
L 230.364006 311.206571 
L 225.584024 311.206571 
z
" clip-path="url(#p59e392994b)" style="fill: #9aa0a6; stroke: #ffffff; stroke-linejoin: miter"/>
   </g>
   <g id="patch_35">
    <path d="M 231.207532 311.206571 
L 235.987514 311.206571 
L 235.987514 311.206571 
L 231.207532 311.206571 
z
" clip-path="url(#p59e392994b)" style="fill: #9aa0a6; stroke: #ffffff; stroke-linejoin: miter"/>
   </g>
   <g id="patch_36">
    <path d="M 236.83104 311.206571 
L 241.611022 311.206571 
L 241.611022 311.206571 
L 236.83104 311.206571 
z
" clip-path="url(#p59e392994b)" style="fill: #9aa0a6; stroke: #ffffff; stroke-linejoin: miter"/>
   </g>
   <g id="patch_37">
    <path d="M 242.454548 311.206571 
L 247.23453 311.206571 
L 247.23453 311.206571 
L 242.454548 311.206571 
z
" clip-path="url(#p59e392994b)" style="fill: #9aa0a6; stroke: #ffffff; stroke-linejoin: miter"/>
   </g>
   <g id="patch_38">
    <path d="M 248.078056 311.206571 
L 252.858038 311.206571 
L 252.858038 308.750961 
L 248.078056 308.750961 
z
" clip-path="url(#p59e392994b)" style="fill: #9aa0a6; stroke: #ffffff; stroke-linejoin: miter"/>
   </g>
   <g id="patch_39">
    <path d="M 253.701564 311.206571 
L 258.481546 311.206571 
L 258.481546 308.750961 
L 253.701564 308.750961 
z
" clip-path="url(#p59e392994b)" style="fill: #9aa0a6; stroke: #ffffff; stroke-linejoin: miter"/>
   </g>
   <g id="patch_40">
    <path d="M 259.325072 311.206571 
L 264.105054 311.206571 
L 264.105054 311.206571 
L 259.325072 311.206571 
z
" clip-path="url(#p59e392994b)" style="fill: #9aa0a6; stroke: #ffffff; stroke-linejoin: miter"/>
   </g>
   <g id="patch_41">
    <path d="M 264.94858 311.206571 
L 269.728562 311.206571 
L 269.728562 311.206571 
L 264.94858 311.206571 
z
" clip-path="url(#p59e392994b)" style="fill: #9aa0a6; stroke: #ffffff; stroke-linejoin: miter"/>
   </g>
   <g id="patch_42">
    <path d="M 270.572088 311.206571 
L 275.35207 311.206571 
L 275.35207 311.206571 
L 270.572088 311.206571 
z
" clip-path="url(#p59e392994b)" style="fill: #9aa0a6; stroke: #ffffff; stroke-linejoin: miter"/>
   </g>
   <g id="patch_43">
    <path d="M 276.195597 311.206571 
L 280.975578 311.206571 
L 280.975578 311.206571 
L 276.195597 311.206571 
z
" clip-path="url(#p59e392994b)" style="fill: #9aa0a6; stroke: #ffffff; stroke-linejoin: miter"/>
   </g>
   <g id="patch_44">
    <path d="M 281.819105 311.206571 
L 286.599086 311.206571 
L 286.599086 308.750961 
L 281.819105 308.750961 
z
" clip-path="url(#p59e392994b)" style="fill: #9aa0a6; stroke: #ffffff; stroke-linejoin: miter"/>
   </g>
   <g id="patch_45">
    <path d="M 287.442613 311.206571 
L 292.222594 311.206571 
L 292.222594 311.206571 
L 287.442613 311.206571 
z
" clip-path="url(#p59e392994b)" style="fill: #9aa0a6; stroke: #ffffff; stroke-linejoin: miter"/>
   </g>
   <g id="patch_46">
    <path d="M 293.066121 311.206571 
L 297.846102 311.206571 
L 297.846102 308.750961 
L 293.066121 308.750961 
z
" clip-path="url(#p59e392994b)" style="fill: #9aa0a6; stroke: #ffffff; stroke-linejoin: miter"/>
   </g>
   <g id="patch_47">
    <path d="M 298.689629 311.206571 
L 303.469611 311.206571 
L 303.469611 306.295351 
L 298.689629 306.295351 
z
" clip-path="url(#p59e392994b)" style="fill: #9aa0a6; stroke: #ffffff; stroke-linejoin: miter"/>
   </g>
   <g id="patch_48">
    <path d="M 304.313137 311.206571 
L 309.093119 311.206571 
L 309.093119 306.295351 
L 304.313137 306.295351 
z
" clip-path="url(#p59e392994b)" style="fill: #9aa0a6; stroke: #ffffff; stroke-linejoin: miter"/>
   </g>
   <g id="patch_49">
    <path d="M 309.936645 311.206571 
L 314.716627 311.206571 
L 314.716627 308.750961 
L 309.936645 308.750961 
z
" clip-path="url(#p59e392994b)" style="fill: #9aa0a6; stroke: #ffffff; stroke-linejoin: miter"/>
   </g>
   <g id="patch_50">
    <path d="M 315.560153 311.206571 
L 320.340135 311.206571 
L 320.340135 308.750961 
L 315.560153 308.750961 
z
" clip-path="url(#p59e392994b)" style="fill: #9aa0a6; stroke: #ffffff; stroke-linejoin: miter"/>
   </g>
   <g id="patch_51">
    <path d="M 321.183661 311.206571 
L 325.963643 311.206571 
L 325.963643 303.839741 
L 321.183661 303.839741 
z
" clip-path="url(#p59e392994b)" style="fill: #9aa0a6; stroke: #ffffff; stroke-linejoin: miter"/>
   </g>
   <g id="patch_52">
    <path d="M 326.807169 311.206571 
L 331.587151 311.206571 
L 331.587151 308.750961 
L 326.807169 308.750961 
z
" clip-path="url(#p59e392994b)" style="fill: #9aa0a6; stroke: #ffffff; stroke-linejoin: miter"/>
   </g>
   <g id="patch_53">
    <path d="M 332.430677 311.206571 
L 337.210659 311.206571 
L 337.210659 301.384131 
L 332.430677 301.384131 
z
" clip-path="url(#p59e392994b)" style="fill: #9aa0a6; stroke: #ffffff; stroke-linejoin: miter"/>
   </g>
   <g id="patch_54">
    <path d="M 338.054185 311.206571 
L 342.834167 311.206571 
L 342.834167 306.295351 
L 338.054185 306.295351 
z
" clip-path="url(#p59e392994b)" style="fill: #9aa0a6; stroke: #ffffff; stroke-linejoin: miter"/>
   </g>
   <g id="patch_55">
    <path d="M 343.677693 311.206571 
L 348.457675 311.206571 
L 348.457675 308.750961 
L 343.677693 308.750961 
z
" clip-path="url(#p59e392994b)" style="fill: #9aa0a6; stroke: #ffffff; stroke-linejoin: miter"/>
   </g>
   <g id="patch_56">
    <path d="M 349.301201 311.206571 
L 354.081183 311.206571 
L 354.081183 298.928521 
L 349.301201 298.928521 
z
" clip-path="url(#p59e392994b)" style="fill: #9aa0a6; stroke: #ffffff; stroke-linejoin: miter"/>
   </g>
   <g id="patch_57">
    <path d="M 354.924709 311.206571 
L 359.704691 311.206571 
L 359.704691 298.928521 
L 354.924709 298.928521 
z
" clip-path="url(#p59e392994b)" style="fill: #9aa0a6; stroke: #ffffff; stroke-linejoin: miter"/>
   </g>
   <g id="patch_58">
    <path d="M 360.548217 311.206571 
L 365.328199 311.206571 
L 365.328199 284.194861 
L 360.548217 284.194861 
z
" clip-path="url(#p59e392994b)" style="fill: #9aa0a6; stroke: #ffffff; stroke-linejoin: miter"/>
   </g>
   <g id="patch_59">
    <path d="M 366.171725 311.206571 
L 370.951707 311.206571 
L 370.951707 296.472911 
L 366.171725 296.472911 
z
" clip-path="url(#p59e392994b)" style="fill: #9aa0a6; stroke: #ffffff; stroke-linejoin: miter"/>
   </g>
   <g id="patch_60">
    <path d="M 371.795233 311.206571 
L 376.575215 311.206571 
L 376.575215 289.106081 
L 371.795233 289.106081 
z
" clip-path="url(#p59e392994b)" style="fill: #9aa0a6; stroke: #ffffff; stroke-linejoin: miter"/>
   </g>
   <g id="patch_61">
    <path d="M 377.418741 311.206571 
L 382.198723 311.206571 
L 382.198723 279.283641 
L 377.418741 279.283641 
z
" clip-path="url(#p59e392994b)" style="fill: #9aa0a6; stroke: #ffffff; stroke-linejoin: miter"/>
   </g>
   <g id="patch_62">
    <path d="M 383.042249 311.206571 
L 387.822231 311.206571 
L 387.822231 289.106081 
L 383.042249 289.106081 
z
" clip-path="url(#p59e392994b)" style="fill: #9aa0a6; stroke: #ffffff; stroke-linejoin: miter"/>
   </g>
   <g id="patch_63">
    <path d="M 388.665757 311.206571 
L 393.445739 311.206571 
L 393.445739 262.094371 
L 388.665757 262.094371 
z
" clip-path="url(#p59e392994b)" style="fill: #9aa0a6; stroke: #ffffff; stroke-linejoin: miter"/>
   </g>
   <g id="patch_64">
    <path d="M 394.289265 311.206571 
L 399.069247 311.206571 
L 399.069247 269.461201 
L 394.289265 269.461201 
z
" clip-path="url(#p59e392994b)" style="fill: #9aa0a6; stroke: #ffffff; stroke-linejoin: miter"/>
   </g>
   <g id="patch_65">
    <path d="M 399.912773 311.206571 
L 404.692755 311.206571 
L 404.692755 269.461201 
L 399.912773 269.461201 
z
" clip-path="url(#p59e392994b)" style="fill: #9aa0a6; stroke: #ffffff; stroke-linejoin: miter"/>
   </g>
   <g id="patch_66">
    <path d="M 405.536281 311.206571 
L 410.316263 311.206571 
L 410.316263 249.816321 
L 405.536281 249.816321 
z
" clip-path="url(#p59e392994b)" style="fill: #9aa0a6; stroke: #ffffff; stroke-linejoin: miter"/>
   </g>
   <g id="patch_67">
    <path d="M 411.159789 311.206571 
L 415.939771 311.206571 
L 415.939771 254.727541 
L 411.159789 254.727541 
z
" clip-path="url(#p59e392994b)" style="fill: #9aa0a6; stroke: #ffffff; stroke-linejoin: miter"/>
   </g>
   <g id="patch_68">
    <path d="M 416.783298 311.206571 
L 421.563279 311.206571 
L 421.563279 242.449491 
L 416.783298 242.449491 
z
" clip-path="url(#p59e392994b)" style="fill: #9aa0a6; stroke: #ffffff; stroke-linejoin: miter"/>
   </g>
   <g id="patch_69">
    <path d="M 422.406806 311.206571 
L 427.186787 311.206571 
L 427.186787 166.325582 
L 422.406806 166.325582 
z
" clip-path="url(#p59e392994b)" style="fill: #9aa0a6; stroke: #ffffff; stroke-linejoin: miter"/>
   </g>
   <g id="patch_70">
    <path d="M 428.030314 311.206571 
L 432.810295 311.206571 
L 432.810295 208.070951 
L 428.030314 208.070951 
z
" clip-path="url(#p59e392994b)" style="fill: #9aa0a6; stroke: #ffffff; stroke-linejoin: miter"/>
   </g>
   <g id="patch_71">
    <path d="M 433.653822 311.206571 
L 438.433803 311.206571 
L 438.433803 215.437781 
L 433.653822 215.437781 
z
" clip-path="url(#p59e392994b)" style="fill: #9aa0a6; stroke: #ffffff; stroke-linejoin: miter"/>
   </g>
   <g id="patch_72">
    <path d="M 439.27733 311.206571 
L 444.057312 311.206571 
L 444.057312 185.970462 
L 439.27733 185.970462 
z
" clip-path="url(#p59e392994b)" style="fill: #9aa0a6; stroke: #ffffff; stroke-linejoin: miter"/>
   </g>
   <g id="patch_73">
    <path d="M 444.900838 311.206571 
L 449.68082 311.206571 
L 449.68082 144.225092 
L 444.900838 144.225092 
z
" clip-path="url(#p59e392994b)" style="fill: #9aa0a6; stroke: #ffffff; stroke-linejoin: miter"/>
   </g>
   <g id="patch_74">
    <path d="M 450.524346 311.206571 
L 455.304328 311.206571 
L 455.304328 154.047532 
L 450.524346 154.047532 
z
" clip-path="url(#p59e392994b)" style="fill: #9aa0a6; stroke: #ffffff; stroke-linejoin: miter"/>
   </g>
   <g id="patch_75">
    <path d="M 456.147854 311.206571 
L 460.927836 311.206571 
L 460.927836 131.947042 
L 456.147854 131.947042 
z
" clip-path="url(#p59e392994b)" style="fill: #9aa0a6; stroke: #ffffff; stroke-linejoin: miter"/>
   </g>
   <g id="patch_76">
    <path d="M 461.771362 311.206571 
L 466.551344 311.206571 
L 466.551344 82.834842 
L 461.771362 82.834842 
z
" clip-path="url(#p59e392994b)" style="fill: #9aa0a6; stroke: #ffffff; stroke-linejoin: miter"/>
   </g>
   <g id="patch_77">
    <path d="M 467.39487 311.206571 
L 472.174852 311.206571 
L 472.174852 114.757772 
L 467.39487 114.757772 
z
" clip-path="url(#p59e392994b)" style="fill: #9aa0a6; stroke: #ffffff; stroke-linejoin: miter"/>
   </g>
   <g id="patch_78">
    <path d="M 473.018378 311.206571 
L 477.79836 311.206571 
L 477.79836 85.290452 
L 473.018378 85.290452 
z
" clip-path="url(#p59e392994b)" style="fill: #9aa0a6; stroke: #ffffff; stroke-linejoin: miter"/>
   </g>
   <g id="patch_79">
    <path d="M 478.641886 311.206571 
L 483.421868 311.206571 
L 483.421868 102.479722 
L 478.641886 102.479722 
z
" clip-path="url(#p59e392994b)" style="fill: #9aa0a6; stroke: #ffffff; stroke-linejoin: miter"/>
   </g>
   <g id="patch_80">
    <path d="M 484.265394 311.206571 
L 489.045376 311.206571 
L 489.045376 92.657282 
L 484.265394 92.657282 
z
" clip-path="url(#p59e392994b)" style="fill: #9aa0a6; stroke: #ffffff; stroke-linejoin: miter"/>
   </g>
   <g id="patch_81">
    <path d="M 489.888902 311.206571 
L 494.668884 311.206571 
L 494.668884 75.468012 
L 489.888902 75.468012 
z
" clip-path="url(#p59e392994b)" style="fill: #9aa0a6; stroke: #ffffff; stroke-linejoin: miter"/>
   </g>
   <g id="patch_82">
    <path d="M 495.51241 311.206571 
L 500.292392 311.206571 
L 500.292392 43.545083 
L 495.51241 43.545083 
z
" clip-path="url(#p59e392994b)" style="fill: #9aa0a6; stroke: #ffffff; stroke-linejoin: miter"/>
   </g>
   <g id="patch_83">
    <path d="M 501.135918 311.206571 
L 505.9159 311.206571 
L 505.9159 73.012402 
L 501.135918 73.012402 
z
" clip-path="url(#p59e392994b)" style="fill: #9aa0a6; stroke: #ffffff; stroke-linejoin: miter"/>
   </g>
   <g id="patch_84">
    <path d="M 506.759426 311.206571 
L 511.539408 311.206571 
L 511.539408 129.491432 
L 506.759426 129.491432 
z
" clip-path="url(#p59e392994b)" style="fill: #9aa0a6; stroke: #ffffff; stroke-linejoin: miter"/>
   </g>
   <g id="patch_85">
    <path d="M 512.382934 311.206571 
L 517.162916 311.206571 
L 517.162916 112.302162 
L 512.382934 112.302162 
z
" clip-path="url(#p59e392994b)" style="fill: #8b0000; stroke: #ffffff; stroke-linejoin: miter"/>
   </g>
   <g id="patch_86">
    <path d="M 518.006442 311.206571 
L 522.786424 311.206571 
L 522.786424 190.881681 
L 518.006442 190.881681 
z
" clip-path="url(#p59e392994b)" style="fill: #2f6ca3; stroke: #ffffff; stroke-linejoin: miter"/>
   </g>
   <g id="patch_87">
    <path d="M 523.62995 311.206571 
L 528.409932 311.206571 
L 528.409932 227.715831 
L 523.62995 227.715831 
z
" clip-path="url(#p59e392994b)" style="fill: #2f6ca3; stroke: #ffffff; stroke-linejoin: miter"/>
   </g>
   <g id="patch_88">
    <path d="M 529.253458 311.206571 
L 534.03344 311.206571 
L 534.03344 259.638761 
L 529.253458 259.638761 
z
" clip-path="url(#p59e392994b)" style="fill: #2f6ca3; stroke: #ffffff; stroke-linejoin: miter"/>
   </g>
   <g id="patch_89">
    <path d="M 534.876966 311.206571 
L 539.656948 311.206571 
L 539.656948 274.372421 
L 534.876966 274.372421 
z
" clip-path="url(#p59e392994b)" style="fill: #2f6ca3; stroke: #ffffff; stroke-linejoin: miter"/>
   </g>
   <g id="patch_90">
    <path d="M 540.500474 311.206571 
L 545.280456 311.206571 
L 545.280456 259.638761 
L 540.500474 259.638761 
z
" clip-path="url(#p59e392994b)" style="fill: #2f6ca3; stroke: #ffffff; stroke-linejoin: miter"/>
   </g>
   <g id="patch_91">
    <path d="M 546.123982 311.206571 
L 550.903964 311.206571 
L 550.903964 271.916811 
L 546.123982 271.916811 
z
" clip-path="url(#p59e392994b)" style="fill: #2f6ca3; stroke: #ffffff; stroke-linejoin: miter"/>
   </g>
   <g id="patch_92">
    <path d="M 551.74749 311.206571 
L 556.527472 311.206571 
L 556.527472 294.017301 
L 551.74749 294.017301 
z
" clip-path="url(#p59e392994b)" style="fill: #2f6ca3; stroke: #ffffff; stroke-linejoin: miter"/>
   </g>
   <g id="patch_93">
    <path d="M 557.370999 311.206571 
L 562.15098 311.206571 
L 562.15098 296.472911 
L 557.370999 296.472911 
z
" clip-path="url(#p59e392994b)" style="fill: #2f6ca3; stroke: #ffffff; stroke-linejoin: miter"/>
   </g>
   <g id="patch_94">
    <path d="M 562.994507 311.206571 
L 567.774488 311.206571 
L 567.774488 301.384131 
L 562.994507 301.384131 
z
" clip-path="url(#p59e392994b)" style="fill: #2f6ca3; stroke: #ffffff; stroke-linejoin: miter"/>
   </g>
   <g id="patch_95">
    <path d="M 568.618015 311.206571 
L 573.397996 311.206571 
L 573.397996 298.928521 
L 568.618015 298.928521 
z
" clip-path="url(#p59e392994b)" style="fill: #2f6ca3; stroke: #ffffff; stroke-linejoin: miter"/>
   </g>
   <g id="patch_96">
    <path d="M 574.241523 311.206571 
L 579.021504 311.206571 
L 579.021504 301.384131 
L 574.241523 301.384131 
z
" clip-path="url(#p59e392994b)" style="fill: #2f6ca3; stroke: #ffffff; stroke-linejoin: miter"/>
   </g>
   <g id="patch_97">
    <path d="M 579.865031 311.206571 
L 584.645013 311.206571 
L 584.645013 308.750961 
L 579.865031 308.750961 
z
" clip-path="url(#p59e392994b)" style="fill: #2f6ca3; stroke: #ffffff; stroke-linejoin: miter"/>
   </g>
   <g id="patch_98">
    <path d="M 585.488539 311.206571 
L 590.268521 311.206571 
L 590.268521 311.206571 
L 585.488539 311.206571 
z
" clip-path="url(#p59e392994b)" style="fill: #2f6ca3; stroke: #ffffff; stroke-linejoin: miter"/>
   </g>
   <g id="patch_99">
    <path d="M 591.112047 311.206571 
L 595.892029 311.206571 
L 595.892029 308.750961 
L 591.112047 308.750961 
z
" clip-path="url(#p59e392994b)" style="fill: #2f6ca3; stroke: #ffffff; stroke-linejoin: miter"/>
   </g>
   <g id="patch_100">
    <path d="M 596.735555 311.206571 
L 601.515537 311.206571 
L 601.515537 311.206571 
L 596.735555 311.206571 
z
" clip-path="url(#p59e392994b)" style="fill: #2f6ca3; stroke: #ffffff; stroke-linejoin: miter"/>
   </g>
   <g id="patch_101">
    <path d="M 602.359063 311.206571 
L 607.139045 311.206571 
L 607.139045 311.206571 
L 602.359063 311.206571 
z
" clip-path="url(#p59e392994b)" style="fill: #2f6ca3; stroke: #ffffff; stroke-linejoin: miter"/>
   </g>
   <g id="patch_102">
    <path d="M 607.982571 311.206571 
L 612.762553 311.206571 
L 612.762553 311.206571 
L 607.982571 311.206571 
z
" clip-path="url(#p59e392994b)" style="fill: #2f6ca3; stroke: #ffffff; stroke-linejoin: miter"/>
   </g>
   <g id="patch_103">
    <path d="M 613.606079 311.206571 
L 618.386061 311.206571 
L 618.386061 311.206571 
L 613.606079 311.206571 
z
" clip-path="url(#p59e392994b)" style="fill: #2f6ca3; stroke: #ffffff; stroke-linejoin: miter"/>
   </g>
   <g id="patch_104">
    <path d="M 619.229587 311.206571 
L 624.009569 311.206571 
L 624.009569 308.750961 
L 619.229587 308.750961 
z
" clip-path="url(#p59e392994b)" style="fill: #2f6ca3; stroke: #ffffff; stroke-linejoin: miter"/>
   </g>
   <g id="line2d_24">
    <path d="M 514.772925 311.206571 
L 514.772925 44.214236 
" clip-path="url(#p59e392994b)" style="fill: none; stroke-dasharray: 5.55,2.4; stroke-dashoffset: 0; stroke: #8b0000; stroke-width: 1.5"/>
   </g>
   <g id="patch_105">
    <path d="M 48.021758 311.206571 
L 48.021758 30.162008 
" style="fill: none; stroke: #262626; stroke-width: 0.8; stroke-linejoin: miter; stroke-linecap: square"/>
   </g>
   <g id="patch_106">
    <path d="M 627.243086 311.206571 
L 627.243086 30.162008 
" style="fill: none; stroke: #262626; stroke-width: 0.8; stroke-linejoin: miter; stroke-linecap: square"/>
   </g>
   <g id="patch_107">
    <path d="M 48.021758 311.206571 
L 627.243086 311.206571 
" style="fill: none; stroke: #262626; stroke-width: 0.8; stroke-linejoin: miter; stroke-linecap: square"/>
   </g>
   <g id="patch_108">
    <path d="M 48.021758 30.162008 
L 627.243086 30.162008 
" style="fill: none; stroke: #262626; stroke-width: 0.8; stroke-linejoin: miter; stroke-linecap: square"/>
   </g>
   <g id="text_20">
    <g id="patch_109">
     <path d="M 55.606184 91.749588 
L 132.273372 91.749588 
L 132.273372 40.214236 
L 55.606184 40.214236 
z
" style="fill: #ffffff; opacity: 0.85"/>
    </g>
    <!-- n=1,688 -->
    <g style="fill: #262626" transform="translate(59.606184 52.244021) scale(0.1 -0.1)">
     <defs>
      <path id="ArialMT-20" d="M 3381 2694 
L 356 2694 
L 356 3219 
L 3381 3219 
L 3381 2694 
z
M 3381 1303 
L 356 1303 
L 356 1828 
L 3381 1828 
L 3381 1303 
z
" transform="scale(0.015625)"/>
      <path id="ArialMT-f" d="M 569 0 
L 569 641 
L 1209 641 
L 1209 0 
Q 1209 -353 1084 -570 
Q 959 -788 688 -906 
L 531 -666 
Q 709 -588 793 -436 
Q 878 -284 888 0 
L 569 0 
z
" transform="scale(0.015625)"/>
     </defs>
     <use xlink:href="#ArialMT-51"/>
     <use xlink:href="#ArialMT-20" transform="translate(55.609375 0)"/>
     <use xlink:href="#ArialMT-14" transform="translate(114.015625 0)"/>
     <use xlink:href="#ArialMT-f" transform="translate(169.625 0)"/>
     <use xlink:href="#ArialMT-19" transform="translate(197.40625 0)"/>
     <use xlink:href="#ArialMT-1b" transform="translate(253.015625 0)"/>
     <use xlink:href="#ArialMT-1b" transform="translate(308.625 0)"/>
    </g>
    <!-- negative=1,422 -->
    <g style="fill: #262626" transform="translate(59.606184 63.12781) scale(0.1 -0.1)">
     <use xlink:href="#ArialMT-51"/>
     <use xlink:href="#ArialMT-48" transform="translate(55.609375 0)"/>
     <use xlink:href="#ArialMT-4a" transform="translate(111.21875 0)"/>
     <use xlink:href="#ArialMT-44" transform="translate(166.828125 0)"/>
     <use xlink:href="#ArialMT-57" transform="translate(222.4375 0)"/>
     <use xlink:href="#ArialMT-4c" transform="translate(250.21875 0)"/>
     <use xlink:href="#ArialMT-59" transform="translate(272.4375 0)"/>
     <use xlink:href="#ArialMT-48" transform="translate(322.4375 0)"/>
     <use xlink:href="#ArialMT-20" transform="translate(378.046875 0)"/>
     <use xlink:href="#ArialMT-14" transform="translate(436.453125 0)"/>
     <use xlink:href="#ArialMT-f" transform="translate(492.0625 0)"/>
     <use xlink:href="#ArialMT-17" transform="translate(519.84375 0)"/>
     <use xlink:href="#ArialMT-15" transform="translate(575.453125 0)"/>
     <use xlink:href="#ArialMT-15" transform="translate(631.0625 0)"/>
    </g>
    <!-- zero=81 -->
    <g style="fill: #262626" transform="translate(59.606184 74.011795) scale(0.1 -0.1)">
     <defs>
      <path id="ArialMT-5d" d="M 125 0 
L 125 456 
L 2238 2881 
Q 1878 2863 1603 2863 
L 250 2863 
L 250 3319 
L 2963 3319 
L 2963 2947 
L 1166 841 
L 819 456 
Q 1197 484 1528 484 
L 3063 484 
L 3063 0 
L 125 0 
z
" transform="scale(0.015625)"/>
     </defs>
     <use xlink:href="#ArialMT-5d"/>
     <use xlink:href="#ArialMT-48" transform="translate(50 0)"/>
     <use xlink:href="#ArialMT-55" transform="translate(105.609375 0)"/>
     <use xlink:href="#ArialMT-52" transform="translate(138.90625 0)"/>
     <use xlink:href="#ArialMT-20" transform="translate(194.515625 0)"/>
     <use xlink:href="#ArialMT-1b" transform="translate(252.921875 0)"/>
     <use xlink:href="#ArialMT-14" transform="translate(308.53125 0)"/>
    </g>
    <!-- positive=185 -->
    <g style="fill: #262626" transform="translate(59.606184 84.895584) scale(0.1 -0.1)">
     <use xlink:href="#ArialMT-53"/>
     <use xlink:href="#ArialMT-52" transform="translate(55.609375 0)"/>
     <use xlink:href="#ArialMT-56" transform="translate(111.21875 0)"/>
     <use xlink:href="#ArialMT-4c" transform="translate(161.21875 0)"/>
     <use xlink:href="#ArialMT-57" transform="translate(183.4375 0)"/>
     <use xlink:href="#ArialMT-4c" transform="translate(211.21875 0)"/>
     <use xlink:href="#ArialMT-59" transform="translate(233.4375 0)"/>
     <use xlink:href="#ArialMT-48" transform="translate(283.4375 0)"/>
     <use xlink:href="#ArialMT-20" transform="translate(339.046875 0)"/>
     <use xlink:href="#ArialMT-14" transform="translate(397.453125 0)"/>
     <use xlink:href="#ArialMT-1b" transform="translate(453.0625 0)"/>
     <use xlink:href="#ArialMT-18" transform="translate(508.671875 0)"/>
    </g>
   </g>
   <g id="legend_1">
    <g id="patch_110">
     <path d="M 181.797422 17.357344 
L 199.797422 17.357344 
L 199.797422 11.057344 
L 181.797422 11.057344 
z
" style="fill: #9aa0a6; stroke: #ffffff; stroke-linejoin: miter"/>
    </g>
    <g id="text_21">
     <!-- Other evidence first -->
     <g style="fill: #262626" transform="translate(206.997422 17.357344) scale(0.09 -0.09)">
      <defs>
       <path id="ArialMT-32" d="M 309 2231 
Q 309 3372 921 4017 
Q 1534 4663 2503 4663 
Q 3138 4663 3647 4359 
Q 4156 4056 4423 3514 
Q 4691 2972 4691 2284 
Q 4691 1588 4409 1038 
Q 4128 488 3612 205 
Q 3097 -78 2500 -78 
Q 1853 -78 1343 234 
Q 834 547 571 1087 
Q 309 1628 309 2231 
z
M 934 2222 
Q 934 1394 1379 917 
Q 1825 441 2497 441 
Q 3181 441 3623 922 
Q 4066 1403 4066 2288 
Q 4066 2847 3877 3264 
Q 3688 3681 3323 3911 
Q 2959 4141 2506 4141 
Q 1863 4141 1398 3698 
Q 934 3256 934 2222 
z
" transform="scale(0.015625)"/>
      </defs>
      <use xlink:href="#ArialMT-32"/>
      <use xlink:href="#ArialMT-57" transform="translate(77.78125 0)"/>
      <use xlink:href="#ArialMT-4b" transform="translate(105.5625 0)"/>
      <use xlink:href="#ArialMT-48" transform="translate(161.171875 0)"/>
      <use xlink:href="#ArialMT-55" transform="translate(216.78125 0)"/>
      <use xlink:href="#ArialMT-3" transform="translate(250.078125 0)"/>
      <use xlink:href="#ArialMT-48" transform="translate(277.859375 0)"/>
      <use xlink:href="#ArialMT-59" transform="translate(333.46875 0)"/>
      <use xlink:href="#ArialMT-4c" transform="translate(383.46875 0)"/>
      <use xlink:href="#ArialMT-47" transform="translate(405.6875 0)"/>
      <use xlink:href="#ArialMT-48" transform="translate(461.296875 0)"/>
      <use xlink:href="#ArialMT-51" transform="translate(516.90625 0)"/>
      <use xlink:href="#ArialMT-46" transform="translate(572.515625 0)"/>
      <use xlink:href="#ArialMT-48" transform="translate(622.515625 0)"/>
      <use xlink:href="#ArialMT-3" transform="translate(678.125 0)"/>
      <use xlink:href="#ArialMT-49" transform="translate(705.90625 0)"/>
      <use xlink:href="#ArialMT-4c" transform="translate(733.6875 0)"/>
      <use xlink:href="#ArialMT-55" transform="translate(755.90625 0)"/>
      <use xlink:href="#ArialMT-56" transform="translate(789.203125 0)"/>
      <use xlink:href="#ArialMT-57" transform="translate(839.203125 0)"/>
     </g>
    </g>
    <g id="patch_111">
     <path d="M 303.026016 17.357344 
L 321.026016 17.357344 
L 321.026016 11.057344 
L 303.026016 11.057344 
z
" style="fill: #8b0000; stroke: #ffffff; stroke-linejoin: miter"/>
    </g>
    <g id="text_22">
     <!-- Same year -->
     <g style="fill: #262626" transform="translate(328.226016 17.357344) scale(0.09 -0.09)">
      <defs>
       <path id="ArialMT-36" d="M 288 1472 
L 859 1522 
Q 900 1178 1048 958 
Q 1197 738 1509 602 
Q 1822 466 2213 466 
Q 2559 466 2825 569 
Q 3091 672 3220 851 
Q 3350 1031 3350 1244 
Q 3350 1459 3225 1620 
Q 3100 1781 2813 1891 
Q 2628 1963 1997 2114 
Q 1366 2266 1113 2400 
Q 784 2572 623 2826 
Q 463 3081 463 3397 
Q 463 3744 659 4045 
Q 856 4347 1234 4503 
Q 1613 4659 2075 4659 
Q 2584 4659 2973 4495 
Q 3363 4331 3572 4012 
Q 3781 3694 3797 3291 
L 3216 3247 
Q 3169 3681 2898 3903 
Q 2628 4125 2100 4125 
Q 1550 4125 1298 3923 
Q 1047 3722 1047 3438 
Q 1047 3191 1225 3031 
Q 1400 2872 2139 2705 
Q 2878 2538 3153 2413 
Q 3553 2228 3743 1945 
Q 3934 1663 3934 1294 
Q 3934 928 3725 604 
Q 3516 281 3123 101 
Q 2731 -78 2241 -78 
Q 1619 -78 1198 103 
Q 778 284 539 648 
Q 300 1013 288 1472 
z
" transform="scale(0.015625)"/>
       <path id="ArialMT-50" d="M 422 0 
L 422 3319 
L 925 3319 
L 925 2853 
Q 1081 3097 1340 3245 
Q 1600 3394 1931 3394 
Q 2300 3394 2536 3241 
Q 2772 3088 2869 2813 
Q 3263 3394 3894 3394 
Q 4388 3394 4653 3120 
Q 4919 2847 4919 2278 
L 4919 0 
L 4359 0 
L 4359 2091 
Q 4359 2428 4304 2576 
Q 4250 2725 4106 2815 
Q 3963 2906 3769 2906 
Q 3419 2906 3187 2673 
Q 2956 2441 2956 1928 
L 2956 0 
L 2394 0 
L 2394 2156 
Q 2394 2531 2256 2718 
Q 2119 2906 1806 2906 
Q 1569 2906 1367 2781 
Q 1166 2656 1075 2415 
Q 984 2175 984 1722 
L 984 0 
L 422 0 
z
" transform="scale(0.015625)"/>
      </defs>
      <use xlink:href="#ArialMT-36"/>
      <use xlink:href="#ArialMT-44" transform="translate(66.703125 0)"/>
      <use xlink:href="#ArialMT-50" transform="translate(122.3125 0)"/>
      <use xlink:href="#ArialMT-48" transform="translate(205.609375 0)"/>
      <use xlink:href="#ArialMT-3" transform="translate(261.21875 0)"/>
      <use xlink:href="#ArialMT-5c" transform="translate(289 0)"/>
      <use xlink:href="#ArialMT-48" transform="translate(339 0)"/>
      <use xlink:href="#ArialMT-44" transform="translate(394.609375 0)"/>
      <use xlink:href="#ArialMT-55" transform="translate(450.21875 0)"/>
     </g>
    </g>
    <g id="patch_112">
     <path d="M 389.742422 17.357344 
L 407.742422 17.357344 
L 407.742422 11.057344 
L 389.742422 11.057344 
z
" style="fill: #2f6ca3; stroke: #ffffff; stroke-linejoin: miter"/>
    </g>
    <g id="text_23">
     <!-- Probe literature first -->
     <g style="fill: #262626" transform="translate(414.942422 17.357344) scale(0.09 -0.09)">
      <defs>
       <path id="ArialMT-33" d="M 494 0 
L 494 4581 
L 2222 4581 
Q 2678 4581 2919 4538 
Q 3256 4481 3484 4323 
Q 3713 4166 3852 3881 
Q 3991 3597 3991 3256 
Q 3991 2672 3619 2267 
Q 3247 1863 2275 1863 
L 1100 1863 
L 1100 0 
L 494 0 
z
M 1100 2403 
L 2284 2403 
Q 2872 2403 3119 2622 
Q 3366 2841 3366 3238 
Q 3366 3525 3220 3729 
Q 3075 3934 2838 4000 
Q 2684 4041 2272 4041 
L 1100 4041 
L 1100 2403 
z
" transform="scale(0.015625)"/>
      </defs>
      <use xlink:href="#ArialMT-33"/>
      <use xlink:href="#ArialMT-55" transform="translate(66.703125 0)"/>
      <use xlink:href="#ArialMT-52" transform="translate(100 0)"/>
      <use xlink:href="#ArialMT-45" transform="translate(155.609375 0)"/>
      <use xlink:href="#ArialMT-48" transform="translate(211.21875 0)"/>
      <use xlink:href="#ArialMT-3" transform="translate(266.828125 0)"/>
      <use xlink:href="#ArialMT-4f" transform="translate(294.609375 0)"/>
      <use xlink:href="#ArialMT-4c" transform="translate(316.828125 0)"/>
      <use xlink:href="#ArialMT-57" transform="translate(339.046875 0)"/>
      <use xlink:href="#ArialMT-48" transform="translate(366.828125 0)"/>
      <use xlink:href="#ArialMT-55" transform="translate(422.4375 0)"/>
      <use xlink:href="#ArialMT-44" transform="translate(455.734375 0)"/>
      <use xlink:href="#ArialMT-57" transform="translate(511.34375 0)"/>
      <use xlink:href="#ArialMT-58" transform="translate(539.125 0)"/>
      <use xlink:href="#ArialMT-55" transform="translate(594.734375 0)"/>
      <use xlink:href="#ArialMT-48" transform="translate(628.03125 0)"/>
      <use xlink:href="#ArialMT-3" transform="translate(683.640625 0)"/>
      <use xlink:href="#ArialMT-49" transform="translate(711.421875 0)"/>
      <use xlink:href="#ArialMT-4c" transform="translate(739.203125 0)"/>
      <use xlink:href="#ArialMT-55" transform="translate(761.421875 0)"/>
      <use xlink:href="#ArialMT-56" transform="translate(794.71875 0)"/>
      <use xlink:href="#ArialMT-57" transform="translate(844.71875 0)"/>
     </g>
    </g>
   </g>
  </g>
 </g>
 <defs>
  <clipPath id="p59e392994b">
   <rect x="48.021758" y="30.162008" width="579.221328" height="281.044562"/>
  </clipPath>
 </defs>
</svg>
